<svg xmlns="http://www.w3.org/2000/svg" width="980" height="520" viewBox="0 0 980 520">
<rect width="100%" height="100%" fill="#ffffff"/>
<text x="70" y="34" font-family="Arial" font-size="24" font-weight="700" fill="#111827">Average Reward: 10 arms</text>
<line x1="70" y1="450" x2="910" y2="450" stroke="#111827" stroke-width="1"/>
<line x1="70" y1="70" x2="70" y2="450" stroke="#111827" stroke-width="1"/>
<text x="18" y="260.0" font-family="Arial" font-size="14" fill="#374151" transform="rotate(-90 18,260.0)">Average reward</text>
<text x="460.0" y="502" font-family="Arial" font-size="14" fill="#374151">Step</text>
<line x1="65" y1="450.0" x2="910" y2="450.0" stroke="#e5e7eb" stroke-width="1"/>
<text x="8" y="455.0" font-family="Arial" font-size="12" fill="#4b5563">-0.30</text>
<line x1="65" y1="374.0" x2="910" y2="374.0" stroke="#e5e7eb" stroke-width="1"/>
<text x="8" y="379.0" font-family="Arial" font-size="12" fill="#4b5563">0.08</text>
<line x1="65" y1="298.0" x2="910" y2="298.0" stroke="#e5e7eb" stroke-width="1"/>
<text x="8" y="303.0" font-family="Arial" font-size="12" fill="#4b5563">0.46</text>
<line x1="65" y1="222.0" x2="910" y2="222.0" stroke="#e5e7eb" stroke-width="1"/>
<text x="8" y="227.0" font-family="Arial" font-size="12" fill="#4b5563">0.84</text>
<line x1="65" y1="146.0" x2="910" y2="146.0" stroke="#e5e7eb" stroke-width="1"/>
<text x="8" y="151.0" font-family="Arial" font-size="12" fill="#4b5563">1.22</text>
<line x1="65" y1="70.0" x2="910" y2="70.0" stroke="#e5e7eb" stroke-width="1"/>
<text x="8" y="75.0" font-family="Arial" font-size="12" fill="#4b5563">1.60</text>
<polyline fill="none" stroke="#2563eb" stroke-width="2.2" points="70.0,380.9 70.8,375.5 71.7,393.7 72.5,383.0 73.4,418.4 74.2,379.1 75.0,379.9 75.9,413.6 76.7,392.4 77.6,399.3 78.4,398.5 79.2,384.7 80.1,386.2 80.9,399.3 81.8,404.0 82.6,382.9 83.5,394.7 84.3,401.9 85.1,393.9 86.0,393.8 86.8,391.5 87.7,380.6 88.5,394.5 89.3,405.4 90.2,381.2 91.0,406.8 91.9,370.6 92.7,389.2 93.5,381.3 94.4,403.8 95.2,415.4 96.1,409.8 96.9,381.5 97.7,382.4 98.6,400.8 99.4,384.9 100.3,379.4 101.1,407.9 102.0,374.7 102.8,388.0 103.6,398.5 104.5,374.0 105.3,387.6 106.2,372.3 107.0,381.7 107.8,373.8 108.7,384.1 109.5,384.1 110.4,393.5 111.2,367.9 112.0,390.0 112.9,399.3 113.7,379.4 114.6,413.0 115.4,391.7 116.2,401.1 117.1,405.9 117.9,409.9 118.8,401.8 119.6,389.5 120.5,394.5 121.3,372.3 122.1,379.7 123.0,398.8 123.8,384.5 124.7,404.7 125.5,374.1 126.3,407.8 127.2,389.9 128.0,389.8 128.9,392.3 129.7,375.8 130.5,374.4 131.4,377.2 132.2,397.0 133.1,386.0 133.9,403.5 134.7,383.4 135.6,368.8 136.4,382.2 137.3,402.2 138.1,401.7 138.9,405.8 139.8,379.7 140.6,385.9 141.5,390.2 142.3,375.4 143.2,392.4 144.0,415.3 144.8,404.7 145.7,390.6 146.5,383.8 147.4,365.6 148.2,380.2 149.0,375.1 149.9,399.2 150.7,392.4 151.6,404.1 152.4,387.4 153.2,381.0 154.1,388.9 154.9,396.8 155.8,381.0 156.6,405.6 157.4,394.5 158.3,382.0 159.1,391.1 160.0,390.9 160.8,383.6 161.7,419.3 162.5,383.4 163.3,386.2 164.2,404.5 165.0,394.6 165.9,396.2 166.7,391.2 167.5,384.0 168.4,409.7 169.2,390.6 170.1,401.7 170.9,351.7 171.7,380.3 172.6,389.7 173.4,405.6 174.3,398.7 175.1,396.8 175.9,379.3 176.8,380.2 177.6,372.5 178.5,385.8 179.3,394.7 180.2,398.6 181.0,395.2 181.8,392.6 182.7,395.5 183.5,391.5 184.4,382.5 185.2,401.6 186.0,373.7 186.9,377.0 187.7,389.6 188.6,401.1 189.4,409.3 190.2,391.2 191.1,386.8 191.9,416.0 192.8,388.1 193.6,378.3 194.4,388.7 195.3,384.0 196.1,377.9 197.0,394.9 197.8,411.3 198.6,394.2 199.5,380.8 200.3,401.0 201.2,407.0 202.0,404.4 202.9,398.0 203.7,388.6 204.5,376.2 205.4,384.5 206.2,394.0 207.1,378.5 207.9,407.4 208.7,375.7 209.6,401.5 210.4,371.7 211.3,381.6 212.1,405.1 212.9,381.1 213.8,388.7 214.6,416.6 215.5,394.4 216.3,405.8 217.1,403.1 218.0,383.8 218.8,399.8 219.7,395.7 220.5,396.1 221.4,394.6 222.2,400.8 223.0,374.4 223.9,397.1 224.7,393.4 225.6,400.8 226.4,414.3 227.2,384.6 228.1,370.7 228.9,373.4 229.8,390.7 230.6,380.6 231.4,394.9 232.3,381.8 233.1,394.0 234.0,413.7 234.8,385.0 235.6,379.2 236.5,372.7 237.3,373.4 238.2,390.0 239.0,402.3 239.8,410.1 240.7,376.8 241.5,394.3 242.4,399.5 243.2,376.2 244.1,384.2 244.9,367.4 245.7,402.0 246.6,390.8 247.4,392.1 248.3,396.0 249.1,372.4 249.9,372.2 250.8,378.1 251.6,383.3 252.5,386.2 253.3,388.8 254.1,377.6 255.0,383.7 255.8,395.1 256.7,364.7 257.5,381.6 258.3,393.3 259.2,401.6 260.0,382.5 260.9,411.2 261.7,396.4 262.6,399.6 263.4,401.8 264.2,375.5 265.1,388.3 265.9,412.6 266.8,387.2 267.6,396.8 268.4,358.9 269.3,390.3 270.1,398.6 271.0,396.6 271.8,410.3 272.6,401.3 273.5,364.7 274.3,380.6 275.2,388.9 276.0,393.0 276.8,410.3 277.7,381.6 278.5,379.2 279.4,408.0 280.2,394.5 281.1,373.4 281.9,398.3 282.7,386.7 283.6,383.6 284.4,403.1 285.3,385.9 286.1,399.5 286.9,370.4 287.8,387.3 288.6,402.6 289.5,415.9 290.3,381.1 291.1,411.8 292.0,386.2 292.8,384.0 293.7,401.5 294.5,377.4 295.3,380.4 296.2,398.5 297.0,367.9 297.9,387.8 298.7,390.6 299.5,397.9 300.4,385.8 301.2,398.4 302.1,373.1 302.9,376.3 303.8,391.4 304.6,400.3 305.4,392.1 306.3,379.2 307.1,387.7 308.0,387.0 308.8,391.8 309.6,359.9 310.5,374.3 311.3,409.9 312.2,402.7 313.0,383.8 313.8,397.4 314.7,405.9 315.5,395.1 316.4,393.4 317.2,389.9 318.0,382.8 318.9,397.6 319.7,394.2 320.6,417.4 321.4,399.6 322.3,374.8 323.1,380.1 323.9,397.7 324.8,363.8 325.6,408.9 326.5,372.5 327.3,391.8 328.1,385.6 329.0,403.0 329.8,401.2 330.7,400.8 331.5,411.9 332.3,396.4 333.2,377.6 334.0,407.0 334.9,391.7 335.7,406.5 336.5,371.4 337.4,395.5 338.2,394.8 339.1,390.2 339.9,393.0 340.8,365.5 341.6,411.9 342.4,391.4 343.3,383.8 344.1,401.4 345.0,402.2 345.8,386.4 346.6,386.4 347.5,395.3 348.3,382.8 349.2,394.8 350.0,413.4 350.8,394.5 351.7,413.2 352.5,390.4 353.4,399.5 354.2,385.3 355.0,377.9 355.9,407.4 356.7,421.3 357.6,386.6 358.4,383.0 359.2,418.6 360.1,392.4 360.9,402.8 361.8,380.6 362.6,413.1 363.5,383.9 364.3,373.2 365.1,384.1 366.0,392.6 366.8,407.3 367.7,406.9 368.5,382.5 369.3,396.9 370.2,397.2 371.0,393.5 371.9,385.0 372.7,407.0 373.5,403.0 374.4,384.2 375.2,383.8 376.1,407.1 376.9,385.5 377.7,388.8 378.6,399.7 379.4,411.1 380.3,379.9 381.1,376.7 382.0,395.3 382.8,387.1 383.6,374.5 384.5,408.4 385.3,371.5 386.2,404.9 387.0,380.9 387.8,393.8 388.7,405.0 389.5,396.7 390.4,387.4 391.2,413.8 392.0,412.9 392.9,403.1 393.7,395.6 394.6,384.2 395.4,390.6 396.2,398.9 397.1,403.5 397.9,394.2 398.8,392.2 399.6,383.6 400.5,387.6 401.3,384.0 402.1,395.4 403.0,388.8 403.8,396.1 404.7,386.8 405.5,378.5 406.3,392.0 407.2,400.6 408.0,411.1 408.9,377.3 409.7,370.4 410.5,391.9 411.4,391.8 412.2,387.6 413.1,379.4 413.9,394.9 414.7,415.1 415.6,372.1 416.4,375.0 417.3,408.9 418.1,385.3 418.9,382.5 419.8,394.1 420.6,374.6 421.5,384.6 422.3,376.0 423.2,359.8 424.0,395.0 424.8,377.6 425.7,423.3 426.5,415.4 427.4,368.5 428.2,405.7 429.0,344.2 429.9,389.4 430.7,396.8 431.6,403.8 432.4,383.3 433.2,388.5 434.1,387.0 434.9,412.5 435.8,405.0 436.6,382.7 437.4,427.4 438.3,379.4 439.1,428.5 440.0,382.1 440.8,420.7 441.7,402.5 442.5,388.6 443.3,375.6 444.2,394.0 445.0,392.5 445.9,394.8 446.7,393.4 447.5,388.8 448.4,408.6 449.2,388.2 450.1,382.9 450.9,409.4 451.7,379.5 452.6,403.8 453.4,390.7 454.3,383.4 455.1,398.8 455.9,397.2 456.8,411.8 457.6,396.6 458.5,395.5 459.3,366.9 460.2,421.2 461.0,397.9 461.8,404.7 462.7,359.1 463.5,389.6 464.4,374.1 465.2,392.2 466.0,383.7 466.9,363.2 467.7,378.5 468.6,361.7 469.4,405.9 470.2,409.8 471.1,403.3 471.9,395.7 472.8,416.7 473.6,398.1 474.4,400.4 475.3,396.7 476.1,378.9 477.0,425.4 477.8,386.8 478.6,385.2 479.5,392.2 480.3,380.0 481.2,398.0 482.0,417.9 482.9,385.3 483.7,379.1 484.5,415.4 485.4,396.5 486.2,402.4 487.1,384.6 487.9,416.3 488.7,396.9 489.6,394.2 490.4,410.3 491.3,390.9 492.1,390.6 492.9,388.4 493.8,402.5 494.6,401.4 495.5,390.2 496.3,407.5 497.1,389.3 498.0,388.4 498.8,402.3 499.7,399.5 500.5,390.2 501.4,408.4 502.2,397.8 503.0,371.5 503.9,425.2 504.7,389.8 505.6,401.7 506.4,389.0 507.2,399.5 508.1,390.4 508.9,387.8 509.8,395.1 510.6,395.4 511.4,384.2 512.3,402.5 513.1,387.5 514.0,370.4 514.8,387.0 515.6,383.5 516.5,393.5 517.3,396.8 518.2,405.9 519.0,384.0 519.8,400.1 520.7,394.7 521.5,386.1 522.4,405.3 523.2,375.4 524.1,384.6 524.9,392.1 525.7,371.9 526.6,399.6 527.4,397.2 528.3,375.4 529.1,388.9 529.9,403.6 530.8,397.0 531.6,386.0 532.5,384.5 533.3,390.8 534.1,388.0 535.0,401.5 535.8,404.8 536.7,402.4 537.5,391.8 538.3,396.5 539.2,405.8 540.0,401.2 540.9,423.3 541.7,378.0 542.6,393.7 543.4,383.2 544.2,403.3 545.1,420.0 545.9,399.2 546.8,401.9 547.6,396.8 548.4,399.4 549.3,393.2 550.1,394.2 551.0,397.9 551.8,401.2 552.6,390.4 553.5,392.9 554.3,407.6 555.2,391.2 556.0,390.0 556.8,422.4 557.7,412.6 558.5,413.6 559.4,402.9 560.2,375.6 561.1,385.3 561.9,391.1 562.7,401.7 563.6,392.9 564.4,396.0 565.3,385.6 566.1,389.5 566.9,385.8 567.8,395.5 568.6,386.1 569.5,407.3 570.3,382.3 571.1,379.2 572.0,379.5 572.8,379.6 573.7,375.1 574.5,383.5 575.3,385.0 576.2,397.3 577.0,410.7 577.9,403.1 578.7,366.5 579.5,377.4 580.4,400.2 581.2,377.4 582.1,376.1 582.9,380.6 583.8,375.9 584.6,392.1 585.4,389.5 586.3,360.6 587.1,397.1 588.0,420.7 588.8,411.8 589.6,387.6 590.5,400.2 591.3,388.5 592.2,390.9 593.0,387.5 593.8,408.1 594.7,388.0 595.5,393.3 596.4,397.0 597.2,390.5 598.0,408.6 598.9,402.7 599.7,395.4 600.6,384.9 601.4,402.0 602.3,378.5 603.1,391.5 603.9,409.6 604.8,387.8 605.6,400.5 606.5,402.8 607.3,398.5 608.1,384.9 609.0,415.2 609.8,393.0 610.7,392.3 611.5,397.3 612.3,408.5 613.2,399.5 614.0,382.3 614.9,394.7 615.7,396.9 616.5,383.0 617.4,414.3 618.2,376.9 619.1,379.6 619.9,385.7 620.8,413.2 621.6,401.7 622.4,390.1 623.3,372.7 624.1,389.6 625.0,403.5 625.8,386.3 626.6,389.9 627.5,399.0 628.3,384.8 629.2,398.8 630.0,388.3 630.8,385.1 631.7,405.1 632.5,391.7 633.4,397.8 634.2,392.6 635.0,397.3 635.9,381.2 636.7,406.6 637.6,409.3 638.4,388.1 639.2,408.2 640.1,403.0 640.9,407.0 641.8,403.5 642.6,390.2 643.5,403.0 644.3,385.5 645.1,388.3 646.0,420.7 646.8,391.1 647.7,401.6 648.5,402.2 649.3,389.3 650.2,391.5 651.0,397.4 651.9,406.3 652.7,404.8 653.5,404.5 654.4,412.3 655.2,390.9 656.1,389.5 656.9,395.9 657.7,380.5 658.6,415.7 659.4,388.3 660.3,399.7 661.1,400.3 662.0,387.4 662.8,380.6 663.6,395.3 664.5,387.5 665.3,382.9 666.2,398.9 667.0,390.9 667.8,399.5 668.7,396.8 669.5,387.5 670.4,381.2 671.2,392.6 672.0,376.2 672.9,391.6 673.7,385.4 674.6,388.0 675.4,397.8 676.2,386.0 677.1,394.8 677.9,374.3 678.8,380.1 679.6,389.9 680.5,378.3 681.3,402.3 682.1,406.5 683.0,403.6 683.8,406.0 684.7,410.3 685.5,422.5 686.3,387.3 687.2,381.8 688.0,391.4 688.9,371.8 689.7,389.3 690.5,402.2 691.4,388.5 692.2,392.3 693.1,389.8 693.9,389.1 694.7,390.3 695.6,405.9 696.4,402.4 697.3,417.6 698.1,376.1 698.9,393.4 699.8,399.7 700.6,396.4 701.5,399.9 702.3,388.7 703.2,403.4 704.0,382.0 704.8,388.5 705.7,395.2 706.5,383.3 707.4,400.2 708.2,384.1 709.0,398.6 709.9,391.4 710.7,382.5 711.6,369.0 712.4,391.9 713.2,402.5 714.1,409.8 714.9,397.1 715.8,378.7 716.6,394.8 717.4,407.3 718.3,379.0 719.1,385.8 720.0,398.5 720.8,387.3 721.7,377.3 722.5,394.9 723.3,388.8 724.2,397.0 725.0,408.4 725.9,404.2 726.7,377.6 727.5,407.1 728.4,395.5 729.2,408.3 730.1,387.4 730.9,392.7 731.7,388.8 732.6,398.6 733.4,400.1 734.3,404.4 735.1,391.2 735.9,411.6 736.8,392.2 737.6,400.2 738.5,401.8 739.3,391.9 740.2,373.8 741.0,385.6 741.8,381.9 742.7,409.8 743.5,375.7 744.4,392.6 745.2,394.0 746.0,397.0 746.9,387.4 747.7,395.2 748.6,386.5 749.4,370.4 750.2,410.1 751.1,408.7 751.9,378.3 752.8,365.2 753.6,402.1 754.4,390.8 755.3,413.2 756.1,399.8 757.0,410.1 757.8,377.5 758.6,409.8 759.5,404.0 760.3,378.0 761.2,408.1 762.0,387.9 762.9,382.5 763.7,405.1 764.5,394.8 765.4,393.2 766.2,392.6 767.1,393.5 767.9,374.6 768.7,413.6 769.6,402.0 770.4,394.3 771.3,392.1 772.1,383.9 772.9,387.4 773.8,395.7 774.6,389.6 775.5,370.1 776.3,399.5 777.1,385.2 778.0,394.2 778.8,397.1 779.7,375.5 780.5,408.8 781.4,382.3 782.2,410.3 783.0,399.1 783.9,396.3 784.7,389.9 785.6,397.2 786.4,379.7 787.2,388.8 788.1,385.9 788.9,384.7 789.8,374.3 790.6,381.8 791.4,395.3 792.3,391.4 793.1,392.0 794.0,383.2 794.8,391.1 795.6,390.1 796.5,386.0 797.3,376.7 798.2,379.6 799.0,393.4 799.8,407.2 800.7,399.5 801.5,404.5 802.4,371.7 803.2,391.6 804.1,363.3 804.9,405.8 805.7,398.2 806.6,376.6 807.4,381.9 808.3,409.0 809.1,369.4 809.9,396.0 810.8,398.2 811.6,386.3 812.5,411.2 813.3,388.3 814.1,399.2 815.0,378.8 815.8,388.5 816.7,404.0 817.5,403.9 818.3,385.0 819.2,382.6 820.0,391.7 820.9,385.9 821.7,401.4 822.6,368.5 823.4,388.8 824.2,393.6 825.1,376.1 825.9,377.1 826.8,405.6 827.6,409.0 828.4,401.9 829.3,419.4 830.1,402.1 831.0,396.9 831.8,377.9 832.6,388.9 833.5,387.2 834.3,385.2 835.2,388.6 836.0,385.7 836.8,388.1 837.7,410.8 838.5,399.8 839.4,392.1 840.2,386.2 841.1,396.9 841.9,392.5 842.7,393.3 843.6,404.0 844.4,387.4 845.3,372.2 846.1,403.3 846.9,378.9 847.8,398.9 848.6,397.6 849.5,398.8 850.3,383.5 851.1,396.0 852.0,395.6 852.8,399.3 853.7,385.2 854.5,389.8 855.3,394.0 856.2,393.0 857.0,385.3 857.9,381.6 858.7,383.2 859.5,387.5 860.4,393.6 861.2,389.9 862.1,410.8 862.9,384.3 863.8,396.0 864.6,387.5 865.4,393.3 866.3,393.9 867.1,387.9 868.0,396.3 868.8,365.7 869.6,388.4 870.5,389.9 871.3,385.2 872.2,402.6 873.0,389.6 873.8,403.6 874.7,391.0 875.5,364.0 876.4,377.1 877.2,401.3 878.0,431.7 878.9,376.8 879.7,375.5 880.6,399.6 881.4,403.8 882.3,378.9 883.1,387.2 883.9,404.7 884.8,397.5 885.6,383.3 886.5,374.4 887.3,385.8 888.1,407.7 889.0,390.9 889.8,409.2 890.7,387.9 891.5,405.7 892.3,380.1 893.2,382.1 894.0,382.1 894.9,383.8 895.7,406.1 896.5,404.5 897.4,397.0 898.2,367.6 899.1,401.1 899.9,408.3 900.8,372.0 901.6,370.8 902.4,390.5 903.3,390.2 904.1,407.1 905.0,395.6 905.8,387.1 906.6,401.4 907.5,390.4 908.3,396.7 909.2,396.6 910.0,376.3"/>
<line x1="730" y1="54" x2="754" y2="54" stroke="#2563eb" stroke-width="3"/>
<text x="762" y="59" font-family="Arial" font-size="13" fill="#111827">Random</text>
<polyline fill="none" stroke="#16a34a" stroke-width="2.2" points="70.0,408.7 70.8,348.3 71.7,326.7 72.5,277.3 73.4,270.5 74.2,265.5 75.0,241.7 75.9,228.9 76.7,224.3 77.6,224.6 78.4,248.3 79.2,228.9 80.1,215.1 80.9,216.6 81.8,208.8 82.6,198.1 83.5,213.9 84.3,218.9 85.1,214.1 86.0,204.5 86.8,195.9 87.7,202.8 88.5,207.3 89.3,216.9 90.2,190.3 91.0,186.8 91.9,198.0 92.7,192.9 93.5,209.6 94.4,221.1 95.2,206.3 96.1,191.7 96.9,188.8 97.7,196.6 98.6,213.3 99.4,187.7 100.3,182.1 101.1,201.7 102.0,206.0 102.8,204.8 103.6,202.0 104.5,199.4 105.3,200.0 106.2,197.5 107.0,194.9 107.8,204.4 108.7,193.5 109.5,197.7 110.4,215.9 111.2,187.0 112.0,216.1 112.9,210.9 113.7,197.6 114.6,195.7 115.4,181.9 116.2,186.2 117.1,205.1 117.9,191.6 118.8,198.3 119.6,202.6 120.5,188.0 121.3,193.4 122.1,179.1 123.0,192.3 123.8,180.9 124.7,197.5 125.5,201.6 126.3,180.9 127.2,183.1 128.0,195.7 128.9,194.1 129.7,197.0 130.5,189.1 131.4,188.9 132.2,175.6 133.1,191.5 133.9,186.1 134.7,192.0 135.6,191.8 136.4,193.5 137.3,200.6 138.1,200.8 138.9,187.3 139.8,194.1 140.6,185.1 141.5,195.2 142.3,193.9 143.2,184.1 144.0,188.5 144.8,188.2 145.7,196.5 146.5,183.9 147.4,187.6 148.2,192.4 149.0,193.1 149.9,187.6 150.7,200.8 151.6,197.6 152.4,202.1 153.2,184.2 154.1,183.9 154.9,182.4 155.8,194.6 156.6,198.6 157.4,189.5 158.3,207.2 159.1,179.2 160.0,205.2 160.8,194.5 161.7,178.4 162.5,197.9 163.3,204.5 164.2,203.7 165.0,175.2 165.9,177.1 166.7,205.8 167.5,196.3 168.4,174.8 169.2,187.5 170.1,185.4 170.9,187.3 171.7,204.8 172.6,195.1 173.4,176.0 174.3,186.2 175.1,194.1 175.9,173.2 176.8,183.3 177.6,189.4 178.5,181.7 179.3,189.4 180.2,188.6 181.0,186.5 181.8,197.4 182.7,196.0 183.5,186.3 184.4,192.5 185.2,208.6 186.0,189.1 186.9,186.6 187.7,193.3 188.6,198.5 189.4,184.9 190.2,174.5 191.1,188.2 191.9,192.4 192.8,202.0 193.6,206.8 194.4,202.1 195.3,183.1 196.1,195.9 197.0,205.7 197.8,205.1 198.6,185.5 199.5,176.4 200.3,193.0 201.2,195.9 202.0,189.0 202.9,201.6 203.7,183.2 204.5,186.3 205.4,185.8 206.2,196.7 207.1,181.4 207.9,190.6 208.7,188.7 209.6,187.8 210.4,179.0 211.3,192.8 212.1,199.8 212.9,192.4 213.8,189.5 214.6,184.6 215.5,187.8 216.3,190.9 217.1,203.7 218.0,170.0 218.8,183.9 219.7,189.3 220.5,194.4 221.4,187.9 222.2,197.0 223.0,198.0 223.9,182.2 224.7,184.3 225.6,188.1 226.4,186.4 227.2,184.9 228.1,185.0 228.9,187.1 229.8,194.4 230.6,190.6 231.4,190.7 232.3,176.5 233.1,187.4 234.0,179.0 234.8,186.0 235.6,180.3 236.5,180.4 237.3,191.2 238.2,192.3 239.0,184.8 239.8,198.8 240.7,187.7 241.5,190.8 242.4,204.2 243.2,181.1 244.1,190.7 244.9,198.7 245.7,190.3 246.6,196.9 247.4,186.5 248.3,187.3 249.1,186.3 249.9,174.7 250.8,190.4 251.6,194.1 252.5,182.9 253.3,207.7 254.1,178.2 255.0,192.3 255.8,188.9 256.7,194.4 257.5,201.7 258.3,173.1 259.2,172.6 260.0,183.2 260.9,197.9 261.7,194.3 262.6,204.3 263.4,187.3 264.2,195.6 265.1,183.1 265.9,186.8 266.8,181.8 267.6,194.7 268.4,183.9 269.3,182.2 270.1,191.9 271.0,199.0 271.8,191.6 272.6,174.3 273.5,188.0 274.3,188.5 275.2,179.2 276.0,188.9 276.8,190.1 277.7,196.7 278.5,199.5 279.4,190.6 280.2,196.1 281.1,191.4 281.9,197.5 282.7,193.0 283.6,196.3 284.4,182.3 285.3,170.1 286.1,181.7 286.9,186.3 287.8,182.7 288.6,184.5 289.5,191.5 290.3,210.7 291.1,197.9 292.0,198.6 292.8,191.5 293.7,174.6 294.5,186.1 295.3,183.7 296.2,185.2 297.0,185.7 297.9,184.9 298.7,187.4 299.5,185.3 300.4,194.1 301.2,197.1 302.1,192.6 302.9,179.2 303.8,176.0 304.6,187.4 305.4,202.8 306.3,198.6 307.1,174.1 308.0,186.7 308.8,200.1 309.6,208.2 310.5,199.6 311.3,189.3 312.2,194.3 313.0,190.8 313.8,182.3 314.7,180.4 315.5,187.2 316.4,193.2 317.2,205.3 318.0,217.0 318.9,192.2 319.7,197.2 320.6,183.9 321.4,184.4 322.3,187.8 323.1,190.6 323.9,185.7 324.8,188.7 325.6,188.1 326.5,169.9 327.3,193.8 328.1,185.0 329.0,185.1 329.8,188.2 330.7,192.7 331.5,167.9 332.3,188.9 333.2,180.6 334.0,182.2 334.9,176.6 335.7,173.0 336.5,192.1 337.4,195.3 338.2,194.0 339.1,191.9 339.9,175.6 340.8,190.9 341.6,192.7 342.4,177.6 343.3,185.2 344.1,185.1 345.0,206.0 345.8,184.0 346.6,201.2 347.5,181.0 348.3,193.9 349.2,173.8 350.0,196.4 350.8,208.0 351.7,186.6 352.5,201.5 353.4,188.5 354.2,186.2 355.0,189.4 355.9,189.8 356.7,199.7 357.6,186.8 358.4,190.1 359.2,181.0 360.1,188.0 360.9,186.3 361.8,181.6 362.6,185.5 363.5,192.2 364.3,193.0 365.1,196.8 366.0,202.5 366.8,204.4 367.7,198.6 368.5,178.3 369.3,202.4 370.2,182.0 371.0,190.4 371.9,206.8 372.7,208.0 373.5,189.9 374.4,184.5 375.2,186.9 376.1,186.3 376.9,189.1 377.7,193.9 378.6,193.2 379.4,207.3 380.3,198.0 381.1,188.8 382.0,187.6 382.8,184.9 383.6,199.3 384.5,176.8 385.3,180.1 386.2,191.8 387.0,183.1 387.8,178.1 388.7,208.7 389.5,196.2 390.4,200.4 391.2,192.9 392.0,180.1 392.9,191.1 393.7,193.7 394.6,182.2 395.4,179.0 396.2,179.6 397.1,188.2 397.9,185.9 398.8,186.0 399.6,177.4 400.5,201.5 401.3,176.5 402.1,189.2 403.0,196.7 403.8,195.4 404.7,185.0 405.5,191.6 406.3,211.3 407.2,188.0 408.0,190.5 408.9,181.1 409.7,195.1 410.5,201.4 411.4,182.5 412.2,185.3 413.1,183.9 413.9,202.5 414.7,204.7 415.6,190.3 416.4,201.0 417.3,196.2 418.1,191.1 418.9,202.8 419.8,186.9 420.6,193.1 421.5,176.0 422.3,182.0 423.2,195.1 424.0,194.3 424.8,196.7 425.7,198.2 426.5,174.6 427.4,174.5 428.2,186.3 429.0,201.5 429.9,184.7 430.7,198.8 431.6,190.9 432.4,193.2 433.2,201.3 434.1,193.1 434.9,184.3 435.8,166.7 436.6,203.3 437.4,196.6 438.3,188.1 439.1,181.7 440.0,186.9 440.8,193.8 441.7,192.4 442.5,177.3 443.3,190.3 444.2,183.2 445.0,194.1 445.9,190.4 446.7,176.6 447.5,181.5 448.4,187.5 449.2,173.5 450.1,182.1 450.9,188.1 451.7,211.1 452.6,192.3 453.4,172.4 454.3,186.6 455.1,209.2 455.9,196.7 456.8,180.6 457.6,192.8 458.5,175.9 459.3,176.5 460.2,197.8 461.0,192.5 461.8,198.4 462.7,177.6 463.5,169.6 464.4,182.0 465.2,194.5 466.0,196.8 466.9,177.3 467.7,183.1 468.6,199.6 469.4,173.1 470.2,179.9 471.1,189.3 471.9,175.4 472.8,171.8 473.6,203.3 474.4,188.7 475.3,198.5 476.1,191.9 477.0,193.7 477.8,204.1 478.6,187.7 479.5,194.4 480.3,199.5 481.2,182.7 482.0,172.3 482.9,199.9 483.7,183.6 484.5,188.4 485.4,196.3 486.2,193.2 487.1,198.5 487.9,191.4 488.7,169.9 489.6,186.4 490.4,174.6 491.3,173.6 492.1,192.2 492.9,183.4 493.8,183.5 494.6,181.2 495.5,194.2 496.3,187.7 497.1,202.2 498.0,204.6 498.8,183.6 499.7,190.4 500.5,188.2 501.4,174.3 502.2,197.5 503.0,194.9 503.9,176.9 504.7,184.7 505.6,184.7 506.4,184.3 507.2,194.9 508.1,186.1 508.9,191.1 509.8,173.1 510.6,187.0 511.4,193.4 512.3,189.7 513.1,176.4 514.0,185.0 514.8,195.4 515.6,192.9 516.5,205.1 517.3,175.2 518.2,200.3 519.0,196.7 519.8,197.6 520.7,198.6 521.5,186.8 522.4,187.1 523.2,182.6 524.1,177.4 524.9,191.9 525.7,198.5 526.6,183.6 527.4,179.1 528.3,196.8 529.1,183.9 529.9,179.3 530.8,181.6 531.6,194.5 532.5,176.5 533.3,188.3 534.1,185.6 535.0,183.8 535.8,193.1 536.7,182.8 537.5,179.7 538.3,179.7 539.2,184.4 540.0,172.6 540.9,187.3 541.7,196.3 542.6,204.0 543.4,199.3 544.2,175.0 545.1,189.5 545.9,190.6 546.8,189.2 547.6,174.5 548.4,182.8 549.3,197.7 550.1,201.4 551.0,175.1 551.8,193.5 552.6,192.0 553.5,177.5 554.3,187.5 555.2,187.6 556.0,187.6 556.8,194.5 557.7,181.2 558.5,195.9 559.4,200.7 560.2,197.6 561.1,191.4 561.9,192.8 562.7,190.1 563.6,179.4 564.4,185.7 565.3,198.7 566.1,191.4 566.9,178.4 567.8,179.1 568.6,171.4 569.5,189.7 570.3,186.5 571.1,185.3 572.0,184.8 572.8,185.7 573.7,180.0 574.5,183.5 575.3,179.3 576.2,178.0 577.0,195.8 577.9,200.8 578.7,183.2 579.5,191.0 580.4,174.0 581.2,184.7 582.1,200.1 582.9,202.7 583.8,186.5 584.6,185.8 585.4,189.3 586.3,185.4 587.1,186.8 588.0,188.4 588.8,198.4 589.6,188.9 590.5,182.5 591.3,197.7 592.2,203.1 593.0,195.6 593.8,186.5 594.7,181.2 595.5,183.8 596.4,193.3 597.2,197.1 598.0,197.1 598.9,177.1 599.7,168.7 600.6,198.7 601.4,186.1 602.3,200.1 603.1,192.9 603.9,181.2 604.8,178.1 605.6,187.9 606.5,198.4 607.3,196.3 608.1,189.0 609.0,178.8 609.8,192.5 610.7,205.0 611.5,180.3 612.3,182.5 613.2,199.0 614.0,161.1 614.9,185.0 615.7,196.1 616.5,182.0 617.4,182.3 618.2,194.8 619.1,180.2 619.9,189.3 620.8,202.9 621.6,195.0 622.4,186.9 623.3,172.2 624.1,171.6 625.0,204.5 625.8,186.7 626.6,190.9 627.5,188.5 628.3,192.0 629.2,178.2 630.0,181.8 630.8,178.9 631.7,194.6 632.5,199.3 633.4,191.4 634.2,174.3 635.0,182.3 635.9,195.3 636.7,184.7 637.6,197.6 638.4,188.9 639.2,180.3 640.1,195.7 640.9,188.3 641.8,188.6 642.6,196.7 643.5,181.4 644.3,182.6 645.1,185.7 646.0,186.1 646.8,203.2 647.7,191.0 648.5,187.6 649.3,185.3 650.2,181.9 651.0,186.0 651.9,183.0 652.7,199.4 653.5,200.6 654.4,193.2 655.2,188.1 656.1,192.4 656.9,192.5 657.7,196.5 658.6,188.3 659.4,188.9 660.3,188.8 661.1,201.8 662.0,176.8 662.8,187.8 663.6,187.1 664.5,188.3 665.3,170.8 666.2,193.2 667.0,192.2 667.8,193.3 668.7,197.4 669.5,204.9 670.4,174.8 671.2,188.1 672.0,190.0 672.9,175.5 673.7,206.5 674.6,201.2 675.4,185.2 676.2,208.5 677.1,197.2 677.9,191.2 678.8,188.5 679.6,186.8 680.5,174.8 681.3,202.2 682.1,191.6 683.0,184.4 683.8,190.3 684.7,183.4 685.5,190.9 686.3,187.1 687.2,184.0 688.0,198.0 688.9,175.6 689.7,194.5 690.5,180.4 691.4,187.5 692.2,197.8 693.1,176.6 693.9,182.1 694.7,192.3 695.6,202.2 696.4,181.3 697.3,184.9 698.1,184.0 698.9,187.7 699.8,185.0 700.6,206.2 701.5,196.4 702.3,165.0 703.2,174.5 704.0,188.9 704.8,181.9 705.7,201.6 706.5,178.3 707.4,196.3 708.2,184.6 709.0,200.3 709.9,209.8 710.7,179.7 711.6,190.2 712.4,180.4 713.2,197.5 714.1,201.3 714.9,187.3 715.8,187.3 716.6,186.9 717.4,179.9 718.3,181.0 719.1,198.1 720.0,187.8 720.8,178.5 721.7,200.0 722.5,192.0 723.3,182.1 724.2,187.9 725.0,181.7 725.9,179.2 726.7,193.7 727.5,186.4 728.4,182.4 729.2,189.2 730.1,182.4 730.9,179.6 731.7,188.1 732.6,182.6 733.4,187.9 734.3,177.5 735.1,184.3 735.9,189.6 736.8,177.1 737.6,197.1 738.5,183.3 739.3,188.0 740.2,190.2 741.0,181.6 741.8,181.2 742.7,189.0 743.5,191.9 744.4,194.0 745.2,191.4 746.0,189.0 746.9,179.6 747.7,190.5 748.6,191.7 749.4,196.9 750.2,199.8 751.1,194.2 751.9,179.3 752.8,178.0 753.6,192.4 754.4,197.4 755.3,186.7 756.1,176.5 757.0,204.2 757.8,202.5 758.6,184.8 759.5,186.7 760.3,187.1 761.2,174.6 762.0,192.9 762.9,181.5 763.7,190.8 764.5,184.0 765.4,190.2 766.2,174.9 767.1,200.9 767.9,182.8 768.7,184.0 769.6,182.5 770.4,183.0 771.3,181.2 772.1,182.8 772.9,195.4 773.8,192.1 774.6,184.5 775.5,198.1 776.3,195.0 777.1,161.3 778.0,200.0 778.8,191.6 779.7,196.6 780.5,195.6 781.4,187.1 782.2,184.3 783.0,181.4 783.9,182.4 784.7,184.7 785.6,197.0 786.4,194.0 787.2,174.8 788.1,203.7 788.9,202.7 789.8,203.4 790.6,196.9 791.4,182.7 792.3,188.3 793.1,184.7 794.0,183.9 794.8,190.5 795.6,190.0 796.5,186.9 797.3,186.6 798.2,183.3 799.0,186.4 799.8,182.9 800.7,196.3 801.5,194.8 802.4,198.9 803.2,194.0 804.1,202.5 804.9,184.3 805.7,186.8 806.6,177.1 807.4,180.5 808.3,190.4 809.1,190.4 809.9,177.5 810.8,196.4 811.6,199.9 812.5,178.0 813.3,199.6 814.1,183.1 815.0,182.7 815.8,169.3 816.7,186.8 817.5,189.0 818.3,186.0 819.2,193.8 820.0,204.1 820.9,185.1 821.7,178.0 822.6,184.7 823.4,186.2 824.2,192.4 825.1,207.0 825.9,193.8 826.8,174.6 827.6,175.7 828.4,185.5 829.3,184.6 830.1,184.8 831.0,178.5 831.8,174.9 832.6,181.2 833.5,189.6 834.3,174.0 835.2,191.7 836.0,189.8 836.8,194.6 837.7,184.5 838.5,181.9 839.4,182.3 840.2,177.5 841.1,194.7 841.9,188.7 842.7,193.6 843.6,195.2 844.4,180.6 845.3,199.5 846.1,190.2 846.9,191.1 847.8,184.9 848.6,187.1 849.5,200.2 850.3,190.1 851.1,195.7 852.0,190.5 852.8,182.7 853.7,176.5 854.5,190.1 855.3,178.6 856.2,196.6 857.0,187.5 857.9,193.0 858.7,197.8 859.5,190.4 860.4,195.6 861.2,172.8 862.1,173.6 862.9,187.0 863.8,173.4 864.6,179.1 865.4,197.6 866.3,193.6 867.1,202.2 868.0,188.0 868.8,193.4 869.6,187.4 870.5,170.7 871.3,189.4 872.2,193.3 873.0,205.3 873.8,185.3 874.7,191.0 875.5,200.1 876.4,187.7 877.2,198.1 878.0,199.8 878.9,198.8 879.7,185.8 880.6,180.3 881.4,176.1 882.3,179.9 883.1,183.1 883.9,178.5 884.8,208.7 885.6,189.1 886.5,188.7 887.3,196.0 888.1,213.7 889.0,178.1 889.8,192.3 890.7,189.4 891.5,183.2 892.3,190.5 893.2,203.2 894.0,188.5 894.9,192.5 895.7,191.8 896.5,178.3 897.4,183.4 898.2,190.2 899.1,191.0 899.9,181.7 900.8,188.9 901.6,189.6 902.4,183.8 903.3,172.2 904.1,183.6 905.0,186.4 905.8,187.8 906.6,184.2 907.5,179.8 908.3,184.7 909.2,181.8 910.0,199.6"/>
<line x1="730" y1="76" x2="754" y2="76" stroke="#16a34a" stroke-width="3"/>
<text x="762" y="81" font-family="Arial" font-size="13" fill="#111827">Greedy</text>
<polyline fill="none" stroke="#dc2626" stroke-width="2.2" points="70.0,388.2 70.8,334.4 71.7,305.6 72.5,264.9 73.4,241.1 74.2,237.4 75.0,236.3 75.9,219.7 76.7,204.7 77.6,221.8 78.4,221.0 79.2,186.2 80.1,200.7 80.9,195.1 81.8,190.2 82.6,209.9 83.5,207.7 84.3,191.3 85.1,194.5 86.0,202.2 86.8,189.1 87.7,183.3 88.5,182.9 89.3,176.1 90.2,176.3 91.0,188.1 91.9,192.0 92.7,169.6 93.5,187.3 94.4,183.3 95.2,184.4 96.1,187.3 96.9,194.1 97.7,172.7 98.6,187.7 99.4,188.7 100.3,173.0 101.1,168.6 102.0,187.3 102.8,167.4 103.6,178.6 104.5,188.9 105.3,188.1 106.2,183.5 107.0,165.4 107.8,179.7 108.7,172.5 109.5,188.3 110.4,180.6 111.2,172.9 112.0,170.5 112.9,193.1 113.7,166.6 114.6,160.6 115.4,181.5 116.2,181.2 117.1,166.6 117.9,174.3 118.8,167.8 119.6,167.6 120.5,180.2 121.3,162.9 122.1,178.3 123.0,182.8 123.8,176.0 124.7,177.1 125.5,184.8 126.3,171.8 127.2,184.1 128.0,180.5 128.9,169.2 129.7,170.1 130.5,174.6 131.4,181.1 132.2,178.2 133.1,168.5 133.9,163.6 134.7,168.3 135.6,175.3 136.4,168.1 137.3,172.6 138.1,166.1 138.9,168.2 139.8,169.9 140.6,169.9 141.5,174.7 142.3,169.3 143.2,163.6 144.0,168.8 144.8,168.3 145.7,176.0 146.5,159.6 147.4,165.1 148.2,179.2 149.0,174.0 149.9,181.4 150.7,172.6 151.6,163.0 152.4,162.4 153.2,181.0 154.1,175.1 154.9,161.9 155.8,163.5 156.6,166.4 157.4,180.2 158.3,176.7 159.1,169.5 160.0,172.5 160.8,173.8 161.7,155.7 162.5,171.0 163.3,175.6 164.2,158.5 165.0,172.5 165.9,168.4 166.7,165.5 167.5,156.2 168.4,163.2 169.2,157.3 170.1,175.5 170.9,153.3 171.7,164.5 172.6,151.6 173.4,162.4 174.3,169.3 175.1,173.8 175.9,147.3 176.8,169.3 177.6,166.4 178.5,172.9 179.3,159.1 180.2,164.4 181.0,165.5 181.8,175.8 182.7,179.6 183.5,174.6 184.4,170.3 185.2,169.7 186.0,170.4 186.9,170.5 187.7,152.9 188.6,163.8 189.4,157.7 190.2,178.0 191.1,156.4 191.9,163.9 192.8,164.2 193.6,180.1 194.4,157.9 195.3,166.5 196.1,152.3 197.0,143.2 197.8,157.3 198.6,159.6 199.5,144.5 200.3,158.0 201.2,145.9 202.0,155.6 202.9,161.8 203.7,147.6 204.5,168.6 205.4,169.1 206.2,159.8 207.1,165.8 207.9,151.9 208.7,141.9 209.6,163.0 210.4,161.7 211.3,140.7 212.1,174.1 212.9,156.3 213.8,139.8 214.6,165.5 215.5,164.1 216.3,162.0 217.1,169.4 218.0,154.0 218.8,171.5 219.7,157.4 220.5,159.4 221.4,160.8 222.2,147.7 223.0,153.1 223.9,165.9 224.7,150.0 225.6,149.1 226.4,148.3 227.2,166.6 228.1,148.2 228.9,158.6 229.8,150.7 230.6,152.7 231.4,147.8 232.3,145.1 233.1,137.9 234.0,157.6 234.8,146.6 235.6,158.0 236.5,151.3 237.3,155.0 238.2,155.4 239.0,142.4 239.8,152.3 240.7,162.7 241.5,141.1 242.4,139.8 243.2,155.8 244.1,152.1 244.9,149.3 245.7,147.1 246.6,151.9 247.4,143.2 248.3,145.0 249.1,158.0 249.9,147.4 250.8,154.8 251.6,152.8 252.5,149.7 253.3,144.1 254.1,154.2 255.0,164.9 255.8,161.3 256.7,178.1 257.5,155.9 258.3,171.2 259.2,165.1 260.0,120.7 260.9,143.3 261.7,157.8 262.6,149.6 263.4,153.8 264.2,153.6 265.1,141.3 265.9,149.6 266.8,163.2 267.6,166.5 268.4,158.3 269.3,149.4 270.1,156.8 271.0,157.0 271.8,176.8 272.6,158.9 273.5,151.4 274.3,148.0 275.2,148.4 276.0,148.4 276.8,145.6 277.7,147.4 278.5,147.7 279.4,151.5 280.2,147.0 281.1,141.2 281.9,156.0 282.7,150.3 283.6,141.5 284.4,165.1 285.3,137.4 286.1,139.4 286.9,132.1 287.8,138.4 288.6,151.0 289.5,141.8 290.3,156.8 291.1,144.3 292.0,143.4 292.8,127.4 293.7,151.7 294.5,154.1 295.3,157.0 296.2,146.1 297.0,147.4 297.9,160.2 298.7,148.8 299.5,138.1 300.4,132.3 301.2,135.4 302.1,150.6 302.9,147.3 303.8,140.7 304.6,145.4 305.4,135.8 306.3,146.1 307.1,155.5 308.0,149.5 308.8,129.7 309.6,161.4 310.5,153.8 311.3,141.0 312.2,150.9 313.0,150.6 313.8,138.5 314.7,138.3 315.5,143.7 316.4,134.3 317.2,137.9 318.0,139.0 318.9,128.1 319.7,134.7 320.6,152.0 321.4,127.3 322.3,140.7 323.1,140.8 323.9,136.2 324.8,144.6 325.6,148.9 326.5,143.0 327.3,166.1 328.1,144.8 329.0,147.4 329.8,132.5 330.7,133.2 331.5,133.8 332.3,140.7 333.2,135.0 334.0,123.5 334.9,140.3 335.7,129.1 336.5,126.8 337.4,149.0 338.2,147.9 339.1,143.1 339.9,140.6 340.8,137.2 341.6,134.5 342.4,163.7 343.3,133.6 344.1,136.9 345.0,148.8 345.8,136.4 346.6,132.9 347.5,155.2 348.3,164.5 349.2,143.2 350.0,136.1 350.8,149.7 351.7,130.3 352.5,142.8 353.4,146.9 354.2,135.2 355.0,138.7 355.9,135.0 356.7,139.2 357.6,139.5 358.4,150.4 359.2,144.4 360.1,127.8 360.9,147.1 361.8,135.1 362.6,137.2 363.5,149.1 364.3,145.7 365.1,134.7 366.0,147.6 366.8,172.2 367.7,144.5 368.5,145.6 369.3,130.0 370.2,140.8 371.0,137.5 371.9,158.6 372.7,159.4 373.5,129.0 374.4,137.3 375.2,137.4 376.1,126.9 376.9,129.1 377.7,123.7 378.6,148.3 379.4,125.5 380.3,133.2 381.1,123.7 382.0,128.1 382.8,128.8 383.6,147.8 384.5,145.6 385.3,132.6 386.2,145.0 387.0,145.7 387.8,137.1 388.7,133.5 389.5,155.1 390.4,137.9 391.2,138.5 392.0,119.1 392.9,130.5 393.7,135.8 394.6,125.5 395.4,146.3 396.2,154.8 397.1,148.6 397.9,150.9 398.8,144.1 399.6,139.6 400.5,157.6 401.3,142.1 402.1,136.3 403.0,143.0 403.8,134.8 404.7,131.3 405.5,142.6 406.3,139.5 407.2,139.0 408.0,123.1 408.9,130.2 409.7,119.5 410.5,136.8 411.4,135.1 412.2,140.8 413.1,133.3 413.9,150.7 414.7,134.4 415.6,138.5 416.4,143.0 417.3,136.6 418.1,127.8 418.9,133.9 419.8,147.0 420.6,133.9 421.5,132.6 422.3,141.9 423.2,148.4 424.0,117.5 424.8,147.2 425.7,141.2 426.5,134.1 427.4,131.9 428.2,139.6 429.0,130.4 429.9,144.1 430.7,151.0 431.6,131.4 432.4,129.8 433.2,133.5 434.1,119.4 434.9,133.7 435.8,133.7 436.6,130.8 437.4,120.5 438.3,131.7 439.1,142.9 440.0,124.3 440.8,149.9 441.7,126.9 442.5,136.5 443.3,131.8 444.2,138.4 445.0,136.7 445.9,136.5 446.7,129.4 447.5,135.7 448.4,132.1 449.2,150.7 450.1,146.0 450.9,136.1 451.7,136.3 452.6,129.3 453.4,146.0 454.3,134.5 455.1,118.2 455.9,116.3 456.8,134.3 457.6,141.7 458.5,139.1 459.3,128.3 460.2,147.0 461.0,130.6 461.8,146.1 462.7,137.0 463.5,126.9 464.4,124.7 465.2,126.1 466.0,132.3 466.9,155.8 467.7,138.3 468.6,151.4 469.4,138.7 470.2,125.2 471.1,127.6 471.9,141.2 472.8,136.2 473.6,138.8 474.4,136.0 475.3,136.0 476.1,115.8 477.0,140.0 477.8,150.4 478.6,131.0 479.5,119.4 480.3,121.8 481.2,127.8 482.0,122.3 482.9,117.8 483.7,137.3 484.5,131.7 485.4,141.0 486.2,139.1 487.1,138.6 487.9,121.9 488.7,135.9 489.6,116.1 490.4,135.8 491.3,124.0 492.1,135.9 492.9,121.9 493.8,137.8 494.6,123.6 495.5,134.8 496.3,147.5 497.1,121.3 498.0,147.1 498.8,137.2 499.7,120.6 500.5,125.3 501.4,134.5 502.2,134.0 503.0,121.5 503.9,125.4 504.7,145.8 505.6,124.2 506.4,142.7 507.2,139.1 508.1,143.4 508.9,132.2 509.8,134.8 510.6,142.5 511.4,119.8 512.3,129.1 513.1,120.1 514.0,114.1 514.8,121.9 515.6,132.6 516.5,138.6 517.3,135.5 518.2,131.5 519.0,131.0 519.8,133.1 520.7,143.2 521.5,132.4 522.4,126.6 523.2,134.0 524.1,126.1 524.9,137.6 525.7,127.3 526.6,136.5 527.4,116.0 528.3,120.2 529.1,118.2 529.9,127.2 530.8,115.9 531.6,117.7 532.5,128.6 533.3,126.2 534.1,130.7 535.0,133.8 535.8,133.4 536.7,116.2 537.5,134.8 538.3,135.8 539.2,129.6 540.0,133.4 540.9,121.9 541.7,142.4 542.6,135.6 543.4,136.4 544.2,139.3 545.1,126.3 545.9,123.9 546.8,127.3 547.6,116.5 548.4,118.9 549.3,108.0 550.1,124.0 551.0,123.5 551.8,140.5 552.6,127.5 553.5,137.9 554.3,111.0 555.2,113.2 556.0,149.1 556.8,137.1 557.7,139.1 558.5,117.7 559.4,125.3 560.2,129.9 561.1,113.2 561.9,117.5 562.7,125.2 563.6,133.0 564.4,115.1 565.3,132.6 566.1,123.3 566.9,106.8 567.8,132.4 568.6,121.0 569.5,124.0 570.3,125.0 571.1,113.8 572.0,110.9 572.8,137.4 573.7,117.8 574.5,118.9 575.3,122.1 576.2,128.7 577.0,130.1 577.9,127.7 578.7,134.8 579.5,118.4 580.4,103.9 581.2,135.2 582.1,139.2 582.9,120.9 583.8,130.4 584.6,119.9 585.4,141.9 586.3,126.4 587.1,104.3 588.0,119.9 588.8,132.6 589.6,120.3 590.5,116.3 591.3,124.0 592.2,117.5 593.0,135.0 593.8,120.9 594.7,118.9 595.5,123.3 596.4,126.5 597.2,142.5 598.0,117.8 598.9,123.8 599.7,119.6 600.6,140.4 601.4,119.6 602.3,129.2 603.1,132.1 603.9,120.0 604.8,116.4 605.6,112.4 606.5,129.4 607.3,116.8 608.1,120.4 609.0,128.2 609.8,123.5 610.7,137.3 611.5,117.0 612.3,124.8 613.2,129.3 614.0,124.2 614.9,128.2 615.7,124.8 616.5,119.3 617.4,120.7 618.2,116.4 619.1,132.4 619.9,114.8 620.8,129.2 621.6,120.4 622.4,120.3 623.3,118.9 624.1,130.8 625.0,123.0 625.8,133.9 626.6,111.5 627.5,127.3 628.3,122.2 629.2,138.5 630.0,135.5 630.8,109.9 631.7,122.6 632.5,110.4 633.4,138.3 634.2,130.7 635.0,112.9 635.9,112.7 636.7,124.3 637.6,122.4 638.4,125.4 639.2,121.8 640.1,126.0 640.9,122.5 641.8,124.4 642.6,126.2 643.5,133.5 644.3,122.5 645.1,106.7 646.0,124.0 646.8,119.0 647.7,142.9 648.5,112.4 649.3,123.5 650.2,136.9 651.0,117.1 651.9,125.9 652.7,127.0 653.5,122.4 654.4,112.6 655.2,124.5 656.1,125.5 656.9,121.0 657.7,109.4 658.6,108.4 659.4,143.7 660.3,133.9 661.1,134.4 662.0,133.7 662.8,122.4 663.6,130.6 664.5,131.8 665.3,115.4 666.2,134.6 667.0,119.1 667.8,116.1 668.7,111.9 669.5,102.5 670.4,133.0 671.2,126.6 672.0,124.4 672.9,124.1 673.7,125.3 674.6,134.7 675.4,136.3 676.2,112.6 677.1,115.7 677.9,116.7 678.8,128.3 679.6,128.6 680.5,118.0 681.3,122.9 682.1,120.5 683.0,124.9 683.8,115.2 684.7,129.7 685.5,113.0 686.3,121.4 687.2,129.8 688.0,103.9 688.9,120.2 689.7,128.1 690.5,121.0 691.4,135.8 692.2,129.2 693.1,124.0 693.9,114.4 694.7,121.3 695.6,132.5 696.4,107.6 697.3,129.9 698.1,134.3 698.9,131.3 699.8,129.3 700.6,113.6 701.5,122.0 702.3,116.1 703.2,122.2 704.0,120.2 704.8,112.8 705.7,120.1 706.5,113.5 707.4,120.6 708.2,134.0 709.0,117.0 709.9,125.2 710.7,126.0 711.6,122.9 712.4,117.2 713.2,133.0 714.1,129.5 714.9,120.4 715.8,128.1 716.6,107.5 717.4,118.8 718.3,116.3 719.1,120.8 720.0,125.6 720.8,127.0 721.7,115.0 722.5,117.3 723.3,123.2 724.2,120.2 725.0,112.5 725.9,117.7 726.7,137.0 727.5,121.2 728.4,117.0 729.2,129.1 730.1,113.0 730.9,129.8 731.7,108.1 732.6,144.0 733.4,125.8 734.3,146.4 735.1,122.0 735.9,118.2 736.8,123.9 737.6,127.7 738.5,123.3 739.3,124.5 740.2,130.8 741.0,119.2 741.8,117.1 742.7,122.6 743.5,127.8 744.4,132.2 745.2,124.6 746.0,102.3 746.9,127.8 747.7,111.7 748.6,121.9 749.4,122.8 750.2,131.0 751.1,113.9 751.9,117.4 752.8,106.8 753.6,129.1 754.4,115.7 755.3,125.2 756.1,118.5 757.0,114.7 757.8,123.8 758.6,105.9 759.5,120.2 760.3,105.2 761.2,136.0 762.0,120.5 762.9,111.6 763.7,125.2 764.5,118.5 765.4,112.8 766.2,130.2 767.1,118.6 767.9,120.1 768.7,109.0 769.6,130.4 770.4,122.9 771.3,112.7 772.1,104.4 772.9,116.4 773.8,130.9 774.6,121.5 775.5,101.7 776.3,118.9 777.1,128.5 778.0,121.8 778.8,103.0 779.7,115.9 780.5,120.5 781.4,114.7 782.2,116.6 783.0,120.9 783.9,123.8 784.7,108.3 785.6,110.2 786.4,105.5 787.2,121.1 788.1,90.3 788.9,120.7 789.8,111.7 790.6,122.2 791.4,100.4 792.3,110.2 793.1,109.7 794.0,111.6 794.8,124.3 795.6,123.9 796.5,108.7 797.3,94.6 798.2,115.5 799.0,114.1 799.8,121.6 800.7,127.5 801.5,106.0 802.4,123.3 803.2,115.1 804.1,111.7 804.9,115.2 805.7,104.2 806.6,100.7 807.4,121.3 808.3,124.2 809.1,122.7 809.9,105.7 810.8,108.4 811.6,121.3 812.5,107.4 813.3,119.7 814.1,125.4 815.0,102.6 815.8,115.5 816.7,108.5 817.5,112.2 818.3,122.1 819.2,107.4 820.0,112.4 820.9,108.7 821.7,108.1 822.6,103.0 823.4,125.0 824.2,115.9 825.1,105.8 825.9,113.7 826.8,109.2 827.6,105.4 828.4,114.8 829.3,114.0 830.1,99.7 831.0,103.0 831.8,111.9 832.6,124.5 833.5,108.0 834.3,111.7 835.2,124.1 836.0,108.8 836.8,127.3 837.7,123.3 838.5,119.8 839.4,104.2 840.2,102.7 841.1,111.7 841.9,120.4 842.7,117.9 843.6,123.8 844.4,117.7 845.3,106.5 846.1,112.9 846.9,106.3 847.8,123.2 848.6,108.1 849.5,96.9 850.3,121.5 851.1,130.9 852.0,105.0 852.8,112.3 853.7,114.7 854.5,116.1 855.3,120.4 856.2,123.4 857.0,103.7 857.9,95.3 858.7,95.4 859.5,110.8 860.4,99.3 861.2,107.8 862.1,121.6 862.9,94.4 863.8,132.4 864.6,126.7 865.4,92.4 866.3,117.4 867.1,101.3 868.0,95.5 868.8,116.3 869.6,116.6 870.5,123.4 871.3,119.4 872.2,118.0 873.0,110.5 873.8,119.0 874.7,132.9 875.5,104.2 876.4,116.4 877.2,119.8 878.0,115.2 878.9,115.7 879.7,102.7 880.6,116.3 881.4,94.5 882.3,104.4 883.1,111.5 883.9,117.6 884.8,114.7 885.6,128.2 886.5,124.9 887.3,126.6 888.1,111.0 889.0,117.8 889.8,92.1 890.7,126.1 891.5,102.3 892.3,107.3 893.2,110.8 894.0,98.3 894.9,109.8 895.7,105.4 896.5,93.9 897.4,95.8 898.2,95.2 899.1,120.5 899.9,108.2 900.8,119.8 901.6,106.3 902.4,101.2 903.3,116.9 904.1,116.0 905.0,110.0 905.8,109.7 906.6,95.7 907.5,111.4 908.3,109.7 909.2,113.3 910.0,120.4"/>
<line x1="730" y1="98" x2="754" y2="98" stroke="#dc2626" stroke-width="3"/>
<text x="762" y="103" font-family="Arial" font-size="13" fill="#111827">Epsilon 0.01</text>
<polyline fill="none" stroke="#9333ea" stroke-width="2.2" points="70.0,390.0 70.8,355.3 71.7,310.3 72.5,289.1 73.4,268.4 74.2,266.9 75.0,244.5 75.9,254.4 76.7,229.8 77.6,244.6 78.4,228.9 79.2,225.4 80.1,201.3 80.9,237.5 81.8,204.7 82.6,223.4 83.5,226.5 84.3,202.5 85.1,211.6 86.0,218.2 86.8,218.5 87.7,216.3 88.5,205.1 89.3,204.2 90.2,191.6 91.0,204.0 91.9,197.0 92.7,206.8 93.5,209.1 94.4,177.0 95.2,199.6 96.1,198.6 96.9,189.8 97.7,198.1 98.6,199.8 99.4,189.7 100.3,188.3 101.1,208.9 102.0,201.3 102.8,196.9 103.6,192.2 104.5,197.8 105.3,189.4 106.2,202.0 107.0,172.5 107.8,186.7 108.7,190.1 109.5,201.6 110.4,186.7 111.2,174.9 112.0,199.4 112.9,198.1 113.7,177.8 114.6,188.6 115.4,201.9 116.2,171.9 117.1,192.1 117.9,186.4 118.8,186.2 119.6,181.1 120.5,181.0 121.3,175.7 122.1,168.5 123.0,178.8 123.8,188.8 124.7,195.8 125.5,169.9 126.3,181.0 127.2,172.9 128.0,171.3 128.9,171.1 129.7,168.4 130.5,180.7 131.4,169.2 132.2,177.8 133.1,156.4 133.9,160.3 134.7,179.8 135.6,180.6 136.4,160.3 137.3,147.8 138.1,161.7 138.9,168.8 139.8,176.6 140.6,180.2 141.5,165.9 142.3,168.7 143.2,146.2 144.0,163.4 144.8,153.2 145.7,163.9 146.5,159.9 147.4,166.6 148.2,163.2 149.0,181.7 149.9,159.6 150.7,178.1 151.6,164.7 152.4,174.6 153.2,155.5 154.1,169.6 154.9,153.8 155.8,148.5 156.6,152.8 157.4,153.2 158.3,157.9 159.1,149.7 160.0,152.1 160.8,163.1 161.7,165.1 162.5,158.0 163.3,151.6 164.2,154.0 165.0,138.5 165.9,146.2 166.7,146.7 167.5,159.5 168.4,158.4 169.2,153.7 170.1,143.3 170.9,152.2 171.7,145.0 172.6,161.1 173.4,160.1 174.3,161.9 175.1,172.3 175.9,150.5 176.8,146.5 177.6,129.6 178.5,167.7 179.3,155.8 180.2,137.0 181.0,160.9 181.8,144.2 182.7,120.9 183.5,162.3 184.4,139.9 185.2,145.9 186.0,153.0 186.9,157.5 187.7,141.8 188.6,153.7 189.4,154.4 190.2,139.4 191.1,128.4 191.9,127.4 192.8,137.1 193.6,156.5 194.4,128.6 195.3,143.0 196.1,143.5 197.0,127.0 197.8,140.3 198.6,158.6 199.5,159.8 200.3,160.0 201.2,144.5 202.0,147.8 202.9,148.1 203.7,155.1 204.5,165.5 205.4,149.6 206.2,140.8 207.1,136.0 207.9,138.4 208.7,126.6 209.6,139.4 210.4,145.0 211.3,132.8 212.1,149.0 212.9,145.7 213.8,139.1 214.6,130.2 215.5,150.4 216.3,135.9 217.1,143.7 218.0,137.6 218.8,143.7 219.7,129.0 220.5,144.7 221.4,124.4 222.2,147.0 223.0,127.5 223.9,155.8 224.7,138.8 225.6,145.8 226.4,146.9 227.2,132.4 228.1,135.8 228.9,136.2 229.8,136.7 230.6,159.4 231.4,143.6 232.3,123.3 233.1,147.9 234.0,133.9 234.8,133.0 235.6,145.0 236.5,143.8 237.3,143.9 238.2,141.8 239.0,128.1 239.8,134.4 240.7,145.8 241.5,140.0 242.4,144.5 243.2,150.5 244.1,130.4 244.9,123.8 245.7,117.4 246.6,141.1 247.4,132.1 248.3,144.9 249.1,139.7 249.9,135.7 250.8,133.8 251.6,119.5 252.5,145.9 253.3,144.1 254.1,151.4 255.0,141.6 255.8,137.3 256.7,131.3 257.5,141.7 258.3,136.8 259.2,142.0 260.0,126.8 260.9,122.2 261.7,132.7 262.6,135.8 263.4,141.9 264.2,117.9 265.1,132.4 265.9,146.6 266.8,133.5 267.6,132.3 268.4,141.2 269.3,131.6 270.1,149.9 271.0,137.4 271.8,148.6 272.6,149.7 273.5,129.6 274.3,129.6 275.2,143.2 276.0,127.4 276.8,133.1 277.7,112.8 278.5,125.9 279.4,133.5 280.2,115.9 281.1,123.3 281.9,138.7 282.7,138.5 283.6,130.7 284.4,122.5 285.3,147.0 286.1,146.0 286.9,137.6 287.8,131.7 288.6,127.1 289.5,132.3 290.3,109.9 291.1,147.6 292.0,133.1 292.8,130.2 293.7,130.7 294.5,107.7 295.3,132.7 296.2,127.6 297.0,143.7 297.9,123.4 298.7,146.7 299.5,123.5 300.4,141.1 301.2,139.6 302.1,120.5 302.9,132.2 303.8,132.7 304.6,121.5 305.4,132.3 306.3,119.7 307.1,153.0 308.0,136.7 308.8,134.0 309.6,121.7 310.5,130.9 311.3,140.8 312.2,134.7 313.0,133.5 313.8,139.2 314.7,123.3 315.5,138.0 316.4,137.2 317.2,116.7 318.0,135.3 318.9,146.2 319.7,135.6 320.6,133.0 321.4,155.3 322.3,126.2 323.1,132.8 323.9,138.3 324.8,145.0 325.6,133.2 326.5,129.5 327.3,128.3 328.1,139.8 329.0,109.5 329.8,143.4 330.7,118.1 331.5,138.3 332.3,123.9 333.2,128.3 334.0,140.3 334.9,138.1 335.7,141.2 336.5,138.5 337.4,130.0 338.2,146.3 339.1,139.9 339.9,129.0 340.8,130.2 341.6,123.6 342.4,110.3 343.3,122.5 344.1,137.4 345.0,122.6 345.8,142.8 346.6,142.8 347.5,121.2 348.3,132.4 349.2,122.8 350.0,114.9 350.8,121.4 351.7,127.0 352.5,126.8 353.4,115.2 354.2,128.6 355.0,130.6 355.9,137.7 356.7,126.4 357.6,107.4 358.4,139.4 359.2,151.3 360.1,133.2 360.9,135.1 361.8,153.7 362.6,136.3 363.5,127.1 364.3,132.3 365.1,124.3 366.0,128.0 366.8,120.9 367.7,126.1 368.5,117.3 369.3,136.2 370.2,129.5 371.0,131.8 371.9,138.1 372.7,147.3 373.5,135.8 374.4,115.7 375.2,131.2 376.1,135.4 376.9,146.8 377.7,129.5 378.6,140.5 379.4,123.0 380.3,129.8 381.1,134.6 382.0,126.7 382.8,122.6 383.6,143.9 384.5,106.3 385.3,114.2 386.2,136.0 387.0,127.5 387.8,134.5 388.7,149.1 389.5,150.7 390.4,116.0 391.2,122.8 392.0,113.8 392.9,140.3 393.7,132.8 394.6,122.8 395.4,138.1 396.2,119.2 397.1,104.2 397.9,132.3 398.8,120.9 399.6,123.9 400.5,120.2 401.3,136.3 402.1,123.5 403.0,138.2 403.8,123.6 404.7,136.2 405.5,127.2 406.3,123.1 407.2,143.7 408.0,134.7 408.9,124.3 409.7,129.2 410.5,131.7 411.4,125.9 412.2,140.6 413.1,128.8 413.9,130.5 414.7,122.2 415.6,135.2 416.4,117.8 417.3,136.7 418.1,97.6 418.9,135.1 419.8,139.7 420.6,117.4 421.5,131.2 422.3,151.5 423.2,112.8 424.0,134.1 424.8,138.5 425.7,119.0 426.5,123.8 427.4,133.1 428.2,115.9 429.0,126.9 429.9,133.4 430.7,140.2 431.6,104.4 432.4,117.2 433.2,123.1 434.1,108.6 434.9,129.9 435.8,124.2 436.6,124.8 437.4,123.4 438.3,150.7 439.1,137.6 440.0,115.3 440.8,123.8 441.7,124.1 442.5,118.3 443.3,122.0 444.2,121.8 445.0,122.1 445.9,153.9 446.7,125.7 447.5,123.4 448.4,135.6 449.2,113.6 450.1,123.8 450.9,126.7 451.7,126.8 452.6,149.1 453.4,128.1 454.3,115.8 455.1,126.6 455.9,127.3 456.8,112.8 457.6,131.9 458.5,132.2 459.3,130.9 460.2,146.2 461.0,133.1 461.8,138.1 462.7,119.5 463.5,132.1 464.4,135.8 465.2,115.4 466.0,121.2 466.9,126.8 467.7,133.8 468.6,131.1 469.4,127.1 470.2,111.1 471.1,116.6 471.9,121.2 472.8,122.1 473.6,115.1 474.4,129.6 475.3,129.0 476.1,123.9 477.0,122.8 477.8,129.3 478.6,125.9 479.5,112.2 480.3,140.4 481.2,115.7 482.0,127.2 482.9,118.9 483.7,140.0 484.5,148.7 485.4,149.3 486.2,120.9 487.1,117.4 487.9,106.0 488.7,117.8 489.6,139.1 490.4,120.6 491.3,138.1 492.1,118.7 492.9,140.6 493.8,130.5 494.6,124.9 495.5,123.3 496.3,117.2 497.1,133.2 498.0,120.9 498.8,123.9 499.7,103.4 500.5,132.0 501.4,121.2 502.2,110.3 503.0,114.4 503.9,135.3 504.7,124.8 505.6,132.5 506.4,130.0 507.2,110.8 508.1,112.1 508.9,123.8 509.8,124.5 510.6,121.6 511.4,140.9 512.3,122.0 513.1,129.5 514.0,121.4 514.8,146.9 515.6,130.1 516.5,116.6 517.3,114.0 518.2,129.7 519.0,134.3 519.8,120.1 520.7,108.1 521.5,126.2 522.4,119.0 523.2,135.4 524.1,137.8 524.9,122.8 525.7,122.4 526.6,124.5 527.4,133.3 528.3,108.9 529.1,118.2 529.9,114.9 530.8,130.6 531.6,135.6 532.5,128.3 533.3,123.8 534.1,126.9 535.0,121.0 535.8,126.9 536.7,129.4 537.5,130.6 538.3,133.8 539.2,127.6 540.0,102.1 540.9,148.4 541.7,140.2 542.6,126.4 543.4,140.2 544.2,131.1 545.1,126.6 545.9,124.8 546.8,148.4 547.6,104.7 548.4,132.8 549.3,149.6 550.1,106.1 551.0,115.9 551.8,127.7 552.6,131.8 553.5,111.4 554.3,131.9 555.2,131.4 556.0,127.7 556.8,129.4 557.7,119.3 558.5,119.1 559.4,117.3 560.2,143.4 561.1,128.6 561.9,108.0 562.7,119.1 563.6,119.6 564.4,123.1 565.3,139.5 566.1,115.3 566.9,151.0 567.8,126.0 568.6,114.9 569.5,132.5 570.3,143.0 571.1,124.6 572.0,125.8 572.8,132.4 573.7,126.8 574.5,113.5 575.3,114.5 576.2,136.5 577.0,127.8 577.9,112.0 578.7,116.3 579.5,112.7 580.4,132.5 581.2,136.7 582.1,147.5 582.9,134.9 583.8,130.5 584.6,111.3 585.4,126.8 586.3,128.6 587.1,121.5 588.0,111.0 588.8,115.0 589.6,117.6 590.5,124.1 591.3,124.1 592.2,125.7 593.0,118.2 593.8,130.7 594.7,110.6 595.5,126.1 596.4,136.4 597.2,128.9 598.0,139.8 598.9,140.7 599.7,126.6 600.6,135.3 601.4,122.9 602.3,129.9 603.1,107.7 603.9,127.0 604.8,107.9 605.6,122.9 606.5,114.7 607.3,116.3 608.1,128.7 609.0,131.3 609.8,128.7 610.7,126.8 611.5,138.6 612.3,124.8 613.2,117.1 614.0,135.1 614.9,119.5 615.7,138.0 616.5,130.1 617.4,130.7 618.2,132.2 619.1,127.0 619.9,138.2 620.8,120.0 621.6,135.8 622.4,142.0 623.3,126.0 624.1,119.7 625.0,139.2 625.8,125.9 626.6,132.4 627.5,127.2 628.3,137.2 629.2,147.6 630.0,129.8 630.8,122.0 631.7,108.2 632.5,117.6 633.4,128.0 634.2,139.5 635.0,115.8 635.9,128.2 636.7,124.7 637.6,112.4 638.4,118.9 639.2,129.4 640.1,111.7 640.9,130.2 641.8,112.7 642.6,97.5 643.5,136.7 644.3,123.7 645.1,130.7 646.0,135.1 646.8,139.1 647.7,113.1 648.5,125.3 649.3,118.5 650.2,125.0 651.0,137.6 651.9,115.1 652.7,129.9 653.5,118.1 654.4,115.3 655.2,117.4 656.1,112.8 656.9,132.4 657.7,124.9 658.6,136.1 659.4,127.5 660.3,125.1 661.1,117.3 662.0,111.7 662.8,128.7 663.6,118.3 664.5,124.7 665.3,133.5 666.2,136.8 667.0,139.1 667.8,114.1 668.7,114.3 669.5,120.3 670.4,134.1 671.2,117.7 672.0,129.4 672.9,109.5 673.7,138.9 674.6,137.8 675.4,138.7 676.2,124.3 677.1,110.9 677.9,135.1 678.8,119.4 679.6,89.0 680.5,111.7 681.3,119.2 682.1,139.2 683.0,110.5 683.8,125.4 684.7,137.5 685.5,100.2 686.3,141.0 687.2,115.7 688.0,137.3 688.9,123.7 689.7,127.7 690.5,148.7 691.4,118.2 692.2,123.7 693.1,119.5 693.9,133.4 694.7,120.4 695.6,114.8 696.4,119.8 697.3,142.4 698.1,125.1 698.9,125.6 699.8,104.5 700.6,113.5 701.5,133.0 702.3,113.0 703.2,128.3 704.0,116.7 704.8,119.9 705.7,111.8 706.5,114.2 707.4,134.1 708.2,119.9 709.0,117.0 709.9,132.0 710.7,125.5 711.6,133.8 712.4,108.7 713.2,133.6 714.1,130.9 714.9,120.6 715.8,126.2 716.6,106.4 717.4,124.9 718.3,120.5 719.1,137.7 720.0,130.6 720.8,128.2 721.7,131.2 722.5,124.0 723.3,132.8 724.2,137.9 725.0,125.5 725.9,109.1 726.7,137.8 727.5,123.0 728.4,130.5 729.2,132.1 730.1,142.8 730.9,107.2 731.7,117.2 732.6,114.6 733.4,125.1 734.3,123.6 735.1,118.2 735.9,109.6 736.8,120.0 737.6,138.7 738.5,114.6 739.3,125.0 740.2,126.4 741.0,120.8 741.8,117.7 742.7,112.7 743.5,126.6 744.4,121.7 745.2,119.6 746.0,129.5 746.9,131.0 747.7,124.8 748.6,124.2 749.4,128.9 750.2,131.7 751.1,133.0 751.9,150.8 752.8,121.0 753.6,109.1 754.4,133.9 755.3,128.2 756.1,115.0 757.0,125.5 757.8,112.0 758.6,141.5 759.5,129.6 760.3,114.8 761.2,134.3 762.0,128.7 762.9,131.7 763.7,119.8 764.5,128.9 765.4,133.5 766.2,147.3 767.1,129.5 767.9,119.0 768.7,112.6 769.6,128.1 770.4,123.5 771.3,118.1 772.1,123.5 772.9,122.2 773.8,118.7 774.6,126.4 775.5,135.9 776.3,130.1 777.1,126.8 778.0,133.3 778.8,102.3 779.7,124.4 780.5,139.6 781.4,117.1 782.2,136.9 783.0,120.3 783.9,114.3 784.7,141.2 785.6,128.2 786.4,107.0 787.2,131.3 788.1,123.6 788.9,124.1 789.8,117.3 790.6,125.6 791.4,113.5 792.3,121.6 793.1,119.5 794.0,134.1 794.8,129.0 795.6,129.6 796.5,126.3 797.3,113.2 798.2,137.3 799.0,128.1 799.8,122.8 800.7,118.4 801.5,134.6 802.4,126.1 803.2,128.1 804.1,130.6 804.9,126.9 805.7,137.3 806.6,129.4 807.4,123.8 808.3,137.7 809.1,130.0 809.9,123.3 810.8,124.6 811.6,136.9 812.5,133.3 813.3,143.5 814.1,116.2 815.0,108.2 815.8,119.6 816.7,134.0 817.5,128.8 818.3,121.5 819.2,107.1 820.0,143.5 820.9,120.2 821.7,131.1 822.6,119.3 823.4,122.0 824.2,115.5 825.1,117.2 825.9,112.2 826.8,138.6 827.6,118.9 828.4,120.1 829.3,118.6 830.1,131.6 831.0,118.7 831.8,124.3 832.6,127.1 833.5,111.8 834.3,122.2 835.2,123.0 836.0,114.9 836.8,113.9 837.7,136.4 838.5,127.0 839.4,100.5 840.2,124.7 841.1,131.2 841.9,119.8 842.7,111.0 843.6,128.3 844.4,116.0 845.3,118.0 846.1,119.6 846.9,134.7 847.8,126.2 848.6,109.1 849.5,103.0 850.3,134.3 851.1,133.5 852.0,130.0 852.8,118.7 853.7,107.1 854.5,143.3 855.3,113.2 856.2,135.4 857.0,121.6 857.9,126.8 858.7,127.3 859.5,132.7 860.4,135.0 861.2,138.5 862.1,112.0 862.9,126.1 863.8,137.5 864.6,127.8 865.4,116.6 866.3,119.8 867.1,144.2 868.0,137.7 868.8,118.9 869.6,131.1 870.5,120.2 871.3,113.1 872.2,130.2 873.0,139.2 873.8,131.1 874.7,143.4 875.5,117.0 876.4,133.3 877.2,112.5 878.0,110.6 878.9,129.8 879.7,124.3 880.6,131.4 881.4,146.1 882.3,126.8 883.1,124.4 883.9,118.2 884.8,122.7 885.6,120.8 886.5,122.2 887.3,108.8 888.1,117.8 889.0,119.6 889.8,115.6 890.7,121.7 891.5,106.2 892.3,118.3 893.2,133.8 894.0,135.3 894.9,126.2 895.7,121.2 896.5,140.2 897.4,125.8 898.2,119.3 899.1,123.1 899.9,125.8 900.8,131.9 901.6,132.1 902.4,143.3 903.3,105.8 904.1,112.2 905.0,126.8 905.8,117.3 906.6,121.7 907.5,118.3 908.3,132.7 909.2,119.1 910.0,103.9"/>
<line x1="730" y1="120" x2="754" y2="120" stroke="#9333ea" stroke-width="3"/>
<text x="762" y="125" font-family="Arial" font-size="13" fill="#111827">Epsilon 0.10</text>
<polyline fill="none" stroke="#ea580c" stroke-width="2.2" points="70.0,403.5 70.8,386.4 71.7,399.5 72.5,378.3 73.4,409.0 74.2,375.1 75.0,386.6 75.9,391.8 76.7,386.0 77.6,393.8 78.4,204.4 79.2,217.3 80.1,235.5 80.9,259.1 81.8,223.6 82.6,243.2 83.5,221.5 84.3,246.8 85.1,241.6 86.0,226.2 86.8,225.4 87.7,223.8 88.5,219.8 89.3,230.9 90.2,227.5 91.0,226.3 91.9,216.3 92.7,197.5 93.5,225.6 94.4,206.0 95.2,212.3 96.1,186.3 96.9,195.2 97.7,220.2 98.6,200.4 99.4,198.9 100.3,201.3 101.1,198.6 102.0,193.0 102.8,181.4 103.6,196.0 104.5,176.5 105.3,194.1 106.2,183.4 107.0,158.5 107.8,180.8 108.7,164.0 109.5,188.6 110.4,194.9 111.2,189.7 112.0,177.3 112.9,172.6 113.7,185.0 114.6,176.1 115.4,168.3 116.2,182.5 117.1,176.3 117.9,192.2 118.8,167.8 119.6,181.0 120.5,172.5 121.3,166.6 122.1,169.2 123.0,167.1 123.8,148.2 124.7,159.3 125.5,179.7 126.3,174.8 127.2,144.9 128.0,160.7 128.9,151.3 129.7,146.8 130.5,146.9 131.4,151.2 132.2,166.0 133.1,152.7 133.9,162.2 134.7,159.9 135.6,161.4 136.4,153.0 137.3,136.2 138.1,157.9 138.9,155.0 139.8,161.0 140.6,148.2 141.5,181.4 142.3,132.9 143.2,156.0 144.0,174.5 144.8,167.6 145.7,162.0 146.5,164.6 147.4,158.4 148.2,150.5 149.0,160.3 149.9,171.9 150.7,142.3 151.6,150.5 152.4,151.9 153.2,136.4 154.1,167.0 154.9,152.3 155.8,154.4 156.6,146.2 157.4,147.0 158.3,146.9 159.1,142.6 160.0,151.2 160.8,135.5 161.7,148.0 162.5,128.3 163.3,149.3 164.2,166.5 165.0,138.2 165.9,131.3 166.7,157.6 167.5,132.1 168.4,135.6 169.2,142.2 170.1,135.3 170.9,139.5 171.7,139.3 172.6,148.1 173.4,144.1 174.3,135.4 175.1,149.0 175.9,149.9 176.8,150.5 177.6,166.5 178.5,154.0 179.3,143.5 180.2,118.3 181.0,155.8 181.8,150.5 182.7,131.4 183.5,137.2 184.4,133.4 185.2,135.9 186.0,151.8 186.9,128.4 187.7,133.4 188.6,149.9 189.4,135.0 190.2,151.2 191.1,131.9 191.9,144.4 192.8,154.9 193.6,138.8 194.4,140.4 195.3,140.6 196.1,123.1 197.0,138.9 197.8,129.2 198.6,131.9 199.5,137.9 200.3,140.7 201.2,119.6 202.0,128.2 202.9,145.1 203.7,132.9 204.5,127.7 205.4,133.4 206.2,128.9 207.1,139.0 207.9,122.8 208.7,141.5 209.6,142.5 210.4,145.1 211.3,118.2 212.1,113.5 212.9,136.7 213.8,140.5 214.6,130.6 215.5,114.8 216.3,140.3 217.1,127.3 218.0,121.7 218.8,140.4 219.7,105.4 220.5,119.5 221.4,133.7 222.2,140.8 223.0,130.7 223.9,128.8 224.7,120.7 225.6,125.8 226.4,110.2 227.2,125.4 228.1,120.3 228.9,111.9 229.8,122.1 230.6,136.6 231.4,124.6 232.3,123.5 233.1,123.7 234.0,127.1 234.8,130.1 235.6,131.8 236.5,129.9 237.3,115.9 238.2,107.7 239.0,117.6 239.8,124.1 240.7,114.6 241.5,118.1 242.4,118.8 243.2,131.4 244.1,115.3 244.9,118.8 245.7,121.4 246.6,125.5 247.4,114.5 248.3,116.7 249.1,112.9 249.9,124.5 250.8,120.6 251.6,107.7 252.5,115.8 253.3,115.8 254.1,129.0 255.0,119.3 255.8,108.7 256.7,126.2 257.5,135.8 258.3,120.2 259.2,126.2 260.0,111.8 260.9,111.1 261.7,129.4 262.6,115.1 263.4,107.5 264.2,122.3 265.1,119.4 265.9,114.1 266.8,141.0 267.6,111.2 268.4,115.9 269.3,123.6 270.1,126.9 271.0,106.0 271.8,110.3 272.6,115.4 273.5,109.4 274.3,109.8 275.2,124.5 276.0,116.8 276.8,108.4 277.7,104.5 278.5,115.5 279.4,114.6 280.2,116.5 281.1,121.1 281.9,122.0 282.7,119.4 283.6,100.8 284.4,128.6 285.3,114.7 286.1,135.5 286.9,101.5 287.8,115.2 288.6,106.6 289.5,109.8 290.3,115.8 291.1,117.9 292.0,118.7 292.8,106.5 293.7,114.3 294.5,123.5 295.3,103.7 296.2,109.8 297.0,111.5 297.9,124.0 298.7,104.7 299.5,105.9 300.4,103.3 301.2,118.7 302.1,104.7 302.9,105.4 303.8,112.4 304.6,112.8 305.4,119.9 306.3,120.0 307.1,117.7 308.0,101.5 308.8,110.4 309.6,115.3 310.5,118.7 311.3,120.4 312.2,113.0 313.0,111.3 313.8,98.9 314.7,131.3 315.5,109.6 316.4,131.4 317.2,120.8 318.0,123.6 318.9,115.7 319.7,121.4 320.6,118.7 321.4,120.0 322.3,114.7 323.1,115.1 323.9,117.7 324.8,120.0 325.6,116.0 326.5,124.5 327.3,114.9 328.1,118.5 329.0,110.7 329.8,86.9 330.7,108.1 331.5,113.4 332.3,112.7 333.2,98.6 334.0,117.2 334.9,96.9 335.7,125.1 336.5,111.7 337.4,110.6 338.2,108.3 339.1,111.0 339.9,128.8 340.8,117.8 341.6,120.8 342.4,118.5 343.3,121.7 344.1,119.4 345.0,106.4 345.8,121.9 346.6,123.2 347.5,129.8 348.3,108.7 349.2,114.3 350.0,113.7 350.8,126.1 351.7,100.2 352.5,108.6 353.4,106.1 354.2,110.3 355.0,113.2 355.9,122.9 356.7,106.6 357.6,109.2 358.4,101.6 359.2,120.6 360.1,112.1 360.9,117.8 361.8,107.4 362.6,108.4 363.5,101.9 364.3,110.0 365.1,114.3 366.0,100.1 366.8,94.5 367.7,88.1 368.5,107.4 369.3,99.3 370.2,105.6 371.0,115.4 371.9,105.2 372.7,109.6 373.5,105.3 374.4,116.0 375.2,114.1 376.1,110.7 376.9,103.8 377.7,116.5 378.6,92.8 379.4,104.3 380.3,108.1 381.1,113.4 382.0,134.7 382.8,116.0 383.6,113.4 384.5,109.8 385.3,126.3 386.2,120.9 387.0,101.3 387.8,100.0 388.7,118.8 389.5,111.0 390.4,109.2 391.2,97.3 392.0,104.8 392.9,119.3 393.7,105.7 394.6,102.8 395.4,99.7 396.2,102.1 397.1,111.7 397.9,106.4 398.8,105.9 399.6,107.9 400.5,125.4 401.3,116.5 402.1,117.0 403.0,111.8 403.8,101.3 404.7,101.2 405.5,119.1 406.3,100.0 407.2,109.8 408.0,112.6 408.9,93.2 409.7,88.3 410.5,106.9 411.4,93.8 412.2,121.7 413.1,115.5 413.9,115.3 414.7,103.1 415.6,98.4 416.4,109.6 417.3,107.1 418.1,113.9 418.9,92.2 419.8,101.7 420.6,127.3 421.5,96.4 422.3,114.7 423.2,117.0 424.0,116.6 424.8,98.7 425.7,101.5 426.5,112.1 427.4,102.2 428.2,101.4 429.0,124.0 429.9,108.2 430.7,99.3 431.6,100.0 432.4,95.4 433.2,98.1 434.1,117.9 434.9,111.3 435.8,100.2 436.6,100.7 437.4,108.5 438.3,95.1 439.1,101.7 440.0,113.2 440.8,104.4 441.7,100.4 442.5,120.0 443.3,99.2 444.2,107.5 445.0,104.1 445.9,112.0 446.7,104.9 447.5,103.3 448.4,117.2 449.2,99.3 450.1,95.5 450.9,100.9 451.7,108.7 452.6,103.6 453.4,106.6 454.3,113.8 455.1,119.2 455.9,113.6 456.8,118.2 457.6,118.2 458.5,103.8 459.3,103.6 460.2,96.4 461.0,118.0 461.8,111.4 462.7,108.6 463.5,105.1 464.4,102.2 465.2,110.7 466.0,97.5 466.9,105.4 467.7,98.5 468.6,117.6 469.4,94.3 470.2,95.1 471.1,108.1 471.9,110.0 472.8,106.9 473.6,124.4 474.4,122.3 475.3,111.6 476.1,114.5 477.0,107.4 477.8,116.1 478.6,96.7 479.5,96.3 480.3,94.2 481.2,104.0 482.0,98.9 482.9,85.6 483.7,105.7 484.5,104.2 485.4,110.6 486.2,101.1 487.1,109.2 487.9,99.0 488.7,105.4 489.6,91.8 490.4,119.7 491.3,105.8 492.1,108.4 492.9,103.3 493.8,101.5 494.6,97.0 495.5,107.9 496.3,101.2 497.1,90.6 498.0,109.9 498.8,97.3 499.7,111.7 500.5,106.1 501.4,97.3 502.2,105.4 503.0,96.9 503.9,114.8 504.7,106.7 505.6,113.4 506.4,112.0 507.2,117.2 508.1,111.6 508.9,106.9 509.8,85.6 510.6,99.4 511.4,98.9 512.3,102.5 513.1,106.8 514.0,104.0 514.8,105.8 515.6,109.1 516.5,121.1 517.3,100.0 518.2,100.3 519.0,101.4 519.8,104.6 520.7,103.6 521.5,105.0 522.4,124.7 523.2,91.6 524.1,83.5 524.9,104.0 525.7,96.3 526.6,95.1 527.4,96.8 528.3,106.8 529.1,98.2 529.9,113.5 530.8,113.1 531.6,108.0 532.5,101.3 533.3,107.8 534.1,100.3 535.0,109.8 535.8,111.6 536.7,103.3 537.5,95.6 538.3,103.3 539.2,105.2 540.0,119.2 540.9,109.9 541.7,87.8 542.6,120.2 543.4,95.9 544.2,102.5 545.1,103.5 545.9,108.3 546.8,90.9 547.6,96.7 548.4,116.1 549.3,104.4 550.1,98.5 551.0,98.4 551.8,106.1 552.6,96.8 553.5,97.3 554.3,116.2 555.2,108.4 556.0,115.8 556.8,101.8 557.7,110.5 558.5,106.0 559.4,102.6 560.2,100.0 561.1,96.3 561.9,98.9 562.7,100.1 563.6,97.3 564.4,116.2 565.3,119.0 566.1,106.0 566.9,95.1 567.8,91.9 568.6,106.9 569.5,82.1 570.3,91.0 571.1,92.7 572.0,99.5 572.8,97.9 573.7,106.9 574.5,97.8 575.3,107.8 576.2,91.7 577.0,98.2 577.9,112.3 578.7,111.6 579.5,101.8 580.4,105.3 581.2,103.6 582.1,98.9 582.9,103.8 583.8,100.2 584.6,91.5 585.4,97.2 586.3,120.7 587.1,113.4 588.0,91.9 588.8,85.4 589.6,97.8 590.5,98.6 591.3,112.7 592.2,107.0 593.0,101.0 593.8,107.0 594.7,100.2 595.5,99.6 596.4,106.8 597.2,125.1 598.0,101.2 598.9,107.2 599.7,106.9 600.6,98.6 601.4,95.8 602.3,98.3 603.1,110.8 603.9,123.3 604.8,109.8 605.6,107.7 606.5,101.0 607.3,104.4 608.1,102.3 609.0,97.3 609.8,109.1 610.7,98.4 611.5,114.7 612.3,109.4 613.2,120.2 614.0,102.6 614.9,91.5 615.7,102.7 616.5,93.2 617.4,121.1 618.2,106.0 619.1,93.7 619.9,84.3 620.8,111.6 621.6,103.5 622.4,108.5 623.3,89.0 624.1,105.0 625.0,109.1 625.8,97.1 626.6,111.8 627.5,100.0 628.3,97.0 629.2,105.7 630.0,99.2 630.8,80.9 631.7,102.5 632.5,118.7 633.4,114.2 634.2,96.3 635.0,100.3 635.9,94.4 636.7,101.5 637.6,104.2 638.4,96.3 639.2,102.3 640.1,100.3 640.9,79.0 641.8,102.2 642.6,98.8 643.5,102.9 644.3,91.0 645.1,125.0 646.0,100.3 646.8,109.1 647.7,101.9 648.5,110.9 649.3,117.0 650.2,97.3 651.0,97.3 651.9,74.3 652.7,99.1 653.5,93.7 654.4,108.3 655.2,97.2 656.1,97.5 656.9,113.9 657.7,102.3 658.6,113.2 659.4,105.0 660.3,84.6 661.1,88.9 662.0,103.5 662.8,102.4 663.6,106.6 664.5,113.9 665.3,83.8 666.2,111.9 667.0,96.5 667.8,101.5 668.7,98.9 669.5,107.3 670.4,81.5 671.2,102.0 672.0,86.3 672.9,104.4 673.7,105.3 674.6,113.5 675.4,91.6 676.2,98.1 677.1,96.6 677.9,108.0 678.8,102.5 679.6,82.8 680.5,93.4 681.3,99.8 682.1,109.0 683.0,97.2 683.8,101.7 684.7,97.1 685.5,103.0 686.3,94.4 687.2,100.8 688.0,90.2 688.9,108.1 689.7,95.3 690.5,119.9 691.4,105.4 692.2,121.3 693.1,117.4 693.9,92.9 694.7,93.5 695.6,96.5 696.4,102.7 697.3,98.9 698.1,93.5 698.9,86.2 699.8,104.9 700.6,106.9 701.5,100.3 702.3,100.9 703.2,93.9 704.0,114.6 704.8,108.2 705.7,118.4 706.5,108.2 707.4,97.7 708.2,97.3 709.0,95.9 709.9,102.5 710.7,96.3 711.6,110.5 712.4,103.3 713.2,117.0 714.1,108.3 714.9,105.9 715.8,94.4 716.6,92.7 717.4,102.6 718.3,107.5 719.1,101.2 720.0,102.1 720.8,93.5 721.7,118.2 722.5,105.6 723.3,124.0 724.2,107.4 725.0,107.5 725.9,88.5 726.7,93.1 727.5,108.6 728.4,117.9 729.2,92.9 730.1,79.4 730.9,115.5 731.7,114.4 732.6,88.1 733.4,84.4 734.3,98.2 735.1,100.2 735.9,85.1 736.8,103.5 737.6,102.9 738.5,94.5 739.3,110.3 740.2,113.6 741.0,111.9 741.8,98.8 742.7,83.7 743.5,89.9 744.4,103.6 745.2,100.9 746.0,101.3 746.9,107.0 747.7,100.3 748.6,97.7 749.4,113.4 750.2,95.9 751.1,97.8 751.9,103.6 752.8,110.2 753.6,105.0 754.4,122.1 755.3,94.8 756.1,126.6 757.0,97.3 757.8,107.0 758.6,93.5 759.5,107.0 760.3,80.7 761.2,110.7 762.0,100.9 762.9,85.3 763.7,93.6 764.5,108.5 765.4,99.9 766.2,86.3 767.1,103.9 767.9,77.5 768.7,93.6 769.6,100.5 770.4,95.7 771.3,83.2 772.1,87.3 772.9,101.9 773.8,96.2 774.6,100.4 775.5,71.6 776.3,106.1 777.1,93.2 778.0,96.1 778.8,101.2 779.7,95.7 780.5,100.6 781.4,97.2 782.2,85.1 783.0,104.1 783.9,98.8 784.7,99.3 785.6,123.6 786.4,90.5 787.2,97.4 788.1,102.9 788.9,87.4 789.8,92.3 790.6,95.7 791.4,92.2 792.3,100.1 793.1,94.5 794.0,105.9 794.8,97.4 795.6,89.7 796.5,86.9 797.3,94.5 798.2,111.8 799.0,109.8 799.8,107.7 800.7,112.1 801.5,98.1 802.4,100.5 803.2,99.5 804.1,105.9 804.9,100.1 805.7,90.3 806.6,82.9 807.4,99.0 808.3,94.0 809.1,108.0 809.9,96.3 810.8,118.6 811.6,105.4 812.5,98.2 813.3,95.9 814.1,77.1 815.0,91.2 815.8,95.1 816.7,89.7 817.5,90.1 818.3,98.3 819.2,91.0 820.0,92.9 820.9,105.1 821.7,97.8 822.6,93.7 823.4,101.7 824.2,109.1 825.1,96.0 825.9,98.6 826.8,95.8 827.6,96.6 828.4,85.2 829.3,96.7 830.1,116.0 831.0,109.8 831.8,102.0 832.6,93.9 833.5,92.6 834.3,108.2 835.2,104.2 836.0,101.0 836.8,102.2 837.7,98.0 838.5,86.0 839.4,83.2 840.2,110.6 841.1,103.7 841.9,98.5 842.7,101.3 843.6,85.8 844.4,85.8 845.3,100.0 846.1,106.5 846.9,97.2 847.8,99.8 848.6,95.1 849.5,108.2 850.3,102.6 851.1,85.0 852.0,87.9 852.8,101.8 853.7,94.8 854.5,109.4 855.3,121.1 856.2,100.3 857.0,78.0 857.9,84.2 858.7,81.9 859.5,89.2 860.4,97.3 861.2,110.6 862.1,74.4 862.9,99.5 863.8,105.1 864.6,84.3 865.4,107.1 866.3,96.2 867.1,104.9 868.0,104.4 868.8,86.4 869.6,97.1 870.5,105.4 871.3,91.5 872.2,103.4 873.0,88.7 873.8,91.0 874.7,97.6 875.5,97.8 876.4,112.0 877.2,91.2 878.0,94.9 878.9,108.4 879.7,115.3 880.6,101.0 881.4,101.8 882.3,96.7 883.1,103.4 883.9,108.7 884.8,100.0 885.6,99.8 886.5,110.0 887.3,103.9 888.1,113.0 889.0,95.5 889.8,94.8 890.7,99.3 891.5,93.9 892.3,90.0 893.2,89.3 894.0,95.5 894.9,87.3 895.7,85.1 896.5,95.4 897.4,88.4 898.2,102.7 899.1,101.8 899.9,101.0 900.8,93.2 901.6,100.6 902.4,91.7 903.3,104.8 904.1,102.4 905.0,95.4 905.8,91.8 906.6,110.2 907.5,89.4 908.3,92.4 909.2,112.6 910.0,95.8"/>
<line x1="730" y1="142" x2="754" y2="142" stroke="#ea580c" stroke-width="3"/>
<text x="762" y="147" font-family="Arial" font-size="13" fill="#111827">UCB c=2</text>
</svg>