<svg xmlns="http://www.w3.org/2000/svg" width="980" height="520" viewBox="0 0 980 520">
<rect width="100%" height="100%" fill="#ffffff"/>
<text x="70" y="34" font-family="Arial" font-size="24" font-weight="700" fill="#111827">Optimal Action Rate: 10 arms</text>
<line x1="70" y1="450" x2="910" y2="450" stroke="#111827" stroke-width="1"/>
<line x1="70" y1="70" x2="70" y2="450" stroke="#111827" stroke-width="1"/>
<text x="18" y="260.0" font-family="Arial" font-size="14" fill="#374151" transform="rotate(-90 18,260.0)">Optimal action rate</text>
<text x="460.0" y="502" font-family="Arial" font-size="14" fill="#374151">Step</text>
<line x1="65" y1="450.0" x2="910" y2="450.0" stroke="#e5e7eb" stroke-width="1"/>
<text x="8" y="455.0" font-family="Arial" font-size="12" fill="#4b5563">0.00</text>
<line x1="65" y1="374.0" x2="910" y2="374.0" stroke="#e5e7eb" stroke-width="1"/>
<text x="8" y="379.0" font-family="Arial" font-size="12" fill="#4b5563">0.18</text>
<line x1="65" y1="298.0" x2="910" y2="298.0" stroke="#e5e7eb" stroke-width="1"/>
<text x="8" y="303.0" font-family="Arial" font-size="12" fill="#4b5563">0.36</text>
<line x1="65" y1="222.0" x2="910" y2="222.0" stroke="#e5e7eb" stroke-width="1"/>
<text x="8" y="227.0" font-family="Arial" font-size="12" fill="#4b5563">0.54</text>
<line x1="65" y1="146.0" x2="910" y2="146.0" stroke="#e5e7eb" stroke-width="1"/>
<text x="8" y="151.0" font-family="Arial" font-size="12" fill="#4b5563">0.72</text>
<line x1="65" y1="70.0" x2="910" y2="70.0" stroke="#e5e7eb" stroke-width="1"/>
<text x="8" y="75.0" font-family="Arial" font-size="12" fill="#4b5563">0.90</text>
<polyline fill="none" stroke="#2563eb" stroke-width="2.2" points="70.0,411.2 70.8,409.5 71.7,402.7 72.5,403.6 73.4,412.0 74.2,409.5 75.0,409.5 75.9,412.8 76.7,411.2 77.6,419.6 78.4,408.6 79.2,406.9 80.1,408.6 80.9,423.8 81.8,404.4 82.6,401.9 83.5,412.0 84.3,406.9 85.1,406.9 86.0,396.8 86.8,406.9 87.7,417.9 88.5,410.3 89.3,413.7 90.2,402.7 91.0,415.4 91.9,399.3 92.7,403.6 93.5,407.8 94.4,413.7 95.2,416.2 96.1,419.6 96.9,409.5 97.7,410.3 98.6,408.6 99.4,403.6 100.3,412.0 101.1,417.1 102.0,403.6 102.8,408.6 103.6,405.2 104.5,403.6 105.3,410.3 106.2,396.0 107.0,400.2 107.8,404.4 108.7,398.5 109.5,409.5 110.4,398.5 111.2,394.3 112.0,408.6 112.9,416.2 113.7,406.9 114.6,412.0 115.4,404.4 116.2,406.9 117.1,414.5 117.9,403.6 118.8,400.2 119.6,409.5 120.5,405.2 121.3,404.4 122.1,408.6 123.0,413.7 123.8,401.9 124.7,412.0 125.5,411.2 126.3,410.3 127.2,404.4 128.0,400.2 128.9,402.7 129.7,413.7 130.5,410.3 131.4,405.2 132.2,402.7 133.1,400.2 133.9,411.2 134.7,410.3 135.6,403.6 136.4,401.9 137.3,413.7 138.1,406.9 138.9,404.4 139.8,409.5 140.6,409.5 141.5,404.4 142.3,392.6 143.2,414.5 144.0,406.1 144.8,411.2 145.7,401.9 146.5,406.1 147.4,391.7 148.2,408.6 149.0,401.9 149.9,403.6 150.7,405.2 151.6,403.6 152.4,412.8 153.2,404.4 154.1,403.6 154.9,400.2 155.8,402.7 156.6,418.8 157.4,408.6 158.3,394.3 159.1,406.1 160.0,406.1 160.8,417.9 161.7,402.7 162.5,408.6 163.3,401.9 164.2,407.8 165.0,411.2 165.9,416.2 166.7,405.2 167.5,410.3 168.4,410.3 169.2,410.3 170.1,411.2 170.9,396.0 171.7,403.6 172.6,410.3 173.4,412.8 174.3,415.4 175.1,408.6 175.9,406.1 176.8,409.5 177.6,407.8 178.5,414.5 179.3,411.2 180.2,406.1 181.0,414.5 181.8,401.9 182.7,408.6 183.5,410.3 184.4,403.6 185.2,409.5 186.0,405.2 186.9,413.7 187.7,412.8 188.6,413.7 189.4,417.9 190.2,403.6 191.1,409.5 191.9,413.7 192.8,406.9 193.6,412.0 194.4,422.1 195.3,400.2 196.1,412.0 197.0,409.5 197.8,415.4 198.6,405.2 199.5,411.2 200.3,403.6 201.2,405.2 202.0,402.7 202.9,406.1 203.7,405.2 204.5,406.1 205.4,410.3 206.2,411.2 207.1,406.1 207.9,419.6 208.7,406.1 209.6,413.7 210.4,390.0 211.3,401.9 212.1,402.7 212.9,409.5 213.8,413.7 214.6,422.1 215.5,407.8 216.3,412.8 217.1,408.6 218.0,406.1 218.8,406.1 219.7,410.3 220.5,412.8 221.4,411.2 222.2,410.3 223.0,403.6 223.9,410.3 224.7,413.7 225.6,412.8 226.4,406.9 227.2,401.0 228.1,403.6 228.9,412.8 229.8,409.5 230.6,405.2 231.4,413.7 232.3,406.9 233.1,417.9 234.0,407.8 234.8,404.4 235.6,419.6 236.5,411.2 237.3,405.2 238.2,413.7 239.0,410.3 239.8,417.1 240.7,414.5 241.5,412.8 242.4,396.8 243.2,406.1 244.1,402.7 244.9,397.6 245.7,405.2 246.6,410.3 247.4,401.9 248.3,411.2 249.1,401.9 249.9,394.3 250.8,410.3 251.6,403.6 252.5,397.6 253.3,410.3 254.1,400.2 255.0,406.9 255.8,405.2 256.7,410.3 257.5,412.8 258.3,410.3 259.2,408.6 260.0,406.1 260.9,409.5 261.7,402.7 262.6,411.2 263.4,415.4 264.2,394.3 265.1,406.1 265.9,411.2 266.8,411.2 267.6,403.6 268.4,404.4 269.3,410.3 270.1,413.7 271.0,404.4 271.8,394.3 272.6,412.8 273.5,406.1 274.3,403.6 275.2,408.6 276.0,412.8 276.8,416.2 277.7,397.6 278.5,407.8 279.4,412.0 280.2,397.6 281.1,406.1 281.9,406.9 282.7,395.1 283.6,412.8 284.4,412.0 285.3,404.4 286.1,412.0 286.9,404.4 287.8,402.7 288.6,410.3 289.5,414.5 290.3,398.5 291.1,398.5 292.0,411.2 292.8,405.2 293.7,411.2 294.5,413.7 295.3,401.0 296.2,403.6 297.0,402.7 297.9,408.6 298.7,409.5 299.5,406.1 300.4,404.4 301.2,412.8 302.1,414.5 302.9,401.9 303.8,408.6 304.6,418.8 305.4,402.7 306.3,401.0 307.1,399.3 308.0,406.1 308.8,413.7 309.6,405.2 310.5,406.1 311.3,415.4 312.2,410.3 313.0,408.6 313.8,417.9 314.7,416.2 315.5,412.0 316.4,406.9 317.2,410.3 318.0,401.9 318.9,412.8 319.7,409.5 320.6,408.6 321.4,415.4 322.3,408.6 323.1,410.3 323.9,404.4 324.8,396.8 325.6,416.2 326.5,406.9 327.3,407.8 328.1,396.8 329.0,410.3 329.8,406.9 330.7,407.8 331.5,418.8 332.3,402.7 333.2,411.2 334.0,401.9 334.9,406.1 335.7,417.1 336.5,405.2 337.4,409.5 338.2,415.4 339.1,401.9 339.9,406.1 340.8,402.7 341.6,408.6 342.4,410.3 343.3,407.8 344.1,406.9 345.0,407.8 345.8,400.2 346.6,402.7 347.5,412.8 348.3,406.1 349.2,415.4 350.0,418.8 350.8,402.7 351.7,410.3 352.5,406.1 353.4,396.0 354.2,412.8 355.0,405.2 355.9,417.9 356.7,412.0 357.6,408.6 358.4,401.9 359.2,417.1 360.1,414.5 360.9,403.6 361.8,402.7 362.6,405.2 363.5,408.6 364.3,398.5 365.1,410.3 366.0,417.1 366.8,408.6 367.7,414.5 368.5,405.2 369.3,408.6 370.2,411.2 371.0,398.5 371.9,418.8 372.7,414.5 373.5,396.0 374.4,406.1 375.2,409.5 376.1,415.4 376.9,400.2 377.7,409.5 378.6,401.0 379.4,406.1 380.3,406.9 381.1,400.2 382.0,406.1 382.8,411.2 383.6,407.8 384.5,416.2 385.3,402.7 386.2,412.0 387.0,413.7 387.8,413.7 388.7,417.1 389.5,412.8 390.4,404.4 391.2,407.8 392.0,416.2 392.9,412.0 393.7,408.6 394.6,408.6 395.4,406.1 396.2,406.9 397.1,408.6 397.9,405.2 398.8,402.7 399.6,406.9 400.5,412.0 401.3,406.1 402.1,411.2 403.0,406.1 403.8,412.0 404.7,412.0 405.5,402.7 406.3,412.0 407.2,410.3 408.0,407.8 408.9,402.7 409.7,412.0 410.5,410.3 411.4,409.5 412.2,404.4 413.1,400.2 413.9,406.1 414.7,416.2 415.6,408.6 416.4,408.6 417.3,406.9 418.1,404.4 418.9,406.9 419.8,412.0 420.6,410.3 421.5,410.3 422.3,410.3 423.2,398.5 424.0,409.5 424.8,405.2 425.7,416.2 426.5,408.6 427.4,406.9 428.2,407.8 429.0,398.5 429.9,401.0 430.7,410.3 431.6,414.5 432.4,402.7 433.2,406.1 434.1,410.3 434.9,414.5 435.8,413.7 436.6,392.6 437.4,418.8 438.3,396.8 439.1,419.6 440.0,392.6 440.8,409.5 441.7,413.7 442.5,408.6 443.3,403.6 444.2,402.7 445.0,401.0 445.9,412.0 446.7,407.8 447.5,404.4 448.4,412.8 449.2,405.2 450.1,396.0 450.9,408.6 451.7,403.6 452.6,412.0 453.4,414.5 454.3,407.8 455.1,406.9 455.9,407.8 456.8,412.8 457.6,414.5 458.5,409.5 459.3,398.5 460.2,408.6 461.0,406.9 461.8,408.6 462.7,397.6 463.5,391.7 464.4,392.6 465.2,416.2 466.0,409.5 466.9,390.9 467.7,405.2 468.6,390.9 469.4,411.2 470.2,410.3 471.1,420.4 471.9,401.0 472.8,411.2 473.6,417.9 474.4,398.5 475.3,406.9 476.1,412.8 477.0,410.3 477.8,401.9 478.6,406.1 479.5,411.2 480.3,410.3 481.2,401.0 482.0,417.9 482.9,406.1 483.7,396.0 484.5,404.4 485.4,406.9 486.2,406.1 487.1,403.6 487.9,417.1 488.7,415.4 489.6,412.0 490.4,419.6 491.3,411.2 492.1,407.8 492.9,413.7 493.8,412.8 494.6,420.4 495.5,405.2 496.3,408.6 497.1,411.2 498.0,404.4 498.8,409.5 499.7,417.1 500.5,415.4 501.4,408.6 502.2,416.2 503.0,404.4 503.9,426.4 504.7,406.9 505.6,411.2 506.4,401.0 507.2,397.6 508.1,402.7 508.9,405.2 509.8,403.6 510.6,417.1 511.4,413.7 512.3,412.8 513.1,404.4 514.0,401.0 514.8,403.6 515.6,408.6 516.5,402.7 517.3,409.5 518.2,410.3 519.0,403.6 519.8,409.5 520.7,399.3 521.5,402.7 522.4,406.9 523.2,406.1 524.1,400.2 524.9,400.2 525.7,406.1 526.6,408.6 527.4,410.3 528.3,405.2 529.1,408.6 529.9,406.1 530.8,407.8 531.6,400.2 532.5,413.7 533.3,408.6 534.1,399.3 535.0,415.4 535.8,419.6 536.7,414.5 537.5,414.5 538.3,401.9 539.2,406.1 540.0,409.5 540.9,414.5 541.7,396.8 542.6,404.4 543.4,414.5 544.2,407.8 545.1,407.8 545.9,417.1 546.8,405.2 547.6,409.5 548.4,402.7 549.3,407.8 550.1,409.5 551.0,403.6 551.8,408.6 552.6,400.2 553.5,398.5 554.3,411.2 555.2,416.2 556.0,405.2 556.8,414.5 557.7,405.2 558.5,407.8 559.4,416.2 560.2,403.6 561.1,408.6 561.9,401.0 562.7,418.8 563.6,413.7 564.4,410.3 565.3,415.4 566.1,401.9 566.9,396.0 567.8,405.2 568.6,397.6 569.5,406.9 570.3,401.9 571.1,414.5 572.0,407.8 572.8,398.5 573.7,414.5 574.5,408.6 575.3,409.5 576.2,408.6 577.0,417.1 577.9,406.9 578.7,404.4 579.5,411.2 580.4,414.5 581.2,409.5 582.1,405.2 582.9,407.8 583.8,407.8 584.6,422.1 585.4,412.0 586.3,413.7 587.1,410.3 588.0,403.6 588.8,420.4 589.6,405.2 590.5,414.5 591.3,401.9 592.2,410.3 593.0,408.6 593.8,411.2 594.7,402.7 595.5,405.2 596.4,402.7 597.2,408.6 598.0,415.4 598.9,408.6 599.7,410.3 600.6,405.2 601.4,407.8 602.3,411.2 603.1,401.9 603.9,409.5 604.8,415.4 605.6,399.3 606.5,419.6 607.3,407.8 608.1,396.0 609.0,412.0 609.8,404.4 610.7,412.0 611.5,404.4 612.3,405.2 613.2,403.6 614.0,403.6 614.9,415.4 615.7,412.0 616.5,401.0 617.4,404.4 618.2,399.3 619.1,401.0 619.9,408.6 620.8,404.4 621.6,400.2 622.4,390.9 623.3,406.9 624.1,405.2 625.0,405.2 625.8,406.1 626.6,406.9 627.5,408.6 628.3,397.6 629.2,403.6 630.0,404.4 630.8,401.0 631.7,407.8 632.5,415.4 633.4,411.2 634.2,406.1 635.0,417.1 635.9,412.8 636.7,413.7 637.6,406.1 638.4,400.2 639.2,410.3 640.1,406.9 640.9,400.2 641.8,416.2 642.6,403.6 643.5,410.3 644.3,404.4 645.1,412.8 646.0,409.5 646.8,402.7 647.7,412.0 648.5,413.7 649.3,411.2 650.2,405.2 651.0,406.9 651.9,406.9 652.7,417.9 653.5,406.9 654.4,405.2 655.2,404.4 656.1,399.3 656.9,406.9 657.7,402.7 658.6,411.2 659.4,413.7 660.3,407.8 661.1,406.9 662.0,404.4 662.8,407.8 663.6,409.5 664.5,402.7 665.3,412.0 666.2,401.9 667.0,421.3 667.8,407.8 668.7,414.5 669.5,406.9 670.4,412.0 671.2,410.3 672.0,408.6 672.9,412.0 673.7,402.7 674.6,397.6 675.4,408.6 676.2,400.2 677.1,402.7 677.9,410.3 678.8,413.7 679.6,406.1 680.5,404.4 681.3,410.3 682.1,406.9 683.0,392.6 683.8,416.2 684.7,409.5 685.5,411.2 686.3,398.5 687.2,420.4 688.0,411.2 688.9,397.6 689.7,417.1 690.5,399.3 691.4,412.0 692.2,409.5 693.1,421.3 693.9,413.7 694.7,408.6 695.6,411.2 696.4,412.0 697.3,411.2 698.1,404.4 698.9,406.9 699.8,405.2 700.6,406.1 701.5,407.8 702.3,406.9 703.2,418.8 704.0,403.6 704.8,401.9 705.7,406.1 706.5,402.7 707.4,409.5 708.2,412.8 709.0,413.7 709.9,396.8 710.7,404.4 711.6,407.8 712.4,409.5 713.2,414.5 714.1,412.8 714.9,415.4 715.8,406.9 716.6,404.4 717.4,405.2 718.3,412.0 719.1,414.5 720.0,406.1 720.8,408.6 721.7,403.6 722.5,417.9 723.3,406.9 724.2,406.9 725.0,410.3 725.9,412.8 726.7,417.9 727.5,412.8 728.4,407.8 729.2,414.5 730.1,396.8 730.9,404.4 731.7,415.4 732.6,409.5 733.4,407.8 734.3,410.3 735.1,398.5 735.9,406.1 736.8,393.4 737.6,402.7 738.5,412.8 739.3,403.6 740.2,400.2 741.0,404.4 741.8,406.9 742.7,411.2 743.5,402.7 744.4,406.1 745.2,412.8 746.0,413.7 746.9,405.2 747.7,403.6 748.6,410.3 749.4,401.9 750.2,407.8 751.1,414.5 751.9,410.3 752.8,394.3 753.6,416.2 754.4,403.6 755.3,415.4 756.1,401.0 757.0,401.9 757.8,412.0 758.6,408.6 759.5,408.6 760.3,411.2 761.2,406.9 762.0,401.9 762.9,409.5 763.7,418.8 764.5,415.4 765.4,419.6 766.2,407.8 767.1,403.6 767.9,396.0 768.7,404.4 769.6,406.1 770.4,404.4 771.3,409.5 772.1,404.4 772.9,394.3 773.8,415.4 774.6,404.4 775.5,401.0 776.3,397.6 777.1,413.7 778.0,396.8 778.8,417.1 779.7,395.1 780.5,405.2 781.4,405.2 782.2,400.2 783.0,403.6 783.9,396.0 784.7,391.7 785.6,408.6 786.4,401.9 787.2,414.5 788.1,401.9 788.9,405.2 789.8,404.4 790.6,406.9 791.4,408.6 792.3,405.2 793.1,409.5 794.0,402.7 794.8,412.0 795.6,404.4 796.5,407.8 797.3,404.4 798.2,399.3 799.0,412.8 799.8,407.8 800.7,408.6 801.5,402.7 802.4,397.6 803.2,405.2 804.1,390.9 804.9,416.2 805.7,409.5 806.6,401.0 807.4,405.2 808.3,410.3 809.1,402.7 809.9,406.1 810.8,418.8 811.6,407.8 812.5,415.4 813.3,401.9 814.1,402.7 815.0,407.8 815.8,407.8 816.7,412.8 817.5,408.6 818.3,411.2 819.2,409.5 820.0,406.9 820.9,406.9 821.7,412.0 822.6,409.5 823.4,406.1 824.2,416.2 825.1,406.9 825.9,406.1 826.8,407.8 827.6,405.2 828.4,423.0 829.3,415.4 830.1,406.1 831.0,410.3 831.8,404.4 832.6,405.2 833.5,409.5 834.3,402.7 835.2,408.6 836.0,416.2 836.8,402.7 837.7,406.1 838.5,416.2 839.4,410.3 840.2,400.2 841.1,396.0 841.9,411.2 842.7,405.2 843.6,415.4 844.4,407.8 845.3,408.6 846.1,411.2 846.9,411.2 847.8,400.2 848.6,400.2 849.5,412.8 850.3,406.1 851.1,413.7 852.0,399.3 852.8,413.7 853.7,406.9 854.5,405.2 855.3,412.0 856.2,412.8 857.0,403.6 857.9,402.7 858.7,414.5 859.5,408.6 860.4,409.5 861.2,416.2 862.1,410.3 862.9,412.0 863.8,407.8 864.6,406.1 865.4,411.2 866.3,403.6 867.1,398.5 868.0,403.6 868.8,402.7 869.6,404.4 870.5,413.7 871.3,400.2 872.2,406.1 873.0,409.5 873.8,414.5 874.7,412.8 875.5,398.5 876.4,404.4 877.2,416.2 878.0,419.6 878.9,406.9 879.7,403.6 880.6,408.6 881.4,411.2 882.3,401.0 883.1,406.9 883.9,406.9 884.8,404.4 885.6,407.8 886.5,413.7 887.3,412.8 888.1,403.6 889.0,412.8 889.8,422.1 890.7,405.2 891.5,398.5 892.3,407.8 893.2,403.6 894.0,396.0 894.9,398.5 895.7,411.2 896.5,408.6 897.4,403.6 898.2,394.3 899.1,412.8 899.9,410.3 900.8,408.6 901.6,399.3 902.4,408.6 903.3,411.2 904.1,402.7 905.0,412.0 905.8,406.9 906.6,404.4 907.5,412.8 908.3,399.3 909.2,410.3 910.0,407.8"/>
<line x1="730" y1="54" x2="754" y2="54" stroke="#2563eb" stroke-width="3"/>
<text x="762" y="59" font-family="Arial" font-size="13" fill="#111827">Random</text>
<polyline fill="none" stroke="#16a34a" stroke-width="2.2" points="70.0,416.2 70.8,401.0 71.7,385.0 72.5,366.4 73.4,359.6 74.2,351.2 75.0,345.3 75.9,341.1 76.7,337.7 77.6,336.0 78.4,333.5 79.2,332.6 80.1,327.6 80.9,324.2 81.8,325.9 82.6,323.3 83.5,320.8 84.3,320.0 85.1,320.8 86.0,318.3 86.8,319.1 87.7,316.6 88.5,313.2 89.3,310.7 90.2,310.7 91.0,311.5 91.9,310.7 92.7,311.5 93.5,311.5 94.4,310.7 95.2,310.7 96.1,311.5 96.9,311.5 97.7,310.7 98.6,311.5 99.4,311.5 100.3,311.5 101.1,310.7 102.0,310.7 102.8,310.7 103.6,309.8 104.5,310.7 105.3,309.8 106.2,309.0 107.0,309.0 107.8,309.8 108.7,309.0 109.5,309.0 110.4,308.1 111.2,308.1 112.0,307.3 112.9,308.1 113.7,306.4 114.6,306.4 115.4,305.6 116.2,304.8 117.1,304.8 117.9,304.8 118.8,304.8 119.6,303.9 120.5,303.1 121.3,303.1 122.1,303.1 123.0,303.1 123.8,303.1 124.7,303.1 125.5,303.1 126.3,303.1 127.2,303.1 128.0,303.1 128.9,303.1 129.7,302.2 130.5,302.2 131.4,302.2 132.2,302.2 133.1,302.2 133.9,302.2 134.7,302.2 135.6,302.2 136.4,302.2 137.3,302.2 138.1,302.2 138.9,302.2 139.8,301.4 140.6,301.4 141.5,301.4 142.3,301.4 143.2,301.4 144.0,301.4 144.8,301.4 145.7,301.4 146.5,301.4 147.4,301.4 148.2,301.4 149.0,301.4 149.9,301.4 150.7,301.4 151.6,301.4 152.4,301.4 153.2,301.4 154.1,301.4 154.9,301.4 155.8,301.4 156.6,301.4 157.4,301.4 158.3,301.4 159.1,301.4 160.0,301.4 160.8,301.4 161.7,301.4 162.5,301.4 163.3,301.4 164.2,301.4 165.0,301.4 165.9,301.4 166.7,301.4 167.5,301.4 168.4,301.4 169.2,301.4 170.1,301.4 170.9,301.4 171.7,301.4 172.6,301.4 173.4,301.4 174.3,301.4 175.1,301.4 175.9,301.4 176.8,301.4 177.6,300.5 178.5,300.5 179.3,300.5 180.2,300.5 181.0,300.5 181.8,300.5 182.7,300.5 183.5,300.5 184.4,300.5 185.2,300.5 186.0,300.5 186.9,300.5 187.7,300.5 188.6,300.5 189.4,300.5 190.2,300.5 191.1,300.5 191.9,300.5 192.8,300.5 193.6,300.5 194.4,300.5 195.3,300.5 196.1,300.5 197.0,300.5 197.8,300.5 198.6,300.5 199.5,300.5 200.3,300.5 201.2,300.5 202.0,300.5 202.9,300.5 203.7,300.5 204.5,300.5 205.4,300.5 206.2,300.5 207.1,300.5 207.9,300.5 208.7,300.5 209.6,300.5 210.4,300.5 211.3,300.5 212.1,300.5 212.9,300.5 213.8,300.5 214.6,300.5 215.5,300.5 216.3,300.5 217.1,300.5 218.0,300.5 218.8,300.5 219.7,300.5 220.5,300.5 221.4,300.5 222.2,300.5 223.0,300.5 223.9,300.5 224.7,300.5 225.6,300.5 226.4,300.5 227.2,300.5 228.1,300.5 228.9,300.5 229.8,300.5 230.6,300.5 231.4,300.5 232.3,300.5 233.1,300.5 234.0,300.5 234.8,300.5 235.6,300.5 236.5,300.5 237.3,300.5 238.2,300.5 239.0,300.5 239.8,300.5 240.7,300.5 241.5,300.5 242.4,300.5 243.2,300.5 244.1,300.5 244.9,300.5 245.7,300.5 246.6,300.5 247.4,300.5 248.3,300.5 249.1,300.5 249.9,300.5 250.8,300.5 251.6,300.5 252.5,300.5 253.3,300.5 254.1,300.5 255.0,300.5 255.8,300.5 256.7,300.5 257.5,300.5 258.3,300.5 259.2,300.5 260.0,300.5 260.9,300.5 261.7,300.5 262.6,300.5 263.4,300.5 264.2,300.5 265.1,300.5 265.9,300.5 266.8,300.5 267.6,300.5 268.4,300.5 269.3,300.5 270.1,300.5 271.0,300.5 271.8,300.5 272.6,300.5 273.5,300.5 274.3,300.5 275.2,300.5 276.0,300.5 276.8,300.5 277.7,300.5 278.5,300.5 279.4,300.5 280.2,300.5 281.1,300.5 281.9,300.5 282.7,300.5 283.6,300.5 284.4,300.5 285.3,300.5 286.1,300.5 286.9,300.5 287.8,300.5 288.6,300.5 289.5,300.5 290.3,300.5 291.1,300.5 292.0,300.5 292.8,300.5 293.7,300.5 294.5,300.5 295.3,300.5 296.2,300.5 297.0,300.5 297.9,300.5 298.7,300.5 299.5,300.5 300.4,300.5 301.2,300.5 302.1,300.5 302.9,300.5 303.8,300.5 304.6,300.5 305.4,300.5 306.3,300.5 307.1,300.5 308.0,300.5 308.8,300.5 309.6,300.5 310.5,300.5 311.3,300.5 312.2,300.5 313.0,300.5 313.8,300.5 314.7,300.5 315.5,300.5 316.4,300.5 317.2,300.5 318.0,300.5 318.9,300.5 319.7,300.5 320.6,300.5 321.4,300.5 322.3,300.5 323.1,300.5 323.9,300.5 324.8,300.5 325.6,300.5 326.5,300.5 327.3,300.5 328.1,300.5 329.0,300.5 329.8,300.5 330.7,300.5 331.5,300.5 332.3,300.5 333.2,300.5 334.0,300.5 334.9,300.5 335.7,300.5 336.5,300.5 337.4,300.5 338.2,300.5 339.1,300.5 339.9,300.5 340.8,300.5 341.6,300.5 342.4,300.5 343.3,300.5 344.1,300.5 345.0,300.5 345.8,300.5 346.6,300.5 347.5,300.5 348.3,300.5 349.2,300.5 350.0,300.5 350.8,300.5 351.7,300.5 352.5,300.5 353.4,300.5 354.2,300.5 355.0,300.5 355.9,300.5 356.7,300.5 357.6,300.5 358.4,300.5 359.2,300.5 360.1,300.5 360.9,300.5 361.8,300.5 362.6,300.5 363.5,300.5 364.3,300.5 365.1,300.5 366.0,300.5 366.8,300.5 367.7,300.5 368.5,300.5 369.3,300.5 370.2,300.5 371.0,300.5 371.9,300.5 372.7,300.5 373.5,300.5 374.4,300.5 375.2,300.5 376.1,300.5 376.9,300.5 377.7,300.5 378.6,300.5 379.4,300.5 380.3,300.5 381.1,300.5 382.0,300.5 382.8,300.5 383.6,300.5 384.5,300.5 385.3,300.5 386.2,300.5 387.0,300.5 387.8,300.5 388.7,300.5 389.5,300.5 390.4,300.5 391.2,300.5 392.0,300.5 392.9,300.5 393.7,300.5 394.6,300.5 395.4,300.5 396.2,300.5 397.1,300.5 397.9,300.5 398.8,300.5 399.6,300.5 400.5,300.5 401.3,300.5 402.1,300.5 403.0,300.5 403.8,300.5 404.7,300.5 405.5,300.5 406.3,300.5 407.2,300.5 408.0,300.5 408.9,300.5 409.7,300.5 410.5,300.5 411.4,300.5 412.2,300.5 413.1,300.5 413.9,300.5 414.7,300.5 415.6,300.5 416.4,300.5 417.3,300.5 418.1,300.5 418.9,300.5 419.8,300.5 420.6,300.5 421.5,300.5 422.3,300.5 423.2,300.5 424.0,300.5 424.8,300.5 425.7,300.5 426.5,300.5 427.4,300.5 428.2,300.5 429.0,300.5 429.9,300.5 430.7,300.5 431.6,300.5 432.4,300.5 433.2,300.5 434.1,300.5 434.9,300.5 435.8,300.5 436.6,300.5 437.4,300.5 438.3,300.5 439.1,300.5 440.0,300.5 440.8,300.5 441.7,300.5 442.5,300.5 443.3,300.5 444.2,300.5 445.0,300.5 445.9,300.5 446.7,300.5 447.5,300.5 448.4,300.5 449.2,300.5 450.1,300.5 450.9,300.5 451.7,300.5 452.6,300.5 453.4,300.5 454.3,300.5 455.1,300.5 455.9,300.5 456.8,300.5 457.6,300.5 458.5,300.5 459.3,300.5 460.2,300.5 461.0,300.5 461.8,300.5 462.7,300.5 463.5,300.5 464.4,300.5 465.2,300.5 466.0,300.5 466.9,300.5 467.7,300.5 468.6,300.5 469.4,300.5 470.2,300.5 471.1,300.5 471.9,300.5 472.8,300.5 473.6,300.5 474.4,300.5 475.3,300.5 476.1,300.5 477.0,300.5 477.8,300.5 478.6,300.5 479.5,300.5 480.3,300.5 481.2,300.5 482.0,300.5 482.9,300.5 483.7,300.5 484.5,300.5 485.4,300.5 486.2,300.5 487.1,300.5 487.9,300.5 488.7,300.5 489.6,300.5 490.4,300.5 491.3,300.5 492.1,300.5 492.9,300.5 493.8,300.5 494.6,300.5 495.5,300.5 496.3,300.5 497.1,300.5 498.0,300.5 498.8,300.5 499.7,300.5 500.5,300.5 501.4,300.5 502.2,300.5 503.0,300.5 503.9,300.5 504.7,300.5 505.6,300.5 506.4,300.5 507.2,300.5 508.1,300.5 508.9,300.5 509.8,300.5 510.6,300.5 511.4,300.5 512.3,300.5 513.1,300.5 514.0,300.5 514.8,300.5 515.6,300.5 516.5,300.5 517.3,300.5 518.2,300.5 519.0,300.5 519.8,300.5 520.7,300.5 521.5,300.5 522.4,300.5 523.2,300.5 524.1,300.5 524.9,300.5 525.7,300.5 526.6,300.5 527.4,300.5 528.3,300.5 529.1,300.5 529.9,300.5 530.8,300.5 531.6,300.5 532.5,300.5 533.3,300.5 534.1,300.5 535.0,300.5 535.8,300.5 536.7,300.5 537.5,300.5 538.3,300.5 539.2,300.5 540.0,300.5 540.9,300.5 541.7,300.5 542.6,300.5 543.4,300.5 544.2,300.5 545.1,300.5 545.9,300.5 546.8,300.5 547.6,300.5 548.4,300.5 549.3,300.5 550.1,300.5 551.0,300.5 551.8,300.5 552.6,300.5 553.5,300.5 554.3,300.5 555.2,300.5 556.0,300.5 556.8,300.5 557.7,300.5 558.5,300.5 559.4,300.5 560.2,300.5 561.1,300.5 561.9,300.5 562.7,300.5 563.6,300.5 564.4,300.5 565.3,300.5 566.1,300.5 566.9,300.5 567.8,300.5 568.6,300.5 569.5,300.5 570.3,300.5 571.1,300.5 572.0,299.7 572.8,299.7 573.7,299.7 574.5,299.7 575.3,299.7 576.2,299.7 577.0,299.7 577.9,299.7 578.7,299.7 579.5,299.7 580.4,299.7 581.2,299.7 582.1,299.7 582.9,299.7 583.8,299.7 584.6,299.7 585.4,299.7 586.3,299.7 587.1,299.7 588.0,299.7 588.8,299.7 589.6,299.7 590.5,299.7 591.3,299.7 592.2,299.7 593.0,299.7 593.8,299.7 594.7,299.7 595.5,299.7 596.4,299.7 597.2,299.7 598.0,299.7 598.9,299.7 599.7,299.7 600.6,299.7 601.4,299.7 602.3,299.7 603.1,299.7 603.9,299.7 604.8,299.7 605.6,299.7 606.5,299.7 607.3,299.7 608.1,299.7 609.0,299.7 609.8,299.7 610.7,299.7 611.5,299.7 612.3,299.7 613.2,299.7 614.0,299.7 614.9,299.7 615.7,299.7 616.5,299.7 617.4,299.7 618.2,299.7 619.1,299.7 619.9,299.7 620.8,299.7 621.6,299.7 622.4,299.7 623.3,299.7 624.1,299.7 625.0,299.7 625.8,299.7 626.6,299.7 627.5,299.7 628.3,299.7 629.2,299.7 630.0,299.7 630.8,299.7 631.7,299.7 632.5,299.7 633.4,299.7 634.2,299.7 635.0,299.7 635.9,299.7 636.7,299.7 637.6,299.7 638.4,299.7 639.2,299.7 640.1,299.7 640.9,299.7 641.8,299.7 642.6,299.7 643.5,299.7 644.3,299.7 645.1,299.7 646.0,299.7 646.8,299.7 647.7,299.7 648.5,299.7 649.3,299.7 650.2,299.7 651.0,299.7 651.9,299.7 652.7,299.7 653.5,299.7 654.4,299.7 655.2,299.7 656.1,299.7 656.9,299.7 657.7,299.7 658.6,299.7 659.4,299.7 660.3,299.7 661.1,299.7 662.0,299.7 662.8,299.7 663.6,299.7 664.5,299.7 665.3,299.7 666.2,299.7 667.0,299.7 667.8,299.7 668.7,299.7 669.5,299.7 670.4,299.7 671.2,299.7 672.0,299.7 672.9,299.7 673.7,299.7 674.6,299.7 675.4,299.7 676.2,299.7 677.1,299.7 677.9,299.7 678.8,299.7 679.6,299.7 680.5,299.7 681.3,299.7 682.1,299.7 683.0,299.7 683.8,299.7 684.7,299.7 685.5,299.7 686.3,299.7 687.2,299.7 688.0,299.7 688.9,299.7 689.7,299.7 690.5,299.7 691.4,299.7 692.2,299.7 693.1,299.7 693.9,299.7 694.7,299.7 695.6,299.7 696.4,299.7 697.3,299.7 698.1,299.7 698.9,299.7 699.8,299.7 700.6,299.7 701.5,299.7 702.3,299.7 703.2,299.7 704.0,299.7 704.8,299.7 705.7,299.7 706.5,299.7 707.4,299.7 708.2,299.7 709.0,299.7 709.9,299.7 710.7,299.7 711.6,299.7 712.4,299.7 713.2,299.7 714.1,299.7 714.9,299.7 715.8,299.7 716.6,299.7 717.4,299.7 718.3,299.7 719.1,299.7 720.0,299.7 720.8,299.7 721.7,299.7 722.5,299.7 723.3,299.7 724.2,299.7 725.0,299.7 725.9,299.7 726.7,299.7 727.5,299.7 728.4,299.7 729.2,299.7 730.1,299.7 730.9,299.7 731.7,299.7 732.6,299.7 733.4,299.7 734.3,299.7 735.1,299.7 735.9,299.7 736.8,299.7 737.6,299.7 738.5,299.7 739.3,299.7 740.2,299.7 741.0,299.7 741.8,299.7 742.7,299.7 743.5,299.7 744.4,299.7 745.2,299.7 746.0,299.7 746.9,299.7 747.7,299.7 748.6,299.7 749.4,299.7 750.2,299.7 751.1,299.7 751.9,299.7 752.8,299.7 753.6,299.7 754.4,299.7 755.3,299.7 756.1,299.7 757.0,299.7 757.8,299.7 758.6,299.7 759.5,299.7 760.3,299.7 761.2,299.7 762.0,299.7 762.9,299.7 763.7,299.7 764.5,299.7 765.4,299.7 766.2,299.7 767.1,299.7 767.9,299.7 768.7,299.7 769.6,299.7 770.4,299.7 771.3,299.7 772.1,299.7 772.9,299.7 773.8,299.7 774.6,299.7 775.5,299.7 776.3,299.7 777.1,299.7 778.0,299.7 778.8,299.7 779.7,299.7 780.5,299.7 781.4,299.7 782.2,299.7 783.0,299.7 783.9,299.7 784.7,299.7 785.6,299.7 786.4,299.7 787.2,299.7 788.1,299.7 788.9,299.7 789.8,299.7 790.6,299.7 791.4,299.7 792.3,299.7 793.1,299.7 794.0,299.7 794.8,299.7 795.6,299.7 796.5,299.7 797.3,299.7 798.2,299.7 799.0,299.7 799.8,299.7 800.7,299.7 801.5,299.7 802.4,299.7 803.2,299.7 804.1,299.7 804.9,299.7 805.7,299.7 806.6,299.7 807.4,299.7 808.3,299.7 809.1,299.7 809.9,299.7 810.8,299.7 811.6,299.7 812.5,299.7 813.3,299.7 814.1,299.7 815.0,299.7 815.8,299.7 816.7,299.7 817.5,299.7 818.3,299.7 819.2,299.7 820.0,299.7 820.9,299.7 821.7,299.7 822.6,299.7 823.4,299.7 824.2,299.7 825.1,299.7 825.9,299.7 826.8,299.7 827.6,299.7 828.4,299.7 829.3,299.7 830.1,299.7 831.0,299.7 831.8,299.7 832.6,299.7 833.5,299.7 834.3,299.7 835.2,299.7 836.0,299.7 836.8,299.7 837.7,299.7 838.5,299.7 839.4,299.7 840.2,299.7 841.1,299.7 841.9,299.7 842.7,299.7 843.6,299.7 844.4,299.7 845.3,299.7 846.1,299.7 846.9,299.7 847.8,299.7 848.6,299.7 849.5,299.7 850.3,299.7 851.1,299.7 852.0,299.7 852.8,299.7 853.7,299.7 854.5,299.7 855.3,299.7 856.2,299.7 857.0,299.7 857.9,299.7 858.7,299.7 859.5,299.7 860.4,299.7 861.2,299.7 862.1,299.7 862.9,299.7 863.8,299.7 864.6,299.7 865.4,299.7 866.3,299.7 867.1,299.7 868.0,299.7 868.8,299.7 869.6,299.7 870.5,299.7 871.3,299.7 872.2,299.7 873.0,299.7 873.8,299.7 874.7,299.7 875.5,299.7 876.4,299.7 877.2,299.7 878.0,299.7 878.9,299.7 879.7,299.7 880.6,299.7 881.4,299.7 882.3,299.7 883.1,299.7 883.9,299.7 884.8,299.7 885.6,299.7 886.5,299.7 887.3,299.7 888.1,299.7 889.0,299.7 889.8,299.7 890.7,299.7 891.5,299.7 892.3,299.7 893.2,299.7 894.0,299.7 894.9,299.7 895.7,299.7 896.5,299.7 897.4,299.7 898.2,299.7 899.1,299.7 899.9,299.7 900.8,299.7 901.6,299.7 902.4,299.7 903.3,299.7 904.1,299.7 905.0,299.7 905.8,299.7 906.6,299.7 907.5,299.7 908.3,299.7 909.2,299.7 910.0,299.7"/>
<line x1="730" y1="76" x2="754" y2="76" stroke="#16a34a" stroke-width="3"/>
<text x="762" y="81" font-family="Arial" font-size="13" fill="#111827">Greedy</text>
<polyline fill="none" stroke="#dc2626" stroke-width="2.2" points="70.0,407.8 70.8,384.1 71.7,366.4 72.5,347.8 73.4,338.5 74.2,333.5 75.0,330.9 75.9,321.6 76.7,320.0 77.6,318.3 78.4,313.2 79.2,312.4 80.1,312.4 80.9,308.1 81.8,305.6 82.6,303.9 83.5,302.2 84.3,303.1 85.1,303.1 86.0,301.4 86.8,300.5 87.7,300.5 88.5,300.5 89.3,301.4 90.2,298.8 91.0,299.7 91.9,298.8 92.7,299.7 93.5,298.8 94.4,296.3 95.2,297.2 96.1,296.3 96.9,296.3 97.7,298.0 98.6,299.7 99.4,297.2 100.3,297.2 101.1,292.1 102.0,295.5 102.8,292.9 103.6,291.2 104.5,292.1 105.3,291.2 106.2,292.9 107.0,292.1 107.8,291.2 108.7,289.6 109.5,291.2 110.4,290.4 111.2,292.1 112.0,290.4 112.9,292.9 113.7,292.1 114.6,292.1 115.4,290.4 116.2,291.2 117.1,287.9 117.9,290.4 118.8,288.7 119.6,289.6 120.5,288.7 121.3,291.2 122.1,290.4 123.0,291.2 123.8,289.6 124.7,288.7 125.5,288.7 126.3,287.9 127.2,287.9 128.0,288.7 128.9,292.1 129.7,288.7 130.5,290.4 131.4,287.9 132.2,287.9 133.1,288.7 133.9,287.9 134.7,285.3 135.6,284.5 136.4,283.6 137.3,284.5 138.1,283.6 138.9,290.4 139.8,283.6 140.6,285.3 141.5,283.6 142.3,284.5 143.2,284.5 144.0,287.0 144.8,285.3 145.7,284.5 146.5,283.6 147.4,285.3 148.2,287.0 149.0,285.3 149.9,286.2 150.7,284.5 151.6,284.5 152.4,287.0 153.2,286.2 154.1,286.2 154.9,284.5 155.8,285.3 156.6,286.2 157.4,287.0 158.3,286.2 159.1,286.2 160.0,287.9 160.8,287.0 161.7,285.3 162.5,283.6 163.3,282.8 164.2,287.0 165.0,282.8 165.9,282.8 166.7,282.0 167.5,283.6 168.4,282.8 169.2,282.8 170.1,282.8 170.9,279.4 171.7,279.4 172.6,278.6 173.4,278.6 174.3,280.3 175.1,278.6 175.9,276.9 176.8,277.7 177.6,278.6 178.5,277.7 179.3,277.7 180.2,279.4 181.0,280.3 181.8,277.7 182.7,277.7 183.5,276.0 184.4,276.9 185.2,276.0 186.0,277.7 186.9,277.7 187.7,275.2 188.6,276.0 189.4,275.2 190.2,276.0 191.1,274.4 191.9,276.9 192.8,276.0 193.6,275.2 194.4,274.4 195.3,275.2 196.1,272.7 197.0,272.7 197.8,272.7 198.6,271.0 199.5,271.8 200.3,271.8 201.2,271.0 202.0,271.8 202.9,271.8 203.7,270.1 204.5,271.8 205.4,271.8 206.2,271.0 207.1,272.7 207.9,270.1 208.7,269.3 209.6,268.4 210.4,269.3 211.3,269.3 212.1,269.3 212.9,269.3 213.8,269.3 214.6,270.1 215.5,268.4 216.3,268.4 217.1,267.6 218.0,268.4 218.8,268.4 219.7,268.4 220.5,266.8 221.4,267.6 222.2,267.6 223.0,265.1 223.9,264.2 224.7,266.8 225.6,265.1 226.4,267.6 227.2,267.6 228.1,265.9 228.9,266.8 229.8,266.8 230.6,265.9 231.4,265.9 232.3,266.8 233.1,266.8 234.0,266.8 234.8,265.9 235.6,265.9 236.5,266.8 237.3,265.9 238.2,267.6 239.0,264.2 239.8,266.8 240.7,262.5 241.5,262.5 242.4,263.4 243.2,264.2 244.1,264.2 244.9,262.5 245.7,263.4 246.6,262.5 247.4,261.7 248.3,263.4 249.1,260.8 249.9,260.0 250.8,262.5 251.6,260.8 252.5,263.4 253.3,259.2 254.1,260.0 255.0,261.7 255.8,262.5 256.7,260.8 257.5,260.0 258.3,261.7 259.2,259.2 260.0,258.3 260.9,258.3 261.7,259.2 262.6,260.0 263.4,261.7 264.2,260.8 265.1,258.3 265.9,258.3 266.8,260.0 267.6,258.3 268.4,260.0 269.3,258.3 270.1,259.2 271.0,257.5 271.8,259.2 272.6,260.8 273.5,260.0 274.3,259.2 275.2,260.0 276.0,259.2 276.8,260.8 277.7,260.0 278.5,260.0 279.4,258.3 280.2,256.6 281.1,255.8 281.9,255.8 282.7,255.8 283.6,254.1 284.4,254.9 285.3,254.9 286.1,254.1 286.9,255.8 287.8,253.2 288.6,249.9 289.5,253.2 290.3,252.4 291.1,251.6 292.0,251.6 292.8,250.7 293.7,250.7 294.5,250.7 295.3,249.9 296.2,249.9 297.0,249.0 297.9,249.9 298.7,250.7 299.5,247.3 300.4,247.3 301.2,249.9 302.1,248.2 302.9,249.0 303.8,249.0 304.6,247.3 305.4,248.2 306.3,248.2 307.1,248.2 308.0,246.5 308.8,247.3 309.6,248.2 310.5,246.5 311.3,248.2 312.2,248.2 313.0,246.5 313.8,245.6 314.7,245.6 315.5,244.0 316.4,247.3 317.2,245.6 318.0,246.5 318.9,246.5 319.7,245.6 320.6,246.5 321.4,244.0 322.3,244.8 323.1,245.6 323.9,247.3 324.8,249.0 325.6,249.0 326.5,244.8 327.3,245.6 328.1,245.6 329.0,248.2 329.8,245.6 330.7,243.1 331.5,244.8 332.3,244.8 333.2,246.5 334.0,244.0 334.9,243.1 335.7,241.4 336.5,240.6 337.4,243.1 338.2,241.4 339.1,242.3 339.9,241.4 340.8,242.3 341.6,240.6 342.4,243.1 343.3,241.4 344.1,241.4 345.0,243.1 345.8,243.1 346.6,244.0 347.5,243.1 348.3,240.6 349.2,240.6 350.0,240.6 350.8,239.7 351.7,240.6 352.5,243.1 353.4,240.6 354.2,238.0 355.0,237.2 355.9,239.7 356.7,238.9 357.6,237.2 358.4,238.0 359.2,237.2 360.1,235.5 360.9,235.5 361.8,238.0 362.6,237.2 363.5,238.0 364.3,240.6 365.1,238.0 366.0,239.7 366.8,242.3 367.7,238.9 368.5,238.9 369.3,237.2 370.2,238.9 371.0,237.2 371.9,241.4 372.7,238.0 373.5,238.9 374.4,237.2 375.2,236.4 376.1,240.6 376.9,238.0 377.7,240.6 378.6,240.6 379.4,238.0 380.3,238.9 381.1,234.7 382.0,235.5 382.8,241.4 383.6,237.2 384.5,236.4 385.3,233.8 386.2,235.5 387.0,234.7 387.8,235.5 388.7,235.5 389.5,235.5 390.4,233.8 391.2,235.5 392.0,234.7 392.9,235.5 393.7,235.5 394.6,234.7 395.4,233.8 396.2,238.0 397.1,237.2 397.9,235.5 398.8,234.7 399.6,236.4 400.5,233.0 401.3,235.5 402.1,232.1 403.0,233.8 403.8,232.1 404.7,236.4 405.5,235.5 406.3,238.0 407.2,234.7 408.0,232.1 408.9,233.0 409.7,233.8 410.5,232.1 411.4,233.0 412.2,235.5 413.1,234.7 413.9,233.0 414.7,232.1 415.6,235.5 416.4,233.8 417.3,234.7 418.1,234.7 418.9,234.7 419.8,233.8 420.6,232.1 421.5,233.0 422.3,233.8 423.2,233.0 424.0,233.8 424.8,233.0 425.7,236.4 426.5,232.1 427.4,232.1 428.2,233.0 429.0,233.8 429.9,231.3 430.7,234.7 431.6,233.0 432.4,235.5 433.2,233.8 434.1,231.3 434.9,234.7 435.8,234.7 436.6,234.7 437.4,232.1 438.3,233.8 439.1,234.7 440.0,234.7 440.8,236.4 441.7,230.4 442.5,233.8 443.3,234.7 444.2,233.0 445.0,232.1 445.9,230.4 446.7,229.6 447.5,231.3 448.4,232.1 449.2,234.7 450.1,233.0 450.9,231.3 451.7,228.8 452.6,228.8 453.4,229.6 454.3,231.3 455.1,230.4 455.9,231.3 456.8,232.1 457.6,231.3 458.5,231.3 459.3,232.1 460.2,233.8 461.0,231.3 461.8,231.3 462.7,233.0 463.5,229.6 464.4,233.0 465.2,232.1 466.0,231.3 466.9,230.4 467.7,233.0 468.6,233.8 469.4,232.1 470.2,233.0 471.1,229.6 471.9,230.4 472.8,231.3 473.6,229.6 474.4,229.6 475.3,228.8 476.1,231.3 477.0,231.3 477.8,229.6 478.6,229.6 479.5,229.6 480.3,229.6 481.2,228.8 482.0,231.3 482.9,229.6 483.7,230.4 484.5,231.3 485.4,232.1 486.2,230.4 487.1,231.3 487.9,228.8 488.7,229.6 489.6,231.3 490.4,228.8 491.3,227.1 492.1,227.1 492.9,227.1 493.8,227.9 494.6,228.8 495.5,230.4 496.3,230.4 497.1,230.4 498.0,230.4 498.8,231.3 499.7,229.6 500.5,229.6 501.4,229.6 502.2,228.8 503.0,229.6 503.9,231.3 504.7,229.6 505.6,224.5 506.4,229.6 507.2,226.2 508.1,225.4 508.9,224.5 509.8,223.7 510.6,225.4 511.4,225.4 512.3,226.2 513.1,226.2 514.0,225.4 514.8,222.0 515.6,222.0 516.5,223.7 517.3,222.0 518.2,224.5 519.0,224.5 519.8,222.8 520.7,223.7 521.5,224.5 522.4,222.8 523.2,221.2 524.1,224.5 524.9,222.8 525.7,222.8 526.6,222.0 527.4,221.2 528.3,220.3 529.1,222.0 529.9,222.8 530.8,221.2 531.6,221.2 532.5,222.8 533.3,219.5 534.1,221.2 535.0,219.5 535.8,219.5 536.7,221.2 537.5,218.6 538.3,219.5 539.2,221.2 540.0,217.8 540.9,219.5 541.7,217.8 542.6,220.3 543.4,222.8 544.2,218.6 545.1,220.3 545.9,219.5 546.8,219.5 547.6,220.3 548.4,221.2 549.3,219.5 550.1,216.9 551.0,218.6 551.8,220.3 552.6,218.6 553.5,220.3 554.3,219.5 555.2,219.5 556.0,222.8 556.8,218.6 557.7,218.6 558.5,217.8 559.4,217.8 560.2,216.9 561.1,219.5 561.9,217.8 562.7,217.8 563.6,217.8 564.4,218.6 565.3,221.2 566.1,217.8 566.9,217.8 567.8,217.8 568.6,216.9 569.5,215.2 570.3,217.8 571.1,216.9 572.0,215.2 572.8,217.8 573.7,215.2 574.5,217.8 575.3,216.9 576.2,216.1 577.0,216.9 577.9,216.1 578.7,217.8 579.5,216.1 580.4,214.4 581.2,216.1 582.1,215.2 582.9,215.2 583.8,215.2 584.6,216.1 585.4,216.1 586.3,215.2 587.1,216.9 588.0,217.8 588.8,215.2 589.6,214.4 590.5,213.6 591.3,212.7 592.2,212.7 593.0,215.2 593.8,212.7 594.7,215.2 595.5,217.8 596.4,218.6 597.2,218.6 598.0,216.1 598.9,216.1 599.7,213.6 600.6,212.7 601.4,214.4 602.3,217.8 603.1,214.4 603.9,213.6 604.8,211.0 605.6,212.7 606.5,212.7 607.3,211.0 608.1,211.9 609.0,216.1 609.8,211.9 610.7,215.2 611.5,216.1 612.3,211.9 613.2,210.2 614.0,211.9 614.9,211.0 615.7,214.4 616.5,212.7 617.4,211.9 618.2,211.9 619.1,214.4 619.9,211.0 620.8,212.7 621.6,211.9 622.4,212.7 623.3,211.9 624.1,211.0 625.0,211.9 625.8,211.9 626.6,211.9 627.5,210.2 628.3,208.5 629.2,211.0 630.0,211.9 630.8,213.6 631.7,208.5 632.5,211.0 633.4,211.0 634.2,212.7 635.0,211.0 635.9,210.2 636.7,208.5 637.6,211.9 638.4,211.0 639.2,210.2 640.1,211.9 640.9,210.2 641.8,211.0 642.6,210.2 643.5,211.9 644.3,207.6 645.1,211.0 646.0,207.6 646.8,208.5 647.7,207.6 648.5,207.6 649.3,211.0 650.2,206.8 651.0,210.2 651.9,208.5 652.7,206.8 653.5,211.0 654.4,209.3 655.2,210.2 656.1,207.6 656.9,209.3 657.7,209.3 658.6,208.5 659.4,207.6 660.3,211.9 661.1,210.2 662.0,210.2 662.8,207.6 663.6,208.5 664.5,209.3 665.3,209.3 666.2,207.6 667.0,207.6 667.8,205.1 668.7,206.8 669.5,207.6 670.4,206.8 671.2,210.2 672.0,207.6 672.9,206.0 673.7,206.0 674.6,208.5 675.4,210.2 676.2,206.8 677.1,206.0 677.9,206.0 678.8,209.3 679.6,206.8 680.5,206.8 681.3,206.0 682.1,206.8 683.0,205.1 683.8,206.0 684.7,203.4 685.5,204.3 686.3,206.0 687.2,205.1 688.0,205.1 688.9,206.0 689.7,206.0 690.5,205.1 691.4,205.1 692.2,206.0 693.1,201.7 693.9,206.0 694.7,206.8 695.6,206.8 696.4,203.4 697.3,201.7 698.1,201.7 698.9,203.4 699.8,204.3 700.6,205.1 701.5,206.0 702.3,206.0 703.2,206.0 704.0,203.4 704.8,204.3 705.7,202.6 706.5,205.1 707.4,201.7 708.2,204.3 709.0,206.8 709.9,203.4 710.7,205.1 711.6,206.8 712.4,204.3 713.2,207.6 714.1,205.1 714.9,205.1 715.8,204.3 716.6,204.3 717.4,204.3 718.3,206.0 719.1,201.7 720.0,206.0 720.8,207.6 721.7,207.6 722.5,203.4 723.3,203.4 724.2,201.7 725.0,203.4 725.9,201.7 726.7,200.9 727.5,201.7 728.4,202.6 729.2,203.4 730.1,202.6 730.9,201.7 731.7,202.6 732.6,202.6 733.4,201.7 734.3,204.3 735.1,202.6 735.9,200.9 736.8,200.9 737.6,199.2 738.5,201.7 739.3,202.6 740.2,200.9 741.0,197.5 741.8,200.9 742.7,200.0 743.5,200.9 744.4,198.4 745.2,200.9 746.0,200.0 746.9,199.2 747.7,199.2 748.6,198.4 749.4,198.4 750.2,200.9 751.1,198.4 751.9,197.5 752.8,200.9 753.6,199.2 754.4,200.0 755.3,196.7 756.1,196.7 757.0,197.5 757.8,198.4 758.6,198.4 759.5,196.7 760.3,198.4 761.2,195.8 762.0,195.0 762.9,195.0 763.7,195.8 764.5,195.8 765.4,193.3 766.2,198.4 767.1,195.8 767.9,193.3 768.7,195.0 769.6,193.3 770.4,195.0 771.3,197.5 772.1,197.5 772.9,196.7 773.8,194.1 774.6,194.1 775.5,193.3 776.3,195.0 777.1,195.0 778.0,198.4 778.8,194.1 779.7,195.8 780.5,196.7 781.4,195.0 782.2,194.1 783.0,194.1 783.9,194.1 784.7,192.4 785.6,195.8 786.4,195.8 787.2,192.4 788.1,195.8 788.9,195.0 789.8,195.0 790.6,193.3 791.4,191.6 792.3,192.4 793.1,195.0 794.0,194.1 794.8,195.0 795.6,193.3 796.5,195.0 797.3,193.3 798.2,195.0 799.0,196.7 799.8,197.5 800.7,194.1 801.5,194.1 802.4,193.3 803.2,195.8 804.1,195.8 804.9,191.6 805.7,191.6 806.6,193.3 807.4,192.4 808.3,192.4 809.1,194.1 809.9,195.0 810.8,193.3 811.6,195.8 812.5,194.1 813.3,193.3 814.1,192.4 815.0,190.8 815.8,191.6 816.7,193.3 817.5,190.8 818.3,195.0 819.2,195.0 820.0,190.8 820.9,191.6 821.7,191.6 822.6,193.3 823.4,193.3 824.2,194.1 825.1,193.3 825.9,192.4 826.8,192.4 827.6,193.3 828.4,190.8 829.3,190.8 830.1,191.6 831.0,193.3 831.8,191.6 832.6,189.1 833.5,192.4 834.3,191.6 835.2,193.3 836.0,192.4 836.8,194.1 837.7,190.8 838.5,192.4 839.4,190.8 840.2,195.8 841.1,189.9 841.9,189.9 842.7,191.6 843.6,189.1 844.4,193.3 845.3,189.9 846.1,191.6 846.9,190.8 847.8,189.9 848.6,189.1 849.5,189.1 850.3,190.8 851.1,190.8 852.0,189.1 852.8,189.1 853.7,193.3 854.5,191.6 855.3,189.9 856.2,189.9 857.0,188.2 857.9,189.9 858.7,189.9 859.5,189.1 860.4,189.9 861.2,187.4 862.1,189.9 862.9,188.2 863.8,187.4 864.6,189.9 865.4,187.4 866.3,189.9 867.1,188.2 868.0,189.1 868.8,187.4 869.6,187.4 870.5,188.2 871.3,190.8 872.2,189.9 873.0,190.8 873.8,189.1 874.7,187.4 875.5,188.2 876.4,193.3 877.2,188.2 878.0,188.2 878.9,187.4 879.7,186.5 880.6,186.5 881.4,184.8 882.3,189.1 883.1,187.4 883.9,189.1 884.8,184.8 885.6,188.2 886.5,188.2 887.3,186.5 888.1,184.8 889.0,188.2 889.8,185.7 890.7,189.9 891.5,184.8 892.3,184.0 893.2,187.4 894.0,184.8 894.9,187.4 895.7,184.8 896.5,183.2 897.4,184.8 898.2,187.4 899.1,187.4 899.9,185.7 900.8,186.5 901.6,188.2 902.4,189.1 903.3,188.2 904.1,188.2 905.0,187.4 905.8,185.7 906.6,184.8 907.5,184.8 908.3,184.8 909.2,186.5 910.0,186.5"/>
<line x1="730" y1="98" x2="754" y2="98" stroke="#dc2626" stroke-width="3"/>
<text x="762" y="103" font-family="Arial" font-size="13" fill="#111827">Epsilon 0.01</text>
<polyline fill="none" stroke="#9333ea" stroke-width="2.2" points="70.0,408.6 70.8,388.4 71.7,374.8 72.5,370.6 73.4,358.8 74.2,352.9 75.0,347.0 75.9,339.4 76.7,339.4 77.6,336.0 78.4,325.9 79.2,330.1 80.1,326.7 80.9,323.3 81.8,314.0 82.6,317.4 83.5,315.7 84.3,316.6 85.1,319.1 86.0,318.3 86.8,314.0 87.7,313.2 88.5,313.2 89.3,308.1 90.2,304.8 91.0,309.0 91.9,305.6 92.7,304.8 93.5,298.0 94.4,298.8 95.2,306.4 96.1,293.8 96.9,296.3 97.7,294.6 98.6,295.5 99.4,288.7 100.3,288.7 101.1,290.4 102.0,293.8 102.8,291.2 103.6,287.9 104.5,284.5 105.3,287.9 106.2,276.9 107.0,268.4 107.8,276.0 108.7,271.0 109.5,272.7 110.4,279.4 111.2,282.0 112.0,274.4 112.9,272.7 113.7,264.2 114.6,271.0 115.4,276.9 116.2,265.9 117.1,271.8 117.9,260.0 118.8,267.6 119.6,258.3 120.5,260.8 121.3,261.7 122.1,260.8 123.0,260.8 123.8,265.1 124.7,258.3 125.5,254.1 126.3,254.1 127.2,250.7 128.0,249.9 128.9,248.2 129.7,249.9 130.5,246.5 131.4,244.0 132.2,245.6 133.1,238.9 133.9,233.8 134.7,240.6 135.6,249.9 136.4,233.8 137.3,235.5 138.1,228.8 138.9,237.2 139.8,238.0 140.6,228.8 141.5,227.1 142.3,229.6 143.2,226.2 144.0,230.4 144.8,224.5 145.7,226.2 146.5,220.3 147.4,226.2 148.2,229.6 149.0,223.7 149.9,224.5 150.7,227.1 151.6,225.4 152.4,229.6 153.2,223.7 154.1,227.9 154.9,226.2 155.8,224.5 156.6,227.1 157.4,225.4 158.3,225.4 159.1,222.0 160.0,221.2 160.8,222.8 161.7,223.7 162.5,221.2 163.3,215.2 164.2,216.9 165.0,221.2 165.9,217.8 166.7,217.8 167.5,215.2 168.4,221.2 169.2,211.0 170.1,209.3 170.9,204.3 171.7,211.9 172.6,211.0 173.4,216.1 174.3,207.6 175.1,209.3 175.9,205.1 176.8,212.7 177.6,208.5 178.5,209.3 179.3,203.4 180.2,202.6 181.0,202.6 181.8,201.7 182.7,195.8 183.5,202.6 184.4,198.4 185.2,206.0 186.0,197.5 186.9,211.0 187.7,202.6 188.6,197.5 189.4,196.7 190.2,200.0 191.1,191.6 191.9,189.1 192.8,201.7 193.6,204.3 194.4,190.8 195.3,197.5 196.1,189.1 197.0,184.8 197.8,197.5 198.6,200.0 199.5,208.5 200.3,199.2 201.2,189.1 202.0,201.7 202.9,203.4 203.7,200.9 204.5,206.0 205.4,195.8 206.2,196.7 207.1,194.1 207.9,194.1 208.7,187.4 209.6,188.2 210.4,192.4 211.3,180.6 212.1,199.2 212.9,189.1 213.8,183.2 214.6,181.5 215.5,190.8 216.3,182.3 217.1,188.2 218.0,186.5 218.8,183.2 219.7,182.3 220.5,183.2 221.4,180.6 222.2,189.9 223.0,186.5 223.9,184.0 224.7,183.2 225.6,184.8 226.4,188.2 227.2,184.0 228.1,184.0 228.9,183.2 229.8,180.6 230.6,185.7 231.4,183.2 232.3,180.6 233.1,185.7 234.0,178.1 234.8,179.8 235.6,173.9 236.5,178.1 237.3,183.2 238.2,178.9 239.0,184.8 239.8,177.2 240.7,183.2 241.5,188.2 242.4,182.3 243.2,180.6 244.1,172.2 244.9,173.9 245.7,186.5 246.6,178.1 247.4,176.4 248.3,178.9 249.1,168.8 249.9,179.8 250.8,176.4 251.6,169.6 252.5,176.4 253.3,178.9 254.1,178.9 255.0,179.8 255.8,172.2 256.7,178.1 257.5,176.4 258.3,176.4 259.2,179.8 260.0,184.0 260.9,170.5 261.7,174.7 262.6,177.2 263.4,166.3 264.2,169.6 265.1,173.0 265.9,182.3 266.8,167.1 267.6,168.0 268.4,171.3 269.3,178.1 270.1,173.9 271.0,169.6 271.8,174.7 272.6,173.0 273.5,175.6 274.3,169.6 275.2,172.2 276.0,160.4 276.8,173.0 277.7,165.4 278.5,163.7 279.4,169.6 280.2,163.7 281.1,166.3 281.9,173.9 282.7,172.2 283.6,173.0 284.4,177.2 285.3,168.8 286.1,167.1 286.9,171.3 287.8,166.3 288.6,164.6 289.5,173.9 290.3,158.7 291.1,162.0 292.0,157.8 292.8,172.2 293.7,165.4 294.5,162.9 295.3,166.3 296.2,166.3 297.0,163.7 297.9,162.9 298.7,165.4 299.5,158.7 300.4,164.6 301.2,168.0 302.1,162.0 302.9,167.1 303.8,151.1 304.6,158.7 305.4,162.9 306.3,163.7 307.1,168.8 308.0,161.2 308.8,156.1 309.6,151.9 310.5,158.7 311.3,161.2 312.2,152.8 313.0,158.7 313.8,157.0 314.7,159.5 315.5,167.1 316.4,161.2 317.2,166.3 318.0,170.5 318.9,168.8 319.7,154.4 320.6,148.5 321.4,161.2 322.3,150.2 323.1,162.0 323.9,163.7 324.8,161.2 325.6,156.1 326.5,164.6 327.3,157.0 328.1,162.0 329.0,158.7 329.8,160.4 330.7,149.4 331.5,152.8 332.3,153.6 333.2,160.4 334.0,160.4 334.9,162.9 335.7,157.8 336.5,159.5 337.4,153.6 338.2,167.1 339.1,157.0 339.9,155.3 340.8,157.0 341.6,149.4 342.4,151.9 343.3,157.8 344.1,166.3 345.0,160.4 345.8,161.2 346.6,160.4 347.5,157.8 348.3,161.2 349.2,163.7 350.0,150.2 350.8,160.4 351.7,157.8 352.5,162.0 353.4,162.9 354.2,163.7 355.0,152.8 355.9,165.4 356.7,160.4 357.6,153.6 358.4,162.9 359.2,160.4 360.1,165.4 360.9,167.1 361.8,172.2 362.6,155.3 363.5,154.4 364.3,156.1 365.1,154.4 366.0,162.0 366.8,151.1 367.7,156.1 368.5,157.0 369.3,156.1 370.2,154.4 371.0,154.4 371.9,153.6 372.7,154.4 373.5,160.4 374.4,151.1 375.2,154.4 376.1,158.7 376.9,159.5 377.7,147.7 378.6,152.8 379.4,152.8 380.3,157.0 381.1,151.1 382.0,157.0 382.8,153.6 383.6,157.8 384.5,152.8 385.3,147.7 386.2,143.5 387.0,153.6 387.8,154.4 388.7,153.6 389.5,151.1 390.4,146.8 391.2,151.9 392.0,150.2 392.9,157.8 393.7,152.8 394.6,156.1 395.4,153.6 396.2,146.8 397.1,149.4 397.9,148.5 398.8,152.8 399.6,151.9 400.5,143.5 401.3,147.7 402.1,157.8 403.0,151.1 403.8,150.2 404.7,157.8 405.5,149.4 406.3,144.3 407.2,152.8 408.0,145.2 408.9,154.4 409.7,156.1 410.5,142.6 411.4,142.6 412.2,152.8 413.1,147.7 413.9,147.7 414.7,144.3 415.6,146.0 416.4,148.5 417.3,144.3 418.1,145.2 418.9,144.3 419.8,153.6 420.6,147.7 421.5,138.4 422.3,147.7 423.2,136.7 424.0,150.2 424.8,146.8 425.7,140.1 426.5,148.5 427.4,145.2 428.2,136.7 429.0,146.0 429.9,140.1 430.7,152.8 431.6,138.4 432.4,148.5 433.2,147.7 434.1,146.0 434.9,146.0 435.8,144.3 436.6,142.6 437.4,146.8 438.3,154.4 439.1,144.3 440.0,147.7 440.8,147.7 441.7,140.9 442.5,142.6 443.3,139.2 444.2,137.6 445.0,140.9 445.9,162.0 446.7,137.6 447.5,141.8 448.4,148.5 449.2,140.1 450.1,146.8 450.9,140.9 451.7,146.0 452.6,147.7 453.4,142.6 454.3,143.5 455.1,146.8 455.9,146.8 456.8,140.1 457.6,139.2 458.5,148.5 459.3,135.9 460.2,135.9 461.0,139.2 461.8,152.8 462.7,136.7 463.5,146.8 464.4,145.2 465.2,134.2 466.0,136.7 466.9,138.4 467.7,140.9 468.6,149.4 469.4,145.2 470.2,148.5 471.1,140.9 471.9,135.9 472.8,134.2 473.6,140.9 474.4,135.9 475.3,144.3 476.1,140.1 477.0,143.5 477.8,140.9 478.6,142.6 479.5,135.0 480.3,137.6 481.2,141.8 482.0,133.3 482.9,141.8 483.7,136.7 484.5,145.2 485.4,142.6 486.2,132.5 487.1,139.2 487.9,138.4 488.7,144.3 489.6,137.6 490.4,137.6 491.3,146.0 492.1,125.7 492.9,142.6 493.8,135.9 494.6,132.5 495.5,135.9 496.3,142.6 497.1,136.7 498.0,139.2 498.8,134.2 499.7,132.5 500.5,132.5 501.4,137.6 502.2,131.6 503.0,132.5 503.9,136.7 504.7,130.8 505.6,136.7 506.4,135.0 507.2,132.5 508.1,138.4 508.9,139.2 509.8,135.9 510.6,135.0 511.4,140.9 512.3,133.3 513.1,131.6 514.0,124.9 514.8,142.6 515.6,135.0 516.5,130.0 517.3,134.2 518.2,133.3 519.0,146.0 519.8,137.6 520.7,128.3 521.5,139.2 522.4,147.7 523.2,140.1 524.1,135.0 524.9,133.3 525.7,129.1 526.6,137.6 527.4,134.2 528.3,129.1 529.1,124.0 529.9,130.0 530.8,135.9 531.6,130.0 532.5,137.6 533.3,140.1 534.1,135.9 535.0,132.5 535.8,132.5 536.7,137.6 537.5,133.3 538.3,129.1 539.2,134.2 540.0,132.5 540.9,143.5 541.7,135.0 542.6,130.8 543.4,139.2 544.2,130.8 545.1,133.3 545.9,135.9 546.8,146.8 547.6,125.7 548.4,140.1 549.3,137.6 550.1,132.5 551.0,135.0 551.8,128.3 552.6,131.6 553.5,124.9 554.3,140.9 555.2,140.1 556.0,136.7 556.8,134.2 557.7,127.4 558.5,138.4 559.4,128.3 560.2,144.3 561.1,135.0 561.9,136.7 562.7,136.7 563.6,129.1 564.4,132.5 565.3,139.2 566.1,130.0 566.9,138.4 567.8,137.6 568.6,128.3 569.5,129.1 570.3,140.9 571.1,140.9 572.0,130.0 572.8,136.7 573.7,132.5 574.5,117.3 575.3,125.7 576.2,133.3 577.0,133.3 577.9,131.6 578.7,130.0 579.5,130.8 580.4,132.5 581.2,135.9 582.1,128.3 582.9,130.0 583.8,126.6 584.6,131.6 585.4,125.7 586.3,129.1 587.1,127.4 588.0,129.1 588.8,127.4 589.6,134.2 590.5,130.8 591.3,124.9 592.2,130.8 593.0,130.0 593.8,125.7 594.7,132.5 595.5,128.3 596.4,135.0 597.2,135.0 598.0,134.2 598.9,134.2 599.7,130.8 600.6,137.6 601.4,135.0 602.3,130.8 603.1,128.3 603.9,124.9 604.8,124.0 605.6,127.4 606.5,117.3 607.3,125.7 608.1,125.7 609.0,128.3 609.8,128.3 610.7,134.2 611.5,130.8 612.3,130.0 613.2,115.6 614.0,135.0 614.9,131.6 615.7,127.4 616.5,129.1 617.4,130.8 618.2,129.1 619.1,135.0 619.9,132.5 620.8,130.8 621.6,127.4 622.4,129.1 623.3,120.7 624.1,124.0 625.0,131.6 625.8,128.3 626.6,122.4 627.5,132.5 628.3,132.5 629.2,130.0 630.0,125.7 630.8,130.0 631.7,117.3 632.5,133.3 633.4,128.3 634.2,130.8 635.0,119.8 635.9,130.0 636.7,121.5 637.6,118.1 638.4,122.4 639.2,116.4 640.1,124.9 640.9,125.7 641.8,126.6 642.6,118.1 643.5,133.3 644.3,124.9 645.1,124.9 646.0,135.9 646.8,124.9 647.7,119.0 648.5,129.1 649.3,128.3 650.2,125.7 651.0,128.3 651.9,124.0 652.7,130.0 653.5,122.4 654.4,125.7 655.2,115.6 656.1,119.8 656.9,127.4 657.7,135.0 658.6,135.0 659.4,121.5 660.3,124.9 661.1,132.5 662.0,124.9 662.8,126.6 663.6,126.6 664.5,121.5 665.3,124.9 666.2,130.8 667.0,139.2 667.8,126.6 668.7,133.3 669.5,125.7 670.4,139.2 671.2,130.0 672.0,122.4 672.9,119.0 673.7,134.2 674.6,130.0 675.4,140.9 676.2,125.7 677.1,124.9 677.9,136.7 678.8,114.8 679.6,127.4 680.5,124.0 681.3,125.7 682.1,129.1 683.0,129.1 683.8,124.0 684.7,134.2 685.5,124.9 686.3,134.2 687.2,120.7 688.0,142.6 688.9,124.9 689.7,130.8 690.5,134.2 691.4,128.3 692.2,130.8 693.1,130.0 693.9,128.3 694.7,128.3 695.6,114.8 696.4,129.1 697.3,129.1 698.1,124.0 698.9,124.0 699.8,117.3 700.6,124.9 701.5,115.6 702.3,121.5 703.2,123.2 704.0,130.0 704.8,125.7 705.7,124.0 706.5,122.4 707.4,130.0 708.2,127.4 709.0,127.4 709.9,130.0 710.7,130.8 711.6,136.7 712.4,129.1 713.2,130.8 714.1,131.6 714.9,132.5 715.8,126.6 716.6,118.1 717.4,130.0 718.3,120.7 719.1,131.6 720.0,137.6 720.8,124.0 721.7,127.4 722.5,123.2 723.3,130.8 724.2,130.0 725.0,125.7 725.9,117.3 726.7,135.0 727.5,136.7 728.4,125.7 729.2,133.3 730.1,125.7 730.9,116.4 731.7,132.5 732.6,125.7 733.4,135.9 734.3,122.4 735.1,124.9 735.9,122.4 736.8,125.7 737.6,139.2 738.5,125.7 739.3,130.0 740.2,126.6 741.0,122.4 741.8,124.0 742.7,130.0 743.5,120.7 744.4,132.5 745.2,125.7 746.0,119.8 746.9,131.6 747.7,123.2 748.6,122.4 749.4,133.3 750.2,135.0 751.1,127.4 751.9,121.5 752.8,114.8 753.6,125.7 754.4,135.9 755.3,125.7 756.1,127.4 757.0,120.7 757.8,122.4 758.6,126.6 759.5,121.5 760.3,126.6 761.2,127.4 762.0,124.0 762.9,124.9 763.7,120.7 764.5,117.3 765.4,124.9 766.2,135.9 767.1,123.2 767.9,124.0 768.7,112.2 769.6,128.3 770.4,124.9 771.3,121.5 772.1,128.3 772.9,116.4 773.8,120.7 774.6,122.4 775.5,126.6 776.3,132.5 777.1,130.8 778.0,130.0 778.8,122.4 779.7,117.3 780.5,126.6 781.4,124.0 782.2,124.9 783.0,127.4 783.9,118.1 784.7,122.4 785.6,135.9 786.4,121.5 787.2,121.5 788.1,119.0 788.9,130.8 789.8,121.5 790.6,124.0 791.4,112.2 792.3,115.6 793.1,121.5 794.0,122.4 794.8,119.0 795.6,117.3 796.5,128.3 797.3,113.1 798.2,124.9 799.0,123.2 799.8,126.6 800.7,125.7 801.5,128.3 802.4,122.4 803.2,124.9 804.1,131.6 804.9,113.1 805.7,124.9 806.6,122.4 807.4,119.0 808.3,119.0 809.1,130.0 809.9,121.5 810.8,122.4 811.6,125.7 812.5,122.4 813.3,127.4 814.1,110.5 815.0,116.4 815.8,113.1 816.7,116.4 817.5,116.4 818.3,119.0 819.2,106.3 820.0,124.9 820.9,126.6 821.7,119.8 822.6,113.1 823.4,125.7 824.2,115.6 825.1,119.8 825.9,115.6 826.8,123.2 827.6,119.0 828.4,118.1 829.3,118.1 830.1,133.3 831.0,119.8 831.8,125.7 832.6,119.8 833.5,110.5 834.3,115.6 835.2,117.3 836.0,115.6 836.8,109.7 837.7,124.9 838.5,121.5 839.4,118.1 840.2,111.4 841.1,118.1 841.9,116.4 842.7,122.4 843.6,125.7 844.4,122.4 845.3,124.0 846.1,119.8 846.9,118.1 847.8,112.2 848.6,119.0 849.5,114.8 850.3,115.6 851.1,124.9 852.0,124.0 852.8,118.1 853.7,115.6 854.5,129.1 855.3,118.1 856.2,129.1 857.0,115.6 857.9,123.2 858.7,125.7 859.5,128.3 860.4,116.4 861.2,123.2 862.1,114.8 862.9,122.4 863.8,119.8 864.6,123.2 865.4,121.5 866.3,119.0 867.1,127.4 868.0,119.0 868.8,118.1 869.6,119.0 870.5,120.7 871.3,119.8 872.2,122.4 873.0,122.4 873.8,118.1 874.7,130.8 875.5,110.5 876.4,122.4 877.2,113.9 878.0,121.5 878.9,117.3 879.7,105.5 880.6,118.1 881.4,135.9 882.3,119.8 883.1,127.4 883.9,126.6 884.8,119.0 885.6,120.7 886.5,124.0 887.3,118.1 888.1,113.9 889.0,108.0 889.8,116.4 890.7,113.1 891.5,116.4 892.3,121.5 893.2,120.7 894.0,119.0 894.9,119.0 895.7,112.2 896.5,127.4 897.4,115.6 898.2,119.0 899.1,125.7 899.9,113.9 900.8,119.0 901.6,124.9 902.4,121.5 903.3,110.5 904.1,115.6 905.0,118.1 905.8,134.2 906.6,117.3 907.5,113.9 908.3,123.2 909.2,130.0 910.0,120.7"/>
<line x1="730" y1="120" x2="754" y2="120" stroke="#9333ea" stroke-width="3"/>
<text x="762" y="125" font-family="Arial" font-size="13" fill="#111827">Epsilon 0.10</text>
<polyline fill="none" stroke="#ea580c" stroke-width="2.2" points="70.0,417.9 70.8,408.6 71.7,411.2 72.5,414.5 73.4,405.2 74.2,401.9 75.0,410.3 75.9,397.6 76.7,396.8 77.6,413.7 78.4,278.6 79.2,309.0 80.1,320.8 80.9,333.5 81.8,329.2 82.6,313.2 83.5,304.8 84.3,320.0 85.1,294.6 86.0,308.1 86.8,293.8 87.7,310.7 88.5,300.5 89.3,312.4 90.2,298.8 91.0,293.8 91.9,290.4 92.7,285.3 93.5,287.9 94.4,289.6 95.2,280.3 96.1,271.0 96.9,266.8 97.7,272.7 98.6,272.7 99.4,272.7 100.3,282.0 101.1,269.3 102.0,262.5 102.8,248.2 103.6,254.9 104.5,254.9 105.3,249.0 106.2,254.9 107.0,244.8 107.8,247.3 108.7,232.1 109.5,247.3 110.4,230.4 111.2,246.5 112.0,233.0 112.9,251.6 113.7,253.2 114.6,249.9 115.4,237.2 116.2,233.0 117.1,233.8 117.9,241.4 118.8,234.7 119.6,233.0 120.5,224.5 121.3,227.9 122.1,251.6 123.0,240.6 123.8,217.8 124.7,233.0 125.5,215.2 126.3,211.0 127.2,211.9 128.0,214.4 128.9,216.1 129.7,226.2 130.5,202.6 131.4,204.3 132.2,226.2 133.1,223.7 133.9,216.9 134.7,216.1 135.6,217.8 136.4,204.3 137.3,219.5 138.1,201.7 138.9,190.8 139.8,213.6 140.6,208.5 141.5,201.7 142.3,212.7 143.2,206.8 144.0,220.3 144.8,211.0 145.7,206.8 146.5,222.0 147.4,217.8 148.2,216.9 149.0,196.7 149.9,200.9 150.7,193.3 151.6,206.0 152.4,193.3 153.2,200.0 154.1,206.0 154.9,211.9 155.8,205.1 156.6,201.7 157.4,202.6 158.3,210.2 159.1,189.9 160.0,205.1 160.8,190.8 161.7,183.2 162.5,188.2 163.3,180.6 164.2,202.6 165.0,194.1 165.9,193.3 166.7,193.3 167.5,178.9 168.4,180.6 169.2,189.9 170.1,190.8 170.9,188.2 171.7,195.8 172.6,186.5 173.4,184.8 174.3,191.6 175.1,196.7 175.9,190.8 176.8,199.2 177.6,192.4 178.5,186.5 179.3,175.6 180.2,174.7 181.0,179.8 181.8,191.6 182.7,189.9 183.5,184.8 184.4,173.9 185.2,179.8 186.0,181.5 186.9,184.0 187.7,170.5 188.6,179.8 189.4,175.6 190.2,172.2 191.1,178.1 191.9,173.9 192.8,170.5 193.6,164.6 194.4,181.5 195.3,171.3 196.1,161.2 197.0,168.0 197.8,174.7 198.6,175.6 199.5,168.0 200.3,168.8 201.2,167.1 202.0,175.6 202.9,176.4 203.7,175.6 204.5,173.0 205.4,170.5 206.2,165.4 207.1,172.2 207.9,178.1 208.7,178.9 209.6,172.2 210.4,178.9 211.3,184.0 212.1,176.4 212.9,169.6 213.8,171.3 214.6,180.6 215.5,173.0 216.3,163.7 217.1,162.9 218.0,174.7 218.8,176.4 219.7,165.4 220.5,156.1 221.4,172.2 222.2,157.8 223.0,156.1 223.9,151.9 224.7,153.6 225.6,154.4 226.4,143.5 227.2,151.1 228.1,141.8 228.9,142.6 229.8,151.9 230.6,163.7 231.4,161.2 232.3,158.7 233.1,160.4 234.0,156.1 234.8,162.0 235.6,157.8 236.5,163.7 237.3,153.6 238.2,161.2 239.0,162.0 239.8,146.8 240.7,151.1 241.5,161.2 242.4,150.2 243.2,158.7 244.1,147.7 244.9,141.8 245.7,153.6 246.6,159.5 247.4,162.0 248.3,153.6 249.1,157.8 249.9,157.8 250.8,149.4 251.6,139.2 252.5,151.9 253.3,152.8 254.1,151.9 255.0,150.2 255.8,155.3 256.7,150.2 257.5,152.8 258.3,156.1 259.2,141.8 260.0,138.4 260.9,143.5 261.7,135.9 262.6,133.3 263.4,135.9 264.2,139.2 265.1,147.7 265.9,135.9 266.8,148.5 267.6,144.3 268.4,146.0 269.3,154.4 270.1,141.8 271.0,145.2 271.8,140.1 272.6,148.5 273.5,140.1 274.3,145.2 275.2,134.2 276.0,132.5 276.8,124.0 277.7,133.3 278.5,130.0 279.4,132.5 280.2,132.5 281.1,130.8 281.9,136.7 282.7,138.4 283.6,138.4 284.4,133.3 285.3,137.6 286.1,127.4 286.9,137.6 287.8,140.1 288.6,132.5 289.5,136.7 290.3,133.3 291.1,135.9 292.0,136.7 292.8,138.4 293.7,136.7 294.5,137.6 295.3,128.3 296.2,125.7 297.0,135.0 297.9,135.9 298.7,135.9 299.5,135.9 300.4,135.9 301.2,142.6 302.1,135.9 302.9,134.2 303.8,137.6 304.6,138.4 305.4,126.6 306.3,129.1 307.1,133.3 308.0,130.0 308.8,125.7 309.6,124.9 310.5,118.1 311.3,119.0 312.2,123.2 313.0,127.4 313.8,119.8 314.7,131.6 315.5,130.0 316.4,130.8 317.2,122.4 318.0,134.2 318.9,144.3 319.7,140.1 320.6,132.5 321.4,134.2 322.3,139.2 323.1,124.9 323.9,129.1 324.8,128.3 325.6,132.5 326.5,144.3 327.3,135.0 328.1,127.4 329.0,132.5 329.8,129.1 330.7,124.0 331.5,124.9 332.3,120.7 333.2,127.4 334.0,130.0 334.9,119.8 335.7,123.2 336.5,124.9 337.4,125.7 338.2,115.6 339.1,119.8 339.9,136.7 340.8,130.8 341.6,127.4 342.4,136.7 343.3,117.3 344.1,120.7 345.0,124.9 345.8,136.7 346.6,118.1 347.5,124.0 348.3,114.8 349.2,127.4 350.0,119.8 350.8,122.4 351.7,121.5 352.5,120.7 353.4,114.8 354.2,122.4 355.0,119.0 355.9,120.7 356.7,130.0 357.6,122.4 358.4,108.8 359.2,123.2 360.1,115.6 360.9,121.5 361.8,116.4 362.6,126.6 363.5,119.8 364.3,130.0 365.1,130.8 366.0,133.3 366.8,127.4 367.7,130.8 368.5,122.4 369.3,120.7 370.2,123.2 371.0,118.1 371.9,123.2 372.7,135.0 373.5,133.3 374.4,128.3 375.2,119.8 376.1,130.8 376.9,122.4 377.7,126.6 378.6,129.1 379.4,130.8 380.3,120.7 381.1,128.3 382.0,134.2 382.8,132.5 383.6,132.5 384.5,130.0 385.3,132.5 386.2,133.3 387.0,129.1 387.8,124.9 388.7,127.4 389.5,126.6 390.4,130.8 391.2,123.2 392.0,123.2 392.9,124.0 393.7,130.0 394.6,127.4 395.4,134.2 396.2,122.4 397.1,130.0 397.9,124.0 398.8,127.4 399.6,134.2 400.5,125.7 401.3,130.0 402.1,117.3 403.0,118.1 403.8,119.8 404.7,113.1 405.5,107.2 406.3,109.7 407.2,111.4 408.0,108.0 408.9,113.1 409.7,125.7 410.5,131.6 411.4,118.1 412.2,123.2 413.1,129.1 413.9,125.7 414.7,129.1 415.6,131.6 416.4,125.7 417.3,117.3 418.1,125.7 418.9,131.6 419.8,122.4 420.6,114.8 421.5,121.5 422.3,121.5 423.2,130.0 424.0,117.3 424.8,112.2 425.7,111.4 426.5,110.5 427.4,110.5 428.2,108.8 429.0,117.3 429.9,110.5 430.7,111.4 431.6,108.0 432.4,101.2 433.2,101.2 434.1,111.4 434.9,104.6 435.8,107.2 436.6,109.7 437.4,110.5 438.3,103.8 439.1,108.8 440.0,104.6 440.8,102.9 441.7,103.8 442.5,105.5 443.3,110.5 444.2,116.4 445.0,116.4 445.9,115.6 446.7,128.3 447.5,119.0 448.4,118.1 449.2,108.8 450.1,116.4 450.9,114.8 451.7,123.2 452.6,118.1 453.4,115.6 454.3,114.8 455.1,120.7 455.9,129.1 456.8,120.7 457.6,120.7 458.5,121.5 459.3,124.0 460.2,119.0 461.0,119.8 461.8,125.7 462.7,118.1 463.5,116.4 464.4,119.0 465.2,118.1 466.0,117.3 466.9,120.7 467.7,112.2 468.6,108.8 469.4,117.3 470.2,110.5 471.1,105.5 471.9,108.8 472.8,108.8 473.6,107.2 474.4,112.2 475.3,111.4 476.1,113.9 477.0,113.1 477.8,113.9 478.6,116.4 479.5,113.1 480.3,117.3 481.2,116.4 482.0,119.8 482.9,118.1 483.7,118.1 484.5,113.1 485.4,107.2 486.2,111.4 487.1,109.7 487.9,97.9 488.7,103.8 489.6,104.6 490.4,101.2 491.3,104.6 492.1,117.3 492.9,104.6 493.8,110.5 494.6,112.2 495.5,99.6 496.3,113.9 497.1,112.2 498.0,107.2 498.8,109.7 499.7,113.9 500.5,113.1 501.4,110.5 502.2,113.1 503.0,119.8 503.9,126.6 504.7,118.1 505.6,113.9 506.4,111.4 507.2,111.4 508.1,108.8 508.9,113.9 509.8,111.4 510.6,113.9 511.4,116.4 512.3,113.9 513.1,116.4 514.0,110.5 514.8,104.6 515.6,101.2 516.5,103.8 517.3,103.8 518.2,107.2 519.0,119.8 519.8,112.2 520.7,113.9 521.5,110.5 522.4,114.8 523.2,112.2 524.1,107.2 524.9,114.8 525.7,113.1 526.6,114.8 527.4,109.7 528.3,95.3 529.1,100.4 529.9,107.2 530.8,102.1 531.6,113.9 532.5,108.8 533.3,107.2 534.1,108.8 535.0,108.0 535.8,100.4 536.7,112.2 537.5,112.2 538.3,101.2 539.2,105.5 540.0,105.5 540.9,108.0 541.7,104.6 542.6,102.1 543.4,108.0 544.2,102.1 545.1,105.5 545.9,104.6 546.8,96.2 547.6,102.9 548.4,108.0 549.3,101.2 550.1,100.4 551.0,103.8 551.8,100.4 552.6,99.6 553.5,106.3 554.3,101.2 555.2,102.9 556.0,100.4 556.8,99.6 557.7,103.8 558.5,104.6 559.4,109.7 560.2,106.3 561.1,104.6 561.9,106.3 562.7,102.1 563.6,99.6 564.4,104.6 565.3,108.8 566.1,100.4 566.9,102.9 567.8,99.6 568.6,100.4 569.5,91.1 570.3,101.2 571.1,99.6 572.0,97.9 572.8,102.9 573.7,102.9 574.5,95.3 575.3,108.0 576.2,96.2 577.0,103.8 577.9,102.9 578.7,103.8 579.5,98.7 580.4,99.6 581.2,102.9 582.1,95.3 582.9,91.1 583.8,101.2 584.6,94.5 585.4,99.6 586.3,103.8 587.1,104.6 588.0,102.9 588.8,97.9 589.6,101.2 590.5,101.2 591.3,95.3 592.2,99.6 593.0,105.5 593.8,103.8 594.7,104.6 595.5,94.5 596.4,98.7 597.2,103.8 598.0,102.1 598.9,102.1 599.7,101.2 600.6,100.4 601.4,91.1 602.3,98.7 603.1,102.9 603.9,97.9 604.8,100.4 605.6,100.4 606.5,102.1 607.3,100.4 608.1,100.4 609.0,97.0 609.8,92.0 610.7,92.8 611.5,100.4 612.3,92.0 613.2,92.8 614.0,94.5 614.9,88.6 615.7,97.0 616.5,92.0 617.4,101.2 618.2,92.0 619.1,95.3 619.9,95.3 620.8,94.5 621.6,97.9 622.4,94.5 623.3,86.9 624.1,97.0 625.0,105.5 625.8,91.1 626.6,104.6 627.5,97.9 628.3,101.2 629.2,98.7 630.0,95.3 630.8,95.3 631.7,99.6 632.5,100.4 633.4,100.4 634.2,96.2 635.0,93.6 635.9,92.8 636.7,87.7 637.6,97.9 638.4,93.6 639.2,92.8 640.1,96.2 640.9,97.0 641.8,97.9 642.6,96.2 643.5,95.3 644.3,98.7 645.1,98.7 646.0,98.7 646.8,95.3 647.7,97.0 648.5,97.9 649.3,109.7 650.2,104.6 651.0,100.4 651.9,101.2 652.7,103.8 653.5,101.2 654.4,105.5 655.2,102.1 656.1,112.2 656.9,116.4 657.7,108.8 658.6,102.1 659.4,105.5 660.3,105.5 661.1,100.4 662.0,97.9 662.8,96.2 663.6,95.3 664.5,98.7 665.3,101.2 666.2,96.2 667.0,103.8 667.8,95.3 668.7,101.2 669.5,102.1 670.4,100.4 671.2,107.2 672.0,108.8 672.9,101.2 673.7,93.6 674.6,92.8 675.4,99.6 676.2,91.1 677.1,97.0 677.9,96.2 678.8,104.6 679.6,101.2 680.5,94.5 681.3,99.6 682.1,101.2 683.0,108.8 683.8,103.8 684.7,101.2 685.5,95.3 686.3,102.9 687.2,113.9 688.0,98.7 688.9,106.3 689.7,103.8 690.5,95.3 691.4,101.2 692.2,97.0 693.1,97.0 693.9,102.1 694.7,92.8 695.6,95.3 696.4,95.3 697.3,96.2 698.1,97.9 698.9,105.5 699.8,102.9 700.6,101.2 701.5,92.8 702.3,94.5 703.2,92.8 704.0,93.6 704.8,94.5 705.7,92.8 706.5,95.3 707.4,96.2 708.2,96.2 709.0,90.3 709.9,92.8 710.7,92.0 711.6,96.2 712.4,95.3 713.2,100.4 714.1,97.0 714.9,105.5 715.8,108.8 716.6,108.8 717.4,100.4 718.3,100.4 719.1,99.6 720.0,96.2 720.8,104.6 721.7,103.8 722.5,98.7 723.3,102.9 724.2,91.1 725.0,98.7 725.9,92.0 726.7,97.9 727.5,95.3 728.4,103.8 729.2,97.0 730.1,92.0 730.9,95.3 731.7,98.7 732.6,94.5 733.4,96.2 734.3,96.2 735.1,93.6 735.9,87.7 736.8,92.8 737.6,91.1 738.5,91.1 739.3,90.3 740.2,101.2 741.0,91.1 741.8,92.0 742.7,95.3 743.5,94.5 744.4,97.0 745.2,103.8 746.0,100.4 746.9,102.1 747.7,104.6 748.6,99.6 749.4,96.2 750.2,95.3 751.1,97.0 751.9,99.6 752.8,94.5 753.6,102.9 754.4,105.5 755.3,96.2 756.1,95.3 757.0,92.8 757.8,95.3 758.6,96.2 759.5,98.7 760.3,93.6 761.2,99.6 762.0,105.5 762.9,103.8 763.7,107.2 764.5,105.5 765.4,101.2 766.2,92.0 767.1,96.2 767.9,94.5 768.7,95.3 769.6,92.8 770.4,92.8 771.3,96.2 772.1,92.8 772.9,92.0 773.8,92.0 774.6,99.6 775.5,91.1 776.3,90.3 777.1,92.0 778.0,97.0 778.8,97.0 779.7,103.8 780.5,100.4 781.4,88.6 782.2,92.0 783.0,94.5 783.9,101.2 784.7,92.0 785.6,90.3 786.4,92.8 787.2,88.6 788.1,94.5 788.9,91.1 789.8,90.3 790.6,91.1 791.4,87.7 792.3,92.0 793.1,91.1 794.0,89.4 794.8,93.6 795.6,88.6 796.5,86.0 797.3,84.4 798.2,88.6 799.0,94.5 799.8,99.6 800.7,103.8 801.5,94.5 802.4,93.6 803.2,94.5 804.1,90.3 804.9,90.3 805.7,91.1 806.6,97.0 807.4,104.6 808.3,96.2 809.1,102.1 809.9,100.4 810.8,100.4 811.6,96.2 812.5,102.9 813.3,103.8 814.1,101.2 815.0,101.2 815.8,100.4 816.7,100.4 817.5,96.2 818.3,98.7 819.2,92.8 820.0,92.8 820.9,88.6 821.7,93.6 822.6,96.2 823.4,97.9 824.2,102.1 825.1,103.8 825.9,104.6 826.8,99.6 827.6,94.5 828.4,95.3 829.3,97.9 830.1,93.6 831.0,95.3 831.8,101.2 832.6,99.6 833.5,90.3 834.3,92.8 835.2,95.3 836.0,97.0 836.8,94.5 837.7,92.8 838.5,88.6 839.4,93.6 840.2,92.8 841.1,86.9 841.9,91.1 842.7,97.9 843.6,83.5 844.4,83.5 845.3,89.4 846.1,90.3 846.9,87.7 847.8,88.6 848.6,89.4 849.5,91.1 850.3,91.1 851.1,98.7 852.0,98.7 852.8,99.6 853.7,91.1 854.5,94.5 855.3,97.9 856.2,93.6 857.0,97.0 857.9,95.3 858.7,96.2 859.5,94.5 860.4,92.0 861.2,99.6 862.1,93.6 862.9,92.8 863.8,98.7 864.6,92.8 865.4,91.1 866.3,101.2 867.1,92.8 868.0,91.1 868.8,95.3 869.6,98.7 870.5,93.6 871.3,93.6 872.2,89.4 873.0,93.6 873.8,95.3 874.7,98.7 875.5,91.1 876.4,95.3 877.2,91.1 878.0,91.1 878.9,92.8 879.7,97.0 880.6,100.4 881.4,99.6 882.3,92.8 883.1,86.9 883.9,90.3 884.8,92.0 885.6,94.5 886.5,100.4 887.3,91.1 888.1,92.0 889.0,92.0 889.8,88.6 890.7,89.4 891.5,89.4 892.3,90.3 893.2,79.3 894.0,82.7 894.9,81.0 895.7,81.0 896.5,80.1 897.4,79.3 898.2,78.4 899.1,77.6 899.9,85.2 900.8,90.3 901.6,84.4 902.4,85.2 903.3,87.7 904.1,88.6 905.0,86.0 905.8,89.4 906.6,84.4 907.5,83.5 908.3,77.6 909.2,81.8 910.0,79.3"/>
<line x1="730" y1="142" x2="754" y2="142" stroke="#ea580c" stroke-width="3"/>
<text x="762" y="147" font-family="Arial" font-size="13" fill="#111827">UCB c=2</text>
</svg>