<svg xmlns="http://www.w3.org/2000/svg" width="980" height="520" viewBox="0 0 980 520">
<rect width="100%" height="100%" fill="#ffffff"/>
<text x="70" y="34" font-family="Arial" font-size="24" font-weight="700" fill="#111827">Optimal Action Rate: 20 arms</text>
<line x1="70" y1="450" x2="910" y2="450" stroke="#111827" stroke-width="1"/>
<line x1="70" y1="70" x2="70" y2="450" stroke="#111827" stroke-width="1"/>
<text x="18" y="260.0" font-family="Arial" font-size="14" fill="#374151" transform="rotate(-90 18,260.0)">Optimal action rate</text>
<text x="460.0" y="502" font-family="Arial" font-size="14" fill="#374151">Step</text>
<line x1="65" y1="450.0" x2="910" y2="450.0" stroke="#e5e7eb" stroke-width="1"/>
<text x="8" y="455.0" font-family="Arial" font-size="12" fill="#4b5563">0.00</text>
<line x1="65" y1="374.0" x2="910" y2="374.0" stroke="#e5e7eb" stroke-width="1"/>
<text x="8" y="379.0" font-family="Arial" font-size="12" fill="#4b5563">0.18</text>
<line x1="65" y1="298.0" x2="910" y2="298.0" stroke="#e5e7eb" stroke-width="1"/>
<text x="8" y="303.0" font-family="Arial" font-size="12" fill="#4b5563">0.36</text>
<line x1="65" y1="222.0" x2="910" y2="222.0" stroke="#e5e7eb" stroke-width="1"/>
<text x="8" y="227.0" font-family="Arial" font-size="12" fill="#4b5563">0.54</text>
<line x1="65" y1="146.0" x2="910" y2="146.0" stroke="#e5e7eb" stroke-width="1"/>
<text x="8" y="151.0" font-family="Arial" font-size="12" fill="#4b5563">0.72</text>
<line x1="65" y1="70.0" x2="910" y2="70.0" stroke="#e5e7eb" stroke-width="1"/>
<text x="8" y="75.0" font-family="Arial" font-size="12" fill="#4b5563">0.90</text>
<polyline fill="none" stroke="#2563eb" stroke-width="2.2" points="70.0,430.6 70.8,427.2 71.7,422.1 72.5,423.8 73.4,432.3 74.2,423.8 75.0,434.8 75.9,431.4 76.7,429.7 77.6,425.5 78.4,431.4 79.2,424.7 80.1,428.9 80.9,423.0 81.8,431.4 82.6,423.8 83.5,423.8 84.3,438.2 85.1,436.5 86.0,426.4 86.8,434.8 87.7,428.0 88.5,429.7 89.3,428.0 90.2,430.6 91.0,421.3 91.9,432.3 92.7,427.2 93.5,422.1 94.4,432.3 95.2,426.4 96.1,429.7 96.9,432.3 97.7,430.6 98.6,427.2 99.4,432.3 100.3,429.7 101.1,429.7 102.0,420.4 102.8,425.5 103.6,434.8 104.5,431.4 105.3,427.2 106.2,429.7 107.0,423.8 107.8,427.2 108.7,430.6 109.5,420.4 110.4,429.7 111.2,430.6 112.0,432.3 112.9,426.4 113.7,425.5 114.6,426.4 115.4,424.7 116.2,434.0 117.1,433.1 117.9,428.0 118.8,426.4 119.6,426.4 120.5,431.4 121.3,423.8 122.1,439.0 123.0,430.6 123.8,428.0 124.7,429.7 125.5,429.7 126.3,426.4 127.2,432.3 128.0,429.7 128.9,423.0 129.7,425.5 130.5,434.8 131.4,423.8 132.2,427.2 133.1,423.0 133.9,427.2 134.7,435.6 135.6,432.3 136.4,428.0 137.3,428.0 138.1,438.2 138.9,428.9 139.8,432.3 140.6,425.5 141.5,422.1 142.3,425.5 143.2,431.4 144.0,421.3 144.8,428.9 145.7,428.9 146.5,434.0 147.4,430.6 148.2,422.1 149.0,428.0 149.9,439.0 150.7,434.8 151.6,430.6 152.4,426.4 153.2,429.7 154.1,428.0 154.9,429.7 155.8,428.0 156.6,429.7 157.4,428.0 158.3,421.3 159.1,433.1 160.0,429.7 160.8,428.0 161.7,434.0 162.5,434.0 163.3,427.2 164.2,435.6 165.0,425.5 165.9,431.4 166.7,432.3 167.5,435.6 168.4,428.0 169.2,421.3 170.1,427.2 170.9,433.1 171.7,434.8 172.6,424.7 173.4,429.7 174.3,424.7 175.1,425.5 175.9,435.6 176.8,428.9 177.6,426.4 178.5,431.4 179.3,432.3 180.2,435.6 181.0,421.3 181.8,426.4 182.7,430.6 183.5,431.4 184.4,423.0 185.2,425.5 186.0,436.5 186.9,430.6 187.7,430.6 188.6,437.3 189.4,430.6 190.2,426.4 191.1,428.9 191.9,424.7 192.8,424.7 193.6,426.4 194.4,428.9 195.3,428.9 196.1,427.2 197.0,426.4 197.8,425.5 198.6,428.9 199.5,429.7 200.3,427.2 201.2,428.9 202.0,428.0 202.9,432.3 203.7,426.4 204.5,432.3 205.4,433.1 206.2,416.2 207.1,431.4 207.9,422.1 208.7,435.6 209.6,430.6 210.4,432.3 211.3,428.9 212.1,422.1 212.9,428.9 213.8,431.4 214.6,425.5 215.5,423.0 216.3,431.4 217.1,428.9 218.0,427.2 218.8,429.7 219.7,429.7 220.5,423.0 221.4,428.0 222.2,428.9 223.0,434.8 223.9,433.1 224.7,430.6 225.6,432.3 226.4,433.1 227.2,433.1 228.1,430.6 228.9,425.5 229.8,430.6 230.6,431.4 231.4,419.6 232.3,426.4 233.1,429.7 234.0,423.8 234.8,429.7 235.6,417.9 236.5,425.5 237.3,433.1 238.2,425.5 239.0,421.3 239.8,423.8 240.7,428.9 241.5,432.3 242.4,430.6 243.2,434.8 244.1,431.4 244.9,424.7 245.7,435.6 246.6,429.7 247.4,427.2 248.3,426.4 249.1,428.0 249.9,420.4 250.8,428.9 251.6,429.7 252.5,430.6 253.3,429.7 254.1,429.7 255.0,419.6 255.8,425.5 256.7,434.0 257.5,428.9 258.3,428.0 259.2,439.9 260.0,431.4 260.9,424.7 261.7,430.6 262.6,427.2 263.4,432.3 264.2,430.6 265.1,429.7 265.9,433.1 266.8,428.0 267.6,423.0 268.4,434.8 269.3,435.6 270.1,428.9 271.0,428.0 271.8,429.7 272.6,430.6 273.5,431.4 274.3,427.2 275.2,433.1 276.0,434.8 276.8,433.1 277.7,429.7 278.5,422.1 279.4,418.8 280.2,430.6 281.1,430.6 281.9,433.1 282.7,424.7 283.6,428.0 284.4,430.6 285.3,425.5 286.1,432.3 286.9,430.6 287.8,429.7 288.6,434.0 289.5,431.4 290.3,431.4 291.1,424.7 292.0,428.9 292.8,425.5 293.7,432.3 294.5,432.3 295.3,430.6 296.2,430.6 297.0,432.3 297.9,422.1 298.7,428.0 299.5,434.8 300.4,432.3 301.2,427.2 302.1,428.9 302.9,431.4 303.8,429.7 304.6,433.1 305.4,421.3 306.3,431.4 307.1,433.1 308.0,423.8 308.8,436.5 309.6,423.0 310.5,428.9 311.3,426.4 312.2,428.0 313.0,427.2 313.8,423.8 314.7,428.9 315.5,422.1 316.4,419.6 317.2,421.3 318.0,432.3 318.9,423.8 319.7,429.7 320.6,425.5 321.4,428.0 322.3,429.7 323.1,431.4 323.9,430.6 324.8,429.7 325.6,428.9 326.5,429.7 327.3,428.0 328.1,429.7 329.0,430.6 329.8,432.3 330.7,425.5 331.5,428.0 332.3,434.8 333.2,429.7 334.0,435.6 334.9,428.0 335.7,426.4 336.5,427.2 337.4,421.3 338.2,432.3 339.1,428.0 339.9,428.9 340.8,433.1 341.6,423.8 342.4,423.0 343.3,431.4 344.1,427.2 345.0,428.0 345.8,434.8 346.6,423.8 347.5,423.8 348.3,432.3 349.2,420.4 350.0,428.9 350.8,423.8 351.7,431.4 352.5,432.3 353.4,423.8 354.2,427.2 355.0,429.7 355.9,438.2 356.7,432.3 357.6,425.5 358.4,434.0 359.2,433.1 360.1,428.9 360.9,432.3 361.8,417.1 362.6,423.0 363.5,423.8 364.3,434.0 365.1,427.2 366.0,428.0 366.8,426.4 367.7,434.0 368.5,437.3 369.3,431.4 370.2,424.7 371.0,429.7 371.9,426.4 372.7,430.6 373.5,424.7 374.4,423.8 375.2,436.5 376.1,430.6 376.9,423.8 377.7,429.7 378.6,428.9 379.4,424.7 380.3,428.9 381.1,423.8 382.0,436.5 382.8,429.7 383.6,427.2 384.5,431.4 385.3,425.5 386.2,426.4 387.0,429.7 387.8,434.0 388.7,422.1 389.5,433.1 390.4,430.6 391.2,430.6 392.0,429.7 392.9,432.3 393.7,429.7 394.6,424.7 395.4,426.4 396.2,432.3 397.1,434.0 397.9,417.9 398.8,429.7 399.6,425.5 400.5,430.6 401.3,430.6 402.1,432.3 403.0,435.6 403.8,423.0 404.7,428.9 405.5,434.8 406.3,423.8 407.2,434.0 408.0,429.7 408.9,421.3 409.7,435.6 410.5,425.5 411.4,433.1 412.2,429.7 413.1,431.4 413.9,430.6 414.7,419.6 415.6,433.1 416.4,427.2 417.3,428.0 418.1,429.7 418.9,423.0 419.8,430.6 420.6,427.2 421.5,425.5 422.3,427.2 423.2,423.8 424.0,428.9 424.8,430.6 425.7,429.7 426.5,428.9 427.4,436.5 428.2,424.7 429.0,428.9 429.9,426.4 430.7,427.2 431.6,434.8 432.4,430.6 433.2,428.9 434.1,428.9 434.9,428.9 435.8,430.6 436.6,423.8 437.4,431.4 438.3,429.7 439.1,426.4 440.0,429.7 440.8,424.7 441.7,434.0 442.5,435.6 443.3,430.6 444.2,429.7 445.0,428.0 445.9,424.7 446.7,433.1 447.5,428.9 448.4,429.7 449.2,429.7 450.1,427.2 450.9,431.4 451.7,432.3 452.6,431.4 453.4,431.4 454.3,430.6 455.1,429.7 455.9,432.3 456.8,428.0 457.6,432.3 458.5,424.7 459.3,431.4 460.2,435.6 461.0,429.7 461.8,422.1 462.7,430.6 463.5,429.7 464.4,422.1 465.2,430.6 466.0,435.6 466.9,432.3 467.7,426.4 468.6,419.6 469.4,428.0 470.2,422.1 471.1,434.0 471.9,424.7 472.8,420.4 473.6,426.4 474.4,425.5 475.3,432.3 476.1,423.8 477.0,426.4 477.8,426.4 478.6,433.1 479.5,426.4 480.3,432.3 481.2,428.0 482.0,423.8 482.9,426.4 483.7,434.0 484.5,427.2 485.4,430.6 486.2,429.7 487.1,423.0 487.9,430.6 488.7,430.6 489.6,433.1 490.4,419.6 491.3,422.1 492.1,434.0 492.9,424.7 493.8,423.8 494.6,428.9 495.5,428.0 496.3,430.6 497.1,429.7 498.0,428.9 498.8,426.4 499.7,425.5 500.5,425.5 501.4,432.3 502.2,430.6 503.0,433.1 503.9,433.1 504.7,432.3 505.6,423.8 506.4,429.7 507.2,417.9 508.1,429.7 508.9,423.8 509.8,424.7 510.6,426.4 511.4,434.0 512.3,431.4 513.1,431.4 514.0,424.7 514.8,434.8 515.6,423.8 516.5,432.3 517.3,431.4 518.2,438.2 519.0,434.0 519.8,428.0 520.7,430.6 521.5,439.0 522.4,433.1 523.2,432.3 524.1,425.5 524.9,427.2 525.7,424.7 526.6,424.7 527.4,428.9 528.3,429.7 529.1,426.4 529.9,429.7 530.8,422.1 531.6,429.7 532.5,427.2 533.3,428.9 534.1,419.6 535.0,423.8 535.8,426.4 536.7,434.0 537.5,432.3 538.3,424.7 539.2,436.5 540.0,419.6 540.9,432.3 541.7,430.6 542.6,422.1 543.4,423.0 544.2,429.7 545.1,426.4 545.9,428.9 546.8,428.9 547.6,427.2 548.4,426.4 549.3,429.7 550.1,430.6 551.0,428.9 551.8,425.5 552.6,428.0 553.5,427.2 554.3,427.2 555.2,428.0 556.0,430.6 556.8,427.2 557.7,424.7 558.5,432.3 559.4,423.8 560.2,428.0 561.1,426.4 561.9,427.2 562.7,434.0 563.6,433.1 564.4,435.6 565.3,431.4 566.1,431.4 566.9,432.3 567.8,429.7 568.6,434.8 569.5,434.0 570.3,428.9 571.1,430.6 572.0,427.2 572.8,434.8 573.7,427.2 574.5,434.8 575.3,427.2 576.2,431.4 577.0,433.1 577.9,423.8 578.7,430.6 579.5,433.1 580.4,432.3 581.2,429.7 582.1,428.0 582.9,424.7 583.8,429.7 584.6,434.0 585.4,428.9 586.3,428.9 587.1,433.1 588.0,432.3 588.8,428.9 589.6,432.3 590.5,430.6 591.3,428.9 592.2,425.5 593.0,432.3 593.8,423.8 594.7,428.9 595.5,432.3 596.4,436.5 597.2,428.9 598.0,433.1 598.9,428.0 599.7,432.3 600.6,428.9 601.4,426.4 602.3,424.7 603.1,429.7 603.9,428.0 604.8,428.9 605.6,422.1 606.5,437.3 607.3,427.2 608.1,419.6 609.0,429.7 609.8,428.9 610.7,429.7 611.5,420.4 612.3,426.4 613.2,433.1 614.0,428.0 614.9,432.3 615.7,428.9 616.5,428.9 617.4,430.6 618.2,434.8 619.1,418.8 619.9,428.0 620.8,425.5 621.6,430.6 622.4,434.0 623.3,432.3 624.1,420.4 625.0,428.9 625.8,428.9 626.6,424.7 627.5,432.3 628.3,433.1 629.2,428.9 630.0,429.7 630.8,429.7 631.7,435.6 632.5,430.6 633.4,430.6 634.2,433.1 635.0,424.7 635.9,420.4 636.7,428.0 637.6,421.3 638.4,422.1 639.2,426.4 640.1,426.4 640.9,431.4 641.8,423.8 642.6,437.3 643.5,431.4 644.3,430.6 645.1,436.5 646.0,428.0 646.8,425.5 647.7,428.9 648.5,433.1 649.3,419.6 650.2,424.7 651.0,428.9 651.9,423.8 652.7,432.3 653.5,426.4 654.4,423.8 655.2,424.7 656.1,432.3 656.9,428.9 657.7,434.0 658.6,428.0 659.4,425.5 660.3,432.3 661.1,424.7 662.0,434.0 662.8,435.6 663.6,432.3 664.5,434.8 665.3,428.0 666.2,432.3 667.0,433.1 667.8,428.9 668.7,431.4 669.5,428.0 670.4,418.8 671.2,431.4 672.0,427.2 672.9,424.7 673.7,437.3 674.6,427.2 675.4,427.2 676.2,432.3 677.1,426.4 677.9,429.7 678.8,427.2 679.6,430.6 680.5,430.6 681.3,429.7 682.1,428.9 683.0,431.4 683.8,429.7 684.7,428.9 685.5,435.6 686.3,426.4 687.2,426.4 688.0,425.5 688.9,424.7 689.7,431.4 690.5,423.0 691.4,432.3 692.2,426.4 693.1,427.2 693.9,424.7 694.7,427.2 695.6,423.8 696.4,431.4 697.3,428.9 698.1,427.2 698.9,428.9 699.8,427.2 700.6,435.6 701.5,429.7 702.3,428.0 703.2,430.6 704.0,431.4 704.8,419.6 705.7,423.0 706.5,425.5 707.4,427.2 708.2,427.2 709.0,427.2 709.9,427.2 710.7,428.0 711.6,435.6 712.4,424.7 713.2,423.0 714.1,421.3 714.9,431.4 715.8,431.4 716.6,430.6 717.4,429.7 718.3,433.1 719.1,421.3 720.0,432.3 720.8,423.0 721.7,423.8 722.5,428.9 723.3,434.0 724.2,435.6 725.0,428.9 725.9,420.4 726.7,431.4 727.5,425.5 728.4,427.2 729.2,425.5 730.1,422.1 730.9,437.3 731.7,428.9 732.6,434.8 733.4,431.4 734.3,424.7 735.1,420.4 735.9,434.8 736.8,426.4 737.6,428.9 738.5,434.8 739.3,432.3 740.2,439.0 741.0,434.8 741.8,430.6 742.7,432.3 743.5,425.5 744.4,423.0 745.2,434.8 746.0,432.3 746.9,437.3 747.7,427.2 748.6,430.6 749.4,426.4 750.2,431.4 751.1,431.4 751.9,430.6 752.8,423.8 753.6,428.0 754.4,428.9 755.3,427.2 756.1,423.8 757.0,430.6 757.8,430.6 758.6,434.8 759.5,433.1 760.3,433.1 761.2,428.0 762.0,438.2 762.9,433.1 763.7,429.7 764.5,426.4 765.4,439.0 766.2,430.6 767.1,423.0 767.9,429.7 768.7,423.8 769.6,423.0 770.4,424.7 771.3,427.2 772.1,429.7 772.9,430.6 773.8,424.7 774.6,423.0 775.5,427.2 776.3,424.7 777.1,429.7 778.0,428.0 778.8,428.0 779.7,428.9 780.5,423.8 781.4,430.6 782.2,423.8 783.0,423.0 783.9,430.6 784.7,426.4 785.6,424.7 786.4,433.1 787.2,434.8 788.1,428.9 788.9,432.3 789.8,423.0 790.6,431.4 791.4,424.7 792.3,421.3 793.1,430.6 794.0,431.4 794.8,433.1 795.6,423.8 796.5,426.4 797.3,429.7 798.2,428.0 799.0,432.3 799.8,431.4 800.7,426.4 801.5,426.4 802.4,427.2 803.2,428.0 804.1,423.0 804.9,423.8 805.7,428.9 806.6,432.3 807.4,421.3 808.3,429.7 809.1,423.8 809.9,432.3 810.8,425.5 811.6,433.1 812.5,428.0 813.3,432.3 814.1,424.7 815.0,432.3 815.8,425.5 816.7,425.5 817.5,427.2 818.3,429.7 819.2,427.2 820.0,428.0 820.9,423.8 821.7,430.6 822.6,428.0 823.4,436.5 824.2,430.6 825.1,424.7 825.9,438.2 826.8,436.5 827.6,426.4 828.4,434.8 829.3,423.8 830.1,428.9 831.0,429.7 831.8,428.0 832.6,424.7 833.5,428.0 834.3,423.8 835.2,428.0 836.0,427.2 836.8,423.0 837.7,428.9 838.5,427.2 839.4,434.8 840.2,431.4 841.1,424.7 841.9,429.7 842.7,428.9 843.6,423.0 844.4,431.4 845.3,425.5 846.1,430.6 846.9,427.2 847.8,427.2 848.6,433.1 849.5,431.4 850.3,426.4 851.1,428.0 852.0,425.5 852.8,431.4 853.7,429.7 854.5,424.7 855.3,425.5 856.2,425.5 857.0,417.9 857.9,425.5 858.7,423.0 859.5,428.0 860.4,439.0 861.2,433.1 862.1,431.4 862.9,427.2 863.8,433.1 864.6,425.5 865.4,428.0 866.3,429.7 867.1,436.5 868.0,432.3 868.8,424.7 869.6,416.2 870.5,428.0 871.3,434.8 872.2,430.6 873.0,424.7 873.8,432.3 874.7,423.8 875.5,433.1 876.4,436.5 877.2,429.7 878.0,418.8 878.9,428.9 879.7,430.6 880.6,419.6 881.4,431.4 882.3,420.4 883.1,423.8 883.9,428.9 884.8,428.9 885.6,431.4 886.5,433.1 887.3,423.0 888.1,421.3 889.0,423.8 889.8,432.3 890.7,431.4 891.5,428.9 892.3,436.5 893.2,431.4 894.0,429.7 894.9,428.9 895.7,428.9 896.5,434.0 897.4,417.9 898.2,428.9 899.1,422.1 899.9,430.6 900.8,434.0 901.6,427.2 902.4,428.9 903.3,431.4 904.1,424.7 905.0,423.0 905.8,426.4 906.6,434.8 907.5,433.1 908.3,430.6 909.2,424.7 910.0,423.8"/>
<line x1="730" y1="54" x2="754" y2="54" stroke="#2563eb" stroke-width="3"/>
<text x="762" y="59" font-family="Arial" font-size="13" fill="#111827">Random</text>
<polyline fill="none" stroke="#16a34a" stroke-width="2.2" points="70.0,428.9 70.8,420.4 71.7,410.3 72.5,404.4 73.4,401.9 74.2,401.0 75.0,399.3 75.9,397.6 76.7,396.0 77.6,395.1 78.4,393.4 79.2,393.4 80.1,393.4 80.9,392.6 81.8,391.7 82.6,391.7 83.5,391.7 84.3,391.7 85.1,390.0 86.0,389.2 86.8,388.4 87.7,388.4 88.5,387.5 89.3,387.5 90.2,387.5 91.0,386.7 91.9,385.8 92.7,385.8 93.5,385.0 94.4,385.0 95.2,385.0 96.1,385.0 96.9,385.0 97.7,385.0 98.6,385.0 99.4,385.0 100.3,385.0 101.1,383.3 102.0,383.3 102.8,383.3 103.6,383.3 104.5,383.3 105.3,383.3 106.2,383.3 107.0,382.4 107.8,382.4 108.7,382.4 109.5,382.4 110.4,381.6 111.2,381.6 112.0,381.6 112.9,381.6 113.7,381.6 114.6,381.6 115.4,381.6 116.2,381.6 117.1,381.6 117.9,381.6 118.8,381.6 119.6,381.6 120.5,381.6 121.3,381.6 122.1,381.6 123.0,381.6 123.8,381.6 124.7,381.6 125.5,381.6 126.3,381.6 127.2,381.6 128.0,381.6 128.9,381.6 129.7,381.6 130.5,381.6 131.4,381.6 132.2,381.6 133.1,381.6 133.9,381.6 134.7,381.6 135.6,381.6 136.4,381.6 137.3,381.6 138.1,381.6 138.9,381.6 139.8,381.6 140.6,381.6 141.5,381.6 142.3,381.6 143.2,381.6 144.0,381.6 144.8,381.6 145.7,381.6 146.5,381.6 147.4,381.6 148.2,381.6 149.0,381.6 149.9,381.6 150.7,381.6 151.6,381.6 152.4,381.6 153.2,381.6 154.1,381.6 154.9,381.6 155.8,381.6 156.6,381.6 157.4,381.6 158.3,381.6 159.1,381.6 160.0,381.6 160.8,381.6 161.7,381.6 162.5,381.6 163.3,381.6 164.2,381.6 165.0,381.6 165.9,381.6 166.7,381.6 167.5,381.6 168.4,381.6 169.2,381.6 170.1,381.6 170.9,381.6 171.7,381.6 172.6,381.6 173.4,381.6 174.3,381.6 175.1,381.6 175.9,381.6 176.8,381.6 177.6,381.6 178.5,381.6 179.3,381.6 180.2,381.6 181.0,381.6 181.8,381.6 182.7,381.6 183.5,381.6 184.4,381.6 185.2,381.6 186.0,381.6 186.9,381.6 187.7,381.6 188.6,381.6 189.4,381.6 190.2,381.6 191.1,381.6 191.9,381.6 192.8,381.6 193.6,381.6 194.4,381.6 195.3,381.6 196.1,381.6 197.0,381.6 197.8,381.6 198.6,381.6 199.5,381.6 200.3,381.6 201.2,381.6 202.0,381.6 202.9,381.6 203.7,381.6 204.5,381.6 205.4,381.6 206.2,381.6 207.1,381.6 207.9,381.6 208.7,381.6 209.6,381.6 210.4,381.6 211.3,381.6 212.1,381.6 212.9,381.6 213.8,381.6 214.6,381.6 215.5,381.6 216.3,381.6 217.1,381.6 218.0,381.6 218.8,381.6 219.7,381.6 220.5,381.6 221.4,381.6 222.2,381.6 223.0,381.6 223.9,381.6 224.7,381.6 225.6,381.6 226.4,381.6 227.2,381.6 228.1,381.6 228.9,381.6 229.8,381.6 230.6,380.8 231.4,380.8 232.3,380.8 233.1,380.8 234.0,380.8 234.8,380.8 235.6,380.8 236.5,380.8 237.3,380.8 238.2,380.8 239.0,380.8 239.8,380.8 240.7,380.8 241.5,380.8 242.4,380.8 243.2,380.8 244.1,380.8 244.9,380.8 245.7,380.8 246.6,380.8 247.4,380.8 248.3,380.8 249.1,380.8 249.9,380.8 250.8,380.8 251.6,380.8 252.5,380.8 253.3,380.8 254.1,380.8 255.0,380.8 255.8,380.8 256.7,380.8 257.5,380.8 258.3,380.8 259.2,380.8 260.0,380.8 260.9,380.8 261.7,380.8 262.6,380.8 263.4,380.8 264.2,380.8 265.1,380.8 265.9,380.8 266.8,380.8 267.6,380.8 268.4,380.8 269.3,380.8 270.1,380.8 271.0,380.8 271.8,380.8 272.6,380.8 273.5,380.8 274.3,380.8 275.2,380.8 276.0,380.8 276.8,380.8 277.7,380.8 278.5,380.8 279.4,380.8 280.2,380.8 281.1,380.8 281.9,380.8 282.7,380.8 283.6,380.8 284.4,380.8 285.3,380.8 286.1,380.8 286.9,380.8 287.8,380.8 288.6,380.8 289.5,380.8 290.3,380.8 291.1,380.8 292.0,380.8 292.8,380.8 293.7,380.8 294.5,380.8 295.3,380.8 296.2,380.8 297.0,380.8 297.9,380.8 298.7,380.8 299.5,380.8 300.4,380.8 301.2,380.8 302.1,380.8 302.9,380.8 303.8,380.8 304.6,380.8 305.4,380.8 306.3,380.8 307.1,380.8 308.0,380.8 308.8,380.8 309.6,380.8 310.5,380.8 311.3,380.8 312.2,380.8 313.0,380.8 313.8,380.8 314.7,380.8 315.5,380.8 316.4,380.8 317.2,380.8 318.0,380.8 318.9,380.8 319.7,380.8 320.6,380.8 321.4,380.8 322.3,380.8 323.1,380.8 323.9,380.8 324.8,380.8 325.6,380.8 326.5,380.8 327.3,380.8 328.1,380.8 329.0,380.8 329.8,380.8 330.7,380.8 331.5,380.8 332.3,380.8 333.2,380.8 334.0,380.8 334.9,380.8 335.7,380.8 336.5,380.8 337.4,380.8 338.2,380.8 339.1,380.8 339.9,380.8 340.8,380.8 341.6,380.8 342.4,380.8 343.3,380.8 344.1,380.8 345.0,380.8 345.8,380.8 346.6,380.8 347.5,380.8 348.3,380.8 349.2,380.8 350.0,380.8 350.8,380.8 351.7,380.8 352.5,380.8 353.4,380.8 354.2,380.8 355.0,380.8 355.9,380.8 356.7,380.8 357.6,380.8 358.4,380.8 359.2,380.8 360.1,380.8 360.9,380.8 361.8,380.8 362.6,380.8 363.5,380.8 364.3,380.8 365.1,380.8 366.0,380.8 366.8,380.8 367.7,380.8 368.5,380.8 369.3,380.8 370.2,380.8 371.0,380.8 371.9,380.8 372.7,380.8 373.5,380.8 374.4,380.8 375.2,380.8 376.1,380.8 376.9,380.8 377.7,380.8 378.6,380.8 379.4,380.8 380.3,380.8 381.1,380.8 382.0,380.8 382.8,380.8 383.6,380.8 384.5,380.8 385.3,380.8 386.2,380.8 387.0,380.8 387.8,380.8 388.7,380.8 389.5,380.8 390.4,380.8 391.2,380.8 392.0,380.8 392.9,380.8 393.7,380.8 394.6,380.8 395.4,380.8 396.2,380.8 397.1,380.8 397.9,380.8 398.8,380.8 399.6,380.8 400.5,380.8 401.3,380.8 402.1,380.8 403.0,380.8 403.8,380.8 404.7,380.8 405.5,380.8 406.3,380.8 407.2,380.8 408.0,380.8 408.9,380.8 409.7,380.8 410.5,380.8 411.4,380.8 412.2,380.8 413.1,380.8 413.9,380.8 414.7,380.8 415.6,380.8 416.4,380.8 417.3,380.8 418.1,380.8 418.9,380.8 419.8,380.8 420.6,380.8 421.5,380.8 422.3,380.8 423.2,380.8 424.0,380.8 424.8,380.8 425.7,380.8 426.5,380.8 427.4,380.8 428.2,380.8 429.0,380.8 429.9,380.8 430.7,380.8 431.6,380.8 432.4,380.8 433.2,380.8 434.1,380.8 434.9,380.8 435.8,380.8 436.6,380.8 437.4,380.8 438.3,380.8 439.1,380.8 440.0,380.8 440.8,380.8 441.7,380.8 442.5,380.8 443.3,380.8 444.2,380.8 445.0,380.8 445.9,380.8 446.7,380.8 447.5,380.8 448.4,380.8 449.2,380.8 450.1,380.8 450.9,380.8 451.7,380.8 452.6,380.8 453.4,380.8 454.3,380.8 455.1,380.8 455.9,380.8 456.8,380.8 457.6,380.8 458.5,380.8 459.3,380.8 460.2,380.8 461.0,380.8 461.8,380.8 462.7,380.8 463.5,380.8 464.4,380.8 465.2,380.8 466.0,380.8 466.9,380.8 467.7,380.8 468.6,380.8 469.4,380.8 470.2,380.8 471.1,380.8 471.9,380.8 472.8,380.8 473.6,380.8 474.4,380.8 475.3,380.8 476.1,380.8 477.0,380.8 477.8,380.8 478.6,380.8 479.5,380.8 480.3,380.8 481.2,380.8 482.0,380.8 482.9,380.8 483.7,380.8 484.5,380.8 485.4,380.8 486.2,380.8 487.1,380.8 487.9,380.8 488.7,380.8 489.6,380.8 490.4,380.8 491.3,380.8 492.1,380.8 492.9,380.8 493.8,380.8 494.6,380.8 495.5,380.8 496.3,380.8 497.1,380.8 498.0,380.8 498.8,380.8 499.7,380.8 500.5,380.8 501.4,380.8 502.2,380.8 503.0,380.8 503.9,380.8 504.7,380.8 505.6,380.8 506.4,380.8 507.2,380.8 508.1,380.8 508.9,380.8 509.8,380.8 510.6,380.8 511.4,380.8 512.3,380.8 513.1,380.8 514.0,380.8 514.8,380.8 515.6,380.8 516.5,380.8 517.3,380.8 518.2,380.8 519.0,380.8 519.8,380.8 520.7,380.8 521.5,380.8 522.4,380.8 523.2,380.8 524.1,380.8 524.9,380.8 525.7,380.8 526.6,380.8 527.4,380.8 528.3,380.8 529.1,380.8 529.9,380.8 530.8,380.8 531.6,380.8 532.5,380.8 533.3,380.8 534.1,380.8 535.0,380.8 535.8,380.8 536.7,380.8 537.5,380.8 538.3,380.8 539.2,380.8 540.0,380.8 540.9,380.8 541.7,380.8 542.6,380.8 543.4,380.8 544.2,380.8 545.1,380.8 545.9,380.8 546.8,380.8 547.6,380.8 548.4,380.8 549.3,380.8 550.1,380.8 551.0,380.8 551.8,380.8 552.6,380.8 553.5,380.8 554.3,380.8 555.2,380.8 556.0,380.8 556.8,380.8 557.7,380.8 558.5,380.8 559.4,380.8 560.2,380.8 561.1,380.8 561.9,380.8 562.7,380.8 563.6,380.8 564.4,380.8 565.3,380.8 566.1,380.8 566.9,380.8 567.8,380.8 568.6,380.8 569.5,380.8 570.3,380.8 571.1,380.8 572.0,380.8 572.8,380.8 573.7,380.8 574.5,380.8 575.3,380.8 576.2,380.8 577.0,380.8 577.9,380.8 578.7,380.8 579.5,380.8 580.4,380.8 581.2,380.8 582.1,380.8 582.9,380.8 583.8,380.8 584.6,380.8 585.4,380.8 586.3,380.8 587.1,380.8 588.0,380.8 588.8,380.8 589.6,380.8 590.5,380.8 591.3,380.8 592.2,380.8 593.0,380.8 593.8,380.8 594.7,380.8 595.5,380.8 596.4,380.8 597.2,380.8 598.0,380.8 598.9,380.8 599.7,380.8 600.6,380.8 601.4,380.8 602.3,380.8 603.1,380.8 603.9,380.8 604.8,380.8 605.6,380.8 606.5,380.8 607.3,380.8 608.1,380.8 609.0,380.8 609.8,380.8 610.7,380.8 611.5,380.8 612.3,380.8 613.2,380.8 614.0,380.8 614.9,380.8 615.7,380.8 616.5,380.8 617.4,380.8 618.2,380.8 619.1,380.8 619.9,380.8 620.8,380.8 621.6,380.8 622.4,380.8 623.3,380.8 624.1,380.8 625.0,380.8 625.8,380.8 626.6,380.8 627.5,380.8 628.3,380.8 629.2,380.8 630.0,380.8 630.8,380.8 631.7,380.8 632.5,380.8 633.4,380.8 634.2,380.8 635.0,380.8 635.9,380.8 636.7,380.8 637.6,380.8 638.4,380.8 639.2,380.8 640.1,380.8 640.9,380.8 641.8,380.8 642.6,380.8 643.5,380.8 644.3,380.8 645.1,380.8 646.0,380.8 646.8,380.8 647.7,380.8 648.5,380.8 649.3,380.8 650.2,380.8 651.0,380.8 651.9,380.8 652.7,380.8 653.5,380.8 654.4,380.8 655.2,380.8 656.1,380.8 656.9,380.8 657.7,380.8 658.6,380.8 659.4,380.8 660.3,380.8 661.1,380.8 662.0,380.8 662.8,380.8 663.6,380.8 664.5,380.8 665.3,380.8 666.2,380.8 667.0,380.8 667.8,380.8 668.7,380.8 669.5,380.8 670.4,380.8 671.2,380.8 672.0,380.8 672.9,380.8 673.7,380.8 674.6,380.8 675.4,380.8 676.2,380.8 677.1,380.8 677.9,380.8 678.8,380.8 679.6,380.8 680.5,380.8 681.3,380.8 682.1,380.8 683.0,380.8 683.8,380.8 684.7,380.8 685.5,380.8 686.3,380.8 687.2,380.8 688.0,380.8 688.9,380.8 689.7,380.8 690.5,380.8 691.4,380.8 692.2,380.8 693.1,380.8 693.9,380.8 694.7,380.8 695.6,380.8 696.4,380.8 697.3,380.8 698.1,380.8 698.9,380.8 699.8,380.8 700.6,380.8 701.5,380.8 702.3,380.8 703.2,380.8 704.0,380.8 704.8,380.8 705.7,380.8 706.5,380.8 707.4,380.8 708.2,380.8 709.0,380.8 709.9,380.8 710.7,380.8 711.6,380.8 712.4,380.8 713.2,380.8 714.1,380.8 714.9,380.8 715.8,380.8 716.6,380.8 717.4,380.8 718.3,380.8 719.1,380.8 720.0,380.8 720.8,380.8 721.7,380.8 722.5,380.8 723.3,380.8 724.2,380.8 725.0,380.8 725.9,380.8 726.7,380.8 727.5,380.8 728.4,380.8 729.2,380.8 730.1,380.8 730.9,380.8 731.7,380.8 732.6,380.8 733.4,380.8 734.3,380.8 735.1,380.8 735.9,380.8 736.8,380.8 737.6,380.8 738.5,380.8 739.3,380.8 740.2,380.8 741.0,380.8 741.8,380.8 742.7,380.8 743.5,380.8 744.4,380.8 745.2,380.8 746.0,380.8 746.9,380.8 747.7,380.8 748.6,380.8 749.4,380.8 750.2,380.8 751.1,380.8 751.9,380.8 752.8,380.8 753.6,380.8 754.4,380.8 755.3,380.8 756.1,380.8 757.0,380.8 757.8,380.8 758.6,380.8 759.5,380.8 760.3,380.8 761.2,380.8 762.0,380.8 762.9,380.8 763.7,380.8 764.5,380.8 765.4,380.8 766.2,380.8 767.1,380.8 767.9,380.8 768.7,380.8 769.6,380.8 770.4,380.8 771.3,380.8 772.1,380.8 772.9,380.8 773.8,380.8 774.6,380.8 775.5,380.8 776.3,380.8 777.1,380.8 778.0,380.8 778.8,380.8 779.7,380.8 780.5,380.8 781.4,380.8 782.2,380.8 783.0,380.8 783.9,380.8 784.7,380.8 785.6,380.8 786.4,380.8 787.2,380.8 788.1,380.8 788.9,380.8 789.8,380.8 790.6,380.8 791.4,380.8 792.3,380.8 793.1,380.8 794.0,380.8 794.8,380.8 795.6,380.8 796.5,380.8 797.3,380.8 798.2,380.8 799.0,380.8 799.8,380.8 800.7,380.8 801.5,380.8 802.4,380.8 803.2,380.8 804.1,380.8 804.9,380.8 805.7,380.8 806.6,380.8 807.4,380.8 808.3,380.8 809.1,380.8 809.9,380.8 810.8,380.8 811.6,380.8 812.5,380.8 813.3,380.8 814.1,380.8 815.0,380.8 815.8,380.8 816.7,380.8 817.5,380.8 818.3,380.8 819.2,380.8 820.0,380.8 820.9,380.8 821.7,380.8 822.6,380.8 823.4,380.8 824.2,380.8 825.1,380.8 825.9,380.8 826.8,380.8 827.6,380.8 828.4,380.8 829.3,380.8 830.1,380.8 831.0,380.8 831.8,380.8 832.6,380.8 833.5,380.8 834.3,380.8 835.2,380.8 836.0,380.8 836.8,380.8 837.7,380.8 838.5,380.8 839.4,380.8 840.2,380.8 841.1,380.8 841.9,380.8 842.7,380.8 843.6,380.8 844.4,380.8 845.3,380.8 846.1,380.8 846.9,380.8 847.8,380.8 848.6,380.8 849.5,380.8 850.3,380.8 851.1,380.8 852.0,380.8 852.8,380.8 853.7,380.8 854.5,380.8 855.3,380.8 856.2,380.8 857.0,380.8 857.9,380.8 858.7,380.8 859.5,380.8 860.4,380.8 861.2,380.8 862.1,380.8 862.9,380.8 863.8,380.8 864.6,380.8 865.4,380.8 866.3,380.8 867.1,380.8 868.0,380.8 868.8,380.8 869.6,380.8 870.5,380.8 871.3,380.8 872.2,380.8 873.0,380.8 873.8,380.8 874.7,380.8 875.5,380.8 876.4,380.8 877.2,380.8 878.0,380.8 878.9,380.8 879.7,380.8 880.6,380.8 881.4,380.8 882.3,380.8 883.1,380.8 883.9,380.8 884.8,380.8 885.6,380.8 886.5,380.8 887.3,380.8 888.1,380.8 889.0,380.8 889.8,380.8 890.7,380.8 891.5,380.8 892.3,380.8 893.2,380.8 894.0,380.8 894.9,380.8 895.7,380.8 896.5,380.8 897.4,380.8 898.2,380.8 899.1,380.8 899.9,380.8 900.8,380.8 901.6,380.8 902.4,380.8 903.3,380.8 904.1,380.8 905.0,380.8 905.8,380.8 906.6,380.8 907.5,380.8 908.3,380.8 909.2,380.8 910.0,380.8"/>
<line x1="730" y1="76" x2="754" y2="76" stroke="#16a34a" stroke-width="3"/>
<text x="762" y="81" font-family="Arial" font-size="13" fill="#111827">Greedy</text>
<polyline fill="none" stroke="#dc2626" stroke-width="2.2" points="70.0,430.6 70.8,421.3 71.7,412.8 72.5,409.5 73.4,403.6 74.2,398.5 75.0,395.1 75.9,394.3 76.7,393.4 77.6,391.7 78.4,391.7 79.2,390.0 80.1,390.9 80.9,389.2 81.8,387.5 82.6,388.4 83.5,387.5 84.3,386.7 85.1,385.8 86.0,385.8 86.8,385.8 87.7,385.0 88.5,385.8 89.3,386.7 90.2,384.1 91.0,384.1 91.9,385.0 92.7,383.3 93.5,382.4 94.4,380.8 95.2,381.6 96.1,380.8 96.9,379.9 97.7,378.2 98.6,378.2 99.4,376.5 100.3,379.1 101.1,378.2 102.0,378.2 102.8,378.2 103.6,377.4 104.5,376.5 105.3,377.4 106.2,377.4 107.0,376.5 107.8,376.5 108.7,374.8 109.5,375.7 110.4,375.7 111.2,374.8 112.0,376.5 112.9,374.8 113.7,375.7 114.6,374.0 115.4,375.7 116.2,374.8 117.1,374.0 117.9,373.2 118.8,374.0 119.6,374.0 120.5,373.2 121.3,373.2 122.1,374.0 123.0,372.3 123.8,374.8 124.7,372.3 125.5,374.0 126.3,372.3 127.2,372.3 128.0,371.5 128.9,371.5 129.7,371.5 130.5,373.2 131.4,370.6 132.2,370.6 133.1,372.3 133.9,372.3 134.7,370.6 135.6,370.6 136.4,370.6 137.3,371.5 138.1,370.6 138.9,371.5 139.8,371.5 140.6,369.8 141.5,371.5 142.3,369.8 143.2,370.6 144.0,368.1 144.8,367.2 145.7,369.8 146.5,368.1 147.4,368.9 148.2,367.2 149.0,369.8 149.9,367.2 150.7,365.6 151.6,366.4 152.4,365.6 153.2,366.4 154.1,366.4 154.9,364.7 155.8,364.7 156.6,365.6 157.4,365.6 158.3,364.7 159.1,364.7 160.0,364.7 160.8,365.6 161.7,366.4 162.5,366.4 163.3,367.2 164.2,367.2 165.0,364.7 165.9,365.6 166.7,364.7 167.5,365.6 168.4,365.6 169.2,364.7 170.1,365.6 170.9,367.2 171.7,364.7 172.6,364.7 173.4,367.2 174.3,365.6 175.1,364.7 175.9,365.6 176.8,363.9 177.6,363.0 178.5,362.2 179.3,363.0 180.2,362.2 181.0,361.3 181.8,361.3 182.7,363.9 183.5,362.2 184.4,362.2 185.2,360.5 186.0,362.2 186.9,361.3 187.7,361.3 188.6,362.2 189.4,361.3 190.2,360.5 191.1,359.6 191.9,359.6 192.8,358.0 193.6,358.8 194.4,358.8 195.3,358.8 196.1,358.8 197.0,359.6 197.8,358.8 198.6,359.6 199.5,359.6 200.3,360.5 201.2,360.5 202.0,358.0 202.9,358.0 203.7,359.6 204.5,357.1 205.4,358.0 206.2,354.6 207.1,357.1 207.9,357.1 208.7,358.8 209.6,356.3 210.4,357.1 211.3,357.1 212.1,355.4 212.9,356.3 213.8,355.4 214.6,357.1 215.5,357.1 216.3,357.1 217.1,358.0 218.0,356.3 218.8,355.4 219.7,358.0 220.5,357.1 221.4,356.3 222.2,355.4 223.0,353.7 223.9,353.7 224.7,354.6 225.6,353.7 226.4,355.4 227.2,355.4 228.1,353.7 228.9,355.4 229.8,355.4 230.6,354.6 231.4,353.7 232.3,353.7 233.1,353.7 234.0,353.7 234.8,353.7 235.6,352.9 236.5,352.9 237.3,352.9 238.2,352.0 239.0,352.9 239.8,352.0 240.7,352.0 241.5,351.2 242.4,352.0 243.2,350.4 244.1,351.2 244.9,351.2 245.7,350.4 246.6,351.2 247.4,350.4 248.3,350.4 249.1,350.4 249.9,351.2 250.8,351.2 251.6,350.4 252.5,350.4 253.3,349.5 254.1,350.4 255.0,350.4 255.8,349.5 256.7,349.5 257.5,350.4 258.3,350.4 259.2,350.4 260.0,349.5 260.9,349.5 261.7,349.5 262.6,353.7 263.4,352.0 264.2,350.4 265.1,351.2 265.9,349.5 266.8,347.0 267.6,347.0 268.4,349.5 269.3,350.4 270.1,352.0 271.0,347.8 271.8,347.0 272.6,347.8 273.5,347.0 274.3,347.0 275.2,347.8 276.0,347.0 276.8,346.1 277.7,347.0 278.5,347.0 279.4,347.0 280.2,347.0 281.1,346.1 281.9,345.3 282.7,345.3 283.6,345.3 284.4,344.4 285.3,345.3 286.1,347.0 286.9,346.1 287.8,346.1 288.6,344.4 289.5,344.4 290.3,344.4 291.1,346.1 292.0,343.6 292.8,345.3 293.7,345.3 294.5,344.4 295.3,343.6 296.2,342.8 297.0,344.4 297.9,343.6 298.7,342.8 299.5,343.6 300.4,343.6 301.2,344.4 302.1,342.8 302.9,341.9 303.8,342.8 304.6,340.2 305.4,341.9 306.3,341.9 307.1,343.6 308.0,341.9 308.8,340.2 309.6,342.8 310.5,340.2 311.3,341.1 312.2,341.1 313.0,340.2 313.8,340.2 314.7,340.2 315.5,340.2 316.4,341.9 317.2,339.4 318.0,340.2 318.9,341.1 319.7,340.2 320.6,341.1 321.4,339.4 322.3,339.4 323.1,336.8 323.9,337.7 324.8,338.5 325.6,336.0 326.5,336.8 327.3,338.5 328.1,338.5 329.0,337.7 329.8,338.5 330.7,338.5 331.5,335.2 332.3,335.2 333.2,336.0 334.0,336.8 334.9,336.0 335.7,336.0 336.5,334.3 337.4,334.3 338.2,335.2 339.1,336.0 339.9,336.0 340.8,335.2 341.6,335.2 342.4,334.3 343.3,336.0 344.1,334.3 345.0,335.2 345.8,333.5 346.6,334.3 347.5,333.5 348.3,332.6 349.2,337.7 350.0,337.7 350.8,334.3 351.7,334.3 352.5,332.6 353.4,333.5 354.2,333.5 355.0,330.1 355.9,332.6 356.7,330.9 357.6,329.2 358.4,330.9 359.2,331.8 360.1,331.8 360.9,333.5 361.8,330.1 362.6,330.9 363.5,330.9 364.3,329.2 365.1,330.1 366.0,330.1 366.8,329.2 367.7,330.1 368.5,329.2 369.3,330.9 370.2,330.1 371.0,330.9 371.9,330.1 372.7,331.8 373.5,330.1 374.4,329.2 375.2,329.2 376.1,330.1 376.9,330.9 377.7,333.5 378.6,330.9 379.4,332.6 380.3,328.4 381.1,329.2 382.0,330.1 382.8,330.1 383.6,329.2 384.5,329.2 385.3,329.2 386.2,330.9 387.0,329.2 387.8,330.9 388.7,330.9 389.5,330.1 390.4,329.2 391.2,330.9 392.0,330.1 392.9,330.1 393.7,330.9 394.6,334.3 395.4,330.9 396.2,328.4 397.1,329.2 397.9,330.9 398.8,330.1 399.6,331.8 400.5,330.9 401.3,330.1 402.1,330.1 403.0,328.4 403.8,330.9 404.7,329.2 405.5,330.1 406.3,330.1 407.2,331.8 408.0,330.1 408.9,329.2 409.7,330.9 410.5,330.9 411.4,330.1 412.2,329.2 413.1,330.9 413.9,331.8 414.7,329.2 415.6,329.2 416.4,332.6 417.3,331.8 418.1,330.1 418.9,330.9 419.8,329.2 420.6,330.9 421.5,329.2 422.3,330.1 423.2,329.2 424.0,328.4 424.8,330.9 425.7,330.1 426.5,330.1 427.4,329.2 428.2,327.6 429.0,327.6 429.9,329.2 430.7,328.4 431.6,327.6 432.4,327.6 433.2,327.6 434.1,328.4 434.9,330.9 435.8,327.6 436.6,329.2 437.4,327.6 438.3,328.4 439.1,327.6 440.0,327.6 440.8,326.7 441.7,326.7 442.5,326.7 443.3,325.9 444.2,325.9 445.0,325.9 445.9,325.9 446.7,326.7 447.5,326.7 448.4,325.0 449.2,324.2 450.1,325.0 450.9,325.0 451.7,325.0 452.6,325.0 453.4,325.9 454.3,325.9 455.1,325.9 455.9,325.9 456.8,325.0 457.6,325.0 458.5,324.2 459.3,323.3 460.2,323.3 461.0,322.5 461.8,323.3 462.7,325.0 463.5,323.3 464.4,325.0 465.2,324.2 466.0,326.7 466.9,325.9 467.7,324.2 468.6,323.3 469.4,324.2 470.2,323.3 471.1,324.2 471.9,323.3 472.8,323.3 473.6,324.2 474.4,324.2 475.3,325.9 476.1,322.5 477.0,322.5 477.8,322.5 478.6,323.3 479.5,323.3 480.3,322.5 481.2,324.2 482.0,322.5 482.9,323.3 483.7,323.3 484.5,322.5 485.4,324.2 486.2,323.3 487.1,323.3 487.9,321.6 488.7,322.5 489.6,322.5 490.4,324.2 491.3,322.5 492.1,321.6 492.9,321.6 493.8,322.5 494.6,324.2 495.5,322.5 496.3,323.3 497.1,322.5 498.0,321.6 498.8,320.8 499.7,320.8 500.5,321.6 501.4,321.6 502.2,319.1 503.0,318.3 503.9,320.0 504.7,320.0 505.6,318.3 506.4,318.3 507.2,318.3 508.1,320.0 508.9,320.0 509.8,323.3 510.6,320.0 511.4,320.0 512.3,320.8 513.1,322.5 514.0,320.0 514.8,320.8 515.6,321.6 516.5,320.0 517.3,320.0 518.2,321.6 519.0,321.6 519.8,319.1 520.7,319.1 521.5,318.3 522.4,320.8 523.2,320.8 524.1,318.3 524.9,320.8 525.7,319.1 526.6,320.0 527.4,320.0 528.3,319.1 529.1,319.1 529.9,320.0 530.8,320.0 531.6,318.3 532.5,319.1 533.3,320.0 534.1,320.8 535.0,319.1 535.8,320.0 536.7,319.1 537.5,318.3 538.3,320.0 539.2,319.1 540.0,318.3 540.9,321.6 541.7,318.3 542.6,317.4 543.4,318.3 544.2,319.1 545.1,320.8 545.9,318.3 546.8,317.4 547.6,315.7 548.4,318.3 549.3,316.6 550.1,317.4 551.0,318.3 551.8,317.4 552.6,319.1 553.5,317.4 554.3,319.1 555.2,317.4 556.0,317.4 556.8,316.6 557.7,317.4 558.5,317.4 559.4,317.4 560.2,317.4 561.1,318.3 561.9,320.8 562.7,318.3 563.6,318.3 564.4,320.0 565.3,317.4 566.1,316.6 566.9,316.6 567.8,317.4 568.6,316.6 569.5,316.6 570.3,315.7 571.1,316.6 572.0,314.9 572.8,316.6 573.7,315.7 574.5,314.9 575.3,316.6 576.2,314.9 577.0,314.9 577.9,316.6 578.7,316.6 579.5,314.9 580.4,317.4 581.2,314.9 582.1,315.7 582.9,318.3 583.8,314.0 584.6,314.9 585.4,313.2 586.3,313.2 587.1,314.9 588.0,314.9 588.8,315.7 589.6,317.4 590.5,313.2 591.3,313.2 592.2,316.6 593.0,314.0 593.8,314.9 594.7,314.9 595.5,314.0 596.4,316.6 597.2,314.0 598.0,314.0 598.9,313.2 599.7,314.9 600.6,312.4 601.4,313.2 602.3,314.0 603.1,312.4 603.9,314.9 604.8,312.4 605.6,313.2 606.5,313.2 607.3,313.2 608.1,314.0 609.0,311.5 609.8,312.4 610.7,313.2 611.5,317.4 612.3,315.7 613.2,314.9 614.0,314.0 614.9,313.2 615.7,312.4 616.5,312.4 617.4,311.5 618.2,314.9 619.1,312.4 619.9,312.4 620.8,313.2 621.6,311.5 622.4,312.4 623.3,313.2 624.1,312.4 625.0,311.5 625.8,312.4 626.6,313.2 627.5,312.4 628.3,312.4 629.2,309.8 630.0,310.7 630.8,309.8 631.7,310.7 632.5,312.4 633.4,310.7 634.2,312.4 635.0,308.1 635.9,310.7 636.7,309.0 637.6,309.0 638.4,310.7 639.2,309.8 640.1,309.8 640.9,308.1 641.8,309.0 642.6,307.3 643.5,307.3 644.3,309.0 645.1,308.1 646.0,307.3 646.8,307.3 647.7,309.0 648.5,309.0 649.3,309.0 650.2,309.0 651.0,307.3 651.9,309.8 652.7,309.8 653.5,307.3 654.4,307.3 655.2,308.1 656.1,309.0 656.9,309.8 657.7,308.1 658.6,311.5 659.4,309.0 660.3,309.0 661.1,309.0 662.0,309.0 662.8,306.4 663.6,307.3 664.5,309.0 665.3,309.0 666.2,309.8 667.0,308.1 667.8,307.3 668.7,306.4 669.5,306.4 670.4,307.3 671.2,308.1 672.0,307.3 672.9,305.6 673.7,306.4 674.6,305.6 675.4,305.6 676.2,304.8 677.1,305.6 677.9,305.6 678.8,306.4 679.6,305.6 680.5,304.8 681.3,306.4 682.1,306.4 683.0,309.0 683.8,305.6 684.7,304.8 685.5,305.6 686.3,305.6 687.2,304.8 688.0,305.6 688.9,305.6 689.7,303.9 690.5,305.6 691.4,306.4 692.2,303.9 693.1,305.6 693.9,303.9 694.7,304.8 695.6,304.8 696.4,305.6 697.3,305.6 698.1,304.8 698.9,305.6 699.8,306.4 700.6,305.6 701.5,305.6 702.3,303.9 703.2,303.9 704.0,305.6 704.8,305.6 705.7,305.6 706.5,303.9 707.4,304.8 708.2,305.6 709.0,304.8 709.9,304.8 710.7,305.6 711.6,305.6 712.4,302.2 713.2,303.1 714.1,302.2 714.9,302.2 715.8,303.9 716.6,303.9 717.4,302.2 718.3,303.1 719.1,302.2 720.0,303.9 720.8,302.2 721.7,300.5 722.5,300.5 723.3,300.5 724.2,301.4 725.0,302.2 725.9,302.2 726.7,300.5 727.5,300.5 728.4,302.2 729.2,303.1 730.1,302.2 730.9,300.5 731.7,302.2 732.6,301.4 733.4,300.5 734.3,301.4 735.1,300.5 735.9,300.5 736.8,301.4 737.6,302.2 738.5,299.7 739.3,301.4 740.2,301.4 741.0,303.9 741.8,300.5 742.7,300.5 743.5,301.4 744.4,301.4 745.2,300.5 746.0,300.5 746.9,299.7 747.7,298.0 748.6,297.2 749.4,297.2 750.2,297.2 751.1,299.7 751.9,298.0 752.8,297.2 753.6,301.4 754.4,299.7 755.3,298.0 756.1,298.0 757.0,300.5 757.8,297.2 758.6,297.2 759.5,298.8 760.3,301.4 761.2,299.7 762.0,298.0 762.9,298.0 763.7,300.5 764.5,296.3 765.4,295.5 766.2,298.0 767.1,295.5 767.9,296.3 768.7,298.0 769.6,296.3 770.4,298.8 771.3,296.3 772.1,295.5 772.9,296.3 773.8,297.2 774.6,295.5 775.5,294.6 776.3,295.5 777.1,297.2 778.0,292.9 778.8,293.8 779.7,296.3 780.5,298.0 781.4,295.5 782.2,294.6 783.0,296.3 783.9,298.0 784.7,295.5 785.6,296.3 786.4,299.7 787.2,294.6 788.1,295.5 788.9,298.0 789.8,294.6 790.6,296.3 791.4,295.5 792.3,294.6 793.1,294.6 794.0,294.6 794.8,295.5 795.6,297.2 796.5,294.6 797.3,296.3 798.2,294.6 799.0,296.3 799.8,295.5 800.7,293.8 801.5,295.5 802.4,296.3 803.2,297.2 804.1,293.8 804.9,292.9 805.7,292.9 806.6,294.6 807.4,293.8 808.3,292.9 809.1,294.6 809.9,292.9 810.8,294.6 811.6,296.3 812.5,292.9 813.3,292.9 814.1,293.8 815.0,292.9 815.8,292.1 816.7,291.2 817.5,296.3 818.3,292.9 819.2,290.4 820.0,290.4 820.9,292.1 821.7,289.6 822.6,291.2 823.4,292.9 824.2,292.9 825.1,292.9 825.9,291.2 826.8,291.2 827.6,288.7 828.4,290.4 829.3,291.2 830.1,291.2 831.0,289.6 831.8,290.4 832.6,289.6 833.5,291.2 834.3,292.1 835.2,290.4 836.0,288.7 836.8,289.6 837.7,289.6 838.5,291.2 839.4,289.6 840.2,289.6 841.1,289.6 841.9,288.7 842.7,290.4 843.6,290.4 844.4,288.7 845.3,287.0 846.1,289.6 846.9,290.4 847.8,290.4 848.6,289.6 849.5,288.7 850.3,287.9 851.1,288.7 852.0,287.9 852.8,289.6 853.7,292.1 854.5,289.6 855.3,291.2 856.2,289.6 857.0,288.7 857.9,290.4 858.7,289.6 859.5,290.4 860.4,288.7 861.2,289.6 862.1,287.9 862.9,288.7 863.8,292.1 864.6,289.6 865.4,287.9 866.3,287.9 867.1,288.7 868.0,292.1 868.8,289.6 869.6,290.4 870.5,289.6 871.3,289.6 872.2,288.7 873.0,289.6 873.8,289.6 874.7,287.9 875.5,290.4 876.4,288.7 877.2,287.0 878.0,286.2 878.9,286.2 879.7,286.2 880.6,287.0 881.4,287.9 882.3,287.9 883.1,287.0 883.9,287.9 884.8,287.0 885.6,286.2 886.5,288.7 887.3,287.9 888.1,286.2 889.0,285.3 889.8,287.9 890.7,286.2 891.5,287.9 892.3,287.9 893.2,285.3 894.0,286.2 894.9,285.3 895.7,287.0 896.5,284.5 897.4,287.9 898.2,285.3 899.1,284.5 899.9,285.3 900.8,284.5 901.6,286.2 902.4,286.2 903.3,287.0 904.1,287.9 905.0,287.0 905.8,287.0 906.6,287.0 907.5,287.0 908.3,287.9 909.2,286.2 910.0,286.2"/>
<line x1="730" y1="98" x2="754" y2="98" stroke="#dc2626" stroke-width="3"/>
<text x="762" y="103" font-family="Arial" font-size="13" fill="#111827">Epsilon 0.01</text>
<polyline fill="none" stroke="#9333ea" stroke-width="2.2" points="70.0,423.8 70.8,416.2 71.7,409.5 72.5,396.8 73.4,394.3 74.2,390.0 75.0,385.8 75.9,385.0 76.7,379.1 77.6,371.5 78.4,370.6 79.2,366.4 80.1,368.1 80.9,360.5 81.8,366.4 82.6,364.7 83.5,360.5 84.3,363.0 85.1,356.3 86.0,358.0 86.8,358.0 87.7,358.0 88.5,349.5 89.3,349.5 90.2,356.3 91.0,353.7 91.9,348.7 92.7,352.9 93.5,347.0 94.4,347.0 95.2,348.7 96.1,347.8 96.9,346.1 97.7,343.6 98.6,346.1 99.4,337.7 100.3,342.8 101.1,343.6 102.0,339.4 102.8,340.2 103.6,337.7 104.5,334.3 105.3,333.5 106.2,332.6 107.0,328.4 107.8,332.6 108.7,329.2 109.5,331.8 110.4,328.4 111.2,333.5 112.0,332.6 112.9,328.4 113.7,325.0 114.6,330.9 115.4,325.9 116.2,325.0 117.1,322.5 117.9,317.4 118.8,320.8 119.6,316.6 120.5,319.1 121.3,323.3 122.1,320.8 123.0,320.8 123.8,315.7 124.7,313.2 125.5,322.5 126.3,318.3 127.2,312.4 128.0,313.2 128.9,314.0 129.7,313.2 130.5,310.7 131.4,303.9 132.2,310.7 133.1,314.9 133.9,306.4 134.7,306.4 135.6,304.8 136.4,296.3 137.3,302.2 138.1,293.8 138.9,299.7 139.8,301.4 140.6,297.2 141.5,296.3 142.3,302.2 143.2,291.2 144.0,295.5 144.8,294.6 145.7,287.0 146.5,293.8 147.4,296.3 148.2,288.7 149.0,298.0 149.9,290.4 150.7,290.4 151.6,293.8 152.4,292.9 153.2,285.3 154.1,280.3 154.9,285.3 155.8,291.2 156.6,282.0 157.4,286.2 158.3,287.9 159.1,283.6 160.0,277.7 160.8,284.5 161.7,282.0 162.5,282.8 163.3,283.6 164.2,290.4 165.0,282.0 165.9,281.1 166.7,284.5 167.5,282.0 168.4,286.2 169.2,292.1 170.1,284.5 170.9,278.6 171.7,287.9 172.6,280.3 173.4,280.3 174.3,286.2 175.1,276.0 175.9,274.4 176.8,276.9 177.6,276.9 178.5,278.6 179.3,270.1 180.2,273.5 181.0,274.4 181.8,277.7 182.7,274.4 183.5,271.8 184.4,273.5 185.2,276.0 186.0,273.5 186.9,274.4 187.7,280.3 188.6,275.2 189.4,264.2 190.2,264.2 191.1,272.7 191.9,271.0 192.8,268.4 193.6,269.3 194.4,265.9 195.3,271.8 196.1,261.7 197.0,268.4 197.8,271.0 198.6,268.4 199.5,274.4 200.3,268.4 201.2,258.3 202.0,265.9 202.9,271.0 203.7,254.9 204.5,262.5 205.4,261.7 206.2,260.8 207.1,260.0 207.9,262.5 208.7,259.2 209.6,267.6 210.4,265.1 211.3,260.0 212.1,254.9 212.9,257.5 213.8,265.9 214.6,256.6 215.5,259.2 216.3,255.8 217.1,259.2 218.0,254.9 218.8,260.8 219.7,255.8 220.5,265.9 221.4,258.3 222.2,250.7 223.0,266.8 223.9,255.8 224.7,260.0 225.6,254.9 226.4,260.8 227.2,249.9 228.1,256.6 228.9,254.9 229.8,244.8 230.6,254.9 231.4,243.1 232.3,252.4 233.1,259.2 234.0,244.8 234.8,254.9 235.6,244.8 236.5,254.9 237.3,249.9 238.2,248.2 239.0,249.9 239.8,244.0 240.7,252.4 241.5,250.7 242.4,249.0 243.2,244.8 244.1,249.9 244.9,239.7 245.7,246.5 246.6,244.8 247.4,244.0 248.3,245.6 249.1,245.6 249.9,249.9 250.8,244.0 251.6,249.0 252.5,246.5 253.3,244.8 254.1,247.3 255.0,241.4 255.8,241.4 256.7,244.8 257.5,241.4 258.3,234.7 259.2,241.4 260.0,240.6 260.9,240.6 261.7,234.7 262.6,244.8 263.4,238.9 264.2,236.4 265.1,233.0 265.9,234.7 266.8,234.7 267.6,238.9 268.4,233.0 269.3,233.0 270.1,233.8 271.0,223.7 271.8,237.2 272.6,226.2 273.5,234.7 274.3,222.0 275.2,231.3 276.0,225.4 276.8,233.0 277.7,225.4 278.5,224.5 279.4,222.0 280.2,226.2 281.1,233.0 281.9,227.1 282.7,226.2 283.6,225.4 284.4,228.8 285.3,228.8 286.1,229.6 286.9,226.2 287.8,223.7 288.6,222.8 289.5,218.6 290.3,216.1 291.1,221.2 292.0,228.8 292.8,216.1 293.7,221.2 294.5,216.1 295.3,224.5 296.2,217.8 297.0,225.4 297.9,223.7 298.7,217.8 299.5,225.4 300.4,222.8 301.2,213.6 302.1,217.8 302.9,216.9 303.8,216.9 304.6,216.9 305.4,216.1 306.3,216.9 307.1,220.3 308.0,231.3 308.8,215.2 309.6,220.3 310.5,218.6 311.3,221.2 312.2,212.7 313.0,217.8 313.8,223.7 314.7,210.2 315.5,218.6 316.4,213.6 317.2,216.1 318.0,214.4 318.9,216.1 319.7,215.2 320.6,208.5 321.4,213.6 322.3,216.1 323.1,211.9 323.9,214.4 324.8,211.9 325.6,209.3 326.5,211.9 327.3,215.2 328.1,204.3 329.0,216.1 329.8,213.6 330.7,216.1 331.5,204.3 332.3,209.3 333.2,211.0 334.0,202.6 334.9,206.8 335.7,206.8 336.5,211.9 337.4,211.0 338.2,195.8 339.1,209.3 339.9,211.0 340.8,206.8 341.6,203.4 342.4,206.8 343.3,203.4 344.1,209.3 345.0,204.3 345.8,204.3 346.6,211.9 347.5,197.5 348.3,197.5 349.2,199.2 350.0,204.3 350.8,200.0 351.7,206.8 352.5,209.3 353.4,207.6 354.2,200.0 355.0,206.0 355.9,203.4 356.7,200.0 357.6,198.4 358.4,206.8 359.2,205.1 360.1,195.0 360.9,195.8 361.8,205.1 362.6,211.9 363.5,208.5 364.3,202.6 365.1,209.3 366.0,216.9 366.8,211.0 367.7,199.2 368.5,201.7 369.3,212.7 370.2,206.8 371.0,203.4 371.9,206.0 372.7,200.0 373.5,203.4 374.4,200.0 375.2,202.6 376.1,202.6 376.9,198.4 377.7,200.0 378.6,201.7 379.4,201.7 380.3,196.7 381.1,209.3 382.0,201.7 382.8,200.9 383.6,197.5 384.5,199.2 385.3,206.0 386.2,194.1 387.0,200.9 387.8,198.4 388.7,202.6 389.5,200.0 390.4,209.3 391.2,205.1 392.0,193.3 392.9,204.3 393.7,189.9 394.6,190.8 395.4,203.4 396.2,205.1 397.1,192.4 397.9,199.2 398.8,194.1 399.6,199.2 400.5,195.0 401.3,201.7 402.1,195.8 403.0,201.7 403.8,200.9 404.7,194.1 405.5,189.9 406.3,197.5 407.2,191.6 408.0,194.1 408.9,207.6 409.7,201.7 410.5,196.7 411.4,195.8 412.2,198.4 413.1,187.4 413.9,200.0 414.7,196.7 415.6,196.7 416.4,200.9 417.3,194.1 418.1,191.6 418.9,190.8 419.8,192.4 420.6,189.9 421.5,195.0 422.3,204.3 423.2,189.1 424.0,193.3 424.8,189.9 425.7,188.2 426.5,199.2 427.4,191.6 428.2,195.8 429.0,200.0 429.9,192.4 430.7,190.8 431.6,189.1 432.4,192.4 433.2,195.8 434.1,187.4 434.9,187.4 435.8,191.6 436.6,193.3 437.4,192.4 438.3,185.7 439.1,189.9 440.0,190.8 440.8,189.9 441.7,192.4 442.5,189.9 443.3,187.4 444.2,184.0 445.0,194.1 445.9,185.7 446.7,191.6 447.5,185.7 448.4,188.2 449.2,188.2 450.1,185.7 450.9,184.8 451.7,197.5 452.6,189.1 453.4,187.4 454.3,179.8 455.1,184.0 455.9,182.3 456.8,184.8 457.6,180.6 458.5,192.4 459.3,189.9 460.2,184.0 461.0,193.3 461.8,194.1 462.7,191.6 463.5,177.2 464.4,184.0 465.2,184.8 466.0,177.2 466.9,184.0 467.7,185.7 468.6,189.9 469.4,185.7 470.2,186.5 471.1,178.9 471.9,179.8 472.8,184.0 473.6,184.8 474.4,182.3 475.3,183.2 476.1,177.2 477.0,187.4 477.8,186.5 478.6,181.5 479.5,181.5 480.3,188.2 481.2,178.9 482.0,181.5 482.9,188.2 483.7,186.5 484.5,180.6 485.4,179.8 486.2,187.4 487.1,173.0 487.9,182.3 488.7,171.3 489.6,182.3 490.4,183.2 491.3,175.6 492.1,190.8 492.9,180.6 493.8,181.5 494.6,179.8 495.5,174.7 496.3,172.2 497.1,175.6 498.0,179.8 498.8,176.4 499.7,190.8 500.5,181.5 501.4,171.3 502.2,178.1 503.0,175.6 503.9,175.6 504.7,177.2 505.6,183.2 506.4,168.8 507.2,177.2 508.1,174.7 508.9,182.3 509.8,184.0 510.6,174.7 511.4,173.0 512.3,173.0 513.1,172.2 514.0,171.3 514.8,179.8 515.6,181.5 516.5,184.8 517.3,175.6 518.2,184.8 519.0,178.1 519.8,183.2 520.7,166.3 521.5,173.9 522.4,173.9 523.2,163.7 524.1,178.1 524.9,167.1 525.7,181.5 526.6,180.6 527.4,167.1 528.3,173.9 529.1,171.3 529.9,171.3 530.8,182.3 531.6,175.6 532.5,171.3 533.3,161.2 534.1,181.5 535.0,174.7 535.8,165.4 536.7,172.2 537.5,166.3 538.3,157.8 539.2,173.0 540.0,166.3 540.9,177.2 541.7,183.2 542.6,169.6 543.4,179.8 544.2,172.2 545.1,164.6 545.9,166.3 546.8,172.2 547.6,168.8 548.4,165.4 549.3,176.4 550.1,173.9 551.0,163.7 551.8,173.9 552.6,178.9 553.5,172.2 554.3,177.2 555.2,164.6 556.0,173.0 556.8,175.6 557.7,178.9 558.5,176.4 559.4,162.9 560.2,183.2 561.1,166.3 561.9,169.6 562.7,169.6 563.6,170.5 564.4,174.7 565.3,172.2 566.1,175.6 566.9,163.7 567.8,176.4 568.6,173.0 569.5,168.0 570.3,165.4 571.1,162.9 572.0,168.8 572.8,170.5 573.7,171.3 574.5,164.6 575.3,168.0 576.2,167.1 577.0,160.4 577.9,171.3 578.7,165.4 579.5,170.5 580.4,158.7 581.2,168.0 582.1,166.3 582.9,171.3 583.8,167.1 584.6,170.5 585.4,162.9 586.3,160.4 587.1,164.6 588.0,164.6 588.8,170.5 589.6,169.6 590.5,168.8 591.3,161.2 592.2,163.7 593.0,165.4 593.8,167.1 594.7,169.6 595.5,159.5 596.4,172.2 597.2,173.9 598.0,167.1 598.9,157.8 599.7,167.1 600.6,165.4 601.4,173.9 602.3,162.0 603.1,171.3 603.9,160.4 604.8,162.9 605.6,160.4 606.5,165.4 607.3,165.4 608.1,161.2 609.0,168.8 609.8,169.6 610.7,157.0 611.5,166.3 612.3,161.2 613.2,168.8 614.0,160.4 614.9,155.3 615.7,161.2 616.5,167.1 617.4,155.3 618.2,168.0 619.1,169.6 619.9,167.1 620.8,163.7 621.6,160.4 622.4,158.7 623.3,158.7 624.1,159.5 625.0,166.3 625.8,167.1 626.6,157.8 627.5,164.6 628.3,164.6 629.2,157.0 630.0,162.0 630.8,160.4 631.7,159.5 632.5,158.7 633.4,161.2 634.2,157.8 635.0,158.7 635.9,162.9 636.7,164.6 637.6,157.8 638.4,154.4 639.2,159.5 640.1,168.8 640.9,151.9 641.8,162.9 642.6,157.0 643.5,165.4 644.3,155.3 645.1,154.4 646.0,147.7 646.8,158.7 647.7,151.9 648.5,151.9 649.3,162.9 650.2,157.0 651.0,162.9 651.9,155.3 652.7,157.0 653.5,155.3 654.4,166.3 655.2,165.4 656.1,152.8 656.9,162.9 657.7,157.8 658.6,152.8 659.4,149.4 660.3,166.3 661.1,163.7 662.0,163.7 662.8,152.8 663.6,156.1 664.5,156.1 665.3,152.8 666.2,152.8 667.0,152.8 667.8,157.0 668.7,151.9 669.5,152.8 670.4,157.0 671.2,161.2 672.0,162.9 672.9,162.9 673.7,157.8 674.6,163.7 675.4,151.9 676.2,163.7 677.1,156.1 677.9,161.2 678.8,157.8 679.6,159.5 680.5,151.9 681.3,162.0 682.1,161.2 683.0,169.6 683.8,162.0 684.7,156.1 685.5,160.4 686.3,164.6 687.2,157.0 688.0,160.4 688.9,164.6 689.7,158.7 690.5,160.4 691.4,155.3 692.2,154.4 693.1,162.9 693.9,157.0 694.7,159.5 695.6,165.4 696.4,158.7 697.3,168.0 698.1,163.7 698.9,162.0 699.8,165.4 700.6,158.7 701.5,152.8 702.3,158.7 703.2,151.9 704.0,153.6 704.8,161.2 705.7,151.9 706.5,157.0 707.4,151.1 708.2,156.1 709.0,150.2 709.9,160.4 710.7,143.5 711.6,155.3 712.4,151.9 713.2,158.7 714.1,161.2 714.9,162.0 715.8,152.8 716.6,151.9 717.4,147.7 718.3,156.1 719.1,150.2 720.0,162.0 720.8,156.1 721.7,159.5 722.5,156.1 723.3,148.5 724.2,159.5 725.0,156.1 725.9,152.8 726.7,147.7 727.5,157.0 728.4,156.1 729.2,153.6 730.1,153.6 730.9,151.9 731.7,149.4 732.6,155.3 733.4,157.8 734.3,145.2 735.1,146.8 735.9,149.4 736.8,160.4 737.6,158.7 738.5,157.8 739.3,157.8 740.2,152.8 741.0,161.2 741.8,148.5 742.7,157.0 743.5,160.4 744.4,159.5 745.2,156.1 746.0,157.8 746.9,161.2 747.7,149.4 748.6,149.4 749.4,162.9 750.2,150.2 751.1,156.1 751.9,143.5 752.8,157.0 753.6,150.2 754.4,162.9 755.3,157.8 756.1,157.0 757.0,151.9 757.8,154.4 758.6,157.0 759.5,145.2 760.3,143.5 761.2,146.0 762.0,142.6 762.9,150.2 763.7,149.4 764.5,155.3 765.4,146.0 766.2,147.7 767.1,154.4 767.9,149.4 768.7,151.9 769.6,151.1 770.4,154.4 771.3,148.5 772.1,147.7 772.9,154.4 773.8,152.8 774.6,147.7 775.5,151.1 776.3,150.2 777.1,152.8 778.0,146.8 778.8,150.2 779.7,141.8 780.5,146.0 781.4,141.8 782.2,153.6 783.0,149.4 783.9,149.4 784.7,146.0 785.6,148.5 786.4,148.5 787.2,135.9 788.1,144.3 788.9,149.4 789.8,140.1 790.6,141.8 791.4,141.8 792.3,143.5 793.1,146.8 794.0,143.5 794.8,142.6 795.6,146.8 796.5,157.0 797.3,149.4 798.2,157.0 799.0,151.1 799.8,153.6 800.7,151.9 801.5,140.1 802.4,149.4 803.2,145.2 804.1,142.6 804.9,151.1 805.7,148.5 806.6,147.7 807.4,144.3 808.3,143.5 809.1,157.8 809.9,145.2 810.8,146.0 811.6,151.1 812.5,150.2 813.3,150.2 814.1,141.8 815.0,151.1 815.8,151.1 816.7,149.4 817.5,144.3 818.3,146.0 819.2,145.2 820.0,142.6 820.9,144.3 821.7,144.3 822.6,149.4 823.4,147.7 824.2,140.1 825.1,134.2 825.9,140.1 826.8,143.5 827.6,140.1 828.4,134.2 829.3,146.0 830.1,145.2 831.0,150.2 831.8,147.7 832.6,146.8 833.5,140.1 834.3,156.1 835.2,151.1 836.0,135.0 836.8,140.9 837.7,140.9 838.5,143.5 839.4,144.3 840.2,151.1 841.1,142.6 841.9,151.9 842.7,147.7 843.6,156.1 844.4,151.9 845.3,139.2 846.1,139.2 846.9,146.8 847.8,147.7 848.6,141.8 849.5,143.5 850.3,140.9 851.1,143.5 852.0,154.4 852.8,139.2 853.7,150.2 854.5,146.8 855.3,138.4 856.2,139.2 857.0,135.9 857.9,148.5 858.7,150.2 859.5,151.1 860.4,138.4 861.2,150.2 862.1,144.3 862.9,140.1 863.8,135.9 864.6,141.8 865.4,138.4 866.3,148.5 867.1,140.1 868.0,142.6 868.8,138.4 869.6,146.8 870.5,131.6 871.3,153.6 872.2,146.8 873.0,143.5 873.8,140.1 874.7,141.8 875.5,136.7 876.4,137.6 877.2,140.1 878.0,140.9 878.9,136.7 879.7,146.8 880.6,150.2 881.4,148.5 882.3,141.8 883.1,142.6 883.9,143.5 884.8,139.2 885.6,129.1 886.5,145.2 887.3,146.0 888.1,143.5 889.0,133.3 889.8,139.2 890.7,141.8 891.5,139.2 892.3,144.3 893.2,147.7 894.0,140.1 894.9,141.8 895.7,135.0 896.5,135.9 897.4,142.6 898.2,137.6 899.1,140.1 899.9,135.0 900.8,141.8 901.6,138.4 902.4,148.5 903.3,138.4 904.1,141.8 905.0,150.2 905.8,138.4 906.6,132.5 907.5,136.7 908.3,139.2 909.2,139.2 910.0,134.2"/>
<line x1="730" y1="120" x2="754" y2="120" stroke="#9333ea" stroke-width="3"/>
<text x="762" y="125" font-family="Arial" font-size="13" fill="#111827">Epsilon 0.10</text>
<polyline fill="none" stroke="#ea580c" stroke-width="2.2" points="70.0,423.8 70.8,428.9 71.7,437.3 72.5,417.1 73.4,431.4 74.2,430.6 75.0,423.8 75.9,426.4 76.7,425.5 77.6,428.9 78.4,431.4 79.2,429.7 80.1,429.7 80.9,424.7 81.8,423.0 82.6,432.3 83.5,434.0 84.3,431.4 85.1,434.0 86.0,434.0 86.8,299.7 87.7,348.7 88.5,353.7 89.3,377.4 90.2,372.3 91.0,358.8 91.9,371.5 92.7,351.2 93.5,361.3 94.4,357.1 95.2,362.2 96.1,376.5 96.9,353.7 97.7,352.9 98.6,362.2 99.4,341.9 100.3,365.6 101.1,347.8 102.0,347.8 102.8,350.4 103.6,348.7 104.5,331.8 105.3,360.5 106.2,347.8 107.0,341.9 107.8,335.2 108.7,334.3 109.5,327.6 110.4,330.1 111.2,335.2 112.0,328.4 112.9,327.6 113.7,317.4 114.6,319.1 115.4,331.8 116.2,320.0 117.1,308.1 117.9,317.4 118.8,332.6 119.6,308.1 120.5,306.4 121.3,330.9 122.1,318.3 123.0,314.0 123.8,304.8 124.7,302.2 125.5,314.9 126.3,303.1 127.2,307.3 128.0,303.1 128.9,293.8 129.7,295.5 130.5,306.4 131.4,286.2 132.2,294.6 133.1,287.0 133.9,295.5 134.7,290.4 135.6,292.9 136.4,289.6 137.3,283.6 138.1,295.5 138.9,301.4 139.8,287.0 140.6,279.4 141.5,285.3 142.3,286.2 143.2,280.3 144.0,276.9 144.8,296.3 145.7,288.7 146.5,281.1 147.4,276.9 148.2,288.7 149.0,283.6 149.9,271.8 150.7,283.6 151.6,276.0 152.4,286.2 153.2,266.8 154.1,278.6 154.9,273.5 155.8,271.0 156.6,266.8 157.4,276.0 158.3,289.6 159.1,263.4 160.0,262.5 160.8,286.2 161.7,281.1 162.5,285.3 163.3,269.3 164.2,281.1 165.0,275.2 165.9,266.8 166.7,258.3 167.5,255.8 168.4,255.8 169.2,260.0 170.1,245.6 170.9,240.6 171.7,245.6 172.6,242.3 173.4,247.3 174.3,257.5 175.1,254.1 175.9,261.7 176.8,250.7 177.6,252.4 178.5,249.0 179.3,255.8 180.2,236.4 181.0,245.6 181.8,243.1 182.7,240.6 183.5,250.7 184.4,242.3 185.2,249.9 186.0,239.7 186.9,241.4 187.7,253.2 188.6,242.3 189.4,242.3 190.2,239.7 191.1,241.4 191.9,233.0 192.8,227.9 193.6,242.3 194.4,239.7 195.3,246.5 196.1,245.6 197.0,232.1 197.8,240.6 198.6,236.4 199.5,222.8 200.3,227.1 201.2,222.0 202.0,220.3 202.9,226.2 203.7,232.1 204.5,235.5 205.4,234.7 206.2,238.0 207.1,236.4 207.9,229.6 208.7,227.9 209.6,216.9 210.4,235.5 211.3,234.7 212.1,233.8 212.9,223.7 213.8,238.9 214.6,219.5 215.5,220.3 216.3,222.8 217.1,222.0 218.0,230.4 218.8,223.7 219.7,222.8 220.5,233.8 221.4,231.3 222.2,221.2 223.0,216.9 223.9,216.9 224.7,210.2 225.6,213.6 226.4,211.9 227.2,220.3 228.1,207.6 228.9,206.0 229.8,209.3 230.6,222.0 231.4,221.2 232.3,219.5 233.1,217.8 234.0,203.4 234.8,203.4 235.6,211.0 236.5,218.6 237.3,216.1 238.2,221.2 239.0,218.6 239.8,218.6 240.7,219.5 241.5,217.8 242.4,223.7 243.2,219.5 244.1,237.2 244.9,227.1 245.7,213.6 246.6,221.2 247.4,210.2 248.3,218.6 249.1,216.1 249.9,217.8 250.8,214.4 251.6,216.1 252.5,222.0 253.3,206.8 254.1,202.6 255.0,214.4 255.8,218.6 256.7,215.2 257.5,200.9 258.3,202.6 259.2,200.0 260.0,209.3 260.9,214.4 261.7,211.0 262.6,209.3 263.4,210.2 264.2,206.0 265.1,205.1 265.9,211.9 266.8,206.0 267.6,204.3 268.4,198.4 269.3,189.9 270.1,193.3 271.0,191.6 271.8,202.6 272.6,200.9 273.5,205.1 274.3,192.4 275.2,202.6 276.0,199.2 276.8,202.6 277.7,206.0 278.5,199.2 279.4,184.8 280.2,182.3 281.1,186.5 281.9,182.3 282.7,188.2 283.6,198.4 284.4,191.6 285.3,184.0 286.1,190.8 286.9,190.8 287.8,207.6 288.6,194.1 289.5,196.7 290.3,209.3 291.1,202.6 292.0,193.3 292.8,187.4 293.7,196.7 294.5,189.1 295.3,180.6 296.2,185.7 297.0,179.8 297.9,184.8 298.7,187.4 299.5,184.8 300.4,175.6 301.2,183.2 302.1,185.7 302.9,178.1 303.8,187.4 304.6,186.5 305.4,191.6 306.3,183.2 307.1,177.2 308.0,190.8 308.8,181.5 309.6,189.9 310.5,184.0 311.3,189.1 312.2,184.8 313.0,194.1 313.8,186.5 314.7,190.8 315.5,181.5 316.4,187.4 317.2,176.4 318.0,173.0 318.9,180.6 319.7,170.5 320.6,184.0 321.4,179.8 322.3,179.8 323.1,178.9 323.9,175.6 324.8,168.8 325.6,175.6 326.5,181.5 327.3,173.9 328.1,172.2 329.0,175.6 329.8,182.3 330.7,199.2 331.5,190.8 332.3,186.5 333.2,186.5 334.0,186.5 334.9,196.7 335.7,189.1 336.5,188.2 337.4,182.3 338.2,197.5 339.1,188.2 339.9,179.8 340.8,182.3 341.6,178.1 342.4,180.6 343.3,168.0 344.1,178.1 345.0,179.8 345.8,179.8 346.6,189.9 347.5,191.6 348.3,193.3 349.2,184.8 350.0,188.2 350.8,177.2 351.7,178.9 352.5,168.8 353.4,181.5 354.2,173.9 355.0,170.5 355.9,175.6 356.7,184.8 357.6,181.5 358.4,188.2 359.2,189.1 360.1,195.0 360.9,187.4 361.8,192.4 362.6,197.5 363.5,184.0 364.3,188.2 365.1,180.6 366.0,175.6 366.8,182.3 367.7,171.3 368.5,169.6 369.3,172.2 370.2,173.0 371.0,173.0 371.9,168.8 372.7,170.5 373.5,183.2 374.4,178.1 375.2,173.9 376.1,178.9 376.9,171.3 377.7,172.2 378.6,168.8 379.4,166.3 380.3,174.7 381.1,173.9 382.0,168.8 382.8,176.4 383.6,178.9 384.5,173.0 385.3,172.2 386.2,181.5 387.0,178.1 387.8,162.9 388.7,175.6 389.5,177.2 390.4,170.5 391.2,164.6 392.0,155.3 392.9,157.0 393.7,154.4 394.6,155.3 395.4,145.2 396.2,151.1 397.1,157.0 397.9,169.6 398.8,165.4 399.6,162.9 400.5,151.9 401.3,161.2 402.1,162.0 403.0,159.5 403.8,162.0 404.7,170.5 405.5,161.2 406.3,158.7 407.2,152.8 408.0,157.8 408.9,153.6 409.7,159.5 410.5,168.0 411.4,163.7 412.2,148.5 413.1,146.0 413.9,148.5 414.7,157.8 415.6,159.5 416.4,162.0 417.3,162.0 418.1,163.7 418.9,154.4 419.8,153.6 420.6,148.5 421.5,157.8 422.3,152.8 423.2,158.7 424.0,159.5 424.8,153.6 425.7,153.6 426.5,140.9 427.4,145.2 428.2,134.2 429.0,146.0 429.9,152.8 430.7,162.9 431.6,156.1 432.4,145.2 433.2,146.8 434.1,149.4 434.9,159.5 435.8,148.5 436.6,151.1 437.4,146.8 438.3,156.1 439.1,154.4 440.0,143.5 440.8,157.0 441.7,156.1 442.5,146.0 443.3,147.7 444.2,153.6 445.0,155.3 445.9,162.0 446.7,145.2 447.5,147.7 448.4,153.6 449.2,145.2 450.1,149.4 450.9,152.8 451.7,143.5 452.6,145.2 453.4,140.1 454.3,151.1 455.1,147.7 455.9,148.5 456.8,150.2 457.6,157.8 458.5,146.0 459.3,150.2 460.2,140.1 461.0,146.8 461.8,145.2 462.7,141.8 463.5,139.2 464.4,139.2 465.2,143.5 466.0,157.8 466.9,152.8 467.7,148.5 468.6,143.5 469.4,151.9 470.2,153.6 471.1,158.7 471.9,153.6 472.8,151.1 473.6,152.8 474.4,136.7 475.3,135.9 476.1,144.3 477.0,141.8 477.8,143.5 478.6,152.8 479.5,151.1 480.3,152.8 481.2,152.8 482.0,157.0 482.9,156.1 483.7,148.5 484.5,161.2 485.4,152.8 486.2,148.5 487.1,146.8 487.9,151.9 488.7,145.2 489.6,137.6 490.4,151.9 491.3,146.8 492.1,141.8 492.9,139.2 493.8,137.6 494.6,140.1 495.5,136.7 496.3,132.5 497.1,139.2 498.0,141.8 498.8,142.6 499.7,150.2 500.5,146.0 501.4,154.4 502.2,160.4 503.0,153.6 503.9,153.6 504.7,146.0 505.6,142.6 506.4,148.5 507.2,143.5 508.1,147.7 508.9,137.6 509.8,140.1 510.6,147.7 511.4,140.9 512.3,144.3 513.1,144.3 514.0,140.9 514.8,139.2 515.6,142.6 516.5,139.2 517.3,144.3 518.2,137.6 519.0,137.6 519.8,139.2 520.7,151.1 521.5,155.3 522.4,152.8 523.2,144.3 524.1,150.2 524.9,146.8 525.7,140.9 526.6,135.0 527.4,134.2 528.3,150.2 529.1,146.0 529.9,141.8 530.8,143.5 531.6,133.3 532.5,138.4 533.3,146.0 534.1,140.1 535.0,142.6 535.8,143.5 536.7,145.2 537.5,160.4 538.3,157.0 539.2,151.9 540.0,137.6 540.9,154.4 541.7,140.1 542.6,145.2 543.4,145.2 544.2,144.3 545.1,139.2 545.9,148.5 546.8,147.7 547.6,140.9 548.4,143.5 549.3,139.2 550.1,134.2 551.0,134.2 551.8,142.6 552.6,134.2 553.5,135.9 554.3,147.7 555.2,136.7 556.0,133.3 556.8,135.0 557.7,140.9 558.5,140.9 559.4,144.3 560.2,144.3 561.1,143.5 561.9,141.8 562.7,140.1 563.6,140.1 564.4,141.8 565.3,143.5 566.1,136.7 566.9,130.8 567.8,139.2 568.6,135.9 569.5,125.7 570.3,130.0 571.1,134.2 572.0,135.9 572.8,131.6 573.7,132.5 574.5,129.1 575.3,137.6 576.2,130.8 577.0,135.9 577.9,135.0 578.7,138.4 579.5,130.0 580.4,127.4 581.2,129.1 582.1,132.5 582.9,124.9 583.8,127.4 584.6,127.4 585.4,125.7 586.3,125.7 587.1,135.0 588.0,130.8 588.8,129.1 589.6,131.6 590.5,133.3 591.3,136.7 592.2,140.1 593.0,136.7 593.8,135.9 594.7,135.9 595.5,129.1 596.4,129.1 597.2,135.9 598.0,135.0 598.9,136.7 599.7,139.2 600.6,140.9 601.4,146.8 602.3,137.6 603.1,145.2 603.9,135.9 604.8,144.3 605.6,132.5 606.5,131.6 607.3,132.5 608.1,130.0 609.0,133.3 609.8,138.4 610.7,124.9 611.5,128.3 612.3,131.6 613.2,128.3 614.0,126.6 614.9,135.9 615.7,133.3 616.5,133.3 617.4,140.1 618.2,143.5 619.1,148.5 619.9,147.7 620.8,138.4 621.6,139.2 622.4,132.5 623.3,130.8 624.1,127.4 625.0,125.7 625.8,129.1 626.6,124.9 627.5,129.1 628.3,119.0 629.2,130.0 630.0,129.1 630.8,130.0 631.7,120.7 632.5,124.0 633.4,113.9 634.2,121.5 635.0,119.8 635.9,128.3 636.7,120.7 637.6,132.5 638.4,135.9 639.2,135.9 640.1,133.3 640.9,137.6 641.8,126.6 642.6,132.5 643.5,143.5 644.3,145.2 645.1,135.9 646.0,142.6 646.8,130.0 647.7,140.9 648.5,143.5 649.3,137.6 650.2,140.1 651.0,137.6 651.9,135.9 652.7,146.8 653.5,142.6 654.4,140.9 655.2,135.9 656.1,136.7 656.9,119.8 657.7,130.0 658.6,126.6 659.4,135.9 660.3,141.8 661.1,132.5 662.0,132.5 662.8,130.0 663.6,119.8 664.5,124.0 665.3,131.6 666.2,134.2 667.0,121.5 667.8,123.2 668.7,119.8 669.5,123.2 670.4,128.3 671.2,131.6 672.0,134.2 672.9,134.2 673.7,123.2 674.6,120.7 675.4,124.0 676.2,121.5 677.1,126.6 677.9,126.6 678.8,119.8 679.6,123.2 680.5,127.4 681.3,127.4 682.1,134.2 683.0,128.3 683.8,134.2 684.7,130.8 685.5,129.1 686.3,139.2 687.2,133.3 688.0,129.1 688.9,128.3 689.7,127.4 690.5,123.2 691.4,130.0 692.2,131.6 693.1,127.4 693.9,130.0 694.7,138.4 695.6,135.9 696.4,128.3 697.3,119.8 698.1,129.1 698.9,130.8 699.8,134.2 700.6,128.3 701.5,128.3 702.3,135.9 703.2,125.7 704.0,130.0 704.8,129.1 705.7,142.6 706.5,135.9 707.4,133.3 708.2,122.4 709.0,126.6 709.9,127.4 710.7,127.4 711.6,129.1 712.4,120.7 713.2,123.2 714.1,125.7 714.9,122.4 715.8,126.6 716.6,126.6 717.4,135.0 718.3,126.6 719.1,122.4 720.0,124.9 720.8,128.3 721.7,123.2 722.5,124.0 723.3,119.0 724.2,121.5 725.0,124.9 725.9,118.1 726.7,130.0 727.5,122.4 728.4,126.6 729.2,125.7 730.1,131.6 730.9,122.4 731.7,119.8 732.6,128.3 733.4,121.5 734.3,121.5 735.1,129.1 735.9,130.0 736.8,128.3 737.6,132.5 738.5,127.4 739.3,119.0 740.2,119.0 741.0,118.1 741.8,124.0 742.7,120.7 743.5,122.4 744.4,124.0 745.2,125.7 746.0,123.2 746.9,120.7 747.7,125.7 748.6,119.8 749.4,112.2 750.2,113.1 751.1,124.0 751.9,118.1 752.8,114.8 753.6,113.1 754.4,108.0 755.3,113.9 756.1,119.0 757.0,123.2 757.8,124.9 758.6,130.8 759.5,124.0 760.3,131.6 761.2,133.3 762.0,130.0 762.9,130.0 763.7,124.9 764.5,127.4 765.4,125.7 766.2,122.4 767.1,121.5 767.9,124.0 768.7,119.8 769.6,125.7 770.4,117.3 771.3,121.5 772.1,120.7 772.9,119.8 773.8,111.4 774.6,115.6 775.5,118.1 776.3,119.0 777.1,111.4 778.0,123.2 778.8,108.0 779.7,117.3 780.5,115.6 781.4,119.8 782.2,125.7 783.0,117.3 783.9,124.0 784.7,126.6 785.6,129.1 786.4,132.5 787.2,121.5 788.1,116.4 788.9,127.4 789.8,115.6 790.6,123.2 791.4,122.4 792.3,126.6 793.1,113.9 794.0,119.0 794.8,107.2 795.6,113.1 796.5,115.6 797.3,120.7 798.2,116.4 799.0,121.5 799.8,125.7 800.7,119.8 801.5,116.4 802.4,119.8 803.2,119.0 804.1,129.1 804.9,131.6 805.7,120.7 806.6,115.6 807.4,115.6 808.3,116.4 809.1,113.9 809.9,120.7 810.8,119.0 811.6,124.9 812.5,130.8 813.3,124.9 814.1,119.8 815.0,118.1 815.8,120.7 816.7,116.4 817.5,119.0 818.3,116.4 819.2,118.1 820.0,113.1 820.9,113.1 821.7,118.1 822.6,110.5 823.4,111.4 824.2,115.6 825.1,117.3 825.9,113.1 826.8,125.7 827.6,104.6 828.4,112.2 829.3,108.8 830.1,119.8 831.0,118.1 831.8,116.4 832.6,116.4 833.5,118.1 834.3,111.4 835.2,111.4 836.0,109.7 836.8,107.2 837.7,105.5 838.5,109.7 839.4,98.7 840.2,112.2 841.1,108.0 841.9,114.8 842.7,113.9 843.6,113.9 844.4,116.4 845.3,108.0 846.1,111.4 846.9,112.2 847.8,106.3 848.6,113.1 849.5,108.0 850.3,107.2 851.1,109.7 852.0,102.9 852.8,97.0 853.7,101.2 854.5,99.6 855.3,97.0 856.2,105.5 857.0,111.4 857.9,110.5 858.7,114.8 859.5,112.2 860.4,114.8 861.2,112.2 862.1,115.6 862.9,114.8 863.8,119.8 864.6,119.0 865.4,112.2 866.3,113.9 867.1,119.8 868.0,117.3 868.8,113.9 869.6,108.0 870.5,104.6 871.3,108.0 872.2,112.2 873.0,119.0 873.8,113.1 874.7,102.9 875.5,106.3 876.4,106.3 877.2,112.2 878.0,110.5 878.9,107.2 879.7,113.1 880.6,110.5 881.4,118.1 882.3,114.8 883.1,114.8 883.9,111.4 884.8,119.0 885.6,109.7 886.5,113.9 887.3,107.2 888.1,105.5 889.0,108.8 889.8,113.9 890.7,113.1 891.5,112.2 892.3,113.1 893.2,119.8 894.0,120.7 894.9,116.4 895.7,119.0 896.5,117.3 897.4,119.0 898.2,113.1 899.1,109.7 899.9,113.9 900.8,111.4 901.6,108.0 902.4,111.4 903.3,104.6 904.1,101.2 905.0,110.5 905.8,109.7 906.6,113.1 907.5,111.4 908.3,117.3 909.2,110.5 910.0,111.4"/>
<line x1="730" y1="142" x2="754" y2="142" stroke="#ea580c" stroke-width="3"/>
<text x="762" y="147" font-family="Arial" font-size="13" fill="#111827">UCB c=2</text>
</svg>