<svg xmlns="http://www.w3.org/2000/svg" width="980" height="520" viewBox="0 0 980 520">
<rect width="100%" height="100%" fill="#ffffff"/>
<text x="70" y="34" font-family="Arial" font-size="24" font-weight="700" fill="#111827">Average Reward: 20 arms</text>
<line x1="70" y1="450" x2="910" y2="450" stroke="#111827" stroke-width="1"/>
<line x1="70" y1="70" x2="70" y2="450" stroke="#111827" stroke-width="1"/>
<text x="18" y="260.0" font-family="Arial" font-size="14" fill="#374151" transform="rotate(-90 18,260.0)">Average reward</text>
<text x="460.0" y="502" font-family="Arial" font-size="14" fill="#374151">Step</text>
<line x1="65" y1="450.0" x2="910" y2="450.0" stroke="#e5e7eb" stroke-width="1"/>
<text x="8" y="455.0" font-family="Arial" font-size="12" fill="#4b5563">-0.30</text>
<line x1="65" y1="374.0" x2="910" y2="374.0" stroke="#e5e7eb" stroke-width="1"/>
<text x="8" y="379.0" font-family="Arial" font-size="12" fill="#4b5563">0.14</text>
<line x1="65" y1="298.0" x2="910" y2="298.0" stroke="#e5e7eb" stroke-width="1"/>
<text x="8" y="303.0" font-family="Arial" font-size="12" fill="#4b5563">0.58</text>
<line x1="65" y1="222.0" x2="910" y2="222.0" stroke="#e5e7eb" stroke-width="1"/>
<text x="8" y="227.0" font-family="Arial" font-size="12" fill="#4b5563">1.02</text>
<line x1="65" y1="146.0" x2="910" y2="146.0" stroke="#e5e7eb" stroke-width="1"/>
<text x="8" y="151.0" font-family="Arial" font-size="12" fill="#4b5563">1.46</text>
<line x1="65" y1="70.0" x2="910" y2="70.0" stroke="#e5e7eb" stroke-width="1"/>
<text x="8" y="75.0" font-family="Arial" font-size="12" fill="#4b5563">1.90</text>
<polyline fill="none" stroke="#2563eb" stroke-width="2.2" points="70.0,387.8 70.8,388.1 71.7,383.8 72.5,385.9 73.4,391.0 74.2,371.4 75.0,403.1 75.9,387.3 76.7,420.5 77.6,396.4 78.4,398.5 79.2,390.0 80.1,381.0 80.9,393.1 81.8,405.2 82.6,380.6 83.5,408.0 84.3,408.1 85.1,419.8 86.0,398.7 86.8,404.8 87.7,404.6 88.5,394.0 89.3,400.4 90.2,407.5 91.0,387.2 91.9,409.3 92.7,408.4 93.5,402.5 94.4,400.2 95.2,382.6 96.1,406.8 96.9,399.8 97.7,389.9 98.6,401.7 99.4,383.0 100.3,401.6 101.1,400.1 102.0,379.8 102.8,393.1 103.6,385.8 104.5,402.3 105.3,390.4 106.2,391.7 107.0,397.9 107.8,386.8 108.7,397.3 109.5,399.5 110.4,394.7 111.2,390.4 112.0,400.2 112.9,401.3 113.7,377.2 114.6,405.1 115.4,392.7 116.2,397.3 117.1,410.2 117.9,399.3 118.8,381.5 119.6,408.2 120.5,395.8 121.3,388.4 122.1,407.8 123.0,407.4 123.8,397.9 124.7,388.0 125.5,397.8 126.3,408.2 127.2,404.1 128.0,389.2 128.9,403.7 129.7,393.5 130.5,418.4 131.4,387.4 132.2,399.7 133.1,397.3 133.9,390.1 134.7,409.7 135.6,392.9 136.4,394.9 137.3,395.9 138.1,401.8 138.9,390.3 139.8,405.6 140.6,407.9 141.5,389.8 142.3,373.5 143.2,418.6 144.0,399.5 144.8,396.5 145.7,400.0 146.5,378.8 147.4,433.7 148.2,413.0 149.0,415.1 149.9,413.7 150.7,392.3 151.6,396.9 152.4,403.4 153.2,393.7 154.1,385.2 154.9,412.4 155.8,409.5 156.6,409.6 157.4,407.5 158.3,380.8 159.1,397.4 160.0,417.1 160.8,389.7 161.7,398.7 162.5,418.4 163.3,385.7 164.2,389.2 165.0,386.9 165.9,408.9 166.7,404.4 167.5,417.6 168.4,405.0 169.2,383.6 170.1,382.5 170.9,395.6 171.7,395.0 172.6,407.9 173.4,395.9 174.3,387.1 175.1,371.9 175.9,412.3 176.8,400.4 177.6,403.2 178.5,401.5 179.3,410.2 180.2,411.4 181.0,397.7 181.8,395.5 182.7,410.7 183.5,389.5 184.4,376.9 185.2,399.2 186.0,402.9 186.9,392.3 187.7,391.1 188.6,397.4 189.4,397.3 190.2,395.7 191.1,400.2 191.9,405.1 192.8,360.8 193.6,386.6 194.4,402.3 195.3,402.0 196.1,384.4 197.0,378.2 197.8,393.5 198.6,394.2 199.5,419.9 200.3,389.2 201.2,403.2 202.0,388.6 202.9,376.9 203.7,388.3 204.5,408.1 205.4,394.5 206.2,367.3 207.1,402.7 207.9,376.7 208.7,399.1 209.6,414.2 210.4,405.2 211.3,418.6 212.1,370.6 212.9,416.6 213.8,400.1 214.6,405.0 215.5,399.6 216.3,398.3 217.1,370.8 218.0,408.0 218.8,403.8 219.7,392.5 220.5,368.7 221.4,392.3 222.2,413.0 223.0,403.1 223.9,384.2 224.7,401.9 225.6,409.9 226.4,399.8 227.2,402.3 228.1,398.9 228.9,391.5 229.8,384.0 230.6,393.2 231.4,380.9 232.3,385.7 233.1,400.8 234.0,389.6 234.8,399.3 235.6,393.1 236.5,382.3 237.3,407.7 238.2,396.5 239.0,395.9 239.8,404.3 240.7,384.0 241.5,415.5 242.4,408.4 243.2,387.4 244.1,402.9 244.9,382.0 245.7,396.0 246.6,393.6 247.4,400.8 248.3,398.9 249.1,403.5 249.9,396.3 250.8,392.6 251.6,390.5 252.5,399.5 253.3,421.6 254.1,380.9 255.0,366.2 255.8,397.7 256.7,395.9 257.5,398.1 258.3,403.0 259.2,402.6 260.0,412.8 260.9,386.9 261.7,394.7 262.6,380.7 263.4,397.0 264.2,401.6 265.1,418.3 265.9,405.3 266.8,398.9 267.6,407.1 268.4,400.8 269.3,395.7 270.1,381.3 271.0,398.1 271.8,408.4 272.6,412.6 273.5,399.8 274.3,400.2 275.2,405.7 276.0,390.6 276.8,402.4 277.7,391.1 278.5,385.5 279.4,364.9 280.2,402.0 281.1,411.4 281.9,418.3 282.7,392.9 283.6,398.6 284.4,409.9 285.3,396.2 286.1,400.1 286.9,384.4 287.8,382.4 288.6,402.0 289.5,416.1 290.3,412.0 291.1,408.8 292.0,401.3 292.8,385.3 293.7,420.5 294.5,410.0 295.3,408.5 296.2,387.7 297.0,388.3 297.9,384.3 298.7,385.8 299.5,410.9 300.4,388.7 301.2,393.0 302.1,411.5 302.9,398.7 303.8,403.7 304.6,400.1 305.4,384.5 306.3,400.1 307.1,406.6 308.0,397.4 308.8,389.8 309.6,404.4 310.5,397.1 311.3,393.3 312.2,400.7 313.0,398.9 313.8,414.2 314.7,404.6 315.5,376.7 316.4,395.5 317.2,391.8 318.0,406.4 318.9,386.8 319.7,415.7 320.6,394.7 321.4,408.7 322.3,390.1 323.1,413.7 323.9,397.4 324.8,397.2 325.6,390.7 326.5,390.8 327.3,388.7 328.1,389.8 329.0,403.5 329.8,406.8 330.7,399.9 331.5,394.7 332.3,403.2 333.2,388.7 334.0,408.0 334.9,389.0 335.7,385.3 336.5,403.0 337.4,407.4 338.2,398.0 339.1,403.3 339.9,403.5 340.8,406.0 341.6,380.7 342.4,405.8 343.3,406.7 344.1,400.2 345.0,363.5 345.8,423.8 346.6,397.6 347.5,398.2 348.3,395.7 349.2,378.5 350.0,395.4 350.8,390.0 351.7,395.0 352.5,399.2 353.4,392.6 354.2,419.0 355.0,398.1 355.9,408.1 356.7,404.4 357.6,387.4 358.4,384.7 359.2,406.1 360.1,395.3 360.9,393.9 361.8,387.0 362.6,409.0 363.5,403.6 364.3,403.5 365.1,395.0 366.0,404.7 366.8,400.5 367.7,386.2 368.5,409.5 369.3,403.1 370.2,401.8 371.0,385.8 371.9,404.0 372.7,390.4 373.5,404.9 374.4,387.6 375.2,407.9 376.1,396.3 376.9,387.1 377.7,391.9 378.6,394.3 379.4,381.3 380.3,415.9 381.1,387.9 382.0,400.6 382.8,400.3 383.6,404.9 384.5,409.6 385.3,380.7 386.2,407.1 387.0,385.1 387.8,401.7 388.7,404.8 389.5,407.6 390.4,408.8 391.2,421.6 392.0,399.2 392.9,383.2 393.7,385.4 394.6,384.2 395.4,390.3 396.2,411.1 397.1,378.2 397.9,397.8 398.8,392.9 399.6,399.9 400.5,380.6 401.3,412.5 402.1,389.2 403.0,396.2 403.8,393.1 404.7,430.9 405.5,388.2 406.3,403.1 407.2,407.2 408.0,380.0 408.9,397.0 409.7,403.8 410.5,397.3 411.4,406.8 412.2,395.9 413.1,392.9 413.9,388.4 414.7,397.6 415.6,411.3 416.4,411.8 417.3,423.0 418.1,386.4 418.9,405.6 419.8,406.3 420.6,409.6 421.5,385.3 422.3,389.8 423.2,390.6 424.0,383.3 424.8,401.6 425.7,396.7 426.5,389.6 427.4,398.1 428.2,391.9 429.0,393.7 429.9,393.1 430.7,398.3 431.6,401.4 432.4,386.3 433.2,409.8 434.1,410.5 434.9,402.8 435.8,392.4 436.6,397.7 437.4,409.9 438.3,404.0 439.1,410.7 440.0,404.0 440.8,374.5 441.7,416.6 442.5,398.5 443.3,399.0 444.2,404.7 445.0,400.9 445.9,387.0 446.7,404.0 447.5,414.0 448.4,406.0 449.2,407.6 450.1,399.9 450.9,396.6 451.7,400.0 452.6,411.6 453.4,406.7 454.3,393.4 455.1,391.8 455.9,398.7 456.8,410.3 457.6,395.8 458.5,408.1 459.3,407.7 460.2,401.3 461.0,398.9 461.8,413.2 462.7,407.8 463.5,394.1 464.4,393.9 465.2,393.8 466.0,395.8 466.9,425.1 467.7,398.2 468.6,401.0 469.4,406.0 470.2,389.1 471.1,403.4 471.9,404.6 472.8,378.8 473.6,386.8 474.4,378.9 475.3,389.3 476.1,395.0 477.0,388.1 477.8,408.9 478.6,410.8 479.5,378.1 480.3,401.2 481.2,405.4 482.0,390.8 482.9,394.2 483.7,412.2 484.5,385.0 485.4,404.4 486.2,377.4 487.1,397.8 487.9,391.4 488.7,385.6 489.6,387.0 490.4,386.9 491.3,385.4 492.1,393.6 492.9,393.7 493.8,400.2 494.6,389.4 495.5,388.6 496.3,398.7 497.1,401.5 498.0,410.2 498.8,390.4 499.7,406.0 500.5,371.5 501.4,410.6 502.2,397.8 503.0,408.1 503.9,403.7 504.7,408.9 505.6,384.6 506.4,408.2 507.2,387.8 508.1,401.3 508.9,382.7 509.8,380.9 510.6,384.7 511.4,401.2 512.3,401.1 513.1,401.6 514.0,389.1 514.8,405.4 515.6,397.8 516.5,381.8 517.3,406.9 518.2,397.4 519.0,406.6 519.8,387.9 520.7,386.7 521.5,409.9 522.4,390.1 523.2,404.2 524.1,394.2 524.9,398.1 525.7,401.5 526.6,385.3 527.4,406.5 528.3,398.9 529.1,390.6 529.9,387.3 530.8,397.6 531.6,403.2 532.5,388.7 533.3,386.2 534.1,384.6 535.0,390.4 535.8,383.9 536.7,391.2 537.5,397.6 538.3,383.8 539.2,414.6 540.0,393.0 540.9,404.5 541.7,397.9 542.6,381.9 543.4,384.4 544.2,403.7 545.1,400.9 545.9,407.1 546.8,413.1 547.6,389.7 548.4,404.9 549.3,402.1 550.1,400.1 551.0,398.0 551.8,374.5 552.6,395.4 553.5,384.7 554.3,384.4 555.2,401.4 556.0,389.7 556.8,399.9 557.7,377.0 558.5,403.8 559.4,394.8 560.2,391.3 561.1,403.6 561.9,385.1 562.7,404.2 563.6,392.7 564.4,410.3 565.3,412.8 566.1,394.8 566.9,398.4 567.8,395.1 568.6,390.0 569.5,387.2 570.3,388.9 571.1,401.0 572.0,388.5 572.8,388.9 573.7,407.7 574.5,395.1 575.3,383.6 576.2,405.7 577.0,407.9 577.9,391.8 578.7,424.0 579.5,399.6 580.4,403.1 581.2,401.2 582.1,397.9 582.9,397.6 583.8,398.3 584.6,402.8 585.4,390.6 586.3,394.6 587.1,401.9 588.0,384.3 588.8,407.4 589.6,419.2 590.5,392.2 591.3,389.8 592.2,417.0 593.0,400.4 593.8,393.7 594.7,415.7 595.5,392.1 596.4,403.1 597.2,381.8 598.0,414.9 598.9,393.9 599.7,406.8 600.6,393.7 601.4,388.3 602.3,408.8 603.1,392.2 603.9,424.0 604.8,399.4 605.6,404.2 606.5,402.9 607.3,405.2 608.1,385.8 609.0,396.0 609.8,402.7 610.7,409.2 611.5,375.7 612.3,399.3 613.2,405.0 614.0,389.0 614.9,399.9 615.7,416.0 616.5,409.9 617.4,390.8 618.2,410.2 619.1,391.1 619.9,400.8 620.8,397.0 621.6,401.5 622.4,394.3 623.3,397.5 624.1,384.0 625.0,394.6 625.8,414.2 626.6,397.9 627.5,396.2 628.3,403.8 629.2,391.0 630.0,377.4 630.8,405.4 631.7,406.0 632.5,388.0 633.4,413.9 634.2,403.8 635.0,395.7 635.9,392.1 636.7,404.7 637.6,383.2 638.4,404.1 639.2,409.1 640.1,396.9 640.9,399.6 641.8,400.4 642.6,413.1 643.5,389.8 644.3,414.8 645.1,423.0 646.0,394.7 646.8,415.6 647.7,379.2 648.5,398.6 649.3,382.2 650.2,409.3 651.0,391.1 651.9,384.1 652.7,405.4 653.5,410.7 654.4,415.0 655.2,399.4 656.1,402.6 656.9,394.8 657.7,400.9 658.6,408.6 659.4,394.3 660.3,383.1 661.1,396.0 662.0,384.5 662.8,416.2 663.6,396.3 664.5,419.4 665.3,412.4 666.2,391.2 667.0,413.5 667.8,401.5 668.7,395.2 669.5,399.8 670.4,390.0 671.2,413.7 672.0,387.4 672.9,391.6 673.7,389.2 674.6,399.0 675.4,403.5 676.2,395.3 677.1,411.7 677.9,384.6 678.8,399.0 679.6,392.4 680.5,386.1 681.3,403.7 682.1,393.9 683.0,404.3 683.8,402.3 684.7,397.0 685.5,402.5 686.3,397.5 687.2,386.4 688.0,382.3 688.9,412.9 689.7,392.5 690.5,392.9 691.4,409.0 692.2,394.0 693.1,384.7 693.9,409.0 694.7,389.3 695.6,389.2 696.4,404.4 697.3,383.5 698.1,392.8 698.9,401.9 699.8,400.2 700.6,377.6 701.5,406.5 702.3,374.7 703.2,408.6 704.0,398.5 704.8,388.0 705.7,393.2 706.5,405.2 707.4,393.2 708.2,383.6 709.0,421.4 709.9,386.1 710.7,393.8 711.6,410.0 712.4,384.5 713.2,392.5 714.1,383.7 714.9,398.2 715.8,411.8 716.6,387.1 717.4,405.1 718.3,403.4 719.1,400.6 720.0,402.5 720.8,395.0 721.7,397.7 722.5,400.3 723.3,401.2 724.2,400.6 725.0,396.7 725.9,388.6 726.7,387.1 727.5,413.5 728.4,406.7 729.2,382.4 730.1,407.4 730.9,400.6 731.7,395.6 732.6,412.5 733.4,395.7 734.3,398.3 735.1,382.1 735.9,389.2 736.8,395.3 737.6,405.2 738.5,410.1 739.3,395.1 740.2,392.8 741.0,406.4 741.8,415.1 742.7,391.2 743.5,385.4 744.4,392.3 745.2,403.8 746.0,410.4 746.9,394.1 747.7,399.4 748.6,396.6 749.4,398.9 750.2,408.3 751.1,388.8 751.9,409.2 752.8,393.8 753.6,401.3 754.4,404.4 755.3,405.6 756.1,376.6 757.0,403.0 757.8,406.6 758.6,408.6 759.5,405.1 760.3,408.5 761.2,384.2 762.0,410.7 762.9,415.0 763.7,379.8 764.5,378.6 765.4,433.3 766.2,422.3 767.1,401.0 767.9,413.6 768.7,399.3 769.6,404.9 770.4,391.4 771.3,388.0 772.1,388.2 772.9,394.7 773.8,391.3 774.6,397.1 775.5,378.7 776.3,409.2 777.1,394.4 778.0,389.2 778.8,396.4 779.7,364.6 780.5,376.2 781.4,389.1 782.2,387.4 783.0,387.7 783.9,420.0 784.7,410.0 785.6,391.7 786.4,404.7 787.2,394.9 788.1,392.4 788.9,410.2 789.8,389.8 790.6,405.5 791.4,384.2 792.3,387.5 793.1,395.9 794.0,396.7 794.8,399.2 795.6,385.5 796.5,383.6 797.3,406.1 798.2,386.3 799.0,413.4 799.8,429.1 800.7,395.1 801.5,403.2 802.4,389.0 803.2,392.4 804.1,391.8 804.9,393.1 805.7,403.0 806.6,391.9 807.4,395.1 808.3,398.0 809.1,412.0 809.9,406.0 810.8,382.0 811.6,398.6 812.5,389.2 813.3,395.0 814.1,399.4 815.0,397.4 815.8,400.7 816.7,410.9 817.5,390.8 818.3,427.3 819.2,406.1 820.0,386.2 820.9,367.1 821.7,374.4 822.6,386.2 823.4,407.0 824.2,409.1 825.1,386.3 825.9,409.8 826.8,407.4 827.6,402.3 828.4,399.9 829.3,396.4 830.1,413.5 831.0,389.7 831.8,383.5 832.6,390.4 833.5,408.2 834.3,378.2 835.2,389.4 836.0,397.4 836.8,378.2 837.7,395.3 838.5,404.3 839.4,409.7 840.2,391.4 841.1,385.9 841.9,395.0 842.7,403.0 843.6,385.7 844.4,399.2 845.3,400.3 846.1,404.2 846.9,366.1 847.8,396.5 848.6,390.3 849.5,415.3 850.3,387.4 851.1,396.1 852.0,397.1 852.8,380.9 853.7,407.9 854.5,406.6 855.3,381.9 856.2,386.7 857.0,395.1 857.9,389.4 858.7,390.9 859.5,397.8 860.4,407.2 861.2,398.2 862.1,396.3 862.9,378.5 863.8,394.4 864.6,409.0 865.4,405.5 866.3,403.6 867.1,398.5 868.0,399.3 868.8,395.3 869.6,390.9 870.5,398.0 871.3,412.6 872.2,420.0 873.0,422.2 873.8,400.2 874.7,364.1 875.5,400.0 876.4,398.5 877.2,383.5 878.0,398.9 878.9,406.6 879.7,398.2 880.6,386.9 881.4,391.1 882.3,379.8 883.1,408.0 883.9,393.5 884.8,411.2 885.6,397.5 886.5,402.8 887.3,386.8 888.1,391.3 889.0,416.3 889.8,393.2 890.7,390.6 891.5,387.8 892.3,394.4 893.2,411.6 894.0,391.0 894.9,400.3 895.7,384.3 896.5,397.1 897.4,385.7 898.2,393.3 899.1,396.7 899.9,420.9 900.8,412.0 901.6,417.0 902.4,422.2 903.3,408.0 904.1,385.8 905.0,402.6 905.8,381.0 906.6,403.1 907.5,414.8 908.3,404.1 909.2,394.8 910.0,382.1"/>
<line x1="730" y1="54" x2="754" y2="54" stroke="#2563eb" stroke-width="3"/>
<text x="762" y="59" font-family="Arial" font-size="13" fill="#111827">Random</text>
<polyline fill="none" stroke="#16a34a" stroke-width="2.2" points="70.0,381.8 70.8,349.9 71.7,328.1 72.5,309.5 73.4,305.6 74.2,272.0 75.0,270.8 75.9,266.1 76.7,259.3 77.6,266.8 78.4,243.0 79.2,257.5 80.1,244.1 80.9,255.0 81.8,247.9 82.6,243.9 83.5,246.8 84.3,242.8 85.1,249.7 86.0,246.1 86.8,241.0 87.7,238.8 88.5,237.1 89.3,248.5 90.2,244.5 91.0,236.4 91.9,224.1 92.7,239.4 93.5,233.3 94.4,226.0 95.2,223.6 96.1,234.4 96.9,227.2 97.7,232.8 98.6,238.1 99.4,230.8 100.3,240.3 101.1,218.2 102.0,215.0 102.8,219.5 103.6,234.5 104.5,219.3 105.3,211.7 106.2,227.4 107.0,238.0 107.8,228.6 108.7,232.3 109.5,218.2 110.4,218.9 111.2,231.3 112.0,219.7 112.9,226.5 113.7,206.3 114.6,219.4 115.4,222.0 116.2,232.9 117.1,226.5 117.9,219.6 118.8,225.4 119.6,212.5 120.5,217.0 121.3,219.3 122.1,223.8 123.0,214.2 123.8,207.1 124.7,219.4 125.5,231.9 126.3,206.2 127.2,223.0 128.0,227.3 128.9,220.1 129.7,226.8 130.5,225.0 131.4,218.7 132.2,216.1 133.1,232.3 133.9,224.1 134.7,218.3 135.6,211.6 136.4,234.2 137.3,212.1 138.1,223.4 138.9,223.8 139.8,224.7 140.6,229.6 141.5,213.7 142.3,228.1 143.2,213.0 144.0,224.7 144.8,221.1 145.7,222.9 146.5,231.8 147.4,217.5 148.2,232.1 149.0,225.7 149.9,229.9 150.7,232.4 151.6,225.7 152.4,221.5 153.2,213.7 154.1,217.5 154.9,214.2 155.8,217.0 156.6,229.4 157.4,217.0 158.3,221.0 159.1,229.2 160.0,214.7 160.8,215.3 161.7,226.1 162.5,227.6 163.3,219.8 164.2,219.6 165.0,211.0 165.9,211.4 166.7,229.1 167.5,223.2 168.4,230.6 169.2,229.3 170.1,233.0 170.9,222.2 171.7,224.2 172.6,221.9 173.4,210.0 174.3,213.0 175.1,228.7 175.9,218.3 176.8,219.3 177.6,217.8 178.5,225.3 179.3,214.0 180.2,225.0 181.0,238.4 181.8,212.9 182.7,220.3 183.5,223.8 184.4,217.0 185.2,227.0 186.0,215.7 186.9,214.6 187.7,215.8 188.6,224.0 189.4,206.4 190.2,212.1 191.1,213.8 191.9,214.0 192.8,220.0 193.6,231.1 194.4,223.6 195.3,222.1 196.1,228.3 197.0,225.7 197.8,208.7 198.6,228.9 199.5,216.6 200.3,207.9 201.2,218.3 202.0,221.8 202.9,219.0 203.7,224.3 204.5,223.6 205.4,230.0 206.2,211.2 207.1,225.1 207.9,224.7 208.7,222.5 209.6,235.7 210.4,231.6 211.3,200.9 212.1,236.1 212.9,218.0 213.8,215.5 214.6,220.8 215.5,213.7 216.3,222.1 217.1,213.0 218.0,219.4 218.8,218.5 219.7,221.4 220.5,208.3 221.4,207.5 222.2,222.9 223.0,221.4 223.9,231.0 224.7,236.4 225.6,224.5 226.4,216.7 227.2,223.6 228.1,228.8 228.9,208.9 229.8,219.0 230.6,221.1 231.4,222.4 232.3,220.0 233.1,214.1 234.0,226.5 234.8,214.1 235.6,215.7 236.5,193.8 237.3,228.6 238.2,211.7 239.0,218.2 239.8,226.6 240.7,231.6 241.5,233.4 242.4,205.2 243.2,214.5 244.1,233.4 244.9,217.3 245.7,214.5 246.6,228.5 247.4,216.4 248.3,229.1 249.1,209.0 249.9,219.7 250.8,213.9 251.6,218.1 252.5,217.8 253.3,216.5 254.1,226.3 255.0,231.8 255.8,215.7 256.7,222.0 257.5,230.0 258.3,224.8 259.2,215.1 260.0,222.5 260.9,219.9 261.7,221.3 262.6,231.3 263.4,222.4 264.2,222.3 265.1,215.3 265.9,210.6 266.8,224.9 267.6,222.2 268.4,225.8 269.3,228.0 270.1,229.9 271.0,221.8 271.8,216.9 272.6,232.7 273.5,220.4 274.3,222.3 275.2,231.9 276.0,227.0 276.8,216.0 277.7,229.6 278.5,233.7 279.4,209.8 280.2,227.1 281.1,217.7 281.9,234.6 282.7,228.7 283.6,222.0 284.4,217.5 285.3,221.6 286.1,208.6 286.9,224.7 287.8,224.5 288.6,212.7 289.5,232.6 290.3,212.0 291.1,234.9 292.0,211.4 292.8,215.2 293.7,216.3 294.5,219.5 295.3,217.3 296.2,216.7 297.0,217.0 297.9,217.2 298.7,211.4 299.5,222.0 300.4,220.9 301.2,240.8 302.1,210.3 302.9,221.4 303.8,225.6 304.6,210.7 305.4,213.9 306.3,206.7 307.1,219.0 308.0,218.0 308.8,237.2 309.6,227.5 310.5,220.0 311.3,228.8 312.2,216.1 313.0,236.4 313.8,227.7 314.7,218.8 315.5,212.1 316.4,219.7 317.2,226.6 318.0,226.3 318.9,226.8 319.7,206.5 320.6,220.1 321.4,208.6 322.3,220.2 323.1,224.7 323.9,214.9 324.8,218.7 325.6,220.9 326.5,212.8 327.3,232.4 328.1,211.2 329.0,217.5 329.8,224.1 330.7,222.6 331.5,221.1 332.3,209.0 333.2,225.5 334.0,220.4 334.9,222.2 335.7,218.5 336.5,214.5 337.4,230.2 338.2,216.6 339.1,219.4 339.9,208.3 340.8,224.9 341.6,218.1 342.4,213.1 343.3,224.6 344.1,228.3 345.0,219.9 345.8,211.7 346.6,218.5 347.5,228.7 348.3,216.5 349.2,216.6 350.0,218.1 350.8,226.6 351.7,235.5 352.5,214.8 353.4,217.4 354.2,214.3 355.0,227.5 355.9,228.6 356.7,214.7 357.6,218.2 358.4,212.3 359.2,227.5 360.1,211.1 360.9,221.0 361.8,216.8 362.6,219.8 363.5,224.8 364.3,231.1 365.1,219.0 366.0,208.1 366.8,220.5 367.7,211.5 368.5,218.3 369.3,226.5 370.2,210.8 371.0,209.4 371.9,218.5 372.7,225.9 373.5,207.4 374.4,232.3 375.2,230.3 376.1,216.4 376.9,211.7 377.7,215.1 378.6,220.4 379.4,222.2 380.3,219.6 381.1,222.7 382.0,212.9 382.8,228.8 383.6,224.4 384.5,207.5 385.3,232.6 386.2,212.0 387.0,215.0 387.8,222.9 388.7,223.7 389.5,211.4 390.4,210.6 391.2,223.9 392.0,218.6 392.9,238.8 393.7,219.7 394.6,213.6 395.4,215.9 396.2,222.7 397.1,229.4 397.9,230.5 398.8,219.1 399.6,214.7 400.5,219.7 401.3,207.1 402.1,235.0 403.0,223.9 403.8,224.9 404.7,229.3 405.5,216.3 406.3,226.5 407.2,212.7 408.0,225.9 408.9,227.9 409.7,226.5 410.5,233.9 411.4,223.3 412.2,207.2 413.1,220.2 413.9,209.1 414.7,220.2 415.6,229.7 416.4,214.1 417.3,225.9 418.1,206.0 418.9,221.2 419.8,220.2 420.6,212.1 421.5,223.0 422.3,217.6 423.2,216.3 424.0,215.2 424.8,208.1 425.7,215.5 426.5,227.0 427.4,225.7 428.2,223.8 429.0,207.1 429.9,212.6 430.7,224.8 431.6,231.2 432.4,208.0 433.2,219.0 434.1,217.7 434.9,213.8 435.8,226.3 436.6,212.0 437.4,219.3 438.3,216.3 439.1,220.2 440.0,209.8 440.8,223.3 441.7,227.1 442.5,213.5 443.3,228.4 444.2,216.2 445.0,211.1 445.9,229.9 446.7,209.4 447.5,220.3 448.4,217.2 449.2,219.7 450.1,224.3 450.9,208.4 451.7,213.9 452.6,221.7 453.4,206.3 454.3,214.4 455.1,212.2 455.9,208.9 456.8,214.8 457.6,206.5 458.5,210.8 459.3,218.7 460.2,201.6 461.0,229.1 461.8,222.7 462.7,215.3 463.5,223.8 464.4,222.5 465.2,218.9 466.0,215.7 466.9,213.2 467.7,219.1 468.6,214.2 469.4,212.4 470.2,236.2 471.1,228.2 471.9,215.6 472.8,227.0 473.6,220.0 474.4,228.0 475.3,209.2 476.1,220.0 477.0,220.2 477.8,212.2 478.6,230.1 479.5,225.4 480.3,219.5 481.2,213.4 482.0,218.4 482.9,207.1 483.7,216.1 484.5,228.1 485.4,217.4 486.2,232.1 487.1,217.6 487.9,222.3 488.7,230.0 489.6,213.8 490.4,224.5 491.3,232.6 492.1,210.1 492.9,231.8 493.8,232.6 494.6,219.6 495.5,222.2 496.3,214.0 497.1,215.5 498.0,218.0 498.8,219.9 499.7,208.7 500.5,221.1 501.4,221.6 502.2,222.5 503.0,202.4 503.9,225.5 504.7,226.7 505.6,237.6 506.4,215.8 507.2,213.5 508.1,226.3 508.9,216.6 509.8,231.0 510.6,217.5 511.4,212.4 512.3,236.1 513.1,212.1 514.0,213.8 514.8,225.0 515.6,231.5 516.5,226.5 517.3,234.0 518.2,228.5 519.0,219.4 519.8,222.9 520.7,215.9 521.5,227.8 522.4,231.5 523.2,219.3 524.1,218.6 524.9,216.6 525.7,225.0 526.6,215.7 527.4,220.0 528.3,208.3 529.1,241.1 529.9,224.4 530.8,224.3 531.6,216.3 532.5,214.2 533.3,224.9 534.1,232.3 535.0,219.9 535.8,216.6 536.7,219.9 537.5,218.2 538.3,219.4 539.2,214.2 540.0,231.7 540.9,216.8 541.7,223.1 542.6,224.3 543.4,203.8 544.2,224.7 545.1,215.4 545.9,224.4 546.8,233.5 547.6,210.8 548.4,218.8 549.3,220.6 550.1,231.2 551.0,216.7 551.8,215.0 552.6,216.9 553.5,225.8 554.3,215.8 555.2,210.8 556.0,216.5 556.8,230.2 557.7,219.4 558.5,217.5 559.4,237.3 560.2,226.0 561.1,225.4 561.9,216.3 562.7,220.2 563.6,206.9 564.4,217.1 565.3,213.6 566.1,218.3 566.9,223.3 567.8,217.3 568.6,223.8 569.5,232.3 570.3,228.7 571.1,244.2 572.0,221.4 572.8,230.7 573.7,223.7 574.5,222.4 575.3,216.5 576.2,204.5 577.0,212.0 577.9,224.3 578.7,206.8 579.5,218.0 580.4,228.8 581.2,220.4 582.1,227.5 582.9,227.9 583.8,209.5 584.6,215.7 585.4,220.7 586.3,233.5 587.1,232.3 588.0,221.1 588.8,233.1 589.6,212.1 590.5,218.6 591.3,221.4 592.2,223.6 593.0,220.6 593.8,210.3 594.7,228.1 595.5,221.4 596.4,227.7 597.2,221.0 598.0,214.5 598.9,222.5 599.7,221.0 600.6,231.9 601.4,207.8 602.3,233.0 603.1,217.4 603.9,197.3 604.8,220.7 605.6,216.1 606.5,214.1 607.3,221.2 608.1,215.0 609.0,211.1 609.8,210.6 610.7,220.3 611.5,227.8 612.3,209.9 613.2,217.7 614.0,225.6 614.9,223.2 615.7,225.5 616.5,217.4 617.4,223.7 618.2,215.0 619.1,216.7 619.9,218.3 620.8,219.0 621.6,216.1 622.4,214.4 623.3,222.1 624.1,215.7 625.0,233.5 625.8,227.0 626.6,227.5 627.5,231.6 628.3,213.6 629.2,228.0 630.0,206.4 630.8,226.4 631.7,230.6 632.5,231.3 633.4,222.1 634.2,231.5 635.0,217.3 635.9,224.7 636.7,221.1 637.6,220.2 638.4,217.8 639.2,229.8 640.1,220.3 640.9,222.7 641.8,221.6 642.6,218.3 643.5,225.0 644.3,210.0 645.1,208.9 646.0,219.7 646.8,237.0 647.7,224.4 648.5,216.9 649.3,230.7 650.2,226.9 651.0,232.6 651.9,208.5 652.7,235.1 653.5,229.8 654.4,205.2 655.2,215.1 656.1,222.8 656.9,211.9 657.7,216.7 658.6,223.1 659.4,217.9 660.3,213.1 661.1,214.1 662.0,227.5 662.8,209.7 663.6,207.4 664.5,211.0 665.3,213.5 666.2,207.9 667.0,217.4 667.8,212.0 668.7,221.2 669.5,215.8 670.4,222.1 671.2,211.3 672.0,222.5 672.9,243.3 673.7,202.3 674.6,229.6 675.4,214.0 676.2,213.4 677.1,219.1 677.9,208.6 678.8,227.0 679.6,203.8 680.5,220.7 681.3,218.0 682.1,213.4 683.0,223.8 683.8,204.7 684.7,206.6 685.5,210.0 686.3,220.7 687.2,218.2 688.0,217.9 688.9,229.7 689.7,212.3 690.5,223.9 691.4,210.7 692.2,225.9 693.1,219.4 693.9,224.1 694.7,212.6 695.6,214.8 696.4,220.6 697.3,234.9 698.1,218.2 698.9,222.0 699.8,220.4 700.6,223.7 701.5,220.0 702.3,214.5 703.2,232.8 704.0,224.0 704.8,234.6 705.7,224.8 706.5,226.0 707.4,221.2 708.2,236.4 709.0,217.0 709.9,224.1 710.7,227.7 711.6,221.1 712.4,213.7 713.2,215.3 714.1,225.5 714.9,219.2 715.8,226.6 716.6,212.8 717.4,221.2 718.3,219.5 719.1,226.5 720.0,204.2 720.8,216.7 721.7,209.0 722.5,211.2 723.3,226.9 724.2,212.9 725.0,189.5 725.9,212.3 726.7,227.3 727.5,223.6 728.4,222.4 729.2,224.1 730.1,225.5 730.9,214.0 731.7,209.8 732.6,218.9 733.4,213.1 734.3,214.0 735.1,219.4 735.9,214.7 736.8,220.3 737.6,225.0 738.5,213.9 739.3,223.7 740.2,228.8 741.0,220.9 741.8,219.7 742.7,230.1 743.5,225.7 744.4,240.3 745.2,221.8 746.0,221.6 746.9,224.3 747.7,220.8 748.6,230.3 749.4,232.3 750.2,223.6 751.1,215.3 751.9,218.1 752.8,226.5 753.6,217.3 754.4,216.2 755.3,211.6 756.1,220.7 757.0,226.4 757.8,214.4 758.6,227.1 759.5,215.3 760.3,215.2 761.2,220.8 762.0,225.2 762.9,216.6 763.7,231.0 764.5,220.4 765.4,212.5 766.2,219.5 767.1,229.1 767.9,215.3 768.7,226.2 769.6,213.5 770.4,202.2 771.3,227.3 772.1,215.0 772.9,231.9 773.8,217.3 774.6,228.9 775.5,231.5 776.3,222.3 777.1,200.3 778.0,223.9 778.8,220.0 779.7,217.8 780.5,217.1 781.4,217.1 782.2,210.4 783.0,213.5 783.9,220.4 784.7,215.9 785.6,223.1 786.4,230.6 787.2,228.0 788.1,220.2 788.9,208.8 789.8,224.2 790.6,229.3 791.4,230.5 792.3,215.7 793.1,227.9 794.0,219.5 794.8,216.3 795.6,218.4 796.5,218.2 797.3,225.1 798.2,216.9 799.0,223.2 799.8,219.3 800.7,220.5 801.5,211.7 802.4,237.7 803.2,214.0 804.1,213.7 804.9,211.1 805.7,210.4 806.6,209.0 807.4,207.3 808.3,214.6 809.1,221.8 809.9,210.4 810.8,223.4 811.6,214.6 812.5,212.9 813.3,213.3 814.1,215.2 815.0,215.1 815.8,220.0 816.7,217.7 817.5,237.0 818.3,212.2 819.2,213.5 820.0,213.2 820.9,225.2 821.7,249.8 822.6,227.4 823.4,224.3 824.2,217.9 825.1,230.5 825.9,224.9 826.8,218.1 827.6,226.7 828.4,208.5 829.3,218.8 830.1,218.6 831.0,213.7 831.8,225.3 832.6,230.3 833.5,217.5 834.3,220.5 835.2,215.2 836.0,217.0 836.8,215.2 837.7,217.5 838.5,201.7 839.4,227.1 840.2,225.3 841.1,223.7 841.9,224.8 842.7,221.5 843.6,222.4 844.4,230.1 845.3,207.4 846.1,220.4 846.9,214.4 847.8,219.7 848.6,224.9 849.5,214.1 850.3,216.3 851.1,227.3 852.0,235.5 852.8,209.0 853.7,217.2 854.5,224.0 855.3,219.0 856.2,217.7 857.0,220.7 857.9,222.7 858.7,209.1 859.5,214.8 860.4,223.7 861.2,225.8 862.1,207.8 862.9,226.1 863.8,215.2 864.6,234.3 865.4,230.5 866.3,219.0 867.1,217.1 868.0,211.0 868.8,215.7 869.6,222.5 870.5,218.3 871.3,224.2 872.2,234.2 873.0,215.6 873.8,229.5 874.7,221.0 875.5,221.9 876.4,215.6 877.2,208.8 878.0,225.8 878.9,226.5 879.7,213.2 880.6,226.9 881.4,212.8 882.3,229.5 883.1,230.1 883.9,226.5 884.8,219.2 885.6,217.7 886.5,210.4 887.3,217.3 888.1,234.1 889.0,218.8 889.8,215.7 890.7,208.4 891.5,228.5 892.3,219.0 893.2,222.0 894.0,224.5 894.9,210.3 895.7,220.0 896.5,222.7 897.4,224.6 898.2,215.2 899.1,226.1 899.9,236.8 900.8,225.8 901.6,228.7 902.4,208.5 903.3,231.6 904.1,232.6 905.0,229.1 905.8,230.5 906.6,210.2 907.5,220.4 908.3,201.6 909.2,226.3 910.0,215.1"/>
<line x1="730" y1="76" x2="754" y2="76" stroke="#16a34a" stroke-width="3"/>
<text x="762" y="81" font-family="Arial" font-size="13" fill="#111827">Greedy</text>
<polyline fill="none" stroke="#dc2626" stroke-width="2.2" points="70.0,377.6 70.8,353.4 71.7,328.1 72.5,309.6 73.4,296.2 74.2,283.0 75.0,270.6 75.9,264.6 76.7,275.5 77.6,249.3 78.4,248.8 79.2,250.1 80.1,249.6 80.9,250.0 81.8,254.8 82.6,248.3 83.5,239.7 84.3,250.5 85.1,224.5 86.0,230.6 86.8,243.5 87.7,234.1 88.5,242.8 89.3,242.6 90.2,226.0 91.0,216.3 91.9,249.6 92.7,262.7 93.5,252.8 94.4,242.8 95.2,234.2 96.1,242.8 96.9,240.6 97.7,222.7 98.6,221.8 99.4,215.3 100.3,228.7 101.1,228.1 102.0,228.3 102.8,229.6 103.6,235.8 104.5,222.9 105.3,217.2 106.2,224.3 107.0,218.7 107.8,216.9 108.7,228.7 109.5,219.1 110.4,230.8 111.2,227.5 112.0,231.5 112.9,220.1 113.7,222.3 114.6,229.6 115.4,236.1 116.2,226.8 117.1,208.0 117.9,213.8 118.8,225.4 119.6,227.6 120.5,213.2 121.3,227.2 122.1,228.4 123.0,206.3 123.8,214.1 124.7,216.0 125.5,219.6 126.3,212.1 127.2,225.8 128.0,230.6 128.9,208.5 129.7,210.6 130.5,208.8 131.4,226.5 132.2,223.0 133.1,201.5 133.9,217.6 134.7,210.0 135.6,221.0 136.4,219.6 137.3,220.9 138.1,199.9 138.9,213.7 139.8,219.7 140.6,221.6 141.5,223.7 142.3,224.7 143.2,214.3 144.0,220.9 144.8,219.6 145.7,216.2 146.5,208.2 147.4,215.2 148.2,217.4 149.0,217.6 149.9,206.6 150.7,198.6 151.6,227.3 152.4,208.6 153.2,207.6 154.1,213.9 154.9,207.7 155.8,201.3 156.6,200.0 157.4,221.1 158.3,211.0 159.1,207.2 160.0,208.1 160.8,220.4 161.7,225.3 162.5,206.0 163.3,226.6 164.2,222.6 165.0,211.9 165.9,207.0 166.7,218.7 167.5,219.6 168.4,201.2 169.2,212.0 170.1,221.8 170.9,214.2 171.7,204.6 172.6,207.7 173.4,224.2 174.3,215.7 175.1,208.9 175.9,217.4 176.8,208.4 177.6,219.3 178.5,206.9 179.3,216.6 180.2,205.2 181.0,201.8 181.8,217.3 182.7,217.9 183.5,193.2 184.4,202.0 185.2,203.1 186.0,214.8 186.9,206.5 187.7,216.3 188.6,211.3 189.4,217.4 190.2,209.0 191.1,215.7 191.9,197.5 192.8,208.0 193.6,210.8 194.4,197.1 195.3,203.0 196.1,198.6 197.0,208.7 197.8,195.9 198.6,210.5 199.5,197.6 200.3,199.0 201.2,205.3 202.0,204.3 202.9,198.7 203.7,205.2 204.5,206.8 205.4,203.7 206.2,211.1 207.1,200.4 207.9,194.6 208.7,202.1 209.6,204.2 210.4,211.0 211.3,221.2 212.1,197.5 212.9,199.6 213.8,199.0 214.6,198.2 215.5,215.6 216.3,204.3 217.1,203.7 218.0,203.9 218.8,218.1 219.7,206.0 220.5,197.7 221.4,202.2 222.2,207.4 223.0,201.8 223.9,196.6 224.7,199.1 225.6,213.5 226.4,213.8 227.2,201.3 228.1,208.0 228.9,216.2 229.8,195.7 230.6,204.8 231.4,218.4 232.3,200.6 233.1,206.7 234.0,188.5 234.8,210.3 235.6,207.3 236.5,210.3 237.3,195.0 238.2,194.7 239.0,194.1 239.8,206.7 240.7,201.3 241.5,198.0 242.4,202.3 243.2,206.3 244.1,192.9 244.9,208.7 245.7,206.8 246.6,195.5 247.4,203.4 248.3,205.3 249.1,205.0 249.9,201.6 250.8,206.0 251.6,199.1 252.5,190.7 253.3,206.7 254.1,212.9 255.0,209.0 255.8,209.0 256.7,206.3 257.5,196.9 258.3,197.9 259.2,200.7 260.0,203.7 260.9,182.1 261.7,184.9 262.6,192.9 263.4,205.6 264.2,191.6 265.1,196.9 265.9,205.3 266.8,198.5 267.6,197.2 268.4,188.3 269.3,188.4 270.1,206.7 271.0,192.0 271.8,207.3 272.6,186.4 273.5,196.2 274.3,199.6 275.2,190.9 276.0,194.7 276.8,187.8 277.7,195.8 278.5,199.3 279.4,182.3 280.2,201.1 281.1,208.2 281.9,200.7 282.7,189.4 283.6,188.3 284.4,201.5 285.3,196.2 286.1,199.9 286.9,200.8 287.8,221.7 288.6,186.5 289.5,190.5 290.3,202.3 291.1,185.8 292.0,188.8 292.8,199.3 293.7,207.9 294.5,193.9 295.3,206.6 296.2,192.2 297.0,196.0 297.9,192.1 298.7,208.6 299.5,200.2 300.4,181.8 301.2,186.8 302.1,189.9 302.9,201.8 303.8,199.3 304.6,195.4 305.4,180.1 306.3,197.8 307.1,183.4 308.0,199.0 308.8,188.4 309.6,191.6 310.5,183.3 311.3,192.0 312.2,199.2 313.0,201.9 313.8,193.3 314.7,178.5 315.5,194.5 316.4,189.3 317.2,200.5 318.0,204.7 318.9,194.8 319.7,193.4 320.6,195.7 321.4,195.0 322.3,190.0 323.1,200.4 323.9,187.1 324.8,196.6 325.6,190.3 326.5,183.2 327.3,205.1 328.1,190.4 329.0,186.4 329.8,196.4 330.7,194.8 331.5,186.8 332.3,185.6 333.2,203.7 334.0,192.0 334.9,184.2 335.7,193.8 336.5,177.3 337.4,191.6 338.2,188.1 339.1,189.4 339.9,187.3 340.8,185.0 341.6,186.4 342.4,188.3 343.3,184.8 344.1,188.5 345.0,184.8 345.8,188.1 346.6,195.5 347.5,173.9 348.3,164.2 349.2,174.4 350.0,191.3 350.8,181.9 351.7,193.3 352.5,186.2 353.4,183.4 354.2,190.6 355.0,180.4 355.9,177.3 356.7,193.4 357.6,190.9 358.4,192.6 359.2,180.1 360.1,193.6 360.9,184.2 361.8,186.8 362.6,193.3 363.5,185.0 364.3,185.3 365.1,185.3 366.0,186.9 366.8,176.7 367.7,190.3 368.5,178.4 369.3,186.5 370.2,188.6 371.0,185.7 371.9,164.6 372.7,188.0 373.5,178.9 374.4,198.9 375.2,173.7 376.1,189.6 376.9,175.4 377.7,182.5 378.6,172.8 379.4,181.0 380.3,186.7 381.1,188.8 382.0,180.9 382.8,189.2 383.6,192.5 384.5,183.6 385.3,183.4 386.2,204.1 387.0,185.5 387.8,184.0 388.7,180.8 389.5,189.3 390.4,165.8 391.2,184.9 392.0,158.1 392.9,179.1 393.7,178.5 394.6,202.8 395.4,183.7 396.2,185.5 397.1,183.6 397.9,183.8 398.8,200.4 399.6,202.9 400.5,190.3 401.3,182.5 402.1,180.8 403.0,195.3 403.8,190.2 404.7,186.4 405.5,187.4 406.3,184.5 407.2,177.8 408.0,195.5 408.9,182.2 409.7,198.5 410.5,186.4 411.4,167.1 412.2,185.4 413.1,177.0 413.9,186.8 414.7,173.7 415.6,175.8 416.4,189.1 417.3,188.1 418.1,185.1 418.9,189.1 419.8,177.4 420.6,192.4 421.5,189.0 422.3,170.3 423.2,172.0 424.0,198.2 424.8,187.8 425.7,181.4 426.5,176.8 427.4,187.0 428.2,175.5 429.0,185.4 429.9,177.2 430.7,179.8 431.6,179.5 432.4,178.7 433.2,182.7 434.1,195.5 434.9,182.3 435.8,197.3 436.6,176.7 437.4,182.1 438.3,195.4 439.1,176.1 440.0,198.0 440.8,190.8 441.7,200.9 442.5,190.3 443.3,167.4 444.2,184.7 445.0,173.4 445.9,181.4 446.7,190.2 447.5,185.6 448.4,173.7 449.2,190.1 450.1,171.7 450.9,182.2 451.7,176.1 452.6,181.7 453.4,161.9 454.3,190.1 455.1,179.7 455.9,191.3 456.8,164.8 457.6,184.2 458.5,179.1 459.3,183.6 460.2,168.5 461.0,180.9 461.8,180.6 462.7,173.7 463.5,185.1 464.4,179.9 465.2,175.3 466.0,187.2 466.9,164.9 467.7,177.3 468.6,183.4 469.4,187.3 470.2,175.7 471.1,172.4 471.9,163.0 472.8,186.5 473.6,165.0 474.4,169.1 475.3,181.0 476.1,170.9 477.0,166.3 477.8,192.5 478.6,190.8 479.5,176.5 480.3,173.4 481.2,176.2 482.0,184.9 482.9,167.4 483.7,166.6 484.5,174.4 485.4,169.8 486.2,179.9 487.1,190.8 487.9,174.2 488.7,173.2 489.6,176.5 490.4,155.2 491.3,183.3 492.1,180.7 492.9,168.6 493.8,172.2 494.6,178.8 495.5,183.3 496.3,181.1 497.1,181.8 498.0,194.5 498.8,166.1 499.7,185.3 500.5,177.4 501.4,172.1 502.2,172.8 503.0,170.5 503.9,176.8 504.7,190.3 505.6,183.7 506.4,188.9 507.2,188.4 508.1,170.0 508.9,160.8 509.8,166.0 510.6,167.6 511.4,163.4 512.3,177.0 513.1,188.5 514.0,178.7 514.8,189.6 515.6,180.2 516.5,165.7 517.3,181.9 518.2,171.4 519.0,169.6 519.8,167.1 520.7,168.5 521.5,183.8 522.4,170.9 523.2,187.9 524.1,166.1 524.9,172.1 525.7,173.9 526.6,164.9 527.4,169.6 528.3,150.3 529.1,170.9 529.9,163.4 530.8,175.7 531.6,173.1 532.5,192.7 533.3,177.2 534.1,168.0 535.0,169.6 535.8,172.4 536.7,185.1 537.5,182.6 538.3,162.8 539.2,172.5 540.0,183.6 540.9,167.6 541.7,196.3 542.6,170.7 543.4,175.6 544.2,178.1 545.1,169.8 545.9,181.8 546.8,175.8 547.6,187.4 548.4,160.6 549.3,167.9 550.1,163.1 551.0,160.8 551.8,174.9 552.6,185.8 553.5,161.9 554.3,181.1 555.2,169.6 556.0,171.4 556.8,178.1 557.7,185.1 558.5,168.8 559.4,173.6 560.2,169.0 561.1,189.8 561.9,179.6 562.7,184.8 563.6,166.5 564.4,176.6 565.3,178.5 566.1,152.1 566.9,165.8 567.8,159.5 568.6,175.3 569.5,176.8 570.3,173.2 571.1,178.8 572.0,164.7 572.8,169.8 573.7,183.6 574.5,165.8 575.3,172.7 576.2,167.9 577.0,168.1 577.9,174.5 578.7,170.4 579.5,159.9 580.4,164.5 581.2,166.7 582.1,167.4 582.9,174.6 583.8,169.4 584.6,166.1 585.4,172.9 586.3,172.7 587.1,155.4 588.0,181.1 588.8,171.1 589.6,183.6 590.5,175.2 591.3,161.9 592.2,171.8 593.0,153.7 593.8,167.1 594.7,169.2 595.5,174.1 596.4,169.2 597.2,173.9 598.0,156.5 598.9,173.2 599.7,157.8 600.6,175.7 601.4,165.6 602.3,172.8 603.1,182.3 603.9,165.4 604.8,165.6 605.6,166.3 606.5,166.1 607.3,169.7 608.1,172.3 609.0,171.4 609.8,166.4 610.7,166.6 611.5,178.4 612.3,164.3 613.2,175.7 614.0,169.4 614.9,167.5 615.7,168.0 616.5,172.7 617.4,157.0 618.2,170.6 619.1,176.3 619.9,171.3 620.8,169.8 621.6,178.6 622.4,165.3 623.3,156.7 624.1,161.5 625.0,172.2 625.8,167.4 626.6,178.7 627.5,157.7 628.3,166.2 629.2,173.4 630.0,166.1 630.8,137.7 631.7,169.8 632.5,167.3 633.4,170.8 634.2,153.8 635.0,165.8 635.9,158.3 636.7,169.1 637.6,148.5 638.4,164.2 639.2,168.9 640.1,165.7 640.9,182.1 641.8,167.2 642.6,158.6 643.5,169.0 644.3,174.0 645.1,171.2 646.0,156.2 646.8,169.5 647.7,165.8 648.5,169.6 649.3,165.6 650.2,168.2 651.0,168.0 651.9,158.2 652.7,182.3 653.5,162.3 654.4,182.7 655.2,171.2 656.1,168.9 656.9,163.8 657.7,171.8 658.6,176.0 659.4,164.5 660.3,173.8 661.1,160.6 662.0,177.8 662.8,172.5 663.6,175.6 664.5,155.4 665.3,147.9 666.2,163.4 667.0,172.9 667.8,175.4 668.7,162.1 669.5,176.2 670.4,151.8 671.2,158.2 672.0,160.0 672.9,162.1 673.7,166.4 674.6,170.1 675.4,164.2 676.2,165.6 677.1,161.3 677.9,170.4 678.8,178.5 679.6,165.1 680.5,155.2 681.3,179.5 682.1,158.0 683.0,156.9 683.8,170.4 684.7,165.0 685.5,163.9 686.3,165.4 687.2,168.2 688.0,165.6 688.9,161.1 689.7,165.6 690.5,155.3 691.4,164.5 692.2,157.9 693.1,177.4 693.9,171.6 694.7,168.8 695.6,159.5 696.4,161.6 697.3,169.2 698.1,169.8 698.9,165.4 699.8,169.5 700.6,173.4 701.5,157.0 702.3,152.9 703.2,145.5 704.0,159.2 704.8,170.0 705.7,167.4 706.5,171.3 707.4,169.3 708.2,143.4 709.0,156.1 709.9,164.1 710.7,157.9 711.6,157.7 712.4,151.6 713.2,151.7 714.1,160.4 714.9,165.2 715.8,156.4 716.6,153.4 717.4,167.2 718.3,157.5 719.1,159.8 720.0,161.2 720.8,164.6 721.7,158.2 722.5,154.3 723.3,176.7 724.2,134.5 725.0,148.9 725.9,156.4 726.7,154.2 727.5,156.3 728.4,167.1 729.2,181.3 730.1,153.8 730.9,174.1 731.7,175.4 732.6,160.6 733.4,170.3 734.3,155.7 735.1,152.2 735.9,159.6 736.8,160.8 737.6,166.3 738.5,147.4 739.3,170.4 740.2,153.5 741.0,153.0 741.8,162.0 742.7,166.8 743.5,160.1 744.4,162.9 745.2,151.2 746.0,153.5 746.9,154.3 747.7,154.3 748.6,167.0 749.4,162.8 750.2,150.7 751.1,155.1 751.9,175.5 752.8,159.2 753.6,163.1 754.4,172.8 755.3,157.4 756.1,164.5 757.0,158.2 757.8,158.5 758.6,155.2 759.5,162.9 760.3,162.1 761.2,170.8 762.0,158.8 762.9,163.5 763.7,153.5 764.5,163.6 765.4,162.0 766.2,159.0 767.1,161.1 767.9,163.8 768.7,162.5 769.6,172.1 770.4,164.9 771.3,162.9 772.1,156.5 772.9,148.8 773.8,153.0 774.6,150.6 775.5,161.3 776.3,152.1 777.1,157.6 778.0,154.2 778.8,151.9 779.7,148.3 780.5,154.6 781.4,156.7 782.2,155.8 783.0,146.6 783.9,167.2 784.7,162.0 785.6,153.3 786.4,160.4 787.2,158.4 788.1,146.1 788.9,141.8 789.8,142.7 790.6,150.5 791.4,157.7 792.3,145.5 793.1,152.0 794.0,144.3 794.8,162.0 795.6,154.1 796.5,171.8 797.3,172.9 798.2,161.6 799.0,156.3 799.8,158.6 800.7,163.9 801.5,168.0 802.4,151.0 803.2,175.1 804.1,159.0 804.9,148.5 805.7,144.8 806.6,169.1 807.4,157.0 808.3,153.7 809.1,149.8 809.9,151.3 810.8,155.2 811.6,155.1 812.5,146.2 813.3,155.8 814.1,159.3 815.0,157.1 815.8,154.0 816.7,154.3 817.5,143.7 818.3,147.7 819.2,147.0 820.0,144.5 820.9,150.4 821.7,169.0 822.6,151.0 823.4,161.8 824.2,146.2 825.1,160.7 825.9,165.6 826.8,148.6 827.6,156.5 828.4,159.2 829.3,159.4 830.1,140.3 831.0,147.0 831.8,158.5 832.6,149.0 833.5,153.9 834.3,142.5 835.2,139.7 836.0,151.4 836.8,151.9 837.7,152.2 838.5,152.9 839.4,165.4 840.2,148.8 841.1,140.4 841.9,165.9 842.7,159.7 843.6,155.4 844.4,153.3 845.3,136.8 846.1,141.9 846.9,149.5 847.8,148.8 848.6,142.1 849.5,146.7 850.3,153.5 851.1,162.1 852.0,141.5 852.8,165.5 853.7,154.3 854.5,169.5 855.3,146.8 856.2,147.0 857.0,154.6 857.9,157.4 858.7,152.7 859.5,159.1 860.4,151.7 861.2,145.0 862.1,143.6 862.9,155.3 863.8,147.1 864.6,151.6 865.4,159.5 866.3,155.3 867.1,159.5 868.0,162.6 868.8,157.3 869.6,139.9 870.5,164.2 871.3,128.9 872.2,150.0 873.0,153.2 873.8,152.2 874.7,152.4 875.5,148.5 876.4,141.4 877.2,152.4 878.0,141.1 878.9,148.5 879.7,131.3 880.6,152.6 881.4,159.4 882.3,153.3 883.1,144.9 883.9,152.2 884.8,168.9 885.6,166.3 886.5,159.2 887.3,152.5 888.1,158.3 889.0,155.6 889.8,165.4 890.7,153.1 891.5,141.8 892.3,150.4 893.2,151.3 894.0,153.5 894.9,155.1 895.7,165.8 896.5,141.7 897.4,154.9 898.2,157.0 899.1,133.3 899.9,139.9 900.8,145.0 901.6,147.6 902.4,154.1 903.3,143.8 904.1,170.4 905.0,146.5 905.8,145.1 906.6,152.7 907.5,149.1 908.3,135.9 909.2,150.5 910.0,159.5"/>
<line x1="730" y1="98" x2="754" y2="98" stroke="#dc2626" stroke-width="3"/>
<text x="762" y="103" font-family="Arial" font-size="13" fill="#111827">Epsilon 0.01</text>
<polyline fill="none" stroke="#9333ea" stroke-width="2.2" points="70.0,398.8 70.8,355.0 71.7,326.9 72.5,304.0 73.4,294.7 74.2,282.8 75.0,283.2 75.9,264.4 76.7,268.5 77.6,268.7 78.4,249.9 79.2,236.3 80.1,249.3 80.9,240.7 81.8,255.8 82.6,247.2 83.5,218.8 84.3,246.0 85.1,234.1 86.0,223.9 86.8,225.2 87.7,228.2 88.5,224.2 89.3,209.9 90.2,219.9 91.0,230.3 91.9,215.5 92.7,224.5 93.5,206.1 94.4,213.5 95.2,226.3 96.1,209.3 96.9,219.8 97.7,215.8 98.6,198.1 99.4,207.8 100.3,211.2 101.1,209.1 102.0,206.0 102.8,217.7 103.6,202.9 104.5,207.4 105.3,211.5 106.2,190.4 107.0,205.7 107.8,193.6 108.7,198.8 109.5,202.7 110.4,198.7 111.2,179.6 112.0,202.9 112.9,197.1 113.7,189.5 114.6,198.7 115.4,194.9 116.2,196.6 117.1,196.3 117.9,195.8 118.8,193.0 119.6,191.8 120.5,184.5 121.3,196.9 122.1,184.8 123.0,192.8 123.8,187.5 124.7,177.5 125.5,180.3 126.3,168.9 127.2,177.5 128.0,189.8 128.9,186.9 129.7,175.7 130.5,191.3 131.4,174.2 132.2,167.6 133.1,185.9 133.9,185.1 134.7,170.8 135.6,182.8 136.4,170.9 137.3,179.0 138.1,160.4 138.9,177.3 139.8,174.7 140.6,176.9 141.5,157.7 142.3,176.7 143.2,183.2 144.0,163.5 144.8,173.0 145.7,165.8 146.5,170.6 147.4,175.5 148.2,165.9 149.0,188.3 149.9,182.1 150.7,188.0 151.6,180.1 152.4,178.5 153.2,174.2 154.1,152.5 154.9,171.4 155.8,175.5 156.6,151.9 157.4,175.7 158.3,170.3 159.1,164.8 160.0,163.1 160.8,165.4 161.7,160.8 162.5,162.0 163.3,161.3 164.2,156.1 165.0,164.4 165.9,163.1 166.7,169.7 167.5,171.2 168.4,167.9 169.2,168.2 170.1,158.9 170.9,158.6 171.7,171.4 172.6,159.2 173.4,179.5 174.3,162.1 175.1,170.4 175.9,160.5 176.8,171.7 177.6,173.8 178.5,174.5 179.3,153.9 180.2,169.6 181.0,170.3 181.8,167.6 182.7,153.3 183.5,164.2 184.4,172.0 185.2,161.1 186.0,167.1 186.9,162.1 187.7,182.8 188.6,152.5 189.4,156.9 190.2,159.8 191.1,156.2 191.9,168.3 192.8,153.2 193.6,150.4 194.4,157.4 195.3,169.7 196.1,151.5 197.0,168.9 197.8,157.1 198.6,151.8 199.5,147.5 200.3,144.9 201.2,152.3 202.0,153.3 202.9,165.1 203.7,150.5 204.5,146.2 205.4,159.5 206.2,154.6 207.1,149.6 207.9,159.8 208.7,129.5 209.6,166.4 210.4,147.1 211.3,153.2 212.1,152.8 212.9,138.2 213.8,161.4 214.6,154.3 215.5,162.1 216.3,139.7 217.1,167.3 218.0,148.6 218.8,158.3 219.7,153.4 220.5,168.1 221.4,160.6 222.2,145.3 223.0,149.5 223.9,153.6 224.7,143.6 225.6,144.9 226.4,153.6 227.2,145.9 228.1,152.0 228.9,139.5 229.8,142.1 230.6,154.3 231.4,142.8 232.3,134.5 233.1,157.2 234.0,136.7 234.8,162.1 235.6,140.8 236.5,160.2 237.3,151.3 238.2,140.6 239.0,145.7 239.8,137.0 240.7,157.7 241.5,152.1 242.4,150.2 243.2,154.3 244.1,169.9 244.9,168.4 245.7,163.9 246.6,141.2 247.4,151.0 248.3,142.7 249.1,149.3 249.9,143.5 250.8,154.6 251.6,159.1 252.5,152.1 253.3,148.4 254.1,166.2 255.0,139.0 255.8,147.0 256.7,142.2 257.5,156.1 258.3,143.7 259.2,152.2 260.0,145.9 260.9,134.1 261.7,140.8 262.6,143.8 263.4,143.1 264.2,152.9 265.1,149.3 265.9,150.6 266.8,131.1 267.6,159.9 268.4,134.3 269.3,131.1 270.1,144.4 271.0,129.1 271.8,149.4 272.6,139.6 273.5,151.1 274.3,137.4 275.2,141.6 276.0,145.2 276.8,138.7 277.7,147.3 278.5,130.6 279.4,131.5 280.2,136.1 281.1,163.8 281.9,138.3 282.7,153.9 283.6,127.6 284.4,136.4 285.3,155.0 286.1,169.2 286.9,155.1 287.8,161.9 288.6,142.4 289.5,133.7 290.3,140.6 291.1,130.6 292.0,154.3 292.8,132.5 293.7,130.7 294.5,123.6 295.3,144.9 296.2,139.7 297.0,134.3 297.9,140.3 298.7,142.7 299.5,152.1 300.4,138.2 301.2,125.5 302.1,140.5 302.9,138.7 303.8,147.4 304.6,132.2 305.4,150.6 306.3,144.9 307.1,130.2 308.0,157.6 308.8,140.6 309.6,131.1 310.5,141.7 311.3,148.9 312.2,134.8 313.0,138.0 313.8,150.4 314.7,134.6 315.5,147.2 316.4,126.2 317.2,139.8 318.0,142.6 318.9,139.8 319.7,141.0 320.6,133.3 321.4,142.2 322.3,128.3 323.1,137.5 323.9,149.2 324.8,121.6 325.6,130.2 326.5,136.3 327.3,126.7 328.1,139.4 329.0,133.9 329.8,130.3 330.7,135.2 331.5,118.4 332.3,149.7 333.2,135.1 334.0,121.8 334.9,132.8 335.7,143.9 336.5,142.2 337.4,139.1 338.2,125.2 339.1,106.4 339.9,143.1 340.8,131.9 341.6,138.0 342.4,128.9 343.3,129.1 344.1,150.2 345.0,130.4 345.8,126.0 346.6,139.7 347.5,126.3 348.3,133.5 349.2,112.1 350.0,134.2 350.8,130.4 351.7,126.4 352.5,134.0 353.4,146.5 354.2,124.4 355.0,135.1 355.9,138.3 356.7,121.9 357.6,120.2 358.4,131.7 359.2,128.4 360.1,121.8 360.9,114.9 361.8,136.1 362.6,143.9 363.5,133.7 364.3,142.1 365.1,132.1 366.0,145.3 366.8,144.1 367.7,136.9 368.5,127.6 369.3,139.4 370.2,130.9 371.0,126.8 371.9,126.2 372.7,120.5 373.5,144.9 374.4,125.3 375.2,129.0 376.1,136.3 376.9,118.7 377.7,127.0 378.6,121.7 379.4,147.9 380.3,120.7 381.1,135.3 382.0,143.9 382.8,137.0 383.6,113.3 384.5,129.6 385.3,133.6 386.2,116.1 387.0,144.5 387.8,125.1 388.7,142.6 389.5,130.2 390.4,136.6 391.2,140.6 392.0,128.3 392.9,143.3 393.7,133.9 394.6,136.2 395.4,143.6 396.2,118.3 397.1,116.7 397.9,123.7 398.8,128.0 399.6,135.9 400.5,127.1 401.3,140.1 402.1,128.0 403.0,136.9 403.8,148.0 404.7,139.2 405.5,132.7 406.3,132.4 407.2,123.1 408.0,136.0 408.9,146.5 409.7,121.5 410.5,141.1 411.4,129.4 412.2,136.8 413.1,130.9 413.9,129.0 414.7,127.7 415.6,136.3 416.4,130.0 417.3,128.7 418.1,106.9 418.9,134.0 419.8,119.0 420.6,111.2 421.5,119.7 422.3,138.4 423.2,116.8 424.0,118.7 424.8,122.5 425.7,115.0 426.5,143.9 427.4,112.4 428.2,118.8 429.0,126.5 429.9,142.5 430.7,122.1 431.6,130.9 432.4,134.0 433.2,122.1 434.1,133.5 434.9,125.2 435.8,122.7 436.6,141.0 437.4,135.1 438.3,119.1 439.1,121.4 440.0,130.1 440.8,123.0 441.7,132.6 442.5,129.4 443.3,118.5 444.2,137.3 445.0,148.7 445.9,112.0 446.7,114.6 447.5,101.7 448.4,124.8 449.2,144.9 450.1,146.1 450.9,142.7 451.7,118.1 452.6,120.7 453.4,127.2 454.3,124.1 455.1,114.0 455.9,126.4 456.8,125.2 457.6,113.4 458.5,147.5 459.3,134.6 460.2,123.1 461.0,146.4 461.8,109.9 462.7,129.1 463.5,118.4 464.4,121.7 465.2,123.3 466.0,114.7 466.9,129.4 467.7,124.5 468.6,137.8 469.4,120.2 470.2,123.7 471.1,110.6 471.9,135.4 472.8,102.6 473.6,121.6 474.4,115.6 475.3,114.7 476.1,118.5 477.0,133.2 477.8,114.7 478.6,118.2 479.5,139.8 480.3,131.5 481.2,127.6 482.0,128.6 482.9,121.3 483.7,116.9 484.5,133.8 485.4,132.6 486.2,143.8 487.1,106.7 487.9,113.0 488.7,110.3 489.6,110.8 490.4,137.7 491.3,120.8 492.1,126.5 492.9,119.8 493.8,126.4 494.6,123.2 495.5,113.9 496.3,117.5 497.1,118.5 498.0,117.6 498.8,121.5 499.7,130.6 500.5,124.3 501.4,132.2 502.2,129.7 503.0,130.8 503.9,123.6 504.7,118.5 505.6,120.5 506.4,120.2 507.2,130.2 508.1,120.1 508.9,115.1 509.8,118.5 510.6,119.6 511.4,122.8 512.3,133.9 513.1,103.5 514.0,112.8 514.8,116.2 515.6,128.1 516.5,136.0 517.3,116.7 518.2,147.6 519.0,127.5 519.8,133.7 520.7,122.9 521.5,118.0 522.4,122.2 523.2,112.9 524.1,128.7 524.9,120.8 525.7,147.9 526.6,131.8 527.4,114.8 528.3,120.0 529.1,115.6 529.9,138.8 530.8,138.7 531.6,117.9 532.5,123.3 533.3,110.4 534.1,145.2 535.0,131.1 535.8,121.9 536.7,119.2 537.5,118.4 538.3,118.9 539.2,109.8 540.0,137.5 540.9,130.5 541.7,118.3 542.6,125.9 543.4,128.5 544.2,122.9 545.1,119.9 545.9,113.4 546.8,131.1 547.6,126.5 548.4,131.2 549.3,125.5 550.1,132.1 551.0,119.9 551.8,143.3 552.6,103.6 553.5,127.6 554.3,117.2 555.2,119.7 556.0,117.5 556.8,116.7 557.7,131.5 558.5,132.5 559.4,109.0 560.2,120.4 561.1,113.4 561.9,117.3 562.7,136.1 563.6,130.2 564.4,136.2 565.3,120.1 566.1,122.5 566.9,122.9 567.8,137.1 568.6,118.4 569.5,126.0 570.3,122.6 571.1,116.1 572.0,120.6 572.8,129.8 573.7,137.8 574.5,117.2 575.3,105.1 576.2,103.9 577.0,121.3 577.9,133.7 578.7,128.8 579.5,120.1 580.4,108.7 581.2,108.0 582.1,121.7 582.9,132.0 583.8,123.2 584.6,134.2 585.4,134.5 586.3,119.1 587.1,122.0 588.0,112.3 588.8,142.1 589.6,124.6 590.5,129.5 591.3,132.3 592.2,115.8 593.0,113.4 593.8,120.6 594.7,116.4 595.5,115.5 596.4,130.9 597.2,117.4 598.0,121.0 598.9,121.6 599.7,115.5 600.6,121.0 601.4,107.1 602.3,119.6 603.1,128.5 603.9,115.9 604.8,126.1 605.6,117.1 606.5,126.3 607.3,113.4 608.1,122.8 609.0,126.8 609.8,123.4 610.7,115.6 611.5,118.8 612.3,113.7 613.2,125.6 614.0,111.9 614.9,117.0 615.7,104.8 616.5,110.1 617.4,118.8 618.2,130.9 619.1,124.6 619.9,134.1 620.8,117.9 621.6,127.9 622.4,109.5 623.3,117.0 624.1,114.9 625.0,112.8 625.8,123.9 626.6,103.4 627.5,122.5 628.3,125.1 629.2,119.9 630.0,114.1 630.8,117.8 631.7,109.4 632.5,118.4 633.4,114.7 634.2,107.3 635.0,114.0 635.9,117.6 636.7,126.7 637.6,121.9 638.4,115.3 639.2,115.4 640.1,123.3 640.9,107.7 641.8,129.2 642.6,122.2 643.5,138.4 644.3,108.3 645.1,124.5 646.0,110.8 646.8,129.7 647.7,105.6 648.5,109.7 649.3,141.3 650.2,102.2 651.0,117.2 651.9,104.7 652.7,104.8 653.5,109.5 654.4,130.4 655.2,116.2 656.1,108.2 656.9,121.8 657.7,126.0 658.6,112.0 659.4,117.6 660.3,130.1 661.1,124.0 662.0,127.3 662.8,116.2 663.6,121.7 664.5,109.2 665.3,119.7 666.2,107.7 667.0,109.7 667.8,115.3 668.7,117.7 669.5,114.6 670.4,115.2 671.2,130.6 672.0,115.3 672.9,130.7 673.7,132.3 674.6,123.9 675.4,102.3 676.2,137.5 677.1,117.5 677.9,126.7 678.8,114.7 679.6,103.0 680.5,118.8 681.3,124.5 682.1,117.8 683.0,124.2 683.8,135.2 684.7,126.6 685.5,126.7 686.3,127.5 687.2,102.1 688.0,117.3 688.9,112.7 689.7,109.3 690.5,123.6 691.4,105.1 692.2,104.4 693.1,118.7 693.9,132.4 694.7,98.9 695.6,127.9 696.4,112.8 697.3,121.8 698.1,109.4 698.9,114.0 699.8,122.9 700.6,126.3 701.5,113.2 702.3,118.3 703.2,108.0 704.0,108.4 704.8,111.3 705.7,118.5 706.5,128.0 707.4,129.9 708.2,108.5 709.0,109.9 709.9,118.7 710.7,101.7 711.6,102.7 712.4,119.4 713.2,112.9 714.1,118.4 714.9,115.6 715.8,118.8 716.6,114.1 717.4,108.8 718.3,124.7 719.1,112.6 720.0,94.0 720.8,121.4 721.7,113.4 722.5,104.6 723.3,114.5 724.2,119.1 725.0,118.0 725.9,103.6 726.7,120.3 727.5,123.5 728.4,110.3 729.2,115.4 730.1,120.9 730.9,105.6 731.7,108.0 732.6,118.5 733.4,121.0 734.3,105.8 735.1,109.8 735.9,109.9 736.8,121.7 737.6,132.9 738.5,116.8 739.3,126.0 740.2,122.2 741.0,130.3 741.8,124.9 742.7,126.9 743.5,124.4 744.4,115.7 745.2,108.2 746.0,118.3 746.9,102.8 747.7,116.2 748.6,118.2 749.4,124.8 750.2,114.5 751.1,117.5 751.9,103.1 752.8,134.7 753.6,110.6 754.4,118.9 755.3,122.6 756.1,117.5 757.0,109.9 757.8,118.7 758.6,130.0 759.5,102.7 760.3,113.7 761.2,111.4 762.0,110.3 762.9,106.1 763.7,106.8 764.5,122.8 765.4,109.4 766.2,109.5 767.1,113.7 767.9,132.1 768.7,113.1 769.6,112.6 770.4,108.2 771.3,101.5 772.1,112.9 772.9,129.1 773.8,121.1 774.6,109.0 775.5,121.7 776.3,103.4 777.1,121.2 778.0,105.5 778.8,122.1 779.7,104.0 780.5,122.0 781.4,108.8 782.2,120.9 783.0,108.3 783.9,116.4 784.7,120.9 785.6,123.6 786.4,106.2 787.2,114.7 788.1,120.0 788.9,123.6 789.8,116.1 790.6,102.5 791.4,118.2 792.3,132.2 793.1,110.0 794.0,126.4 794.8,108.8 795.6,109.0 796.5,122.0 797.3,115.0 798.2,132.8 799.0,110.4 799.8,120.9 800.7,129.2 801.5,113.2 802.4,106.3 803.2,121.5 804.1,112.9 804.9,136.1 805.7,121.0 806.6,121.1 807.4,112.8 808.3,109.5 809.1,119.2 809.9,123.5 810.8,110.9 811.6,118.5 812.5,113.8 813.3,118.1 814.1,99.9 815.0,125.4 815.8,133.9 816.7,126.1 817.5,109.9 818.3,131.6 819.2,113.7 820.0,109.6 820.9,122.8 821.7,118.2 822.6,129.7 823.4,132.0 824.2,122.6 825.1,108.0 825.9,130.3 826.8,114.5 827.6,112.4 828.4,123.9 829.3,110.4 830.1,115.0 831.0,115.2 831.8,110.1 832.6,113.5 833.5,120.3 834.3,128.9 835.2,114.3 836.0,118.7 836.8,121.6 837.7,114.1 838.5,108.2 839.4,121.4 840.2,121.4 841.1,111.4 841.9,120.3 842.7,116.3 843.6,132.5 844.4,132.4 845.3,108.4 846.1,110.3 846.9,120.4 847.8,115.4 848.6,113.0 849.5,120.5 850.3,109.0 851.1,107.1 852.0,131.3 852.8,95.0 853.7,115.2 854.5,110.8 855.3,113.5 856.2,125.1 857.0,115.0 857.9,126.6 858.7,127.0 859.5,116.2 860.4,109.4 861.2,117.4 862.1,111.1 862.9,108.5 863.8,107.2 864.6,117.3 865.4,109.5 866.3,121.8 867.1,129.6 868.0,122.0 868.8,99.5 869.6,130.4 870.5,102.2 871.3,113.4 872.2,127.1 873.0,127.6 873.8,122.2 874.7,129.5 875.5,107.0 876.4,105.7 877.2,110.0 878.0,107.7 878.9,121.0 879.7,121.6 880.6,123.4 881.4,98.2 882.3,118.6 883.1,111.1 883.9,111.3 884.8,108.3 885.6,102.6 886.5,119.9 887.3,122.5 888.1,127.8 889.0,119.7 889.8,111.0 890.7,131.2 891.5,94.6 892.3,111.2 893.2,127.6 894.0,115.1 894.9,115.8 895.7,104.4 896.5,114.7 897.4,109.1 898.2,112.9 899.1,106.9 899.9,102.5 900.8,124.0 901.6,111.9 902.4,130.5 903.3,117.4 904.1,117.1 905.0,116.8 905.8,117.9 906.6,100.5 907.5,111.9 908.3,110.0 909.2,103.0 910.0,118.0"/>
<line x1="730" y1="120" x2="754" y2="120" stroke="#9333ea" stroke-width="3"/>
<text x="762" y="125" font-family="Arial" font-size="13" fill="#111827">Epsilon 0.10</text>
<polyline fill="none" stroke="#ea580c" stroke-width="2.2" points="70.0,395.7 70.8,401.0 71.7,403.6 72.5,410.5 73.4,413.0 74.2,395.9 75.0,411.2 75.9,394.7 76.7,387.9 77.6,393.3 78.4,404.5 79.2,387.5 80.1,401.1 80.9,402.5 81.8,403.2 82.6,402.9 83.5,405.8 84.3,396.3 85.1,405.4 86.0,413.6 86.8,180.2 87.7,194.4 88.5,208.4 89.3,233.0 90.2,258.2 91.0,241.7 91.9,249.0 92.7,246.3 93.5,247.0 94.4,249.2 95.2,248.7 96.1,252.3 96.9,258.5 97.7,243.0 98.6,248.9 99.4,235.6 100.3,252.0 101.1,247.3 102.0,257.8 102.8,230.0 103.6,252.1 104.5,247.0 105.3,255.9 106.2,247.5 107.0,237.2 107.8,233.6 108.7,216.0 109.5,239.3 110.4,240.3 111.2,226.3 112.0,234.6 112.9,217.7 113.7,217.4 114.6,215.4 115.4,236.8 116.2,216.6 117.1,219.2 117.9,211.6 118.8,229.0 119.6,218.0 120.5,202.1 121.3,218.0 122.1,231.0 123.0,219.7 123.8,210.1 124.7,194.3 125.5,194.7 126.3,209.7 127.2,197.2 128.0,202.4 128.9,220.8 129.7,210.4 130.5,200.6 131.4,203.4 132.2,190.3 133.1,191.2 133.9,196.2 134.7,197.6 135.6,184.7 136.4,199.0 137.3,193.6 138.1,184.4 138.9,199.2 139.8,184.7 140.6,202.7 141.5,190.4 142.3,204.0 143.2,199.9 144.0,200.5 144.8,199.4 145.7,172.2 146.5,197.4 147.4,190.1 148.2,200.3 149.0,178.2 149.9,183.5 150.7,186.7 151.6,179.8 152.4,188.4 153.2,173.4 154.1,175.7 154.9,186.6 155.8,174.8 156.6,181.7 157.4,187.4 158.3,186.9 159.1,184.2 160.0,188.6 160.8,184.9 161.7,179.4 162.5,172.1 163.3,190.3 164.2,170.3 165.0,188.0 165.9,168.9 166.7,185.9 167.5,173.9 168.4,170.9 169.2,183.8 170.1,157.3 170.9,159.1 171.7,176.2 172.6,170.6 173.4,170.4 174.3,153.6 175.1,175.2 175.9,167.8 176.8,164.4 177.6,154.3 178.5,156.8 179.3,169.5 180.2,150.3 181.0,159.9 181.8,161.3 182.7,161.0 183.5,163.4 184.4,161.1 185.2,152.7 186.0,162.8 186.9,161.1 187.7,157.8 188.6,159.0 189.4,172.6 190.2,151.5 191.1,172.1 191.9,146.7 192.8,159.0 193.6,158.5 194.4,155.9 195.3,166.3 196.1,151.2 197.0,150.1 197.8,152.5 198.6,159.9 199.5,168.1 200.3,154.9 201.2,150.9 202.0,154.2 202.9,162.8 203.7,158.6 204.5,149.1 205.4,161.4 206.2,153.9 207.1,145.3 207.9,178.8 208.7,144.5 209.6,149.7 210.4,165.2 211.3,149.2 212.1,135.3 212.9,141.6 213.8,153.7 214.6,147.6 215.5,152.5 216.3,158.8 217.1,169.5 218.0,153.7 218.8,150.6 219.7,127.6 220.5,157.6 221.4,147.1 222.2,147.2 223.0,142.8 223.9,150.9 224.7,134.0 225.6,128.3 226.4,136.9 227.2,147.2 228.1,135.3 228.9,150.1 229.8,140.1 230.6,146.9 231.4,144.9 232.3,140.0 233.1,135.2 234.0,139.1 234.8,127.6 235.6,149.2 236.5,134.9 237.3,138.2 238.2,138.3 239.0,139.3 239.8,140.6 240.7,132.0 241.5,150.6 242.4,142.0 243.2,147.8 244.1,133.6 244.9,139.1 245.7,131.6 246.6,141.2 247.4,152.6 248.3,147.1 249.1,136.8 249.9,128.8 250.8,141.1 251.6,126.7 252.5,146.8 253.3,129.8 254.1,123.1 255.0,131.9 255.8,137.8 256.7,144.7 257.5,141.6 258.3,127.5 259.2,144.8 260.0,129.5 260.9,156.8 261.7,143.7 262.6,145.0 263.4,141.0 264.2,131.8 265.1,135.8 265.9,130.4 266.8,135.3 267.6,136.9 268.4,129.9 269.3,128.7 270.1,124.8 271.0,136.2 271.8,139.5 272.6,122.7 273.5,136.9 274.3,143.6 275.2,126.7 276.0,131.7 276.8,127.4 277.7,124.2 278.5,146.3 279.4,111.2 280.2,109.0 281.1,122.6 281.9,134.0 282.7,123.2 283.6,141.8 284.4,134.6 285.3,129.9 286.1,150.5 286.9,137.8 287.8,157.4 288.6,119.4 289.5,144.3 290.3,132.0 291.1,120.1 292.0,119.2 292.8,120.4 293.7,130.7 294.5,122.1 295.3,124.7 296.2,139.5 297.0,139.2 297.9,119.5 298.7,112.5 299.5,132.8 300.4,112.0 301.2,129.6 302.1,115.2 302.9,127.2 303.8,119.0 304.6,113.4 305.4,127.9 306.3,116.5 307.1,115.0 308.0,130.8 308.8,135.1 309.6,137.7 310.5,128.2 311.3,123.7 312.2,135.1 313.0,147.1 313.8,124.8 314.7,117.6 315.5,129.5 316.4,114.4 317.2,115.9 318.0,115.8 318.9,120.9 319.7,122.0 320.6,129.7 321.4,131.5 322.3,128.9 323.1,136.8 323.9,128.1 324.8,115.2 325.6,113.5 326.5,122.6 327.3,116.2 328.1,133.2 329.0,125.0 329.8,140.7 330.7,149.9 331.5,128.0 332.3,125.1 333.2,130.2 334.0,123.4 334.9,121.7 335.7,135.1 336.5,120.3 337.4,106.7 338.2,105.0 339.1,112.1 339.9,131.1 340.8,118.9 341.6,109.7 342.4,118.5 343.3,119.3 344.1,128.8 345.0,107.1 345.8,123.3 346.6,123.1 347.5,131.1 348.3,126.8 349.2,124.6 350.0,117.2 350.8,130.1 351.7,131.5 352.5,115.1 353.4,113.9 354.2,110.2 355.0,117.0 355.9,124.4 356.7,119.3 357.6,117.0 358.4,136.9 359.2,126.3 360.1,129.0 360.9,131.5 361.8,126.5 362.6,124.5 363.5,123.6 364.3,114.8 365.1,120.4 366.0,122.0 366.8,137.2 367.7,131.1 368.5,120.4 369.3,132.3 370.2,116.9 371.0,120.8 371.9,120.4 372.7,118.0 373.5,119.1 374.4,127.9 375.2,109.8 376.1,123.1 376.9,92.7 377.7,116.2 378.6,113.6 379.4,119.5 380.3,114.7 381.1,102.0 382.0,111.2 382.8,114.6 383.6,128.5 384.5,114.5 385.3,122.1 386.2,120.9 387.0,126.4 387.8,126.4 388.7,112.4 389.5,129.1 390.4,114.1 391.2,118.7 392.0,105.7 392.9,123.4 393.7,119.7 394.6,108.3 395.4,108.4 396.2,118.6 397.1,109.4 397.9,111.9 398.8,100.0 399.6,113.8 400.5,108.1 401.3,112.5 402.1,114.6 403.0,103.2 403.8,108.1 404.7,126.8 405.5,92.4 406.3,114.6 407.2,109.5 408.0,102.5 408.9,116.6 409.7,116.7 410.5,106.7 411.4,113.4 412.2,129.0 413.1,112.1 413.9,109.2 414.7,115.9 415.6,118.2 416.4,112.1 417.3,116.1 418.1,117.0 418.9,114.1 419.8,117.8 420.6,97.0 421.5,115.7 422.3,113.5 423.2,99.8 424.0,113.3 424.8,122.3 425.7,108.5 426.5,102.3 427.4,115.1 428.2,90.3 429.0,108.2 429.9,110.4 430.7,118.3 431.6,101.3 432.4,114.9 433.2,101.5 434.1,109.7 434.9,116.3 435.8,103.4 436.6,108.7 437.4,98.2 438.3,110.3 439.1,122.1 440.0,107.3 440.8,125.2 441.7,112.1 442.5,111.1 443.3,106.9 444.2,118.8 445.0,120.1 445.9,113.1 446.7,118.3 447.5,123.2 448.4,122.3 449.2,89.6 450.1,126.7 450.9,113.2 451.7,122.6 452.6,90.5 453.4,106.7 454.3,111.2 455.1,130.6 455.9,118.3 456.8,122.5 457.6,120.8 458.5,103.3 459.3,123.2 460.2,109.7 461.0,100.8 461.8,103.7 462.7,111.4 463.5,106.5 464.4,98.6 465.2,97.4 466.0,106.5 466.9,132.7 467.7,117.0 468.6,110.2 469.4,120.0 470.2,117.8 471.1,107.0 471.9,116.9 472.8,115.8 473.6,110.7 474.4,104.1 475.3,111.4 476.1,118.9 477.0,108.5 477.8,107.5 478.6,110.7 479.5,108.5 480.3,101.9 481.2,122.4 482.0,107.4 482.9,110.4 483.7,98.4 484.5,115.3 485.4,117.7 486.2,106.7 487.1,104.5 487.9,110.2 488.7,100.9 489.6,118.9 490.4,113.4 491.3,110.7 492.1,101.9 492.9,95.5 493.8,105.0 494.6,108.0 495.5,108.6 496.3,104.1 497.1,126.8 498.0,100.5 498.8,115.6 499.7,114.8 500.5,118.1 501.4,113.2 502.2,102.6 503.0,104.8 503.9,109.7 504.7,107.9 505.6,99.6 506.4,106.1 507.2,99.3 508.1,110.5 508.9,105.9 509.8,95.3 510.6,101.5 511.4,108.9 512.3,89.8 513.1,111.9 514.0,110.6 514.8,103.9 515.6,96.6 516.5,109.4 517.3,105.6 518.2,91.0 519.0,95.6 519.8,121.0 520.7,120.6 521.5,111.9 522.4,124.3 523.2,114.6 524.1,105.8 524.9,97.6 525.7,98.5 526.6,120.3 527.4,99.9 528.3,109.3 529.1,98.1 529.9,101.6 530.8,100.9 531.6,104.1 532.5,110.7 533.3,105.9 534.1,115.2 535.0,107.3 535.8,116.7 536.7,113.1 537.5,104.5 538.3,118.6 539.2,108.9 540.0,102.9 540.9,106.9 541.7,108.2 542.6,110.9 543.4,106.9 544.2,101.3 545.1,97.2 545.9,109.8 546.8,114.3 547.6,103.7 548.4,92.5 549.3,120.6 550.1,107.5 551.0,102.7 551.8,104.8 552.6,92.4 553.5,124.6 554.3,100.3 555.2,91.4 556.0,121.5 556.8,104.8 557.7,95.4 558.5,89.5 559.4,105.9 560.2,114.0 561.1,107.3 561.9,92.1 562.7,111.5 563.6,107.9 564.4,91.5 565.3,95.8 566.1,91.0 566.9,101.8 567.8,99.3 568.6,96.7 569.5,96.6 570.3,95.1 571.1,111.3 572.0,97.7 572.8,100.7 573.7,96.8 574.5,105.9 575.3,111.5 576.2,109.0 577.0,98.6 577.9,107.8 578.7,102.5 579.5,99.6 580.4,114.0 581.2,109.0 582.1,101.9 582.9,92.1 583.8,96.2 584.6,116.2 585.4,105.0 586.3,95.4 587.1,98.2 588.0,90.3 588.8,98.7 589.6,104.9 590.5,100.2 591.3,117.8 592.2,110.8 593.0,95.0 593.8,106.2 594.7,90.7 595.5,94.5 596.4,117.5 597.2,108.6 598.0,113.0 598.9,91.6 599.7,106.6 600.6,96.9 601.4,107.2 602.3,108.3 603.1,102.5 603.9,110.5 604.8,102.6 605.6,102.1 606.5,110.5 607.3,117.3 608.1,98.5 609.0,87.0 609.8,105.4 610.7,101.8 611.5,97.7 612.3,112.8 613.2,110.5 614.0,95.9 614.9,87.7 615.7,103.8 616.5,118.1 617.4,101.7 618.2,108.2 619.1,113.0 619.9,102.8 620.8,105.5 621.6,90.8 622.4,89.6 623.3,114.6 624.1,91.3 625.0,84.7 625.8,98.7 626.6,96.9 627.5,104.3 628.3,102.6 629.2,106.0 630.0,106.1 630.8,103.3 631.7,104.8 632.5,98.1 633.4,100.5 634.2,106.0 635.0,95.7 635.9,108.2 636.7,106.0 637.6,96.3 638.4,91.7 639.2,99.3 640.1,107.4 640.9,107.8 641.8,89.8 642.6,110.2 643.5,110.8 644.3,109.0 645.1,99.0 646.0,126.6 646.8,99.1 647.7,99.7 648.5,113.3 649.3,111.3 650.2,89.0 651.0,99.2 651.9,103.5 652.7,112.4 653.5,114.9 654.4,102.3 655.2,98.4 656.1,100.2 656.9,102.6 657.7,100.0 658.6,96.8 659.4,97.8 660.3,100.2 661.1,98.5 662.0,86.0 662.8,96.0 663.6,104.7 664.5,87.1 665.3,103.3 666.2,111.3 667.0,90.1 667.8,101.6 668.7,103.3 669.5,97.4 670.4,96.5 671.2,108.7 672.0,101.5 672.9,103.6 673.7,89.0 674.6,92.6 675.4,96.5 676.2,95.4 677.1,101.8 677.9,91.6 678.8,93.4 679.6,95.1 680.5,99.8 681.3,90.7 682.1,100.2 683.0,114.4 683.8,110.0 684.7,97.0 685.5,117.1 686.3,100.4 687.2,100.4 688.0,108.8 688.9,89.3 689.7,93.0 690.5,96.4 691.4,111.6 692.2,108.4 693.1,105.6 693.9,102.8 694.7,100.8 695.6,94.0 696.4,104.7 697.3,83.1 698.1,97.6 698.9,88.1 699.8,101.8 700.6,90.3 701.5,102.4 702.3,95.0 703.2,98.2 704.0,102.2 704.8,91.8 705.7,91.7 706.5,89.1 707.4,92.9 708.2,94.4 709.0,108.0 709.9,101.7 710.7,103.7 711.6,97.1 712.4,96.3 713.2,100.8 714.1,90.6 714.9,105.6 715.8,92.8 716.6,97.0 717.4,99.7 718.3,112.1 719.1,97.7 720.0,90.8 720.8,107.4 721.7,96.0 722.5,95.9 723.3,77.9 724.2,85.5 725.0,88.6 725.9,107.9 726.7,107.0 727.5,91.9 728.4,94.6 729.2,79.3 730.1,89.8 730.9,98.0 731.7,102.2 732.6,103.1 733.4,103.2 734.3,95.2 735.1,93.9 735.9,112.1 736.8,97.9 737.6,97.7 738.5,84.4 739.3,98.8 740.2,98.3 741.0,99.5 741.8,84.1 742.7,87.0 743.5,93.0 744.4,99.6 745.2,94.8 746.0,99.4 746.9,99.6 747.7,99.1 748.6,98.8 749.4,102.1 750.2,98.4 751.1,110.1 751.9,103.1 752.8,91.5 753.6,96.8 754.4,97.2 755.3,100.3 756.1,110.3 757.0,99.5 757.8,87.1 758.6,115.6 759.5,101.8 760.3,104.3 761.2,99.4 762.0,99.2 762.9,108.2 763.7,100.8 764.5,105.8 765.4,108.5 766.2,105.0 767.1,104.2 767.9,82.9 768.7,105.5 769.6,94.5 770.4,105.8 771.3,101.5 772.1,102.9 772.9,81.6 773.8,89.0 774.6,97.5 775.5,86.3 776.3,102.1 777.1,104.6 778.0,99.1 778.8,105.0 779.7,91.1 780.5,96.5 781.4,79.6 782.2,105.9 783.0,104.4 783.9,105.2 784.7,99.1 785.6,91.4 786.4,88.4 787.2,88.0 788.1,100.3 788.9,104.0 789.8,96.2 790.6,98.4 791.4,91.8 792.3,96.0 793.1,103.2 794.0,94.1 794.8,103.8 795.6,101.3 796.5,92.7 797.3,99.2 798.2,103.4 799.0,97.2 799.8,102.9 800.7,84.2 801.5,79.9 802.4,100.5 803.2,93.1 804.1,98.0 804.9,90.0 805.7,100.2 806.6,100.7 807.4,100.4 808.3,95.5 809.1,87.4 809.9,105.4 810.8,90.3 811.6,78.4 812.5,98.2 813.3,101.4 814.1,94.1 815.0,94.5 815.8,106.2 816.7,107.7 817.5,89.9 818.3,85.7 819.2,88.0 820.0,81.9 820.9,104.2 821.7,107.6 822.6,85.8 823.4,90.3 824.2,87.9 825.1,104.2 825.9,91.6 826.8,93.0 827.6,98.1 828.4,101.1 829.3,92.2 830.1,106.4 831.0,106.9 831.8,110.4 832.6,103.4 833.5,107.9 834.3,105.8 835.2,100.3 836.0,94.8 836.8,87.2 837.7,77.5 838.5,89.9 839.4,95.8 840.2,96.8 841.1,90.0 841.9,89.9 842.7,95.5 843.6,96.9 844.4,103.0 845.3,78.2 846.1,86.1 846.9,89.7 847.8,97.2 848.6,93.7 849.5,86.0 850.3,103.5 851.1,87.4 852.0,85.5 852.8,85.9 853.7,105.0 854.5,91.0 855.3,99.7 856.2,93.6 857.0,90.6 857.9,93.2 858.7,84.9 859.5,97.1 860.4,87.9 861.2,92.6 862.1,104.5 862.9,106.7 863.8,96.7 864.6,97.4 865.4,97.2 866.3,93.6 867.1,111.8 868.0,84.8 868.8,97.9 869.6,83.7 870.5,99.0 871.3,83.6 872.2,90.4 873.0,101.0 873.8,88.5 874.7,94.4 875.5,92.7 876.4,98.2 877.2,80.5 878.0,87.1 878.9,87.4 879.7,109.3 880.6,91.8 881.4,96.6 882.3,78.5 883.1,94.0 883.9,95.1 884.8,93.0 885.6,105.9 886.5,99.1 887.3,81.5 888.1,97.2 889.0,100.9 889.8,100.5 890.7,97.1 891.5,91.4 892.3,95.3 893.2,104.4 894.0,96.9 894.9,100.5 895.7,92.8 896.5,87.9 897.4,96.5 898.2,99.1 899.1,84.4 899.9,104.0 900.8,101.2 901.6,95.8 902.4,88.4 903.3,84.4 904.1,81.3 905.0,93.9 905.8,90.9 906.6,83.9 907.5,104.5 908.3,100.6 909.2,103.1 910.0,102.0"/>
<line x1="730" y1="142" x2="754" y2="142" stroke="#ea580c" stroke-width="3"/>
<text x="762" y="147" font-family="Arial" font-size="13" fill="#111827">UCB c=2</text>
</svg>