<svg xmlns="http://www.w3.org/2000/svg" width="980" height="520" viewBox="0 0 980 520">
<rect width="100%" height="100%" fill="#ffffff"/>
<text x="70" y="34" font-family="Arial" font-size="24" font-weight="700" fill="#111827">Average Reward: 5 arms</text>
<line x1="70" y1="450" x2="910" y2="450" stroke="#111827" stroke-width="1"/>
<line x1="70" y1="70" x2="70" y2="450" stroke="#111827" stroke-width="1"/>
<text x="18" y="260.0" font-family="Arial" font-size="14" fill="#374151" transform="rotate(-90 18,260.0)">Average reward</text>
<text x="460.0" y="502" font-family="Arial" font-size="14" fill="#374151">Step</text>
<line x1="65" y1="450.0" x2="910" y2="450.0" stroke="#e5e7eb" stroke-width="1"/>
<text x="8" y="455.0" font-family="Arial" font-size="12" fill="#4b5563">-0.30</text>
<line x1="65" y1="374.0" x2="910" y2="374.0" stroke="#e5e7eb" stroke-width="1"/>
<text x="8" y="379.0" font-family="Arial" font-size="12" fill="#4b5563">0.02</text>
<line x1="65" y1="298.0" x2="910" y2="298.0" stroke="#e5e7eb" stroke-width="1"/>
<text x="8" y="303.0" font-family="Arial" font-size="12" fill="#4b5563">0.34</text>
<line x1="65" y1="222.0" x2="910" y2="222.0" stroke="#e5e7eb" stroke-width="1"/>
<text x="8" y="227.0" font-family="Arial" font-size="12" fill="#4b5563">0.66</text>
<line x1="65" y1="146.0" x2="910" y2="146.0" stroke="#e5e7eb" stroke-width="1"/>
<text x="8" y="151.0" font-family="Arial" font-size="12" fill="#4b5563">0.98</text>
<line x1="65" y1="70.0" x2="910" y2="70.0" stroke="#e5e7eb" stroke-width="1"/>
<text x="8" y="75.0" font-family="Arial" font-size="12" fill="#4b5563">1.30</text>
<polyline fill="none" stroke="#2563eb" stroke-width="2.2" points="70.0,373.3 70.8,387.8 71.7,387.5 72.5,347.3 73.4,402.3 74.2,378.5 75.0,396.2 75.9,398.8 76.7,363.9 77.6,351.4 78.4,356.5 79.2,381.8 80.1,391.7 80.9,406.7 81.8,361.5 82.6,408.0 83.5,363.2 84.3,376.3 85.1,397.5 86.0,360.4 86.8,382.7 87.7,371.2 88.5,386.3 89.3,362.5 90.2,364.2 91.0,362.9 91.9,384.3 92.7,372.9 93.5,371.3 94.4,380.4 95.2,393.4 96.1,378.3 96.9,391.0 97.7,395.1 98.6,376.2 99.4,363.6 100.3,371.1 101.1,372.8 102.0,373.0 102.8,406.5 103.6,380.5 104.5,376.5 105.3,376.2 106.2,370.4 107.0,371.2 107.8,354.0 108.7,389.5 109.5,385.0 110.4,371.9 111.2,346.1 112.0,390.1 112.9,363.6 113.7,367.0 114.6,391.4 115.4,389.3 116.2,365.1 117.1,384.5 117.9,356.0 118.8,374.4 119.6,375.8 120.5,396.4 121.3,400.2 122.1,388.0 123.0,384.2 123.8,359.0 124.7,362.1 125.5,370.2 126.3,387.1 127.2,366.2 128.0,356.4 128.9,381.6 129.7,361.4 130.5,395.7 131.4,377.3 132.2,363.5 133.1,402.6 133.9,401.8 134.7,383.4 135.6,380.5 136.4,366.7 137.3,361.8 138.1,387.8 138.9,376.7 139.8,382.7 140.6,389.8 141.5,376.0 142.3,387.3 143.2,380.9 144.0,384.9 144.8,387.9 145.7,383.1 146.5,404.2 147.4,364.8 148.2,403.5 149.0,384.1 149.9,386.0 150.7,374.7 151.6,386.7 152.4,344.1 153.2,369.1 154.1,387.5 154.9,396.7 155.8,376.5 156.6,388.2 157.4,388.8 158.3,365.2 159.1,385.1 160.0,365.3 160.8,372.9 161.7,370.5 162.5,403.2 163.3,372.3 164.2,404.3 165.0,375.1 165.9,398.3 166.7,392.8 167.5,388.2 168.4,361.6 169.2,379.0 170.1,396.2 170.9,401.2 171.7,381.5 172.6,381.6 173.4,373.2 174.3,400.2 175.1,379.5 175.9,356.6 176.8,382.2 177.6,343.1 178.5,375.8 179.3,388.4 180.2,367.1 181.0,380.5 181.8,378.4 182.7,386.9 183.5,403.2 184.4,383.2 185.2,346.0 186.0,367.0 186.9,363.6 187.7,384.0 188.6,383.0 189.4,387.8 190.2,366.2 191.1,362.0 191.9,374.1 192.8,376.3 193.6,388.6 194.4,401.7 195.3,381.6 196.1,387.4 197.0,369.9 197.8,367.4 198.6,400.4 199.5,394.1 200.3,386.8 201.2,374.4 202.0,391.4 202.9,363.7 203.7,368.2 204.5,373.6 205.4,395.9 206.2,367.4 207.1,366.7 207.9,355.6 208.7,407.6 209.6,358.5 210.4,376.3 211.3,383.9 212.1,379.2 212.9,367.0 213.8,383.4 214.6,386.1 215.5,368.8 216.3,373.9 217.1,392.4 218.0,399.0 218.8,396.1 219.7,368.4 220.5,390.5 221.4,386.1 222.2,373.5 223.0,375.4 223.9,379.3 224.7,401.6 225.6,367.3 226.4,349.9 227.2,375.1 228.1,390.6 228.9,382.6 229.8,375.7 230.6,370.1 231.4,393.6 232.3,406.5 233.1,380.8 234.0,379.4 234.8,343.9 235.6,377.8 236.5,381.2 237.3,361.7 238.2,362.9 239.0,407.7 239.8,395.8 240.7,375.3 241.5,378.6 242.4,391.1 243.2,383.8 244.1,362.5 244.9,348.6 245.7,383.0 246.6,374.7 247.4,387.0 248.3,366.1 249.1,371.2 249.9,390.3 250.8,365.7 251.6,407.3 252.5,365.7 253.3,373.2 254.1,374.5 255.0,365.7 255.8,384.1 256.7,380.7 257.5,397.1 258.3,368.9 259.2,392.8 260.0,375.0 260.9,372.4 261.7,351.3 262.6,380.1 263.4,397.1 264.2,369.3 265.1,367.8 265.9,370.1 266.8,377.4 267.6,383.3 268.4,381.5 269.3,381.7 270.1,389.9 271.0,366.8 271.8,378.3 272.6,374.1 273.5,346.7 274.3,363.9 275.2,377.1 276.0,355.8 276.8,373.8 277.7,368.4 278.5,393.3 279.4,387.5 280.2,382.7 281.1,380.6 281.9,363.0 282.7,383.0 283.6,395.1 284.4,361.1 285.3,368.7 286.1,363.9 286.9,382.7 287.8,405.1 288.6,389.7 289.5,386.4 290.3,376.4 291.1,362.4 292.0,379.4 292.8,370.2 293.7,367.5 294.5,373.5 295.3,374.7 296.2,399.9 297.0,383.6 297.9,371.3 298.7,399.9 299.5,398.3 300.4,392.7 301.2,373.2 302.1,377.2 302.9,360.5 303.8,397.0 304.6,389.3 305.4,392.3 306.3,367.4 307.1,401.8 308.0,383.8 308.8,403.7 309.6,383.0 310.5,388.4 311.3,381.7 312.2,377.2 313.0,405.4 313.8,402.1 314.7,368.2 315.5,382.6 316.4,390.1 317.2,372.4 318.0,382.0 318.9,358.3 319.7,366.0 320.6,384.3 321.4,354.8 322.3,362.3 323.1,362.3 323.9,363.7 324.8,370.0 325.6,390.8 326.5,360.2 327.3,397.8 328.1,373.3 329.0,382.5 329.8,367.9 330.7,350.9 331.5,380.3 332.3,379.9 333.2,384.8 334.0,383.2 334.9,401.0 335.7,365.4 336.5,389.8 337.4,380.4 338.2,395.5 339.1,357.8 339.9,382.0 340.8,399.6 341.6,376.8 342.4,402.9 343.3,399.0 344.1,396.2 345.0,378.3 345.8,428.6 346.6,358.8 347.5,369.6 348.3,374.6 349.2,369.4 350.0,377.7 350.8,340.0 351.7,371.7 352.5,396.9 353.4,385.1 354.2,395.7 355.0,355.3 355.9,363.1 356.7,380.7 357.6,354.5 358.4,364.1 359.2,385.7 360.1,386.8 360.9,377.4 361.8,376.7 362.6,386.2 363.5,393.4 364.3,363.6 365.1,386.0 366.0,412.0 366.8,387.0 367.7,392.4 368.5,364.6 369.3,367.3 370.2,391.1 371.0,387.4 371.9,393.6 372.7,361.4 373.5,377.2 374.4,382.1 375.2,400.4 376.1,397.4 376.9,361.3 377.7,378.7 378.6,346.1 379.4,399.3 380.3,369.7 381.1,372.2 382.0,375.3 382.8,366.3 383.6,380.9 384.5,400.6 385.3,377.1 386.2,371.2 387.0,370.9 387.8,387.4 388.7,361.9 389.5,368.5 390.4,354.7 391.2,405.0 392.0,364.2 392.9,399.8 393.7,398.4 394.6,366.9 395.4,404.9 396.2,400.1 397.1,380.5 397.9,390.3 398.8,364.6 399.6,385.1 400.5,396.0 401.3,372.0 402.1,409.4 403.0,384.5 403.8,369.5 404.7,360.7 405.5,381.4 406.3,383.7 407.2,366.7 408.0,379.8 408.9,365.4 409.7,368.1 410.5,390.6 411.4,387.7 412.2,364.1 413.1,401.8 413.9,394.9 414.7,383.6 415.6,388.1 416.4,382.1 417.3,373.4 418.1,387.1 418.9,375.8 419.8,381.1 420.6,367.2 421.5,384.6 422.3,376.0 423.2,365.2 424.0,390.1 424.8,390.4 425.7,386.4 426.5,380.8 427.4,377.7 428.2,390.0 429.0,384.2 429.9,386.1 430.7,356.8 431.6,357.9 432.4,357.5 433.2,394.6 434.1,390.2 434.9,380.3 435.8,379.0 436.6,362.8 437.4,374.6 438.3,375.9 439.1,371.5 440.0,382.3 440.8,372.6 441.7,398.2 442.5,403.9 443.3,387.8 444.2,379.0 445.0,377.3 445.9,401.4 446.7,377.6 447.5,387.6 448.4,363.4 449.2,395.2 450.1,379.2 450.9,373.7 451.7,417.2 452.6,375.1 453.4,367.9 454.3,386.7 455.1,394.2 455.9,392.5 456.8,390.9 457.6,408.7 458.5,343.6 459.3,386.9 460.2,385.0 461.0,396.7 461.8,378.6 462.7,383.1 463.5,395.7 464.4,373.2 465.2,367.5 466.0,376.6 466.9,396.4 467.7,370.2 468.6,390.9 469.4,376.4 470.2,363.4 471.1,382.2 471.9,343.1 472.8,392.3 473.6,387.0 474.4,383.0 475.3,373.7 476.1,382.9 477.0,381.3 477.8,370.1 478.6,358.5 479.5,401.0 480.3,387.3 481.2,377.4 482.0,379.9 482.9,380.2 483.7,369.6 484.5,369.1 485.4,401.5 486.2,383.3 487.1,387.1 487.9,382.0 488.7,384.2 489.6,358.3 490.4,391.6 491.3,356.2 492.1,385.1 492.9,376.2 493.8,357.8 494.6,399.6 495.5,386.1 496.3,379.4 497.1,394.1 498.0,366.9 498.8,383.6 499.7,386.6 500.5,369.6 501.4,371.9 502.2,359.5 503.0,370.4 503.9,358.6 504.7,361.5 505.6,346.4 506.4,378.5 507.2,379.7 508.1,370.8 508.9,353.9 509.8,381.1 510.6,361.1 511.4,353.6 512.3,392.9 513.1,373.4 514.0,388.1 514.8,359.2 515.6,372.3 516.5,408.3 517.3,379.3 518.2,408.9 519.0,371.7 519.8,374.7 520.7,388.8 521.5,430.2 522.4,370.7 523.2,377.9 524.1,375.2 524.9,369.4 525.7,358.9 526.6,387.8 527.4,399.1 528.3,405.0 529.1,392.9 529.9,373.1 530.8,379.6 531.6,361.6 532.5,359.3 533.3,364.5 534.1,380.4 535.0,396.3 535.8,355.6 536.7,377.6 537.5,392.0 538.3,399.2 539.2,391.9 540.0,369.1 540.9,358.1 541.7,371.0 542.6,398.6 543.4,368.8 544.2,393.0 545.1,377.8 545.9,379.4 546.8,356.9 547.6,387.8 548.4,384.2 549.3,370.7 550.1,390.0 551.0,379.2 551.8,385.4 552.6,380.9 553.5,376.6 554.3,399.7 555.2,371.4 556.0,380.6 556.8,384.9 557.7,371.0 558.5,364.8 559.4,372.3 560.2,387.9 561.1,369.0 561.9,372.4 562.7,391.3 563.6,376.5 564.4,380.4 565.3,378.9 566.1,368.5 566.9,392.1 567.8,369.5 568.6,394.1 569.5,389.2 570.3,376.7 571.1,389.6 572.0,367.2 572.8,376.7 573.7,407.4 574.5,404.6 575.3,356.8 576.2,358.5 577.0,372.4 577.9,376.3 578.7,390.3 579.5,401.4 580.4,375.6 581.2,403.6 582.1,371.3 582.9,378.4 583.8,377.0 584.6,390.7 585.4,352.5 586.3,379.1 587.1,373.0 588.0,366.8 588.8,408.7 589.6,396.0 590.5,401.6 591.3,403.0 592.2,377.4 593.0,385.8 593.8,389.2 594.7,365.8 595.5,391.3 596.4,395.3 597.2,368.2 598.0,360.2 598.9,394.9 599.7,406.8 600.6,395.1 601.4,371.2 602.3,390.9 603.1,354.8 603.9,372.0 604.8,395.7 605.6,393.1 606.5,405.8 607.3,409.6 608.1,397.1 609.0,355.0 609.8,401.5 610.7,374.8 611.5,394.9 612.3,362.5 613.2,360.6 614.0,387.4 614.9,376.1 615.7,370.1 616.5,371.6 617.4,389.4 618.2,383.9 619.1,366.2 619.9,370.5 620.8,359.7 621.6,382.5 622.4,388.0 623.3,393.8 624.1,400.9 625.0,382.0 625.8,358.2 626.6,357.3 627.5,374.7 628.3,357.4 629.2,350.0 630.0,385.4 630.8,388.3 631.7,362.2 632.5,386.1 633.4,370.8 634.2,352.8 635.0,395.3 635.9,354.4 636.7,372.8 637.6,355.2 638.4,394.5 639.2,390.7 640.1,398.2 640.9,360.9 641.8,399.9 642.6,373.6 643.5,378.8 644.3,388.3 645.1,368.6 646.0,384.6 646.8,413.4 647.7,365.9 648.5,375.7 649.3,372.1 650.2,371.4 651.0,381.9 651.9,361.0 652.7,368.5 653.5,398.6 654.4,376.0 655.2,350.1 656.1,385.1 656.9,367.9 657.7,387.3 658.6,374.3 659.4,357.1 660.3,378.1 661.1,374.7 662.0,371.2 662.8,363.9 663.6,382.7 664.5,387.8 665.3,379.7 666.2,402.8 667.0,408.4 667.8,353.7 668.7,368.2 669.5,353.0 670.4,357.7 671.2,389.2 672.0,385.1 672.9,388.9 673.7,405.8 674.6,388.8 675.4,371.7 676.2,386.0 677.1,392.9 677.9,381.8 678.8,383.4 679.6,401.0 680.5,367.8 681.3,405.3 682.1,384.2 683.0,378.5 683.8,402.9 684.7,394.3 685.5,379.9 686.3,369.3 687.2,399.1 688.0,374.5 688.9,374.7 689.7,403.4 690.5,381.0 691.4,398.6 692.2,377.4 693.1,383.9 693.9,381.1 694.7,386.8 695.6,399.9 696.4,388.6 697.3,404.0 698.1,374.0 698.9,363.3 699.8,389.0 700.6,392.6 701.5,347.4 702.3,387.2 703.2,361.4 704.0,394.2 704.8,375.7 705.7,398.8 706.5,390.0 707.4,366.5 708.2,376.3 709.0,367.5 709.9,393.5 710.7,384.0 711.6,378.6 712.4,349.1 713.2,376.3 714.1,402.7 714.9,375.4 715.8,360.2 716.6,408.2 717.4,389.5 718.3,361.6 719.1,380.8 720.0,370.2 720.8,348.3 721.7,368.3 722.5,384.9 723.3,387.3 724.2,374.5 725.0,380.7 725.9,376.4 726.7,360.6 727.5,374.9 728.4,354.8 729.2,381.6 730.1,375.5 730.9,383.9 731.7,361.4 732.6,375.9 733.4,377.3 734.3,390.2 735.1,371.0 735.9,368.0 736.8,387.0 737.6,369.8 738.5,372.2 739.3,409.4 740.2,384.9 741.0,360.4 741.8,377.2 742.7,387.0 743.5,389.6 744.4,345.0 745.2,369.9 746.0,365.8 746.9,360.6 747.7,375.9 748.6,378.5 749.4,374.3 750.2,389.7 751.1,399.5 751.9,377.4 752.8,371.5 753.6,384.2 754.4,383.0 755.3,406.9 756.1,351.5 757.0,381.5 757.8,398.0 758.6,373.8 759.5,366.1 760.3,390.2 761.2,369.5 762.0,407.3 762.9,351.4 763.7,389.3 764.5,384.1 765.4,406.1 766.2,382.6 767.1,345.3 767.9,343.8 768.7,381.0 769.6,392.5 770.4,392.9 771.3,369.3 772.1,382.6 772.9,367.8 773.8,363.5 774.6,364.6 775.5,383.8 776.3,378.4 777.1,383.1 778.0,393.7 778.8,384.7 779.7,367.5 780.5,394.5 781.4,371.1 782.2,378.4 783.0,373.0 783.9,360.1 784.7,368.7 785.6,349.9 786.4,395.2 787.2,398.1 788.1,372.5 788.9,403.0 789.8,387.3 790.6,388.3 791.4,388.9 792.3,377.0 793.1,372.6 794.0,371.0 794.8,388.9 795.6,366.3 796.5,364.0 797.3,398.1 798.2,398.1 799.0,384.7 799.8,392.2 800.7,392.5 801.5,376.8 802.4,379.9 803.2,395.2 804.1,383.2 804.9,401.0 805.7,394.2 806.6,349.4 807.4,364.0 808.3,344.7 809.1,369.7 809.9,348.6 810.8,346.0 811.6,388.5 812.5,358.3 813.3,375.9 814.1,362.6 815.0,363.2 815.8,364.2 816.7,390.5 817.5,382.9 818.3,392.2 819.2,362.0 820.0,361.4 820.9,373.4 821.7,353.3 822.6,373.5 823.4,386.9 824.2,385.3 825.1,402.5 825.9,375.9 826.8,402.9 827.6,365.7 828.4,361.7 829.3,396.2 830.1,377.4 831.0,409.2 831.8,377.5 832.6,402.7 833.5,374.5 834.3,383.0 835.2,379.5 836.0,378.9 836.8,393.8 837.7,389.9 838.5,361.9 839.4,362.4 840.2,390.9 841.1,369.7 841.9,380.2 842.7,372.5 843.6,359.4 844.4,406.8 845.3,400.1 846.1,361.2 846.9,406.0 847.8,370.0 848.6,372.4 849.5,392.8 850.3,376.9 851.1,384.3 852.0,384.4 852.8,393.8 853.7,404.5 854.5,378.8 855.3,366.7 856.2,382.5 857.0,387.9 857.9,367.8 858.7,389.8 859.5,398.3 860.4,388.8 861.2,379.0 862.1,391.5 862.9,385.5 863.8,358.9 864.6,361.4 865.4,369.1 866.3,363.7 867.1,379.2 868.0,395.0 868.8,380.5 869.6,390.2 870.5,393.3 871.3,379.2 872.2,378.2 873.0,381.8 873.8,358.0 874.7,376.6 875.5,376.7 876.4,378.2 877.2,381.8 878.0,386.6 878.9,364.9 879.7,390.7 880.6,374.1 881.4,365.7 882.3,394.3 883.1,369.7 883.9,370.3 884.8,361.1 885.6,391.5 886.5,371.0 887.3,390.3 888.1,388.3 889.0,338.6 889.8,391.0 890.7,360.6 891.5,372.1 892.3,387.1 893.2,399.8 894.0,386.4 894.9,395.5 895.7,398.8 896.5,365.4 897.4,373.9 898.2,376.5 899.1,386.2 899.9,385.3 900.8,372.3 901.6,394.6 902.4,394.8 903.3,389.8 904.1,391.7 905.0,394.5 905.8,354.5 906.6,358.3 907.5,363.7 908.3,382.8 909.2,406.2 910.0,368.8"/>
<line x1="730" y1="54" x2="754" y2="54" stroke="#2563eb" stroke-width="3"/>
<text x="762" y="59" font-family="Arial" font-size="13" fill="#111827">Random</text>
<polyline fill="none" stroke="#16a34a" stroke-width="2.2" points="70.0,345.5 70.8,295.3 71.7,279.1 72.5,254.3 73.4,232.8 74.2,191.1 75.0,209.8 75.9,200.7 76.7,189.6 77.6,152.0 78.4,193.5 79.2,178.2 80.1,163.1 80.9,152.0 81.8,168.4 82.6,170.4 83.5,172.3 84.3,183.3 85.1,159.0 86.0,169.5 86.8,169.7 87.7,152.7 88.5,166.7 89.3,179.6 90.2,171.4 91.0,159.1 91.9,157.4 92.7,168.2 93.5,162.5 94.4,158.4 95.2,169.1 96.1,166.5 96.9,147.8 97.7,162.3 98.6,177.5 99.4,159.4 100.3,174.6 101.1,171.5 102.0,148.4 102.8,164.6 103.6,159.0 104.5,164.3 105.3,174.6 106.2,162.1 107.0,157.3 107.8,160.6 108.7,173.4 109.5,168.0 110.4,167.9 111.2,170.3 112.0,165.2 112.9,171.0 113.7,168.7 114.6,157.9 115.4,152.3 116.2,158.5 117.1,171.1 117.9,149.8 118.8,162.3 119.6,153.5 120.5,156.8 121.3,158.0 122.1,157.2 123.0,182.0 123.8,158.3 124.7,151.5 125.5,161.4 126.3,156.7 127.2,165.6 128.0,159.2 128.9,142.7 129.7,160.1 130.5,151.7 131.4,161.8 132.2,171.3 133.1,149.8 133.9,176.2 134.7,165.5 135.6,129.1 136.4,155.5 137.3,160.1 138.1,165.7 138.9,146.2 139.8,159.0 140.6,182.9 141.5,191.9 142.3,156.5 143.2,170.8 144.0,172.7 144.8,155.6 145.7,170.3 146.5,160.0 147.4,170.6 148.2,161.4 149.0,168.0 149.9,162.3 150.7,158.2 151.6,143.5 152.4,164.8 153.2,165.5 154.1,151.3 154.9,172.1 155.8,152.1 156.6,167.9 157.4,158.8 158.3,176.5 159.1,145.0 160.0,149.3 160.8,163.1 161.7,177.6 162.5,144.1 163.3,165.9 164.2,139.5 165.0,160.1 165.9,168.3 166.7,143.9 167.5,176.4 168.4,165.4 169.2,158.7 170.1,190.9 170.9,160.5 171.7,159.2 172.6,173.3 173.4,168.5 174.3,168.4 175.1,161.3 175.9,161.1 176.8,157.7 177.6,160.4 178.5,148.0 179.3,150.5 180.2,147.1 181.0,157.8 181.8,152.8 182.7,178.0 183.5,164.1 184.4,154.9 185.2,146.9 186.0,166.2 186.9,148.8 187.7,152.0 188.6,169.9 189.4,157.6 190.2,160.2 191.1,157.1 191.9,158.6 192.8,156.5 193.6,163.6 194.4,166.1 195.3,149.9 196.1,160.4 197.0,174.0 197.8,131.8 198.6,168.7 199.5,152.7 200.3,168.9 201.2,163.9 202.0,159.8 202.9,173.4 203.7,156.4 204.5,170.5 205.4,155.4 206.2,169.0 207.1,163.5 207.9,161.5 208.7,160.2 209.6,165.5 210.4,148.8 211.3,161.7 212.1,181.9 212.9,143.3 213.8,158.9 214.6,171.7 215.5,147.5 216.3,164.8 217.1,166.7 218.0,175.0 218.8,152.9 219.7,170.6 220.5,151.5 221.4,171.4 222.2,168.4 223.0,172.1 223.9,153.5 224.7,180.9 225.6,149.0 226.4,161.3 227.2,157.5 228.1,177.1 228.9,170.1 229.8,154.5 230.6,163.8 231.4,147.2 232.3,157.6 233.1,162.6 234.0,152.3 234.8,144.7 235.6,152.8 236.5,148.8 237.3,168.4 238.2,160.5 239.0,163.5 239.8,159.0 240.7,167.4 241.5,166.5 242.4,157.2 243.2,158.2 244.1,151.8 244.9,165.5 245.7,170.0 246.6,158.4 247.4,172.6 248.3,138.5 249.1,148.5 249.9,171.8 250.8,158.7 251.6,166.1 252.5,154.1 253.3,163.3 254.1,161.4 255.0,167.7 255.8,166.1 256.7,158.7 257.5,174.3 258.3,154.7 259.2,156.9 260.0,173.9 260.9,152.4 261.7,156.5 262.6,153.5 263.4,146.3 264.2,180.2 265.1,164.3 265.9,148.0 266.8,154.0 267.6,167.6 268.4,159.8 269.3,155.9 270.1,150.1 271.0,156.4 271.8,140.1 272.6,152.6 273.5,154.8 274.3,164.5 275.2,135.1 276.0,185.3 276.8,163.0 277.7,163.5 278.5,171.2 279.4,175.3 280.2,146.3 281.1,173.3 281.9,170.9 282.7,157.5 283.6,151.7 284.4,164.9 285.3,137.0 286.1,150.4 286.9,152.8 287.8,140.9 288.6,152.2 289.5,160.7 290.3,156.1 291.1,179.9 292.0,168.6 292.8,163.6 293.7,147.8 294.5,159.1 295.3,161.7 296.2,157.9 297.0,175.9 297.9,160.3 298.7,159.5 299.5,162.9 300.4,162.1 301.2,156.7 302.1,172.2 302.9,178.9 303.8,169.0 304.6,169.6 305.4,152.9 306.3,166.4 307.1,147.4 308.0,167.5 308.8,165.4 309.6,151.3 310.5,165.0 311.3,182.3 312.2,168.1 313.0,175.2 313.8,153.7 314.7,163.1 315.5,148.0 316.4,172.3 317.2,151.5 318.0,166.7 318.9,153.2 319.7,165.4 320.6,163.5 321.4,158.2 322.3,159.8 323.1,180.0 323.9,161.1 324.8,156.6 325.6,187.3 326.5,174.0 327.3,140.5 328.1,165.5 329.0,150.2 329.8,152.6 330.7,136.4 331.5,127.3 332.3,148.4 333.2,168.0 334.0,158.1 334.9,166.9 335.7,147.1 336.5,151.7 337.4,144.6 338.2,167.7 339.1,177.1 339.9,152.4 340.8,160.7 341.6,155.4 342.4,155.3 343.3,161.4 344.1,165.2 345.0,166.0 345.8,141.6 346.6,165.3 347.5,145.2 348.3,150.8 349.2,160.0 350.0,167.6 350.8,145.4 351.7,167.3 352.5,158.4 353.4,180.1 354.2,160.4 355.0,152.2 355.9,159.6 356.7,156.6 357.6,182.6 358.4,164.6 359.2,169.0 360.1,158.6 360.9,158.9 361.8,163.3 362.6,162.3 363.5,147.9 364.3,163.7 365.1,159.7 366.0,155.6 366.8,169.2 367.7,165.0 368.5,165.3 369.3,179.2 370.2,163.5 371.0,168.1 371.9,165.1 372.7,158.5 373.5,164.1 374.4,170.5 375.2,167.6 376.1,158.4 376.9,132.6 377.7,158.1 378.6,154.2 379.4,155.8 380.3,159.1 381.1,149.5 382.0,154.5 382.8,167.9 383.6,155.2 384.5,161.8 385.3,163.4 386.2,156.1 387.0,150.6 387.8,162.2 388.7,162.8 389.5,143.3 390.4,166.0 391.2,159.1 392.0,150.1 392.9,168.0 393.7,172.0 394.6,163.5 395.4,124.1 396.2,148.8 397.1,168.0 397.9,147.8 398.8,159.0 399.6,159.7 400.5,171.8 401.3,176.9 402.1,162.5 403.0,159.6 403.8,154.7 404.7,171.2 405.5,145.7 406.3,161.8 407.2,161.1 408.0,166.3 408.9,161.1 409.7,149.5 410.5,153.2 411.4,160.3 412.2,155.0 413.1,165.5 413.9,159.2 414.7,171.5 415.6,149.8 416.4,183.2 417.3,153.5 418.1,161.7 418.9,155.1 419.8,148.0 420.6,162.1 421.5,148.9 422.3,167.4 423.2,147.1 424.0,163.0 424.8,144.0 425.7,162.2 426.5,168.6 427.4,166.5 428.2,155.9 429.0,144.8 429.9,151.9 430.7,175.8 431.6,147.9 432.4,150.9 433.2,163.6 434.1,153.6 434.9,147.2 435.8,158.8 436.6,175.8 437.4,166.1 438.3,157.2 439.1,158.3 440.0,165.9 440.8,148.8 441.7,171.1 442.5,151.5 443.3,157.0 444.2,133.0 445.0,173.8 445.9,156.3 446.7,143.1 447.5,161.9 448.4,143.5 449.2,157.4 450.1,159.5 450.9,146.1 451.7,162.0 452.6,148.4 453.4,164.4 454.3,155.9 455.1,155.0 455.9,160.3 456.8,174.0 457.6,181.6 458.5,168.3 459.3,162.4 460.2,153.5 461.0,162.7 461.8,168.4 462.7,153.8 463.5,165.8 464.4,170.1 465.2,155.7 466.0,150.8 466.9,147.3 467.7,164.4 468.6,159.6 469.4,175.2 470.2,149.9 471.1,163.5 471.9,163.3 472.8,168.7 473.6,145.4 474.4,150.4 475.3,183.8 476.1,162.5 477.0,165.7 477.8,167.2 478.6,157.2 479.5,172.2 480.3,158.7 481.2,156.2 482.0,173.2 482.9,156.1 483.7,152.2 484.5,143.8 485.4,162.3 486.2,160.6 487.1,163.1 487.9,161.1 488.7,146.3 489.6,152.6 490.4,169.4 491.3,168.6 492.1,158.8 492.9,159.3 493.8,161.3 494.6,172.1 495.5,163.3 496.3,137.2 497.1,153.0 498.0,169.3 498.8,154.1 499.7,164.6 500.5,152.9 501.4,158.8 502.2,158.4 503.0,174.5 503.9,146.6 504.7,155.5 505.6,156.7 506.4,189.1 507.2,158.7 508.1,148.5 508.9,170.3 509.8,169.6 510.6,160.4 511.4,151.8 512.3,166.3 513.1,159.3 514.0,171.9 514.8,176.1 515.6,166.5 516.5,163.6 517.3,143.5 518.2,164.9 519.0,155.6 519.8,159.5 520.7,156.0 521.5,182.7 522.4,171.0 523.2,165.9 524.1,157.5 524.9,151.6 525.7,157.9 526.6,153.6 527.4,163.9 528.3,155.1 529.1,170.3 529.9,167.0 530.8,143.2 531.6,172.8 532.5,171.1 533.3,144.6 534.1,152.6 535.0,156.4 535.8,174.4 536.7,193.7 537.5,161.2 538.3,156.6 539.2,166.8 540.0,165.3 540.9,167.0 541.7,152.5 542.6,141.8 543.4,161.8 544.2,148.1 545.1,169.7 545.9,169.7 546.8,155.0 547.6,166.4 548.4,169.0 549.3,169.1 550.1,150.5 551.0,161.1 551.8,158.3 552.6,145.8 553.5,157.3 554.3,170.8 555.2,161.5 556.0,134.7 556.8,168.7 557.7,146.7 558.5,164.3 559.4,159.2 560.2,168.7 561.1,142.6 561.9,168.9 562.7,149.8 563.6,149.8 564.4,156.7 565.3,157.8 566.1,182.4 566.9,168.4 567.8,160.2 568.6,146.2 569.5,150.9 570.3,143.6 571.1,150.7 572.0,148.8 572.8,166.1 573.7,160.4 574.5,157.7 575.3,162.5 576.2,168.7 577.0,173.9 577.9,151.7 578.7,149.5 579.5,153.7 580.4,151.2 581.2,168.3 582.1,166.2 582.9,162.7 583.8,149.5 584.6,164.0 585.4,145.8 586.3,164.8 587.1,167.3 588.0,150.3 588.8,167.0 589.6,157.7 590.5,175.5 591.3,156.1 592.2,164.6 593.0,149.3 593.8,159.3 594.7,150.9 595.5,166.3 596.4,153.6 597.2,145.1 598.0,146.8 598.9,166.2 599.7,154.7 600.6,167.8 601.4,167.1 602.3,177.9 603.1,142.6 603.9,167.6 604.8,132.4 605.6,172.6 606.5,170.2 607.3,160.5 608.1,158.3 609.0,175.8 609.8,171.9 610.7,166.2 611.5,165.0 612.3,180.2 613.2,162.7 614.0,178.2 614.9,159.1 615.7,156.4 616.5,168.3 617.4,161.1 618.2,170.2 619.1,141.7 619.9,168.3 620.8,153.8 621.6,158.8 622.4,156.3 623.3,160.9 624.1,147.1 625.0,165.3 625.8,181.6 626.6,148.3 627.5,152.5 628.3,163.7 629.2,162.0 630.0,147.4 630.8,169.9 631.7,143.9 632.5,157.3 633.4,157.6 634.2,172.4 635.0,158.3 635.9,165.1 636.7,156.3 637.6,146.5 638.4,144.8 639.2,154.2 640.1,165.0 640.9,161.0 641.8,147.8 642.6,152.5 643.5,160.5 644.3,162.0 645.1,166.7 646.0,160.3 646.8,168.5 647.7,159.6 648.5,150.9 649.3,143.9 650.2,142.9 651.0,159.9 651.9,168.7 652.7,139.9 653.5,167.5 654.4,173.1 655.2,170.5 656.1,173.9 656.9,156.2 657.7,161.5 658.6,173.0 659.4,165.7 660.3,137.8 661.1,151.2 662.0,160.1 662.8,174.8 663.6,147.4 664.5,151.7 665.3,149.8 666.2,173.6 667.0,164.3 667.8,175.8 668.7,117.1 669.5,145.8 670.4,144.6 671.2,158.9 672.0,164.4 672.9,166.6 673.7,155.6 674.6,161.0 675.4,176.2 676.2,162.5 677.1,154.6 677.9,159.8 678.8,150.4 679.6,144.7 680.5,166.2 681.3,159.8 682.1,165.5 683.0,178.8 683.8,137.7 684.7,179.5 685.5,160.6 686.3,158.2 687.2,174.5 688.0,159.1 688.9,137.3 689.7,161.8 690.5,141.2 691.4,168.3 692.2,145.3 693.1,169.8 693.9,178.8 694.7,170.0 695.6,167.3 696.4,165.7 697.3,162.3 698.1,155.7 698.9,142.1 699.8,137.6 700.6,150.4 701.5,155.0 702.3,139.4 703.2,154.5 704.0,178.2 704.8,160.5 705.7,146.7 706.5,138.6 707.4,147.0 708.2,145.4 709.0,159.7 709.9,166.7 710.7,164.9 711.6,157.0 712.4,163.7 713.2,164.6 714.1,156.8 714.9,157.9 715.8,162.8 716.6,145.7 717.4,152.7 718.3,137.9 719.1,148.7 720.0,166.6 720.8,170.2 721.7,164.2 722.5,158.1 723.3,158.8 724.2,156.0 725.0,159.5 725.9,144.4 726.7,173.6 727.5,157.4 728.4,171.3 729.2,152.9 730.1,157.4 730.9,160.1 731.7,156.3 732.6,160.6 733.4,171.6 734.3,149.9 735.1,160.3 735.9,150.6 736.8,174.7 737.6,168.3 738.5,131.8 739.3,183.9 740.2,150.6 741.0,168.8 741.8,161.0 742.7,155.3 743.5,178.3 744.4,141.6 745.2,143.2 746.0,172.6 746.9,161.2 747.7,173.0 748.6,145.0 749.4,144.5 750.2,160.4 751.1,151.4 751.9,147.3 752.8,164.7 753.6,157.5 754.4,149.1 755.3,170.5 756.1,167.2 757.0,170.2 757.8,168.0 758.6,175.4 759.5,155.0 760.3,168.7 761.2,171.1 762.0,155.4 762.9,156.4 763.7,149.7 764.5,138.8 765.4,170.5 766.2,174.9 767.1,146.7 767.9,155.5 768.7,159.2 769.6,154.6 770.4,152.3 771.3,148.0 772.1,145.7 772.9,170.5 773.8,158.7 774.6,157.5 775.5,168.4 776.3,155.6 777.1,177.8 778.0,146.8 778.8,169.7 779.7,161.4 780.5,162.1 781.4,158.5 782.2,149.5 783.0,168.0 783.9,140.5 784.7,158.2 785.6,145.7 786.4,166.7 787.2,162.3 788.1,153.7 788.9,163.4 789.8,179.0 790.6,170.0 791.4,160.0 792.3,164.4 793.1,153.6 794.0,165.3 794.8,164.6 795.6,162.7 796.5,167.6 797.3,150.3 798.2,157.3 799.0,165.0 799.8,169.9 800.7,166.3 801.5,174.5 802.4,170.2 803.2,156.7 804.1,146.4 804.9,158.1 805.7,127.8 806.6,161.2 807.4,141.9 808.3,151.1 809.1,152.6 809.9,167.6 810.8,162.1 811.6,140.8 812.5,152.1 813.3,155.0 814.1,148.1 815.0,162.4 815.8,169.7 816.7,178.3 817.5,160.0 818.3,152.1 819.2,169.0 820.0,157.9 820.9,169.5 821.7,139.0 822.6,161.0 823.4,164.7 824.2,153.0 825.1,139.8 825.9,162.7 826.8,161.3 827.6,156.2 828.4,153.7 829.3,165.8 830.1,154.7 831.0,147.3 831.8,166.6 832.6,158.7 833.5,166.9 834.3,175.2 835.2,154.6 836.0,143.3 836.8,153.3 837.7,178.3 838.5,147.2 839.4,167.4 840.2,155.9 841.1,161.3 841.9,138.2 842.7,166.4 843.6,146.2 844.4,175.3 845.3,168.2 846.1,172.2 846.9,165.6 847.8,156.8 848.6,176.8 849.5,151.0 850.3,157.3 851.1,161.3 852.0,152.1 852.8,146.6 853.7,150.3 854.5,166.8 855.3,145.5 856.2,173.2 857.0,158.1 857.9,152.2 858.7,153.7 859.5,150.4 860.4,159.1 861.2,174.5 862.1,150.0 862.9,169.8 863.8,143.9 864.6,168.4 865.4,168.7 866.3,170.6 867.1,166.4 868.0,159.9 868.8,146.2 869.6,162.6 870.5,148.4 871.3,154.8 872.2,149.0 873.0,166.7 873.8,175.9 874.7,187.5 875.5,163.2 876.4,154.9 877.2,177.6 878.0,151.1 878.9,164.3 879.7,169.9 880.6,174.4 881.4,146.5 882.3,165.5 883.1,171.4 883.9,155.5 884.8,167.8 885.6,160.6 886.5,154.0 887.3,150.4 888.1,166.0 889.0,144.2 889.8,163.2 890.7,181.0 891.5,177.3 892.3,160.9 893.2,156.4 894.0,149.2 894.9,144.1 895.7,166.6 896.5,162.3 897.4,152.4 898.2,153.7 899.1,156.8 899.9,184.2 900.8,182.1 901.6,161.0 902.4,156.0 903.3,160.9 904.1,168.4 905.0,164.2 905.8,175.5 906.6,160.5 907.5,148.4 908.3,146.5 909.2,146.0 910.0,158.0"/>
<line x1="730" y1="76" x2="754" y2="76" stroke="#16a34a" stroke-width="3"/>
<text x="762" y="81" font-family="Arial" font-size="13" fill="#111827">Greedy</text>
<polyline fill="none" stroke="#dc2626" stroke-width="2.2" points="70.0,364.0 70.8,301.6 71.7,275.4 72.5,239.7 73.4,205.5 74.2,209.0 75.0,195.9 75.9,185.6 76.7,188.3 77.6,172.4 78.4,180.6 79.2,190.2 80.1,180.7 80.9,182.1 81.8,177.7 82.6,168.6 83.5,171.5 84.3,145.9 85.1,161.4 86.0,205.5 86.8,175.6 87.7,161.5 88.5,188.5 89.3,154.1 90.2,178.2 91.0,177.4 91.9,174.1 92.7,176.1 93.5,154.1 94.4,161.6 95.2,176.6 96.1,161.3 96.9,167.4 97.7,163.0 98.6,164.2 99.4,161.0 100.3,182.9 101.1,177.6 102.0,156.9 102.8,175.8 103.6,148.7 104.5,167.5 105.3,184.0 106.2,147.6 107.0,152.8 107.8,170.0 108.7,153.0 109.5,164.8 110.4,155.6 111.2,170.8 112.0,164.3 112.9,166.5 113.7,156.8 114.6,173.2 115.4,151.7 116.2,146.8 117.1,175.5 117.9,150.7 118.8,170.4 119.6,173.9 120.5,144.2 121.3,172.6 122.1,167.7 123.0,158.5 123.8,160.3 124.7,164.6 125.5,141.6 126.3,179.1 127.2,165.6 128.0,168.1 128.9,146.3 129.7,156.7 130.5,168.2 131.4,175.8 132.2,167.0 133.1,155.7 133.9,140.8 134.7,168.5 135.6,169.6 136.4,174.5 137.3,140.6 138.1,168.7 138.9,147.0 139.8,169.4 140.6,173.2 141.5,175.9 142.3,141.3 143.2,168.2 144.0,146.7 144.8,162.1 145.7,164.7 146.5,133.8 147.4,167.0 148.2,179.6 149.0,168.5 149.9,153.2 150.7,162.3 151.6,161.0 152.4,142.9 153.2,155.0 154.1,172.2 154.9,143.4 155.8,138.9 156.6,172.6 157.4,144.8 158.3,156.6 159.1,154.0 160.0,167.7 160.8,170.0 161.7,162.5 162.5,171.9 163.3,147.6 164.2,168.6 165.0,168.3 165.9,156.0 166.7,156.7 167.5,163.5 168.4,154.5 169.2,145.9 170.1,141.6 170.9,151.7 171.7,164.5 172.6,154.8 173.4,154.8 174.3,168.5 175.1,163.6 175.9,162.2 176.8,132.1 177.6,148.3 178.5,147.7 179.3,151.1 180.2,146.9 181.0,157.5 181.8,152.3 182.7,160.3 183.5,156.2 184.4,150.3 185.2,160.8 186.0,171.6 186.9,149.6 187.7,143.5 188.6,145.5 189.4,163.4 190.2,145.4 191.1,151.2 191.9,152.3 192.8,172.6 193.6,149.5 194.4,154.7 195.3,149.0 196.1,150.9 197.0,152.6 197.8,161.1 198.6,158.4 199.5,155.5 200.3,155.2 201.2,137.4 202.0,160.8 202.9,150.3 203.7,176.1 204.5,167.4 205.4,166.6 206.2,152.3 207.1,170.7 207.9,137.6 208.7,163.5 209.6,164.5 210.4,155.7 211.3,144.8 212.1,161.4 212.9,130.9 213.8,149.7 214.6,148.5 215.5,161.7 216.3,147.1 217.1,170.2 218.0,141.3 218.8,164.3 219.7,158.7 220.5,134.3 221.4,150.5 222.2,147.1 223.0,160.5 223.9,160.2 224.7,148.7 225.6,159.2 226.4,141.6 227.2,150.7 228.1,171.2 228.9,148.6 229.8,161.2 230.6,150.1 231.4,174.7 232.3,171.4 233.1,160.1 234.0,157.9 234.8,152.1 235.6,144.6 236.5,138.1 237.3,138.0 238.2,156.8 239.0,149.1 239.8,159.2 240.7,170.7 241.5,150.3 242.4,135.4 243.2,148.7 244.1,154.6 244.9,147.2 245.7,154.0 246.6,146.7 247.4,140.2 248.3,160.4 249.1,153.5 249.9,176.2 250.8,124.3 251.6,161.6 252.5,166.2 253.3,153.5 254.1,139.1 255.0,141.1 255.8,160.6 256.7,140.0 257.5,156.4 258.3,156.7 259.2,147.7 260.0,140.9 260.9,147.9 261.7,147.9 262.6,142.0 263.4,169.6 264.2,151.0 265.1,145.6 265.9,142.2 266.8,147.4 267.6,148.3 268.4,142.7 269.3,139.9 270.1,150.8 271.0,166.2 271.8,118.9 272.6,138.1 273.5,142.0 274.3,161.3 275.2,147.2 276.0,135.8 276.8,133.4 277.7,129.9 278.5,162.3 279.4,149.0 280.2,151.5 281.1,148.5 281.9,162.4 282.7,143.8 283.6,154.5 284.4,134.1 285.3,154.5 286.1,149.4 286.9,151.8 287.8,141.5 288.6,147.2 289.5,152.7 290.3,138.4 291.1,145.9 292.0,145.1 292.8,153.4 293.7,145.7 294.5,139.9 295.3,161.1 296.2,150.0 297.0,129.4 297.9,150.7 298.7,134.6 299.5,136.8 300.4,143.4 301.2,154.2 302.1,150.7 302.9,138.4 303.8,142.0 304.6,134.4 305.4,154.5 306.3,145.9 307.1,149.3 308.0,153.1 308.8,138.2 309.6,166.3 310.5,137.2 311.3,152.7 312.2,146.8 313.0,138.8 313.8,145.5 314.7,138.4 315.5,145.0 316.4,131.9 317.2,144.9 318.0,143.1 318.9,146.3 319.7,137.4 320.6,132.1 321.4,140.6 322.3,158.6 323.1,132.9 323.9,138.2 324.8,157.8 325.6,151.1 326.5,163.3 327.3,161.3 328.1,139.7 329.0,156.4 329.8,150.6 330.7,139.8 331.5,140.2 332.3,143.0 333.2,154.4 334.0,141.7 334.9,150.1 335.7,127.6 336.5,148.2 337.4,135.4 338.2,139.0 339.1,147.4 339.9,126.1 340.8,132.7 341.6,139.7 342.4,148.9 343.3,136.3 344.1,139.1 345.0,140.2 345.8,129.3 346.6,123.9 347.5,144.9 348.3,129.9 349.2,140.0 350.0,144.7 350.8,127.6 351.7,153.9 352.5,140.6 353.4,144.3 354.2,143.0 355.0,143.3 355.9,155.3 356.7,136.4 357.6,151.5 358.4,131.7 359.2,140.6 360.1,152.4 360.9,157.3 361.8,140.5 362.6,127.6 363.5,153.8 364.3,140.4 365.1,153.6 366.0,143.3 366.8,141.5 367.7,138.8 368.5,141.0 369.3,147.0 370.2,130.6 371.0,144.6 371.9,139.3 372.7,157.9 373.5,150.3 374.4,147.0 375.2,127.2 376.1,155.7 376.9,135.3 377.7,143.4 378.6,141.1 379.4,146.3 380.3,158.3 381.1,153.1 382.0,147.7 382.8,130.2 383.6,138.3 384.5,140.8 385.3,145.5 386.2,160.9 387.0,153.6 387.8,149.6 388.7,144.1 389.5,159.4 390.4,145.6 391.2,157.3 392.0,146.3 392.9,151.7 393.7,154.9 394.6,136.9 395.4,136.5 396.2,143.7 397.1,167.4 397.9,123.8 398.8,152.2 399.6,143.9 400.5,144.5 401.3,149.6 402.1,146.2 403.0,165.1 403.8,133.7 404.7,141.1 405.5,145.1 406.3,137.2 407.2,145.4 408.0,136.0 408.9,127.5 409.7,148.7 410.5,147.3 411.4,124.4 412.2,150.3 413.1,136.1 413.9,154.6 414.7,143.9 415.6,139.5 416.4,142.4 417.3,149.0 418.1,144.6 418.9,132.1 419.8,127.5 420.6,157.7 421.5,147.1 422.3,120.3 423.2,125.8 424.0,158.8 424.8,141.8 425.7,137.2 426.5,134.7 427.4,149.1 428.2,161.8 429.0,142.2 429.9,156.6 430.7,136.4 431.6,148.1 432.4,153.3 433.2,130.6 434.1,148.5 434.9,134.5 435.8,136.6 436.6,144.5 437.4,118.6 438.3,155.1 439.1,121.3 440.0,153.9 440.8,143.3 441.7,127.2 442.5,146.6 443.3,144.5 444.2,143.8 445.0,129.5 445.9,134.6 446.7,162.0 447.5,128.8 448.4,119.5 449.2,138.5 450.1,145.3 450.9,155.3 451.7,148.6 452.6,142.5 453.4,134.4 454.3,150.2 455.1,144.2 455.9,135.7 456.8,133.4 457.6,134.9 458.5,137.6 459.3,140.3 460.2,139.3 461.0,137.6 461.8,150.9 462.7,132.9 463.5,132.1 464.4,126.0 465.2,115.3 466.0,139.4 466.9,141.0 467.7,123.3 468.6,149.8 469.4,138.0 470.2,134.9 471.1,139.3 471.9,124.6 472.8,153.0 473.6,117.4 474.4,121.8 475.3,129.8 476.1,141.8 477.0,124.3 477.8,126.8 478.6,126.5 479.5,133.9 480.3,125.0 481.2,150.1 482.0,136.6 482.9,141.2 483.7,153.0 484.5,125.6 485.4,136.2 486.2,135.2 487.1,137.6 487.9,136.4 488.7,142.0 489.6,164.2 490.4,129.2 491.3,129.2 492.1,141.2 492.9,117.3 493.8,139.1 494.6,146.9 495.5,120.6 496.3,147.7 497.1,141.1 498.0,120.5 498.8,123.4 499.7,124.9 500.5,118.6 501.4,137.8 502.2,152.8 503.0,153.7 503.9,123.1 504.7,128.5 505.6,145.3 506.4,132.0 507.2,144.9 508.1,140.8 508.9,131.2 509.8,147.6 510.6,134.2 511.4,130.4 512.3,134.8 513.1,129.9 514.0,143.2 514.8,109.9 515.6,143.1 516.5,140.4 517.3,130.7 518.2,134.0 519.0,123.0 519.8,146.2 520.7,159.1 521.5,128.2 522.4,147.8 523.2,136.0 524.1,133.8 524.9,131.6 525.7,129.2 526.6,152.9 527.4,136.0 528.3,132.6 529.1,143.6 529.9,133.9 530.8,119.2 531.6,139.6 532.5,145.5 533.3,124.7 534.1,138.7 535.0,138.0 535.8,137.3 536.7,149.3 537.5,156.4 538.3,133.9 539.2,142.7 540.0,150.5 540.9,138.6 541.7,138.9 542.6,132.2 543.4,158.1 544.2,113.9 545.1,142.0 545.9,141.2 546.8,147.2 547.6,137.0 548.4,149.8 549.3,142.1 550.1,141.1 551.0,142.3 551.8,125.7 552.6,144.7 553.5,136.1 554.3,129.9 555.2,154.5 556.0,139.0 556.8,142.9 557.7,135.9 558.5,131.6 559.4,136.5 560.2,141.7 561.1,153.7 561.9,132.4 562.7,138.2 563.6,136.2 564.4,125.9 565.3,140.4 566.1,125.4 566.9,149.4 567.8,156.8 568.6,144.6 569.5,149.2 570.3,132.8 571.1,123.1 572.0,141.4 572.8,148.9 573.7,151.2 574.5,142.3 575.3,150.4 576.2,139.7 577.0,142.8 577.9,144.2 578.7,147.8 579.5,153.6 580.4,134.4 581.2,133.7 582.1,146.2 582.9,100.1 583.8,123.3 584.6,142.8 585.4,140.0 586.3,124.5 587.1,131.8 588.0,154.3 588.8,117.1 589.6,133.2 590.5,147.2 591.3,150.9 592.2,115.1 593.0,128.3 593.8,135.2 594.7,124.9 595.5,123.4 596.4,115.0 597.2,142.6 598.0,148.2 598.9,123.4 599.7,121.4 600.6,128.4 601.4,124.2 602.3,131.3 603.1,129.9 603.9,145.0 604.8,126.1 605.6,140.4 606.5,133.7 607.3,166.7 608.1,126.5 609.0,140.2 609.8,142.9 610.7,143.2 611.5,142.6 612.3,134.2 613.2,126.5 614.0,155.0 614.9,122.4 615.7,139.0 616.5,132.5 617.4,132.5 618.2,136.8 619.1,143.0 619.9,140.7 620.8,128.5 621.6,133.0 622.4,128.9 623.3,130.9 624.1,156.6 625.0,130.6 625.8,141.8 626.6,115.7 627.5,146.0 628.3,130.6 629.2,132.3 630.0,148.3 630.8,134.7 631.7,117.5 632.5,167.4 633.4,132.3 634.2,121.8 635.0,142.4 635.9,138.0 636.7,123.6 637.6,122.1 638.4,135.2 639.2,135.6 640.1,128.7 640.9,134.9 641.8,126.7 642.6,139.0 643.5,139.1 644.3,148.0 645.1,129.4 646.0,126.2 646.8,129.4 647.7,120.1 648.5,142.8 649.3,125.5 650.2,114.9 651.0,144.4 651.9,114.2 652.7,150.0 653.5,139.2 654.4,139.4 655.2,153.1 656.1,131.2 656.9,148.3 657.7,151.8 658.6,132.7 659.4,130.5 660.3,127.2 661.1,144.1 662.0,111.1 662.8,148.1 663.6,119.9 664.5,141.1 665.3,118.3 666.2,148.3 667.0,121.0 667.8,136.1 668.7,109.2 669.5,118.1 670.4,131.7 671.2,119.0 672.0,132.9 672.9,120.9 673.7,142.4 674.6,127.1 675.4,128.7 676.2,129.5 677.1,122.6 677.9,130.2 678.8,127.8 679.6,134.6 680.5,139.4 681.3,141.7 682.1,126.7 683.0,142.0 683.8,143.3 684.7,112.3 685.5,141.0 686.3,140.4 687.2,138.1 688.0,128.8 688.9,131.4 689.7,136.4 690.5,136.9 691.4,129.9 692.2,142.8 693.1,124.4 693.9,121.8 694.7,121.1 695.6,125.9 696.4,133.8 697.3,118.6 698.1,128.4 698.9,114.3 699.8,121.7 700.6,131.8 701.5,120.1 702.3,145.2 703.2,126.8 704.0,142.8 704.8,109.8 705.7,126.6 706.5,149.8 707.4,124.5 708.2,158.5 709.0,131.8 709.9,130.5 710.7,110.8 711.6,123.0 712.4,113.1 713.2,119.8 714.1,118.0 714.9,142.1 715.8,125.8 716.6,119.8 717.4,139.8 718.3,106.0 719.1,111.1 720.0,125.6 720.8,152.1 721.7,125.6 722.5,137.6 723.3,136.1 724.2,119.3 725.0,126.9 725.9,130.8 726.7,146.3 727.5,144.6 728.4,145.6 729.2,110.7 730.1,109.1 730.9,134.4 731.7,121.5 732.6,149.4 733.4,116.1 734.3,134.2 735.1,124.9 735.9,147.8 736.8,124.1 737.6,129.8 738.5,145.1 739.3,128.4 740.2,128.0 741.0,120.2 741.8,142.1 742.7,124.8 743.5,119.3 744.4,132.9 745.2,135.3 746.0,125.5 746.9,135.0 747.7,124.5 748.6,139.4 749.4,125.2 750.2,136.2 751.1,119.7 751.9,122.0 752.8,103.2 753.6,158.6 754.4,123.9 755.3,131.1 756.1,97.9 757.0,121.3 757.8,135.4 758.6,118.8 759.5,128.1 760.3,136.6 761.2,119.5 762.0,146.3 762.9,138.3 763.7,124.6 764.5,121.4 765.4,120.9 766.2,139.5 767.1,114.4 767.9,123.6 768.7,125.0 769.6,129.1 770.4,125.8 771.3,144.0 772.1,137.1 772.9,131.2 773.8,102.4 774.6,128.3 775.5,113.5 776.3,130.5 777.1,116.4 778.0,140.8 778.8,142.1 779.7,140.5 780.5,118.3 781.4,142.4 782.2,129.9 783.0,134.3 783.9,122.7 784.7,114.9 785.6,134.2 786.4,123.7 787.2,118.3 788.1,142.0 788.9,146.1 789.8,128.3 790.6,131.5 791.4,113.6 792.3,109.8 793.1,118.2 794.0,117.0 794.8,125.7 795.6,119.6 796.5,139.8 797.3,126.1 798.2,123.6 799.0,122.3 799.8,105.0 800.7,145.7 801.5,137.0 802.4,137.1 803.2,125.1 804.1,109.5 804.9,121.4 805.7,133.7 806.6,126.7 807.4,134.2 808.3,117.5 809.1,111.9 809.9,125.5 810.8,130.1 811.6,126.4 812.5,126.9 813.3,141.1 814.1,126.2 815.0,106.8 815.8,124.4 816.7,130.7 817.5,149.2 818.3,138.9 819.2,119.8 820.0,120.9 820.9,118.5 821.7,118.9 822.6,108.4 823.4,139.0 824.2,109.7 825.1,129.0 825.9,124.2 826.8,106.7 827.6,127.8 828.4,95.8 829.3,116.6 830.1,126.3 831.0,135.7 831.8,125.0 832.6,121.7 833.5,116.6 834.3,120.2 835.2,110.9 836.0,135.1 836.8,135.3 837.7,112.0 838.5,121.8 839.4,123.1 840.2,106.3 841.1,118.0 841.9,135.8 842.7,131.7 843.6,133.3 844.4,122.4 845.3,117.3 846.1,128.1 846.9,120.4 847.8,121.0 848.6,117.8 849.5,116.5 850.3,118.7 851.1,123.9 852.0,128.6 852.8,140.1 853.7,123.5 854.5,130.2 855.3,115.0 856.2,123.9 857.0,121.6 857.9,114.7 858.7,132.2 859.5,120.4 860.4,116.6 861.2,118.4 862.1,124.9 862.9,121.8 863.8,125.0 864.6,133.9 865.4,111.0 866.3,112.9 867.1,131.0 868.0,134.1 868.8,129.0 869.6,114.3 870.5,122.8 871.3,126.8 872.2,118.2 873.0,114.2 873.8,139.8 874.7,117.3 875.5,132.6 876.4,144.7 877.2,126.5 878.0,135.7 878.9,135.9 879.7,127.9 880.6,129.6 881.4,123.4 882.3,113.9 883.1,128.5 883.9,125.4 884.8,139.9 885.6,125.3 886.5,122.5 887.3,109.0 888.1,103.9 889.0,135.6 889.8,128.2 890.7,145.5 891.5,147.2 892.3,132.2 893.2,136.0 894.0,134.8 894.9,146.2 895.7,114.7 896.5,130.7 897.4,127.0 898.2,128.9 899.1,125.1 899.9,119.8 900.8,109.0 901.6,126.2 902.4,127.2 903.3,127.2 904.1,89.1 905.0,130.5 905.8,132.1 906.6,127.8 907.5,99.3 908.3,128.2 909.2,154.1 910.0,128.7"/>
<line x1="730" y1="98" x2="754" y2="98" stroke="#dc2626" stroke-width="3"/>
<text x="762" y="103" font-family="Arial" font-size="13" fill="#111827">Epsilon 0.01</text>
<polyline fill="none" stroke="#9333ea" stroke-width="2.2" points="70.0,388.7 70.8,305.1 71.7,281.2 72.5,245.7 73.4,224.7 74.2,208.7 75.0,214.1 75.9,216.0 76.7,206.4 77.6,206.0 78.4,202.6 79.2,192.3 80.1,215.1 80.9,186.6 81.8,191.8 82.6,192.6 83.5,179.6 84.3,177.9 85.1,163.4 86.0,181.3 86.8,159.8 87.7,195.8 88.5,174.7 89.3,192.0 90.2,162.8 91.0,176.3 91.9,154.6 92.7,158.3 93.5,182.6 94.4,176.0 95.2,167.3 96.1,173.4 96.9,171.2 97.7,150.3 98.6,156.8 99.4,174.7 100.3,168.2 101.1,175.4 102.0,173.1 102.8,177.6 103.6,159.8 104.5,173.1 105.3,155.7 106.2,165.0 107.0,181.3 107.8,166.2 108.7,157.9 109.5,151.3 110.4,170.8 111.2,158.5 112.0,169.1 112.9,153.0 113.7,176.5 114.6,160.5 115.4,178.7 116.2,171.9 117.1,148.1 117.9,144.9 118.8,136.2 119.6,152.5 120.5,147.4 121.3,150.8 122.1,162.1 123.0,139.6 123.8,160.3 124.7,155.5 125.5,162.2 126.3,165.5 127.2,162.9 128.0,163.4 128.9,154.0 129.7,151.3 130.5,162.1 131.4,155.3 132.2,141.6 133.1,146.8 133.9,127.9 134.7,132.7 135.6,154.6 136.4,148.7 137.3,170.3 138.1,145.7 138.9,161.5 139.8,154.9 140.6,158.6 141.5,164.6 142.3,142.8 143.2,153.2 144.0,164.1 144.8,147.7 145.7,153.6 146.5,162.2 147.4,152.2 148.2,161.8 149.0,140.5 149.9,157.9 150.7,160.5 151.6,155.1 152.4,155.2 153.2,148.6 154.1,175.6 154.9,167.3 155.8,154.4 156.6,151.0 157.4,153.1 158.3,162.4 159.1,163.6 160.0,149.7 160.8,146.1 161.7,162.5 162.5,154.1 163.3,149.1 164.2,148.2 165.0,140.2 165.9,163.5 166.7,143.0 167.5,161.0 168.4,144.4 169.2,168.3 170.1,155.2 170.9,129.6 171.7,154.9 172.6,134.2 173.4,145.9 174.3,141.2 175.1,171.0 175.9,124.4 176.8,142.3 177.6,150.2 178.5,144.7 179.3,140.8 180.2,135.7 181.0,157.3 181.8,163.3 182.7,150.3 183.5,148.4 184.4,139.0 185.2,150.5 186.0,138.2 186.9,123.9 187.7,157.5 188.6,156.6 189.4,133.0 190.2,140.3 191.1,152.7 191.9,134.1 192.8,148.6 193.6,154.5 194.4,145.1 195.3,146.8 196.1,124.7 197.0,133.8 197.8,143.9 198.6,167.4 199.5,156.6 200.3,124.4 201.2,123.3 202.0,150.6 202.9,140.6 203.7,150.8 204.5,151.0 205.4,155.5 206.2,154.6 207.1,145.2 207.9,140.3 208.7,137.8 209.6,139.4 210.4,117.7 211.3,158.0 212.1,163.1 212.9,141.6 213.8,137.4 214.6,155.8 215.5,152.8 216.3,139.6 217.1,129.1 218.0,144.2 218.8,139.3 219.7,150.4 220.5,126.6 221.4,151.1 222.2,145.6 223.0,152.1 223.9,161.0 224.7,155.6 225.6,148.2 226.4,152.0 227.2,142.9 228.1,146.2 228.9,148.4 229.8,143.7 230.6,135.7 231.4,154.2 232.3,140.8 233.1,158.1 234.0,145.2 234.8,147.1 235.6,143.7 236.5,135.1 237.3,128.6 238.2,138.5 239.0,131.4 239.8,150.3 240.7,143.0 241.5,132.9 242.4,118.3 243.2,138.5 244.1,150.5 244.9,130.7 245.7,123.6 246.6,132.3 247.4,125.8 248.3,166.9 249.1,163.0 249.9,133.7 250.8,134.3 251.6,130.8 252.5,119.0 253.3,128.4 254.1,113.6 255.0,154.4 255.8,147.9 256.7,134.3 257.5,131.0 258.3,155.3 259.2,143.3 260.0,140.2 260.9,123.0 261.7,124.4 262.6,131.7 263.4,139.0 264.2,149.8 265.1,129.3 265.9,147.0 266.8,127.6 267.6,124.3 268.4,135.4 269.3,153.7 270.1,141.9 271.0,132.6 271.8,155.3 272.6,135.5 273.5,134.4 274.3,110.1 275.2,106.1 276.0,161.3 276.8,138.1 277.7,159.4 278.5,132.0 279.4,139.3 280.2,99.9 281.1,140.3 281.9,139.2 282.7,126.2 283.6,135.4 284.4,138.6 285.3,132.9 286.1,154.3 286.9,136.1 287.8,132.6 288.6,130.2 289.5,119.8 290.3,144.5 291.1,143.3 292.0,132.9 292.8,138.2 293.7,142.3 294.5,130.6 295.3,128.1 296.2,135.2 297.0,139.2 297.9,146.4 298.7,141.8 299.5,133.0 300.4,135.1 301.2,132.8 302.1,126.6 302.9,129.8 303.8,146.5 304.6,125.4 305.4,141.4 306.3,140.7 307.1,137.4 308.0,153.5 308.8,119.9 309.6,126.5 310.5,146.8 311.3,148.4 312.2,139.2 313.0,118.4 313.8,133.4 314.7,139.7 315.5,129.8 316.4,134.7 317.2,136.3 318.0,139.5 318.9,157.4 319.7,122.4 320.6,171.8 321.4,139.6 322.3,121.1 323.1,129.8 323.9,147.8 324.8,150.6 325.6,146.7 326.5,135.7 327.3,161.1 328.1,141.4 329.0,140.2 329.8,130.9 330.7,153.6 331.5,129.4 332.3,136.1 333.2,133.9 334.0,137.2 334.9,149.2 335.7,128.5 336.5,128.2 337.4,129.9 338.2,123.7 339.1,150.2 339.9,135.0 340.8,139.7 341.6,138.4 342.4,138.2 343.3,134.1 344.1,148.4 345.0,129.9 345.8,156.3 346.6,135.4 347.5,128.5 348.3,120.4 349.2,150.0 350.0,145.2 350.8,113.3 351.7,146.2 352.5,134.1 353.4,114.0 354.2,117.8 355.0,142.4 355.9,120.7 356.7,134.4 357.6,131.0 358.4,133.1 359.2,138.0 360.1,124.7 360.9,147.5 361.8,125.7 362.6,116.5 363.5,124.1 364.3,130.6 365.1,140.6 366.0,155.6 366.8,127.1 367.7,144.2 368.5,144.8 369.3,146.2 370.2,152.8 371.0,130.9 371.9,120.5 372.7,130.1 373.5,120.7 374.4,133.8 375.2,122.3 376.1,130.1 376.9,154.3 377.7,154.5 378.6,124.3 379.4,137.3 380.3,139.0 381.1,128.8 382.0,139.0 382.8,135.3 383.6,127.4 384.5,145.2 385.3,146.9 386.2,140.1 387.0,147.5 387.8,129.4 388.7,135.4 389.5,127.4 390.4,145.6 391.2,146.0 392.0,141.1 392.9,131.2 393.7,121.5 394.6,139.0 395.4,116.0 396.2,138.2 397.1,138.9 397.9,149.4 398.8,137.2 399.6,153.7 400.5,142.9 401.3,119.5 402.1,146.3 403.0,128.4 403.8,120.4 404.7,134.1 405.5,130.9 406.3,130.9 407.2,125.0 408.0,143.8 408.9,147.2 409.7,152.7 410.5,133.9 411.4,122.4 412.2,146.1 413.1,137.0 413.9,145.3 414.7,137.2 415.6,156.1 416.4,145.4 417.3,128.5 418.1,142.2 418.9,127.2 419.8,138.5 420.6,134.8 421.5,139.8 422.3,141.5 423.2,144.7 424.0,139.6 424.8,125.5 425.7,150.8 426.5,143.7 427.4,139.6 428.2,132.0 429.0,143.8 429.9,141.0 430.7,133.6 431.6,138.8 432.4,127.9 433.2,131.7 434.1,155.7 434.9,124.2 435.8,120.1 436.6,149.9 437.4,131.4 438.3,139.5 439.1,142.6 440.0,110.5 440.8,151.3 441.7,113.1 442.5,149.0 443.3,131.6 444.2,157.0 445.0,143.6 445.9,164.2 446.7,148.0 447.5,145.3 448.4,137.8 449.2,127.1 450.1,141.0 450.9,119.0 451.7,119.4 452.6,123.2 453.4,144.1 454.3,145.0 455.1,141.1 455.9,141.7 456.8,143.3 457.6,126.0 458.5,155.2 459.3,144.8 460.2,150.8 461.0,131.6 461.8,143.2 462.7,130.5 463.5,124.8 464.4,135.3 465.2,140.8 466.0,135.9 466.9,109.5 467.7,136.7 468.6,133.4 469.4,152.1 470.2,140.1 471.1,125.2 471.9,122.8 472.8,141.7 473.6,126.7 474.4,119.1 475.3,116.9 476.1,151.5 477.0,141.9 477.8,157.9 478.6,144.3 479.5,147.9 480.3,126.4 481.2,129.8 482.0,125.6 482.9,157.9 483.7,152.0 484.5,139.4 485.4,121.4 486.2,147.5 487.1,128.8 487.9,134.5 488.7,145.8 489.6,129.8 490.4,157.2 491.3,134.7 492.1,149.5 492.9,132.7 493.8,121.9 494.6,134.3 495.5,133.1 496.3,135.9 497.1,141.5 498.0,124.8 498.8,134.9 499.7,143.2 500.5,122.5 501.4,133.0 502.2,156.5 503.0,129.6 503.9,149.5 504.7,129.8 505.6,154.7 506.4,137.4 507.2,137.9 508.1,149.5 508.9,118.6 509.8,130.4 510.6,139.1 511.4,146.6 512.3,146.8 513.1,139.3 514.0,124.8 514.8,153.0 515.6,123.2 516.5,136.7 517.3,121.8 518.2,143.9 519.0,129.5 519.8,136.4 520.7,142.3 521.5,127.2 522.4,135.6 523.2,139.0 524.1,127.6 524.9,119.8 525.7,122.8 526.6,123.9 527.4,125.0 528.3,132.9 529.1,147.3 529.9,135.9 530.8,125.2 531.6,132.9 532.5,144.0 533.3,135.9 534.1,121.7 535.0,138.1 535.8,143.3 536.7,133.1 537.5,131.6 538.3,164.1 539.2,135.4 540.0,124.7 540.9,136.4 541.7,126.1 542.6,136.3 543.4,140.9 544.2,120.6 545.1,143.1 545.9,130.8 546.8,150.6 547.6,153.1 548.4,140.1 549.3,150.8 550.1,121.2 551.0,148.2 551.8,133.6 552.6,123.2 553.5,133.1 554.3,120.1 555.2,138.7 556.0,141.2 556.8,137.8 557.7,161.6 558.5,127.2 559.4,134.4 560.2,135.3 561.1,143.6 561.9,128.9 562.7,145.0 563.6,133.0 564.4,145.6 565.3,148.6 566.1,128.8 566.9,126.0 567.8,116.7 568.6,134.7 569.5,119.7 570.3,132.0 571.1,134.4 572.0,130.3 572.8,131.5 573.7,122.1 574.5,123.6 575.3,137.2 576.2,123.8 577.0,126.0 577.9,129.2 578.7,141.0 579.5,133.2 580.4,133.3 581.2,161.6 582.1,150.6 582.9,124.8 583.8,106.0 584.6,138.7 585.4,141.3 586.3,135.5 587.1,143.3 588.0,131.2 588.8,124.1 589.6,142.1 590.5,160.9 591.3,128.9 592.2,120.6 593.0,123.4 593.8,127.4 594.7,128.1 595.5,148.8 596.4,118.5 597.2,121.3 598.0,122.6 598.9,146.2 599.7,142.1 600.6,139.2 601.4,136.0 602.3,126.4 603.1,142.2 603.9,131.6 604.8,132.7 605.6,121.7 606.5,132.1 607.3,113.6 608.1,127.4 609.0,131.8 609.8,159.3 610.7,143.4 611.5,137.5 612.3,135.9 613.2,128.5 614.0,124.5 614.9,121.4 615.7,131.5 616.5,139.6 617.4,167.5 618.2,128.3 619.1,134.2 619.9,144.0 620.8,169.5 621.6,138.5 622.4,130.2 623.3,125.0 624.1,147.6 625.0,150.4 625.8,123.1 626.6,118.4 627.5,116.9 628.3,157.3 629.2,138.4 630.0,136.0 630.8,138.1 631.7,128.5 632.5,133.9 633.4,144.5 634.2,119.6 635.0,132.1 635.9,150.7 636.7,122.4 637.6,115.6 638.4,144.2 639.2,138.1 640.1,132.5 640.9,131.6 641.8,121.6 642.6,149.7 643.5,126.8 644.3,119.8 645.1,137.3 646.0,138.5 646.8,144.0 647.7,133.3 648.5,132.7 649.3,131.9 650.2,139.9 651.0,134.6 651.9,138.9 652.7,123.4 653.5,130.1 654.4,133.4 655.2,139.2 656.1,149.9 656.9,109.8 657.7,147.6 658.6,140.9 659.4,125.3 660.3,134.5 661.1,126.5 662.0,131.3 662.8,139.2 663.6,144.8 664.5,124.1 665.3,121.4 666.2,147.5 667.0,129.6 667.8,135.4 668.7,137.2 669.5,145.4 670.4,120.5 671.2,140.4 672.0,132.6 672.9,123.1 673.7,113.3 674.6,126.2 675.4,126.8 676.2,134.2 677.1,145.3 677.9,143.4 678.8,137.6 679.6,139.6 680.5,142.8 681.3,144.4 682.1,134.9 683.0,129.1 683.8,120.9 684.7,108.6 685.5,130.1 686.3,141.1 687.2,148.9 688.0,120.4 688.9,131.1 689.7,126.6 690.5,131.6 691.4,133.8 692.2,128.5 693.1,131.8 693.9,167.2 694.7,143.9 695.6,132.9 696.4,136.1 697.3,141.2 698.1,128.4 698.9,125.7 699.8,131.3 700.6,135.1 701.5,108.5 702.3,134.0 703.2,125.7 704.0,137.4 704.8,139.0 705.7,128.1 706.5,148.4 707.4,110.5 708.2,142.0 709.0,148.4 709.9,128.9 710.7,141.9 711.6,125.5 712.4,134.7 713.2,122.5 714.1,107.5 714.9,134.8 715.8,139.7 716.6,119.5 717.4,103.9 718.3,120.5 719.1,134.9 720.0,129.8 720.8,136.2 721.7,119.7 722.5,141.7 723.3,137.6 724.2,130.0 725.0,133.7 725.9,136.9 726.7,150.4 727.5,127.1 728.4,112.9 729.2,129.6 730.1,133.6 730.9,152.5 731.7,135.5 732.6,126.8 733.4,136.1 734.3,121.1 735.1,137.0 735.9,133.0 736.8,144.7 737.6,119.9 738.5,118.4 739.3,129.7 740.2,135.3 741.0,129.9 741.8,130.1 742.7,144.4 743.5,112.8 744.4,120.5 745.2,142.4 746.0,143.4 746.9,131.2 747.7,165.2 748.6,133.3 749.4,134.9 750.2,145.2 751.1,135.2 751.9,138.4 752.8,123.5 753.6,139.0 754.4,127.9 755.3,138.7 756.1,123.3 757.0,134.9 757.8,112.3 758.6,132.4 759.5,144.1 760.3,152.4 761.2,123.0 762.0,113.5 762.9,130.1 763.7,157.1 764.5,136.7 765.4,140.2 766.2,145.3 767.1,150.8 767.9,141.5 768.7,127.7 769.6,140.2 770.4,100.1 771.3,144.1 772.1,139.8 772.9,133.1 773.8,128.0 774.6,130.9 775.5,112.8 776.3,118.4 777.1,133.2 778.0,135.7 778.8,140.5 779.7,132.1 780.5,125.7 781.4,125.7 782.2,128.6 783.0,148.6 783.9,133.4 784.7,137.2 785.6,143.4 786.4,131.1 787.2,143.7 788.1,141.1 788.9,115.2 789.8,128.2 790.6,128.0 791.4,136.6 792.3,139.5 793.1,136.0 794.0,126.2 794.8,142.5 795.6,144.9 796.5,151.2 797.3,131.4 798.2,154.1 799.0,148.4 799.8,149.9 800.7,121.8 801.5,132.7 802.4,118.6 803.2,133.2 804.1,144.2 804.9,151.0 805.7,138.6 806.6,131.5 807.4,131.1 808.3,126.8 809.1,130.7 809.9,119.7 810.8,129.9 811.6,152.9 812.5,130.1 813.3,132.5 814.1,133.2 815.0,130.5 815.8,153.3 816.7,146.9 817.5,151.3 818.3,128.7 819.2,144.8 820.0,116.0 820.9,134.2 821.7,132.0 822.6,145.5 823.4,147.6 824.2,147.8 825.1,145.2 825.9,140.7 826.8,125.9 827.6,121.7 828.4,136.1 829.3,136.9 830.1,138.7 831.0,126.4 831.8,132.1 832.6,147.9 833.5,144.6 834.3,155.7 835.2,120.9 836.0,149.8 836.8,129.2 837.7,109.2 838.5,123.9 839.4,132.8 840.2,115.2 841.1,100.1 841.9,135.0 842.7,118.4 843.6,130.7 844.4,126.1 845.3,130.3 846.1,143.1 846.9,123.8 847.8,142.3 848.6,116.4 849.5,140.6 850.3,125.7 851.1,125.9 852.0,118.9 852.8,123.8 853.7,123.1 854.5,128.2 855.3,119.6 856.2,121.1 857.0,146.9 857.9,140.3 858.7,145.2 859.5,155.9 860.4,124.6 861.2,137.9 862.1,146.2 862.9,130.9 863.8,117.2 864.6,137.8 865.4,128.8 866.3,144.9 867.1,153.4 868.0,121.7 868.8,141.7 869.6,146.3 870.5,128.0 871.3,130.8 872.2,131.6 873.0,148.4 873.8,121.0 874.7,116.0 875.5,132.7 876.4,135.2 877.2,135.7 878.0,130.4 878.9,125.6 879.7,132.4 880.6,142.7 881.4,139.8 882.3,135.7 883.1,126.2 883.9,131.2 884.8,159.3 885.6,114.7 886.5,131.3 887.3,133.1 888.1,128.1 889.0,160.0 889.8,107.6 890.7,148.3 891.5,108.3 892.3,140.3 893.2,115.7 894.0,130.2 894.9,136.0 895.7,135.1 896.5,143.0 897.4,134.2 898.2,154.8 899.1,121.9 899.9,120.8 900.8,139.7 901.6,127.7 902.4,123.0 903.3,141.8 904.1,128.8 905.0,124.1 905.8,134.7 906.6,110.9 907.5,147.4 908.3,132.5 909.2,128.5 910.0,127.5"/>
<line x1="730" y1="120" x2="754" y2="120" stroke="#9333ea" stroke-width="3"/>
<text x="762" y="125" font-family="Arial" font-size="13" fill="#111827">Epsilon 0.10</text>
<polyline fill="none" stroke="#ea580c" stroke-width="2.2" points="70.0,381.3 70.8,369.6 71.7,388.2 72.5,369.3 73.4,399.7 74.2,185.2 75.0,214.0 75.9,214.8 76.7,218.6 77.6,210.9 78.4,244.4 79.2,196.4 80.1,215.3 80.9,192.7 81.8,172.1 82.6,212.0 83.5,185.6 84.3,204.0 85.1,197.8 86.0,193.4 86.8,186.0 87.7,176.5 88.5,192.0 89.3,175.7 90.2,170.6 91.0,181.1 91.9,175.9 92.7,167.4 93.5,181.1 94.4,169.6 95.2,157.4 96.1,191.9 96.9,179.2 97.7,158.6 98.6,157.9 99.4,165.2 100.3,169.6 101.1,178.1 102.0,161.5 102.8,181.1 103.6,151.7 104.5,151.6 105.3,144.5 106.2,157.4 107.0,167.9 107.8,175.5 108.7,155.9 109.5,170.0 110.4,138.2 111.2,172.6 112.0,162.9 112.9,134.5 113.7,152.6 114.6,174.3 115.4,168.7 116.2,161.7 117.1,146.5 117.9,179.2 118.8,148.0 119.6,125.1 120.5,153.8 121.3,145.2 122.1,176.8 123.0,157.8 123.8,150.8 124.7,156.4 125.5,132.6 126.3,153.7 127.2,149.2 128.0,160.2 128.9,164.0 129.7,144.9 130.5,148.1 131.4,136.1 132.2,137.9 133.1,135.4 133.9,147.1 134.7,148.0 135.6,145.6 136.4,145.2 137.3,142.6 138.1,137.2 138.9,119.4 139.8,144.5 140.6,151.9 141.5,157.5 142.3,130.5 143.2,138.4 144.0,134.5 144.8,151.2 145.7,156.3 146.5,153.5 147.4,134.4 148.2,137.5 149.0,152.4 149.9,148.0 150.7,157.9 151.6,131.8 152.4,142.0 153.2,141.2 154.1,136.0 154.9,134.2 155.8,133.9 156.6,146.4 157.4,146.4 158.3,131.8 159.1,139.6 160.0,136.5 160.8,151.7 161.7,118.6 162.5,126.8 163.3,141.0 164.2,146.6 165.0,117.6 165.9,149.2 166.7,120.6 167.5,138.0 168.4,140.7 169.2,134.9 170.1,125.8 170.9,145.2 171.7,146.7 172.6,135.6 173.4,124.5 174.3,137.0 175.1,131.7 175.9,148.7 176.8,145.6 177.6,133.3 178.5,143.8 179.3,134.4 180.2,142.0 181.0,144.2 181.8,145.6 182.7,166.6 183.5,142.5 184.4,151.6 185.2,134.9 186.0,146.3 186.9,128.0 187.7,142.6 188.6,136.1 189.4,127.3 190.2,124.9 191.1,141.8 191.9,137.5 192.8,138.1 193.6,142.4 194.4,129.9 195.3,147.8 196.1,129.3 197.0,128.0 197.8,135.4 198.6,139.8 199.5,135.4 200.3,143.2 201.2,136.1 202.0,158.0 202.9,140.5 203.7,120.3 204.5,146.7 205.4,130.8 206.2,123.2 207.1,132.2 207.9,129.4 208.7,146.5 209.6,149.6 210.4,124.9 211.3,120.7 212.1,157.1 212.9,131.3 213.8,140.8 214.6,133.6 215.5,115.0 216.3,124.0 217.1,139.3 218.0,146.9 218.8,142.9 219.7,118.7 220.5,136.6 221.4,134.5 222.2,118.5 223.0,111.6 223.9,156.4 224.7,146.8 225.6,133.1 226.4,143.2 227.2,132.5 228.1,138.7 228.9,134.4 229.8,120.8 230.6,135.8 231.4,124.2 232.3,125.8 233.1,131.2 234.0,145.9 234.8,160.5 235.6,125.3 236.5,144.4 237.3,126.4 238.2,121.8 239.0,154.0 239.8,138.8 240.7,127.4 241.5,160.8 242.4,122.6 243.2,121.9 244.1,140.3 244.9,115.7 245.7,103.2 246.6,140.6 247.4,135.6 248.3,108.9 249.1,101.3 249.9,129.1 250.8,131.7 251.6,119.9 252.5,125.3 253.3,133.7 254.1,128.6 255.0,110.3 255.8,127.2 256.7,116.5 257.5,145.8 258.3,125.3 259.2,112.3 260.0,136.8 260.9,136.3 261.7,128.4 262.6,136.2 263.4,134.1 264.2,119.0 265.1,117.5 265.9,127.9 266.8,130.1 267.6,112.2 268.4,140.9 269.3,140.8 270.1,124.5 271.0,131.6 271.8,131.7 272.6,131.1 273.5,129.1 274.3,123.9 275.2,119.9 276.0,131.8 276.8,136.1 277.7,130.9 278.5,137.7 279.4,117.9 280.2,113.2 281.1,126.4 281.9,144.2 282.7,121.8 283.6,111.6 284.4,113.4 285.3,126.9 286.1,123.7 286.9,111.7 287.8,131.7 288.6,121.3 289.5,135.0 290.3,126.1 291.1,138.0 292.0,132.6 292.8,145.9 293.7,119.5 294.5,114.2 295.3,110.7 296.2,113.8 297.0,121.6 297.9,139.6 298.7,125.5 299.5,122.4 300.4,141.3 301.2,130.5 302.1,108.8 302.9,133.1 303.8,120.3 304.6,119.6 305.4,115.1 306.3,128.3 307.1,132.0 308.0,117.5 308.8,147.7 309.6,120.5 310.5,133.2 311.3,111.3 312.2,117.5 313.0,132.7 313.8,129.2 314.7,106.6 315.5,121.7 316.4,136.0 317.2,124.6 318.0,129.2 318.9,110.8 319.7,125.1 320.6,117.4 321.4,113.0 322.3,124.0 323.1,133.3 323.9,127.1 324.8,126.6 325.6,122.1 326.5,128.1 327.3,128.7 328.1,108.2 329.0,131.8 329.8,129.8 330.7,103.4 331.5,115.1 332.3,120.0 333.2,116.4 334.0,111.4 334.9,147.8 335.7,112.3 336.5,131.3 337.4,114.1 338.2,128.0 339.1,143.0 339.9,120.5 340.8,104.1 341.6,120.2 342.4,109.8 343.3,121.6 344.1,116.3 345.0,111.4 345.8,113.5 346.6,119.9 347.5,118.8 348.3,122.4 349.2,110.5 350.0,136.8 350.8,111.5 351.7,127.1 352.5,130.2 353.4,115.9 354.2,132.5 355.0,126.0 355.9,108.3 356.7,117.2 357.6,110.7 358.4,108.6 359.2,117.5 360.1,105.8 360.9,100.9 361.8,111.7 362.6,134.3 363.5,123.2 364.3,128.0 365.1,138.5 366.0,137.5 366.8,108.7 367.7,121.8 368.5,133.8 369.3,132.5 370.2,124.3 371.0,123.7 371.9,112.7 372.7,128.4 373.5,114.0 374.4,122.5 375.2,117.5 376.1,129.1 376.9,137.3 377.7,128.0 378.6,130.6 379.4,107.5 380.3,112.7 381.1,112.0 382.0,115.4 382.8,146.9 383.6,139.1 384.5,120.1 385.3,98.7 386.2,118.0 387.0,91.7 387.8,123.7 388.7,119.2 389.5,113.8 390.4,109.1 391.2,115.3 392.0,123.3 392.9,134.9 393.7,110.7 394.6,141.0 395.4,136.2 396.2,120.4 397.1,115.1 397.9,127.0 398.8,121.8 399.6,113.0 400.5,97.8 401.3,97.8 402.1,134.8 403.0,118.8 403.8,110.5 404.7,121.7 405.5,96.7 406.3,95.7 407.2,108.5 408.0,132.1 408.9,120.5 409.7,98.6 410.5,124.7 411.4,116.1 412.2,113.1 413.1,139.3 413.9,118.7 414.7,129.7 415.6,121.9 416.4,117.8 417.3,118.6 418.1,120.0 418.9,125.5 419.8,109.9 420.6,126.2 421.5,126.4 422.3,141.3 423.2,109.1 424.0,127.0 424.8,107.0 425.7,121.0 426.5,122.1 427.4,125.5 428.2,140.4 429.0,113.0 429.9,118.7 430.7,124.0 431.6,109.8 432.4,117.7 433.2,117.9 434.1,124.0 434.9,121.8 435.8,112.7 436.6,121.1 437.4,121.8 438.3,122.4 439.1,117.7 440.0,124.9 440.8,109.6 441.7,121.0 442.5,111.8 443.3,137.9 444.2,118.0 445.0,121.2 445.9,109.1 446.7,125.6 447.5,127.2 448.4,114.8 449.2,135.5 450.1,135.3 450.9,118.3 451.7,136.0 452.6,145.3 453.4,114.2 454.3,120.6 455.1,131.7 455.9,111.5 456.8,120.0 457.6,127.2 458.5,116.5 459.3,120.8 460.2,107.5 461.0,134.2 461.8,114.5 462.7,121.7 463.5,136.1 464.4,111.2 465.2,126.6 466.0,118.7 466.9,114.5 467.7,116.3 468.6,121.7 469.4,115.3 470.2,128.7 471.1,97.8 471.9,115.7 472.8,120.9 473.6,112.9 474.4,114.3 475.3,118.6 476.1,118.0 477.0,122.2 477.8,118.9 478.6,114.5 479.5,101.4 480.3,117.0 481.2,118.0 482.0,134.6 482.9,108.1 483.7,99.6 484.5,106.3 485.4,120.8 486.2,111.0 487.1,124.4 487.9,127.3 488.7,126.3 489.6,126.3 490.4,123.2 491.3,124.9 492.1,122.6 492.9,120.3 493.8,132.6 494.6,122.5 495.5,108.6 496.3,133.8 497.1,121.1 498.0,117.1 498.8,139.2 499.7,98.5 500.5,104.3 501.4,111.9 502.2,120.0 503.0,100.3 503.9,116.3 504.7,122.9 505.6,110.5 506.4,120.7 507.2,113.9 508.1,112.8 508.9,125.4 509.8,109.7 510.6,121.0 511.4,130.8 512.3,117.0 513.1,114.3 514.0,114.9 514.8,106.7 515.6,135.5 516.5,121.0 517.3,125.7 518.2,125.7 519.0,109.8 519.8,138.9 520.7,106.7 521.5,130.7 522.4,108.8 523.2,130.5 524.1,100.8 524.9,108.9 525.7,110.5 526.6,118.7 527.4,123.3 528.3,114.5 529.1,117.9 529.9,113.3 530.8,131.4 531.6,116.9 532.5,114.4 533.3,102.2 534.1,113.9 535.0,110.7 535.8,119.4 536.7,125.6 537.5,107.7 538.3,97.7 539.2,112.6 540.0,96.8 540.9,99.6 541.7,122.6 542.6,108.5 543.4,113.7 544.2,114.3 545.1,102.5 545.9,116.2 546.8,122.6 547.6,128.1 548.4,123.4 549.3,103.1 550.1,126.4 551.0,116.7 551.8,122.1 552.6,110.7 553.5,127.8 554.3,125.4 555.2,89.0 556.0,118.3 556.8,109.3 557.7,136.9 558.5,107.1 559.4,130.2 560.2,123.2 561.1,122.2 561.9,112.3 562.7,102.3 563.6,135.3 564.4,111.3 565.3,122.8 566.1,100.0 566.9,125.8 567.8,101.2 568.6,107.4 569.5,131.3 570.3,116.3 571.1,117.4 572.0,114.3 572.8,118.6 573.7,124.7 574.5,108.7 575.3,113.9 576.2,131.7 577.0,127.7 577.9,103.6 578.7,114.5 579.5,117.6 580.4,122.6 581.2,123.2 582.1,106.8 582.9,129.0 583.8,123.0 584.6,112.1 585.4,106.2 586.3,126.1 587.1,112.5 588.0,128.5 588.8,118.3 589.6,131.3 590.5,121.5 591.3,132.2 592.2,108.7 593.0,121.9 593.8,108.7 594.7,127.5 595.5,113.8 596.4,114.8 597.2,113.6 598.0,122.3 598.9,145.4 599.7,114.9 600.6,113.9 601.4,119.4 602.3,105.3 603.1,103.4 603.9,115.0 604.8,116.2 605.6,106.4 606.5,106.5 607.3,100.0 608.1,113.8 609.0,100.5 609.8,108.4 610.7,107.0 611.5,104.3 612.3,119.9 613.2,134.0 614.0,105.9 614.9,108.2 615.7,113.5 616.5,115.0 617.4,109.5 618.2,128.8 619.1,111.1 619.9,145.6 620.8,111.0 621.6,101.9 622.4,105.2 623.3,108.6 624.1,101.6 625.0,107.7 625.8,134.6 626.6,110.3 627.5,118.7 628.3,114.5 629.2,93.7 630.0,104.8 630.8,120.9 631.7,128.8 632.5,115.5 633.4,122.9 634.2,131.1 635.0,98.9 635.9,119.3 636.7,119.0 637.6,113.5 638.4,126.2 639.2,120.0 640.1,118.0 640.9,101.0 641.8,112.4 642.6,100.5 643.5,107.4 644.3,111.0 645.1,118.3 646.0,107.4 646.8,107.7 647.7,113.7 648.5,114.1 649.3,113.9 650.2,121.7 651.0,102.0 651.9,116.8 652.7,120.5 653.5,108.6 654.4,121.3 655.2,108.3 656.1,100.4 656.9,121.9 657.7,112.0 658.6,121.9 659.4,114.8 660.3,123.5 661.1,106.9 662.0,109.1 662.8,122.2 663.6,113.3 664.5,108.5 665.3,105.4 666.2,127.6 667.0,112.6 667.8,124.3 668.7,107.7 669.5,109.9 670.4,120.5 671.2,116.6 672.0,138.7 672.9,115.7 673.7,110.9 674.6,120.9 675.4,120.5 676.2,127.2 677.1,109.7 677.9,106.7 678.8,129.6 679.6,112.4 680.5,104.3 681.3,134.2 682.1,124.7 683.0,126.8 683.8,103.1 684.7,108.8 685.5,120.5 686.3,109.7 687.2,104.3 688.0,110.7 688.9,110.2 689.7,111.4 690.5,125.4 691.4,123.0 692.2,115.3 693.1,116.4 693.9,99.2 694.7,121.4 695.6,101.1 696.4,128.7 697.3,114.0 698.1,107.8 698.9,123.6 699.8,113.8 700.6,121.6 701.5,123.8 702.3,118.0 703.2,106.4 704.0,112.1 704.8,133.5 705.7,129.0 706.5,100.9 707.4,126.2 708.2,104.2 709.0,125.7 709.9,126.7 710.7,120.0 711.6,116.4 712.4,127.5 713.2,131.9 714.1,120.6 714.9,114.4 715.8,131.2 716.6,83.5 717.4,127.1 718.3,119.5 719.1,131.4 720.0,110.4 720.8,128.7 721.7,100.6 722.5,135.3 723.3,133.0 724.2,99.4 725.0,130.1 725.9,117.8 726.7,122.6 727.5,123.1 728.4,125.0 729.2,132.5 730.1,104.4 730.9,95.2 731.7,111.2 732.6,114.8 733.4,111.6 734.3,106.0 735.1,98.1 735.9,136.4 736.8,139.3 737.6,115.8 738.5,97.6 739.3,113.6 740.2,116.7 741.0,100.4 741.8,102.3 742.7,110.2 743.5,99.7 744.4,127.0 745.2,111.2 746.0,120.1 746.9,112.1 747.7,119.5 748.6,107.4 749.4,138.7 750.2,118.4 751.1,104.6 751.9,104.4 752.8,132.2 753.6,122.5 754.4,111.9 755.3,119.5 756.1,129.7 757.0,112.3 757.8,117.7 758.6,111.7 759.5,133.2 760.3,115.2 761.2,118.1 762.0,120.0 762.9,103.4 763.7,123.0 764.5,123.6 765.4,141.2 766.2,118.4 767.1,93.5 767.9,112.0 768.7,113.4 769.6,112.6 770.4,125.0 771.3,120.3 772.1,105.0 772.9,108.8 773.8,110.7 774.6,129.9 775.5,115.8 776.3,116.6 777.1,116.2 778.0,123.8 778.8,113.2 779.7,131.1 780.5,121.8 781.4,132.0 782.2,135.5 783.0,105.7 783.9,110.0 784.7,119.1 785.6,109.9 786.4,93.9 787.2,136.2 788.1,97.3 788.9,101.9 789.8,119.9 790.6,108.7 791.4,117.2 792.3,110.7 793.1,118.1 794.0,115.4 794.8,135.5 795.6,117.8 796.5,116.4 797.3,98.2 798.2,124.0 799.0,135.5 799.8,116.9 800.7,119.5 801.5,117.1 802.4,128.2 803.2,108.8 804.1,111.9 804.9,115.2 805.7,119.8 806.6,128.3 807.4,121.5 808.3,115.1 809.1,122.4 809.9,117.5 810.8,113.3 811.6,111.9 812.5,125.1 813.3,113.8 814.1,114.7 815.0,124.2 815.8,109.9 816.7,102.4 817.5,103.0 818.3,112.3 819.2,126.4 820.0,94.9 820.9,125.2 821.7,108.4 822.6,143.8 823.4,119.4 824.2,111.8 825.1,126.9 825.9,125.6 826.8,105.1 827.6,127.3 828.4,115.3 829.3,112.7 830.1,90.2 831.0,101.2 831.8,120.1 832.6,101.6 833.5,125.4 834.3,116.0 835.2,119.7 836.0,109.1 836.8,123.8 837.7,118.5 838.5,111.7 839.4,119.3 840.2,109.8 841.1,110.9 841.9,105.7 842.7,102.7 843.6,125.2 844.4,111.2 845.3,119.9 846.1,114.1 846.9,130.4 847.8,118.3 848.6,110.0 849.5,103.4 850.3,118.6 851.1,89.3 852.0,131.9 852.8,120.2 853.7,111.0 854.5,105.3 855.3,108.1 856.2,121.1 857.0,105.2 857.9,101.3 858.7,115.2 859.5,122.5 860.4,135.0 861.2,115.3 862.1,110.0 862.9,128.0 863.8,124.5 864.6,127.7 865.4,114.6 866.3,102.6 867.1,108.4 868.0,121.5 868.8,103.6 869.6,113.4 870.5,89.6 871.3,109.3 872.2,108.8 873.0,109.5 873.8,114.8 874.7,95.6 875.5,113.2 876.4,92.2 877.2,105.3 878.0,116.2 878.9,97.0 879.7,121.9 880.6,108.5 881.4,106.7 882.3,134.3 883.1,136.2 883.9,120.6 884.8,119.7 885.6,99.0 886.5,115.1 887.3,116.6 888.1,103.8 889.0,128.4 889.8,128.3 890.7,118.5 891.5,116.8 892.3,101.3 893.2,136.5 894.0,118.2 894.9,111.4 895.7,114.2 896.5,113.9 897.4,122.6 898.2,111.3 899.1,119.5 899.9,120.7 900.8,137.7 901.6,108.4 902.4,120.3 903.3,122.6 904.1,116.3 905.0,101.1 905.8,117.2 906.6,113.7 907.5,108.5 908.3,133.9 909.2,106.6 910.0,110.4"/>
<line x1="730" y1="142" x2="754" y2="142" stroke="#ea580c" stroke-width="3"/>
<text x="762" y="147" font-family="Arial" font-size="13" fill="#111827">UCB c=2</text>
</svg>