<svg xmlns="http://www.w3.org/2000/svg" width="980" height="520" viewBox="0 0 980 520">
<rect width="100%" height="100%" fill="#ffffff"/>
<text x="70" y="34" font-family="Arial" font-size="24" font-weight="700" fill="#111827">Optimal Action Rate: 5 arms</text>
<line x1="70" y1="450" x2="910" y2="450" stroke="#111827" stroke-width="1"/>
<line x1="70" y1="70" x2="70" y2="450" stroke="#111827" stroke-width="1"/>
<text x="18" y="260.0" font-family="Arial" font-size="14" fill="#374151" transform="rotate(-90 18,260.0)">Optimal action rate</text>
<text x="460.0" y="502" font-family="Arial" font-size="14" fill="#374151">Step</text>
<line x1="65" y1="450.0" x2="910" y2="450.0" stroke="#e5e7eb" stroke-width="1"/>
<text x="8" y="455.0" font-family="Arial" font-size="12" fill="#4b5563">0.10</text>
<line x1="65" y1="374.0" x2="910" y2="374.0" stroke="#e5e7eb" stroke-width="1"/>
<text x="8" y="379.0" font-family="Arial" font-size="12" fill="#4b5563">0.28</text>
<line x1="65" y1="298.0" x2="910" y2="298.0" stroke="#e5e7eb" stroke-width="1"/>
<text x="8" y="303.0" font-family="Arial" font-size="12" fill="#4b5563">0.46</text>
<line x1="65" y1="222.0" x2="910" y2="222.0" stroke="#e5e7eb" stroke-width="1"/>
<text x="8" y="227.0" font-family="Arial" font-size="12" fill="#4b5563">0.64</text>
<line x1="65" y1="146.0" x2="910" y2="146.0" stroke="#e5e7eb" stroke-width="1"/>
<text x="8" y="151.0" font-family="Arial" font-size="12" fill="#4b5563">0.82</text>
<line x1="65" y1="70.0" x2="910" y2="70.0" stroke="#e5e7eb" stroke-width="1"/>
<text x="8" y="75.0" font-family="Arial" font-size="12" fill="#4b5563">1.00</text>
<polyline fill="none" stroke="#2563eb" stroke-width="2.2" points="70.0,416.2 70.8,417.9 71.7,412.8 72.5,406.1 73.4,405.2 74.2,394.3 75.0,406.9 75.9,426.4 76.7,406.9 77.6,388.4 78.4,410.3 79.2,409.5 80.1,421.3 80.9,406.1 81.8,403.6 82.6,414.5 83.5,401.9 84.3,402.7 85.1,407.8 86.0,404.4 86.8,404.4 87.7,401.9 88.5,401.9 89.3,396.8 90.2,410.3 91.0,406.1 91.9,409.5 92.7,407.8 93.5,394.3 94.4,397.6 95.2,400.2 96.1,412.0 96.9,416.2 97.7,408.6 98.6,406.9 99.4,403.6 100.3,401.9 101.1,404.4 102.0,412.8 102.8,423.8 103.6,423.0 104.5,422.1 105.3,407.8 106.2,406.1 107.0,399.3 107.8,393.4 108.7,406.9 109.5,409.5 110.4,388.4 111.2,385.0 112.0,419.6 112.9,396.0 113.7,406.9 114.6,412.0 115.4,406.9 116.2,397.6 117.1,406.1 117.9,397.6 118.8,393.4 119.6,397.6 120.5,413.7 121.3,405.2 122.1,413.7 123.0,400.2 123.8,407.8 124.7,400.2 125.5,402.7 126.3,406.9 127.2,405.2 128.0,403.6 128.9,404.4 129.7,397.6 130.5,410.3 131.4,403.6 132.2,393.4 133.1,414.5 133.9,412.8 134.7,412.0 135.6,407.8 136.4,406.1 137.3,406.9 138.1,411.2 138.9,413.7 139.8,410.3 140.6,405.2 141.5,414.5 142.3,416.2 143.2,407.8 144.0,423.0 144.8,412.0 145.7,395.1 146.5,415.4 147.4,396.0 148.2,417.9 149.0,406.9 149.9,410.3 150.7,406.1 151.6,398.5 152.4,411.2 153.2,406.1 154.1,413.7 154.9,405.2 155.8,421.3 156.6,412.0 157.4,401.0 158.3,405.2 159.1,407.8 160.0,401.0 160.8,410.3 161.7,399.3 162.5,423.0 163.3,421.3 164.2,403.6 165.0,401.9 165.9,416.2 166.7,409.5 167.5,414.5 168.4,403.6 169.2,397.6 170.1,417.1 170.9,410.3 171.7,406.9 172.6,410.3 173.4,403.6 174.3,417.1 175.1,406.9 175.9,411.2 176.8,406.9 177.6,397.6 178.5,405.2 179.3,411.2 180.2,410.3 181.0,403.6 181.8,407.8 182.7,406.1 183.5,406.1 184.4,409.5 185.2,393.4 186.0,408.6 186.9,416.2 187.7,409.5 188.6,412.0 189.4,412.8 190.2,408.6 191.1,396.8 191.9,399.3 192.8,410.3 193.6,406.9 194.4,417.9 195.3,411.2 196.1,412.8 197.0,404.4 197.8,405.2 198.6,421.3 199.5,424.7 200.3,406.1 201.2,416.2 202.0,403.6 202.9,403.6 203.7,412.8 204.5,410.3 205.4,401.9 206.2,408.6 207.1,409.5 207.9,408.6 208.7,421.3 209.6,392.6 210.4,406.9 211.3,416.2 212.1,404.4 212.9,406.1 213.8,412.8 214.6,406.9 215.5,417.1 216.3,403.6 217.1,417.1 218.0,412.8 218.8,411.2 219.7,401.9 220.5,408.6 221.4,410.3 222.2,410.3 223.0,396.0 223.9,418.8 224.7,426.4 225.6,400.2 226.4,411.2 227.2,411.2 228.1,395.1 228.9,414.5 229.8,418.8 230.6,403.6 231.4,397.6 232.3,419.6 233.1,405.2 234.0,402.7 234.8,394.3 235.6,411.2 236.5,422.1 237.3,396.8 238.2,411.2 239.0,403.6 239.8,401.0 240.7,401.0 241.5,410.3 242.4,405.2 243.2,415.4 244.1,401.0 244.9,420.4 245.7,423.0 246.6,397.6 247.4,408.6 248.3,398.5 249.1,406.1 249.9,412.8 250.8,402.7 251.6,411.2 252.5,418.8 253.3,412.8 254.1,406.9 255.0,404.4 255.8,406.1 256.7,407.8 257.5,413.7 258.3,402.7 259.2,411.2 260.0,409.5 260.9,414.5 261.7,397.6 262.6,409.5 263.4,415.4 264.2,401.9 265.1,410.3 265.9,418.8 266.8,411.2 267.6,417.9 268.4,400.2 269.3,414.5 270.1,412.8 271.0,413.7 271.8,401.0 272.6,392.6 273.5,392.6 274.3,408.6 275.2,396.8 276.0,401.9 276.8,387.5 277.7,402.7 278.5,403.6 279.4,412.0 280.2,406.9 281.1,410.3 281.9,397.6 282.7,401.9 283.6,420.4 284.4,406.1 285.3,390.0 286.1,398.5 286.9,411.2 287.8,404.4 288.6,404.4 289.5,414.5 290.3,408.6 291.1,410.3 292.0,406.1 292.8,414.5 293.7,416.2 294.5,397.6 295.3,413.7 296.2,422.1 297.0,406.9 297.9,405.2 298.7,405.2 299.5,411.2 300.4,412.0 301.2,415.4 302.1,396.8 302.9,420.4 303.8,403.6 304.6,402.7 305.4,401.0 306.3,404.4 307.1,405.2 308.0,408.6 308.8,418.8 309.6,411.2 310.5,407.8 311.3,404.4 312.2,422.1 313.0,413.7 313.8,405.2 314.7,418.8 315.5,397.6 316.4,412.8 317.2,404.4 318.0,398.5 318.9,399.3 319.7,401.9 320.6,405.2 321.4,383.3 322.3,411.2 323.1,397.6 323.9,408.6 324.8,402.7 325.6,415.4 326.5,415.4 327.3,412.0 328.1,406.9 329.0,403.6 329.8,394.3 330.7,401.0 331.5,401.0 332.3,401.9 333.2,404.4 334.0,406.1 334.9,423.0 335.7,408.6 336.5,414.5 337.4,406.1 338.2,417.1 339.1,403.6 339.9,411.2 340.8,404.4 341.6,417.1 342.4,414.5 343.3,418.8 344.1,422.1 345.0,415.4 345.8,422.1 346.6,409.5 347.5,402.7 348.3,416.2 349.2,416.2 350.0,401.9 350.8,397.6 351.7,396.8 352.5,408.6 353.4,406.1 354.2,415.4 355.0,412.0 355.9,410.3 356.7,421.3 357.6,391.7 358.4,400.2 359.2,406.9 360.1,404.4 360.9,420.4 361.8,417.9 362.6,417.1 363.5,408.6 364.3,403.6 365.1,398.5 366.0,415.4 366.8,410.3 367.7,412.0 368.5,404.4 369.3,404.4 370.2,401.0 371.0,418.8 371.9,412.8 372.7,400.2 373.5,400.2 374.4,403.6 375.2,401.0 376.1,415.4 376.9,415.4 377.7,404.4 378.6,397.6 379.4,423.8 380.3,412.0 381.1,412.8 382.0,409.5 382.8,412.8 383.6,412.0 384.5,405.2 385.3,406.1 386.2,417.1 387.0,406.1 387.8,409.5 388.7,396.8 389.5,399.3 390.4,397.6 391.2,424.7 392.0,415.4 392.9,422.1 393.7,412.0 394.6,400.2 395.4,422.1 396.2,417.1 397.1,407.8 397.9,408.6 398.8,408.6 399.6,410.3 400.5,393.4 401.3,402.7 402.1,429.7 403.0,418.8 403.8,392.6 404.7,395.1 405.5,410.3 406.3,401.9 407.2,407.8 408.0,412.8 408.9,416.2 409.7,400.2 410.5,403.6 411.4,412.0 412.2,414.5 413.1,420.4 413.9,410.3 414.7,400.2 415.6,415.4 416.4,411.2 417.3,406.9 418.1,407.8 418.9,412.8 419.8,401.0 420.6,402.7 421.5,409.5 422.3,388.4 423.2,407.8 424.0,403.6 424.8,410.3 425.7,406.9 426.5,399.3 427.4,425.5 428.2,404.4 429.0,405.2 429.9,406.9 430.7,408.6 431.6,395.1 432.4,402.7 433.2,399.3 434.1,398.5 434.9,404.4 435.8,421.3 436.6,412.0 437.4,409.5 438.3,415.4 439.1,396.8 440.0,408.6 440.8,412.8 441.7,420.4 442.5,411.2 443.3,416.2 444.2,413.7 445.0,419.6 445.9,412.0 446.7,413.7 447.5,415.4 448.4,396.0 449.2,404.4 450.1,403.6 450.9,414.5 451.7,407.8 452.6,408.6 453.4,402.7 454.3,408.6 455.1,414.5 455.9,422.1 456.8,417.1 457.6,409.5 458.5,390.0 459.3,403.6 460.2,415.4 461.0,407.8 461.8,404.4 462.7,406.1 463.5,419.6 464.4,412.0 465.2,401.9 466.0,410.3 466.9,412.8 467.7,414.5 468.6,409.5 469.4,406.9 470.2,408.6 471.1,399.3 471.9,401.0 472.8,417.1 473.6,404.4 474.4,417.1 475.3,406.9 476.1,406.9 477.0,407.8 477.8,385.8 478.6,401.9 479.5,414.5 480.3,415.4 481.2,416.2 482.0,396.0 482.9,412.0 483.7,406.1 484.5,405.2 485.4,414.5 486.2,401.9 487.1,412.0 487.9,405.2 488.7,404.4 489.6,407.8 490.4,414.5 491.3,406.1 492.1,410.3 492.9,423.8 493.8,405.2 494.6,412.8 495.5,407.8 496.3,404.4 497.1,407.8 498.0,412.8 498.8,410.3 499.7,405.2 500.5,411.2 501.4,408.6 502.2,395.1 503.0,407.8 503.9,396.8 504.7,392.6 505.6,405.2 506.4,406.1 507.2,406.1 508.1,404.4 508.9,402.7 509.8,407.8 510.6,414.5 511.4,411.2 512.3,406.9 513.1,398.5 514.0,406.1 514.8,404.4 515.6,411.2 516.5,407.8 517.3,398.5 518.2,418.8 519.0,403.6 519.8,423.0 520.7,402.7 521.5,406.1 522.4,390.9 523.2,411.2 524.1,403.6 524.9,395.1 525.7,401.9 526.6,411.2 527.4,405.2 528.3,411.2 529.1,412.8 529.9,401.9 530.8,404.4 531.6,403.6 532.5,407.8 533.3,400.2 534.1,406.1 535.0,421.3 535.8,406.1 536.7,408.6 537.5,402.7 538.3,417.1 539.2,409.5 540.0,405.2 540.9,390.9 541.7,406.1 542.6,412.0 543.4,408.6 544.2,414.5 545.1,395.1 545.9,422.1 546.8,404.4 547.6,405.2 548.4,404.4 549.3,403.6 550.1,407.8 551.0,412.8 551.8,413.7 552.6,407.8 553.5,394.3 554.3,407.8 555.2,411.2 556.0,395.1 556.8,422.1 557.7,401.0 558.5,398.5 559.4,419.6 560.2,412.0 561.1,398.5 561.9,408.6 562.7,402.7 563.6,412.8 564.4,416.2 565.3,406.1 566.1,408.6 566.9,414.5 567.8,402.7 568.6,412.0 569.5,396.8 570.3,415.4 571.1,412.0 572.0,396.0 572.8,406.9 573.7,414.5 574.5,412.8 575.3,401.9 576.2,407.8 577.0,401.9 577.9,401.9 578.7,409.5 579.5,415.4 580.4,406.9 581.2,421.3 582.1,407.8 582.9,406.1 583.8,401.0 584.6,406.9 585.4,398.5 586.3,410.3 587.1,409.5 588.0,406.1 588.8,412.8 589.6,412.0 590.5,418.8 591.3,419.6 592.2,404.4 593.0,422.1 593.8,403.6 594.7,415.4 595.5,406.1 596.4,415.4 597.2,401.0 598.0,391.7 598.9,400.2 599.7,421.3 600.6,414.5 601.4,409.5 602.3,406.9 603.1,396.8 603.9,398.5 604.8,407.8 605.6,403.6 606.5,412.8 607.3,422.1 608.1,417.1 609.0,401.9 609.8,424.7 610.7,428.0 611.5,421.3 612.3,410.3 613.2,401.9 614.0,412.0 614.9,412.0 615.7,408.6 616.5,417.1 617.4,406.1 618.2,406.1 619.1,408.6 619.9,399.3 620.8,399.3 621.6,400.2 622.4,412.8 623.3,419.6 624.1,417.1 625.0,416.2 625.8,402.7 626.6,411.2 627.5,413.7 628.3,392.6 629.2,403.6 630.0,410.3 630.8,408.6 631.7,412.8 632.5,399.3 633.4,402.7 634.2,404.4 635.0,417.1 635.9,401.9 636.7,428.9 637.6,412.0 638.4,402.7 639.2,404.4 640.1,417.9 640.9,405.2 641.8,410.3 642.6,406.1 643.5,405.2 644.3,410.3 645.1,394.3 646.0,418.8 646.8,417.1 647.7,399.3 648.5,408.6 649.3,412.0 650.2,398.5 651.0,397.6 651.9,404.4 652.7,399.3 653.5,410.3 654.4,409.5 655.2,401.9 656.1,402.7 656.9,414.5 657.7,421.3 658.6,409.5 659.4,391.7 660.3,415.4 661.1,401.9 662.0,412.8 662.8,401.9 663.6,404.4 664.5,406.1 665.3,408.6 666.2,412.8 667.0,421.3 667.8,394.3 668.7,400.2 669.5,399.3 670.4,417.1 671.2,407.8 672.0,408.6 672.9,406.1 673.7,410.3 674.6,427.2 675.4,401.9 676.2,408.6 677.1,416.2 677.9,404.4 678.8,414.5 679.6,412.8 680.5,416.2 681.3,414.5 682.1,403.6 683.0,400.2 683.8,413.7 684.7,405.2 685.5,411.2 686.3,406.9 687.2,424.7 688.0,395.1 688.9,403.6 689.7,406.1 690.5,403.6 691.4,406.1 692.2,421.3 693.1,406.9 693.9,412.8 694.7,402.7 695.6,407.8 696.4,412.8 697.3,412.0 698.1,406.9 698.9,411.2 699.8,410.3 700.6,412.0 701.5,399.3 702.3,408.6 703.2,406.1 704.0,418.8 704.8,405.2 705.7,406.1 706.5,401.9 707.4,401.9 708.2,401.0 709.0,417.9 709.9,403.6 710.7,396.8 711.6,409.5 712.4,404.4 713.2,396.8 714.1,416.2 714.9,410.3 715.8,387.5 716.6,410.3 717.4,404.4 718.3,409.5 719.1,402.7 720.0,409.5 720.8,410.3 721.7,393.4 722.5,402.7 723.3,409.5 724.2,401.9 725.0,419.6 725.9,415.4 726.7,410.3 727.5,406.9 728.4,400.2 729.2,412.8 730.1,406.9 730.9,410.3 731.7,404.4 732.6,405.2 733.4,417.1 734.3,403.6 735.1,408.6 735.9,404.4 736.8,417.9 737.6,414.5 738.5,403.6 739.3,417.9 740.2,412.0 741.0,405.2 741.8,400.2 742.7,412.0 743.5,410.3 744.4,398.5 745.2,388.4 746.0,405.2 746.9,403.6 747.7,403.6 748.6,413.7 749.4,407.8 750.2,409.5 751.1,416.2 751.9,400.2 752.8,411.2 753.6,413.7 754.4,417.1 755.3,418.8 756.1,406.9 757.0,396.0 757.8,412.8 758.6,405.2 759.5,403.6 760.3,408.6 761.2,403.6 762.0,407.8 762.9,397.6 763.7,414.5 764.5,407.8 765.4,401.9 766.2,406.1 767.1,390.0 767.9,392.6 768.7,400.2 769.6,412.0 770.4,406.9 771.3,412.8 772.1,413.7 772.9,391.7 773.8,404.4 774.6,416.2 775.5,406.9 776.3,413.7 777.1,406.1 778.0,402.7 778.8,410.3 779.7,410.3 780.5,419.6 781.4,418.8 782.2,415.4 783.0,400.2 783.9,402.7 784.7,412.8 785.6,405.2 786.4,417.9 787.2,411.2 788.1,404.4 788.9,406.1 789.8,419.6 790.6,390.9 791.4,404.4 792.3,402.7 793.1,410.3 794.0,412.8 794.8,416.2 795.6,416.2 796.5,396.8 797.3,409.5 798.2,420.4 799.0,404.4 799.8,413.7 800.7,414.5 801.5,415.4 802.4,417.1 803.2,416.2 804.1,412.0 804.9,413.7 805.7,430.6 806.6,391.7 807.4,389.2 808.3,395.1 809.1,391.7 809.9,406.1 810.8,399.3 811.6,418.8 812.5,402.7 813.3,405.2 814.1,401.0 815.0,390.0 815.8,412.0 816.7,425.5 817.5,402.7 818.3,401.0 819.2,403.6 820.0,402.7 820.9,407.8 821.7,404.4 822.6,412.0 823.4,414.5 824.2,406.9 825.1,414.5 825.9,410.3 826.8,416.2 827.6,401.9 828.4,402.7 829.3,412.8 830.1,402.7 831.0,412.8 831.8,394.3 832.6,399.3 833.5,409.5 834.3,396.8 835.2,397.6 836.0,401.0 836.8,411.2 837.7,399.3 838.5,402.7 839.4,401.9 840.2,396.8 841.1,405.2 841.9,391.7 842.7,414.5 843.6,398.5 844.4,410.3 845.3,410.3 846.1,402.7 846.9,421.3 847.8,401.0 848.6,415.4 849.5,419.6 850.3,405.2 851.1,418.8 852.0,416.2 852.8,401.9 853.7,427.2 854.5,407.8 855.3,404.4 856.2,406.1 857.0,408.6 857.9,406.9 858.7,412.0 859.5,417.9 860.4,409.5 861.2,412.8 862.1,395.1 862.9,401.9 863.8,400.2 864.6,405.2 865.4,392.6 866.3,392.6 867.1,404.4 868.0,405.2 868.8,401.9 869.6,417.9 870.5,402.7 871.3,400.2 872.2,408.6 873.0,408.6 873.8,411.2 874.7,398.5 875.5,393.4 876.4,403.6 877.2,406.1 878.0,412.0 878.9,415.4 879.7,417.1 880.6,396.0 881.4,413.7 882.3,417.1 883.1,402.7 883.9,401.0 884.8,402.7 885.6,408.6 886.5,408.6 887.3,416.2 888.1,417.9 889.0,405.2 889.8,406.9 890.7,404.4 891.5,401.9 892.3,417.9 893.2,401.0 894.0,396.8 894.9,412.8 895.7,422.1 896.5,401.9 897.4,406.9 898.2,412.0 899.1,402.7 899.9,406.9 900.8,397.6 901.6,405.2 902.4,417.1 903.3,421.3 904.1,402.7 905.0,401.9 905.8,383.3 906.6,393.4 907.5,399.3 908.3,412.0 909.2,417.9 910.0,400.2"/>
<line x1="730" y1="54" x2="754" y2="54" stroke="#2563eb" stroke-width="3"/>
<text x="762" y="59" font-family="Arial" font-size="13" fill="#111827">Random</text>
<polyline fill="none" stroke="#16a34a" stroke-width="2.2" points="70.0,400.2 70.8,367.2 71.7,341.1 72.5,325.0 73.4,304.8 74.2,294.6 75.0,283.6 75.9,280.3 76.7,275.2 77.6,269.3 78.4,267.6 79.2,269.3 80.1,265.1 80.9,260.8 81.8,260.8 82.6,260.8 83.5,260.8 84.3,261.7 85.1,261.7 86.0,261.7 86.8,260.0 87.7,258.3 88.5,258.3 89.3,258.3 90.2,258.3 91.0,259.2 91.9,258.3 92.7,257.5 93.5,256.6 94.4,256.6 95.2,256.6 96.1,256.6 96.9,255.8 97.7,255.8 98.6,254.9 99.4,254.9 100.3,254.1 101.1,254.9 102.0,254.9 102.8,254.9 103.6,254.9 104.5,254.9 105.3,254.9 106.2,254.1 107.0,254.1 107.8,254.1 108.7,254.1 109.5,254.1 110.4,254.1 111.2,254.1 112.0,254.1 112.9,254.1 113.7,254.1 114.6,254.1 115.4,254.1 116.2,254.1 117.1,254.1 117.9,254.1 118.8,254.1 119.6,254.1 120.5,254.1 121.3,254.1 122.1,254.1 123.0,254.1 123.8,254.1 124.7,253.2 125.5,253.2 126.3,252.4 127.2,252.4 128.0,252.4 128.9,252.4 129.7,252.4 130.5,252.4 131.4,252.4 132.2,252.4 133.1,252.4 133.9,252.4 134.7,252.4 135.6,252.4 136.4,252.4 137.3,252.4 138.1,252.4 138.9,253.2 139.8,253.2 140.6,252.4 141.5,252.4 142.3,252.4 143.2,252.4 144.0,252.4 144.8,252.4 145.7,251.6 146.5,253.2 147.4,253.2 148.2,253.2 149.0,253.2 149.9,253.2 150.7,253.2 151.6,252.4 152.4,253.2 153.2,253.2 154.1,253.2 154.9,253.2 155.8,253.2 156.6,253.2 157.4,253.2 158.3,253.2 159.1,253.2 160.0,253.2 160.8,253.2 161.7,253.2 162.5,253.2 163.3,253.2 164.2,253.2 165.0,253.2 165.9,253.2 166.7,253.2 167.5,253.2 168.4,253.2 169.2,253.2 170.1,253.2 170.9,253.2 171.7,253.2 172.6,252.4 173.4,252.4 174.3,252.4 175.1,252.4 175.9,252.4 176.8,251.6 177.6,252.4 178.5,251.6 179.3,251.6 180.2,251.6 181.0,251.6 181.8,251.6 182.7,251.6 183.5,250.7 184.4,250.7 185.2,250.7 186.0,250.7 186.9,250.7 187.7,250.7 188.6,250.7 189.4,250.7 190.2,250.7 191.1,250.7 191.9,250.7 192.8,250.7 193.6,250.7 194.4,250.7 195.3,250.7 196.1,250.7 197.0,250.7 197.8,250.7 198.6,250.7 199.5,250.7 200.3,250.7 201.2,250.7 202.0,250.7 202.9,250.7 203.7,250.7 204.5,250.7 205.4,250.7 206.2,250.7 207.1,250.7 207.9,250.7 208.7,250.7 209.6,250.7 210.4,250.7 211.3,250.7 212.1,250.7 212.9,250.7 213.8,250.7 214.6,250.7 215.5,250.7 216.3,250.7 217.1,250.7 218.0,250.7 218.8,250.7 219.7,250.7 220.5,250.7 221.4,250.7 222.2,250.7 223.0,250.7 223.9,250.7 224.7,250.7 225.6,250.7 226.4,250.7 227.2,250.7 228.1,250.7 228.9,250.7 229.8,250.7 230.6,250.7 231.4,250.7 232.3,250.7 233.1,250.7 234.0,250.7 234.8,250.7 235.6,250.7 236.5,250.7 237.3,250.7 238.2,250.7 239.0,250.7 239.8,250.7 240.7,250.7 241.5,250.7 242.4,250.7 243.2,250.7 244.1,250.7 244.9,250.7 245.7,250.7 246.6,250.7 247.4,250.7 248.3,250.7 249.1,250.7 249.9,250.7 250.8,250.7 251.6,250.7 252.5,250.7 253.3,250.7 254.1,250.7 255.0,250.7 255.8,250.7 256.7,250.7 257.5,250.7 258.3,250.7 259.2,250.7 260.0,250.7 260.9,250.7 261.7,250.7 262.6,250.7 263.4,250.7 264.2,250.7 265.1,250.7 265.9,250.7 266.8,250.7 267.6,250.7 268.4,250.7 269.3,250.7 270.1,250.7 271.0,250.7 271.8,250.7 272.6,250.7 273.5,250.7 274.3,250.7 275.2,250.7 276.0,250.7 276.8,250.7 277.7,250.7 278.5,250.7 279.4,250.7 280.2,250.7 281.1,250.7 281.9,250.7 282.7,250.7 283.6,250.7 284.4,250.7 285.3,250.7 286.1,250.7 286.9,250.7 287.8,250.7 288.6,250.7 289.5,250.7 290.3,250.7 291.1,250.7 292.0,250.7 292.8,250.7 293.7,250.7 294.5,250.7 295.3,250.7 296.2,250.7 297.0,250.7 297.9,250.7 298.7,250.7 299.5,250.7 300.4,250.7 301.2,250.7 302.1,250.7 302.9,250.7 303.8,250.7 304.6,250.7 305.4,250.7 306.3,250.7 307.1,250.7 308.0,250.7 308.8,250.7 309.6,250.7 310.5,250.7 311.3,250.7 312.2,250.7 313.0,250.7 313.8,250.7 314.7,250.7 315.5,250.7 316.4,250.7 317.2,250.7 318.0,250.7 318.9,250.7 319.7,250.7 320.6,250.7 321.4,250.7 322.3,250.7 323.1,250.7 323.9,250.7 324.8,250.7 325.6,250.7 326.5,250.7 327.3,250.7 328.1,250.7 329.0,250.7 329.8,250.7 330.7,249.9 331.5,249.9 332.3,249.9 333.2,249.9 334.0,249.9 334.9,249.9 335.7,249.9 336.5,250.7 337.4,250.7 338.2,249.9 339.1,249.9 339.9,249.9 340.8,249.9 341.6,249.9 342.4,249.9 343.3,249.9 344.1,249.9 345.0,249.9 345.8,249.9 346.6,249.9 347.5,249.9 348.3,249.9 349.2,249.9 350.0,249.9 350.8,249.9 351.7,249.9 352.5,249.9 353.4,249.9 354.2,249.9 355.0,249.9 355.9,249.9 356.7,249.9 357.6,249.9 358.4,249.9 359.2,249.9 360.1,249.9 360.9,249.9 361.8,249.9 362.6,249.9 363.5,249.9 364.3,249.9 365.1,249.9 366.0,249.9 366.8,249.9 367.7,249.9 368.5,249.9 369.3,249.9 370.2,249.9 371.0,249.9 371.9,249.9 372.7,249.9 373.5,249.9 374.4,249.9 375.2,249.9 376.1,249.9 376.9,249.9 377.7,249.9 378.6,249.9 379.4,249.9 380.3,249.9 381.1,249.9 382.0,249.9 382.8,249.9 383.6,249.9 384.5,249.9 385.3,249.9 386.2,249.9 387.0,249.9 387.8,249.9 388.7,249.9 389.5,249.9 390.4,249.9 391.2,249.9 392.0,249.9 392.9,249.9 393.7,249.9 394.6,249.9 395.4,249.9 396.2,249.9 397.1,249.9 397.9,249.9 398.8,249.9 399.6,249.9 400.5,249.9 401.3,249.9 402.1,249.9 403.0,249.9 403.8,249.9 404.7,249.9 405.5,249.9 406.3,249.9 407.2,249.9 408.0,249.9 408.9,249.9 409.7,249.9 410.5,249.9 411.4,249.9 412.2,249.9 413.1,249.9 413.9,249.9 414.7,249.9 415.6,249.9 416.4,249.9 417.3,249.9 418.1,249.9 418.9,249.9 419.8,249.9 420.6,249.9 421.5,249.9 422.3,249.9 423.2,249.9 424.0,249.9 424.8,249.9 425.7,249.9 426.5,249.9 427.4,249.9 428.2,249.9 429.0,249.9 429.9,249.9 430.7,249.9 431.6,249.9 432.4,249.9 433.2,249.9 434.1,249.9 434.9,249.9 435.8,249.9 436.6,249.9 437.4,249.9 438.3,249.9 439.1,249.9 440.0,249.9 440.8,249.9 441.7,249.9 442.5,249.9 443.3,249.9 444.2,249.9 445.0,249.9 445.9,249.9 446.7,249.9 447.5,249.9 448.4,249.9 449.2,249.9 450.1,249.9 450.9,249.9 451.7,249.9 452.6,249.9 453.4,249.9 454.3,249.9 455.1,249.9 455.9,249.9 456.8,249.9 457.6,249.9 458.5,249.9 459.3,249.9 460.2,249.9 461.0,249.9 461.8,249.9 462.7,249.9 463.5,249.9 464.4,249.9 465.2,249.9 466.0,249.9 466.9,249.9 467.7,249.9 468.6,249.9 469.4,249.9 470.2,249.9 471.1,249.9 471.9,249.9 472.8,249.9 473.6,249.9 474.4,249.9 475.3,249.9 476.1,249.9 477.0,249.9 477.8,249.9 478.6,249.9 479.5,249.9 480.3,249.9 481.2,249.9 482.0,249.9 482.9,249.9 483.7,249.9 484.5,249.9 485.4,249.9 486.2,249.9 487.1,249.9 487.9,249.9 488.7,249.9 489.6,249.9 490.4,249.9 491.3,249.9 492.1,249.9 492.9,249.9 493.8,249.9 494.6,249.9 495.5,249.9 496.3,249.9 497.1,249.9 498.0,249.9 498.8,249.9 499.7,249.9 500.5,249.9 501.4,249.9 502.2,249.9 503.0,249.9 503.9,249.9 504.7,249.9 505.6,249.9 506.4,249.9 507.2,249.9 508.1,249.9 508.9,249.9 509.8,249.9 510.6,249.9 511.4,249.9 512.3,249.9 513.1,249.9 514.0,249.9 514.8,249.9 515.6,249.9 516.5,249.9 517.3,249.9 518.2,249.9 519.0,249.9 519.8,249.9 520.7,249.9 521.5,249.9 522.4,249.9 523.2,249.9 524.1,249.9 524.9,249.9 525.7,249.9 526.6,249.9 527.4,249.9 528.3,249.9 529.1,249.9 529.9,249.9 530.8,249.9 531.6,249.9 532.5,249.9 533.3,249.9 534.1,249.9 535.0,249.9 535.8,249.9 536.7,249.9 537.5,249.9 538.3,249.9 539.2,249.9 540.0,249.9 540.9,249.9 541.7,249.9 542.6,249.9 543.4,249.9 544.2,249.9 545.1,249.9 545.9,249.9 546.8,249.9 547.6,249.9 548.4,249.9 549.3,249.9 550.1,249.9 551.0,249.9 551.8,249.9 552.6,249.9 553.5,249.9 554.3,249.9 555.2,249.9 556.0,249.9 556.8,249.9 557.7,249.9 558.5,249.9 559.4,249.9 560.2,249.9 561.1,249.9 561.9,249.9 562.7,249.9 563.6,249.9 564.4,249.9 565.3,249.9 566.1,249.9 566.9,249.9 567.8,249.9 568.6,249.9 569.5,249.9 570.3,249.9 571.1,249.9 572.0,249.9 572.8,249.9 573.7,249.9 574.5,249.9 575.3,249.9 576.2,249.9 577.0,249.9 577.9,249.9 578.7,249.9 579.5,249.9 580.4,249.9 581.2,249.9 582.1,249.9 582.9,249.9 583.8,249.9 584.6,249.9 585.4,249.9 586.3,249.9 587.1,249.9 588.0,249.9 588.8,249.9 589.6,249.9 590.5,249.9 591.3,249.9 592.2,249.9 593.0,249.9 593.8,249.9 594.7,249.9 595.5,249.9 596.4,249.9 597.2,249.9 598.0,249.9 598.9,249.9 599.7,249.9 600.6,249.9 601.4,249.9 602.3,249.9 603.1,249.9 603.9,249.9 604.8,249.9 605.6,249.9 606.5,249.9 607.3,249.9 608.1,249.9 609.0,249.9 609.8,249.9 610.7,249.9 611.5,249.9 612.3,249.9 613.2,249.9 614.0,249.9 614.9,249.9 615.7,249.9 616.5,249.9 617.4,249.9 618.2,249.9 619.1,249.9 619.9,249.9 620.8,249.9 621.6,249.9 622.4,249.9 623.3,249.9 624.1,249.9 625.0,249.9 625.8,249.9 626.6,249.9 627.5,249.9 628.3,249.9 629.2,249.9 630.0,249.9 630.8,249.9 631.7,249.9 632.5,249.9 633.4,249.9 634.2,249.9 635.0,249.9 635.9,249.9 636.7,249.9 637.6,249.9 638.4,249.9 639.2,249.9 640.1,249.9 640.9,249.9 641.8,249.9 642.6,249.9 643.5,249.9 644.3,249.9 645.1,249.9 646.0,249.9 646.8,249.9 647.7,249.9 648.5,249.9 649.3,249.9 650.2,249.9 651.0,249.9 651.9,249.9 652.7,249.9 653.5,249.9 654.4,249.9 655.2,249.9 656.1,249.9 656.9,249.9 657.7,249.9 658.6,249.9 659.4,249.9 660.3,249.9 661.1,249.9 662.0,249.9 662.8,249.9 663.6,249.9 664.5,249.9 665.3,249.9 666.2,249.9 667.0,249.9 667.8,249.9 668.7,249.9 669.5,249.9 670.4,249.9 671.2,249.9 672.0,249.9 672.9,249.9 673.7,249.9 674.6,249.9 675.4,249.9 676.2,249.9 677.1,249.9 677.9,249.9 678.8,249.9 679.6,249.9 680.5,249.9 681.3,249.9 682.1,249.9 683.0,249.9 683.8,249.9 684.7,249.9 685.5,249.9 686.3,249.9 687.2,249.9 688.0,249.9 688.9,249.9 689.7,249.9 690.5,249.9 691.4,249.9 692.2,249.9 693.1,249.9 693.9,249.9 694.7,249.9 695.6,249.9 696.4,249.9 697.3,249.9 698.1,249.9 698.9,249.9 699.8,249.9 700.6,249.9 701.5,249.9 702.3,249.9 703.2,249.9 704.0,249.9 704.8,249.9 705.7,249.9 706.5,249.9 707.4,249.9 708.2,249.9 709.0,249.9 709.9,249.9 710.7,249.9 711.6,249.9 712.4,249.9 713.2,249.9 714.1,249.9 714.9,249.9 715.8,249.9 716.6,249.9 717.4,249.9 718.3,249.9 719.1,249.9 720.0,249.9 720.8,249.9 721.7,249.9 722.5,249.9 723.3,249.9 724.2,249.9 725.0,249.9 725.9,249.9 726.7,249.9 727.5,249.9 728.4,249.9 729.2,249.9 730.1,249.9 730.9,249.9 731.7,249.9 732.6,249.9 733.4,249.9 734.3,249.9 735.1,249.9 735.9,249.9 736.8,249.9 737.6,249.9 738.5,249.9 739.3,249.9 740.2,249.9 741.0,249.9 741.8,249.9 742.7,249.9 743.5,249.9 744.4,249.9 745.2,249.9 746.0,249.9 746.9,249.9 747.7,249.9 748.6,249.9 749.4,249.9 750.2,249.9 751.1,249.9 751.9,249.9 752.8,249.9 753.6,249.9 754.4,249.9 755.3,249.9 756.1,249.9 757.0,249.9 757.8,249.9 758.6,249.9 759.5,249.9 760.3,249.9 761.2,249.9 762.0,249.9 762.9,249.9 763.7,249.9 764.5,249.9 765.4,249.9 766.2,249.9 767.1,249.9 767.9,249.9 768.7,249.9 769.6,249.9 770.4,249.9 771.3,249.9 772.1,249.9 772.9,249.9 773.8,249.9 774.6,249.9 775.5,249.9 776.3,249.9 777.1,249.9 778.0,249.9 778.8,249.9 779.7,249.9 780.5,249.9 781.4,249.9 782.2,249.9 783.0,249.9 783.9,249.9 784.7,249.9 785.6,249.9 786.4,249.9 787.2,249.9 788.1,249.9 788.9,249.9 789.8,249.9 790.6,249.9 791.4,249.9 792.3,249.9 793.1,249.9 794.0,249.9 794.8,249.9 795.6,249.9 796.5,249.9 797.3,249.9 798.2,249.9 799.0,249.9 799.8,249.9 800.7,249.9 801.5,249.9 802.4,249.9 803.2,249.9 804.1,249.9 804.9,249.9 805.7,249.9 806.6,249.9 807.4,249.9 808.3,249.9 809.1,249.9 809.9,249.9 810.8,249.9 811.6,249.9 812.5,249.9 813.3,249.9 814.1,249.9 815.0,249.9 815.8,249.9 816.7,249.9 817.5,249.9 818.3,249.9 819.2,249.9 820.0,249.9 820.9,249.9 821.7,249.9 822.6,249.9 823.4,249.9 824.2,249.9 825.1,249.9 825.9,249.9 826.8,249.9 827.6,249.9 828.4,249.9 829.3,249.9 830.1,249.9 831.0,249.9 831.8,249.9 832.6,249.9 833.5,249.9 834.3,249.9 835.2,249.9 836.0,249.9 836.8,249.9 837.7,249.9 838.5,249.9 839.4,249.9 840.2,249.9 841.1,249.9 841.9,249.9 842.7,249.9 843.6,249.9 844.4,249.9 845.3,249.9 846.1,249.9 846.9,249.9 847.8,249.9 848.6,249.9 849.5,249.9 850.3,249.9 851.1,249.9 852.0,249.9 852.8,249.9 853.7,249.9 854.5,249.9 855.3,249.9 856.2,249.9 857.0,249.9 857.9,249.9 858.7,249.9 859.5,249.9 860.4,249.9 861.2,249.9 862.1,249.9 862.9,249.9 863.8,249.9 864.6,249.9 865.4,249.9 866.3,249.9 867.1,249.9 868.0,249.9 868.8,249.9 869.6,249.9 870.5,249.9 871.3,249.9 872.2,249.9 873.0,249.9 873.8,249.9 874.7,249.9 875.5,249.9 876.4,249.9 877.2,249.9 878.0,249.9 878.9,249.9 879.7,249.9 880.6,249.9 881.4,249.9 882.3,249.9 883.1,249.9 883.9,249.9 884.8,249.9 885.6,249.9 886.5,249.9 887.3,249.9 888.1,249.9 889.0,249.9 889.8,249.9 890.7,249.9 891.5,249.9 892.3,249.9 893.2,249.9 894.0,249.9 894.9,249.9 895.7,249.9 896.5,249.9 897.4,249.9 898.2,249.9 899.1,249.9 899.9,249.9 900.8,249.9 901.6,249.9 902.4,249.9 903.3,249.9 904.1,249.9 905.0,249.9 905.8,249.9 906.6,249.9 907.5,249.9 908.3,249.9 909.2,249.9 910.0,249.9"/>
<line x1="730" y1="76" x2="754" y2="76" stroke="#16a34a" stroke-width="3"/>
<text x="762" y="81" font-family="Arial" font-size="13" fill="#111827">Greedy</text>
<polyline fill="none" stroke="#dc2626" stroke-width="2.2" points="70.0,404.4 70.8,361.3 71.7,339.4 72.5,320.0 73.4,295.5 74.2,285.3 75.0,277.7 75.9,270.1 76.7,263.4 77.6,265.1 78.4,253.2 79.2,250.7 80.1,254.1 80.9,248.2 81.8,249.0 82.6,249.0 83.5,247.3 84.3,244.0 85.1,248.2 86.0,246.5 86.8,246.5 87.7,244.0 88.5,245.6 89.3,243.1 90.2,244.8 91.0,244.8 91.9,246.5 92.7,241.4 93.5,239.7 94.4,239.7 95.2,240.6 96.1,238.9 96.9,238.0 97.7,238.9 98.6,238.0 99.4,238.9 100.3,238.0 101.1,238.9 102.0,238.9 102.8,239.7 103.6,236.4 104.5,237.2 105.3,237.2 106.2,235.5 107.0,234.7 107.8,233.8 108.7,233.8 109.5,234.7 110.4,233.0 111.2,237.2 112.0,237.2 112.9,232.1 113.7,233.0 114.6,232.1 115.4,232.1 116.2,233.0 117.1,233.0 117.9,231.3 118.8,232.1 119.6,233.0 120.5,232.1 121.3,229.6 122.1,229.6 123.0,233.8 123.8,232.1 124.7,231.3 125.5,230.4 126.3,231.3 127.2,232.1 128.0,229.6 128.9,231.3 129.7,231.3 130.5,232.1 131.4,231.3 132.2,229.6 133.1,230.4 133.9,229.6 134.7,231.3 135.6,234.7 136.4,230.4 137.3,228.8 138.1,228.8 138.9,229.6 139.8,228.8 140.6,228.8 141.5,228.8 142.3,230.4 143.2,230.4 144.0,227.9 144.8,228.8 145.7,225.4 146.5,227.9 147.4,227.9 148.2,227.1 149.0,225.4 149.9,224.5 150.7,224.5 151.6,225.4 152.4,223.7 153.2,222.8 154.1,223.7 154.9,222.8 155.8,222.8 156.6,222.0 157.4,219.5 158.3,222.0 159.1,223.7 160.0,224.5 160.8,222.0 161.7,223.7 162.5,226.2 163.3,223.7 164.2,222.8 165.0,223.7 165.9,223.7 166.7,226.2 167.5,224.5 168.4,222.0 169.2,219.5 170.1,222.8 170.9,221.2 171.7,220.3 172.6,218.6 173.4,221.2 174.3,222.0 175.1,220.3 175.9,217.8 176.8,216.9 177.6,217.8 178.5,217.8 179.3,218.6 180.2,220.3 181.0,220.3 181.8,218.6 182.7,219.5 183.5,216.9 184.4,218.6 185.2,219.5 186.0,217.8 186.9,217.8 187.7,218.6 188.6,218.6 189.4,219.5 190.2,220.3 191.1,221.2 191.9,219.5 192.8,218.6 193.6,217.8 194.4,218.6 195.3,220.3 196.1,217.8 197.0,218.6 197.8,220.3 198.6,217.8 199.5,220.3 200.3,217.8 201.2,217.8 202.0,217.8 202.9,220.3 203.7,220.3 204.5,217.8 205.4,217.8 206.2,219.5 207.1,218.6 207.9,216.9 208.7,215.2 209.6,219.5 210.4,216.1 211.3,218.6 212.1,219.5 212.9,215.2 213.8,216.9 214.6,216.1 215.5,220.3 216.3,219.5 217.1,217.8 218.0,216.9 218.8,216.1 219.7,218.6 220.5,217.8 221.4,216.9 222.2,218.6 223.0,216.9 223.9,216.1 224.7,213.6 225.6,215.2 226.4,216.1 227.2,215.2 228.1,216.1 228.9,215.2 229.8,216.9 230.6,216.1 231.4,216.1 232.3,216.9 233.1,213.6 234.0,216.1 234.8,216.1 235.6,213.6 236.5,212.7 237.3,212.7 238.2,213.6 239.0,213.6 239.8,209.3 240.7,213.6 241.5,210.2 242.4,213.6 243.2,211.9 244.1,212.7 244.9,209.3 245.7,211.0 246.6,209.3 247.4,207.6 248.3,209.3 249.1,211.9 249.9,211.9 250.8,209.3 251.6,210.2 252.5,207.6 253.3,206.0 254.1,205.1 255.0,206.8 255.8,207.6 256.7,207.6 257.5,206.0 258.3,206.0 259.2,203.4 260.0,205.1 260.9,201.7 261.7,205.1 262.6,204.3 263.4,204.3 264.2,205.1 265.1,204.3 265.9,205.1 266.8,204.3 267.6,207.6 268.4,204.3 269.3,206.0 270.1,203.4 271.0,204.3 271.8,206.8 272.6,206.0 273.5,203.4 274.3,205.1 275.2,201.7 276.0,202.6 276.8,202.6 277.7,203.4 278.5,205.1 279.4,200.9 280.2,201.7 281.1,204.3 281.9,203.4 282.7,205.1 283.6,203.4 284.4,203.4 285.3,201.7 286.1,204.3 286.9,205.1 287.8,204.3 288.6,200.9 289.5,203.4 290.3,203.4 291.1,202.6 292.0,205.1 292.8,201.7 293.7,201.7 294.5,201.7 295.3,205.1 296.2,202.6 297.0,202.6 297.9,203.4 298.7,200.9 299.5,204.3 300.4,201.7 301.2,203.4 302.1,200.0 302.9,202.6 303.8,199.2 304.6,200.0 305.4,202.6 306.3,200.9 307.1,200.0 308.0,199.2 308.8,200.0 309.6,203.4 310.5,201.7 311.3,201.7 312.2,202.6 313.0,201.7 313.8,201.7 314.7,199.2 315.5,199.2 316.4,201.7 317.2,201.7 318.0,200.0 318.9,199.2 319.7,200.9 320.6,197.5 321.4,199.2 322.3,201.7 323.1,200.9 323.9,200.9 324.8,200.0 325.6,199.2 326.5,201.7 327.3,200.0 328.1,199.2 329.0,199.2 329.8,200.0 330.7,200.0 331.5,200.0 332.3,198.4 333.2,201.7 334.0,198.4 334.9,198.4 335.7,197.5 336.5,197.5 337.4,196.7 338.2,200.0 339.1,200.0 339.9,197.5 340.8,196.7 341.6,203.4 342.4,198.4 343.3,199.2 344.1,199.2 345.0,200.0 345.8,198.4 346.6,197.5 347.5,200.0 348.3,199.2 349.2,199.2 350.0,196.7 350.8,196.7 351.7,197.5 352.5,197.5 353.4,197.5 354.2,196.7 355.0,199.2 355.9,200.0 356.7,198.4 357.6,197.5 358.4,200.9 359.2,197.5 360.1,198.4 360.9,198.4 361.8,199.2 362.6,200.0 363.5,201.7 364.3,198.4 365.1,197.5 366.0,195.0 366.8,200.0 367.7,197.5 368.5,195.0 369.3,196.7 370.2,198.4 371.0,196.7 371.9,199.2 372.7,198.4 373.5,197.5 374.4,195.8 375.2,198.4 376.1,199.2 376.9,198.4 377.7,199.2 378.6,195.8 379.4,202.6 380.3,198.4 381.1,195.8 382.0,203.4 382.8,195.8 383.6,196.7 384.5,196.7 385.3,195.8 386.2,198.4 387.0,195.8 387.8,197.5 388.7,194.1 389.5,196.7 390.4,197.5 391.2,198.4 392.0,199.2 392.9,199.2 393.7,199.2 394.6,198.4 395.4,199.2 396.2,195.0 397.1,196.7 397.9,194.1 398.8,195.0 399.6,195.8 400.5,195.8 401.3,195.0 402.1,193.3 403.0,197.5 403.8,195.8 404.7,196.7 405.5,196.7 406.3,194.1 407.2,196.7 408.0,196.7 408.9,194.1 409.7,199.2 410.5,195.0 411.4,194.1 412.2,194.1 413.1,193.3 413.9,193.3 414.7,195.8 415.6,192.4 416.4,194.1 417.3,190.8 418.1,191.6 418.9,191.6 419.8,192.4 420.6,191.6 421.5,192.4 422.3,194.1 423.2,190.8 424.0,192.4 424.8,193.3 425.7,190.8 426.5,192.4 427.4,190.8 428.2,192.4 429.0,193.3 429.9,193.3 430.7,190.8 431.6,190.8 432.4,192.4 433.2,195.0 434.1,194.1 434.9,189.9 435.8,192.4 436.6,196.7 437.4,193.3 438.3,194.1 439.1,189.1 440.0,192.4 440.8,189.9 441.7,192.4 442.5,190.8 443.3,189.1 444.2,189.9 445.0,189.1 445.9,189.9 446.7,189.9 447.5,189.9 448.4,187.4 449.2,188.2 450.1,188.2 450.9,187.4 451.7,188.2 452.6,189.1 453.4,192.4 454.3,187.4 455.1,187.4 455.9,188.2 456.8,190.8 457.6,189.1 458.5,188.2 459.3,189.9 460.2,187.4 461.0,186.5 461.8,189.1 462.7,185.7 463.5,187.4 464.4,188.2 465.2,187.4 466.0,185.7 466.9,190.8 467.7,186.5 468.6,188.2 469.4,186.5 470.2,184.8 471.1,189.1 471.9,188.2 472.8,186.5 473.6,186.5 474.4,186.5 475.3,188.2 476.1,189.1 477.0,187.4 477.8,184.8 478.6,188.2 479.5,188.2 480.3,185.7 481.2,188.2 482.0,186.5 482.9,184.8 483.7,189.1 484.5,187.4 485.4,186.5 486.2,185.7 487.1,184.8 487.9,188.2 488.7,188.2 489.6,189.9 490.4,189.1 491.3,186.5 492.1,189.1 492.9,189.1 493.8,190.8 494.6,186.5 495.5,185.7 496.3,184.8 497.1,189.9 498.0,189.9 498.8,190.8 499.7,184.8 500.5,185.7 501.4,187.4 502.2,185.7 503.0,188.2 503.9,188.2 504.7,188.2 505.6,186.5 506.4,188.2 507.2,185.7 508.1,187.4 508.9,184.8 509.8,184.0 510.6,185.7 511.4,189.1 512.3,184.8 513.1,186.5 514.0,186.5 514.8,184.0 515.6,188.2 516.5,190.8 517.3,191.6 518.2,187.4 519.0,186.5 519.8,188.2 520.7,188.2 521.5,186.5 522.4,185.7 523.2,185.7 524.1,186.5 524.9,185.7 525.7,189.1 526.6,186.5 527.4,187.4 528.3,186.5 529.1,183.2 529.9,185.7 530.8,184.8 531.6,185.7 532.5,185.7 533.3,185.7 534.1,189.9 535.0,184.0 535.8,185.7 536.7,183.2 537.5,185.7 538.3,185.7 539.2,181.5 540.0,188.2 540.9,185.7 541.7,188.2 542.6,186.5 543.4,185.7 544.2,186.5 545.1,189.1 545.9,187.4 546.8,188.2 547.6,188.2 548.4,187.4 549.3,187.4 550.1,184.8 551.0,187.4 551.8,185.7 552.6,186.5 553.5,185.7 554.3,184.8 555.2,189.1 556.0,186.5 556.8,188.2 557.7,185.7 558.5,184.8 559.4,186.5 560.2,186.5 561.1,186.5 561.9,185.7 562.7,184.0 563.6,189.1 564.4,184.8 565.3,186.5 566.1,185.7 566.9,185.7 567.8,185.7 568.6,184.8 569.5,184.0 570.3,185.7 571.1,184.8 572.0,183.2 572.8,183.2 573.7,182.3 574.5,182.3 575.3,183.2 576.2,184.8 577.0,184.0 577.9,184.8 578.7,184.0 579.5,186.5 580.4,185.7 581.2,188.2 582.1,185.7 582.9,184.8 583.8,183.2 584.6,183.2 585.4,186.5 586.3,186.5 587.1,184.0 588.0,184.0 588.8,186.5 589.6,183.2 590.5,184.0 591.3,183.2 592.2,184.0 593.0,184.0 593.8,185.7 594.7,184.8 595.5,185.7 596.4,183.2 597.2,183.2 598.0,183.2 598.9,182.3 599.7,186.5 600.6,183.2 601.4,180.6 602.3,183.2 603.1,180.6 603.9,184.0 604.8,182.3 605.6,184.8 606.5,181.5 607.3,182.3 608.1,181.5 609.0,181.5 609.8,180.6 610.7,183.2 611.5,181.5 612.3,181.5 613.2,178.9 614.0,184.8 614.9,184.8 615.7,179.8 616.5,180.6 617.4,182.3 618.2,181.5 619.1,178.9 619.9,186.5 620.8,181.5 621.6,183.2 622.4,178.9 623.3,181.5 624.1,178.9 625.0,179.8 625.8,183.2 626.6,179.8 627.5,180.6 628.3,179.8 629.2,182.3 630.0,183.2 630.8,186.5 631.7,181.5 632.5,182.3 633.4,182.3 634.2,181.5 635.0,182.3 635.9,179.8 636.7,180.6 637.6,178.1 638.4,180.6 639.2,181.5 640.1,178.9 640.9,182.3 641.8,178.1 642.6,180.6 643.5,179.8 644.3,179.8 645.1,178.1 646.0,178.1 646.8,179.8 647.7,178.9 648.5,181.5 649.3,176.4 650.2,178.1 651.0,180.6 651.9,178.1 652.7,178.9 653.5,178.9 654.4,179.8 655.2,180.6 656.1,180.6 656.9,178.9 657.7,180.6 658.6,177.2 659.4,179.8 660.3,178.1 661.1,179.8 662.0,178.1 662.8,178.9 663.6,176.4 664.5,178.1 665.3,178.9 666.2,175.6 667.0,175.6 667.8,178.9 668.7,178.1 669.5,176.4 670.4,181.5 671.2,178.1 672.0,177.2 672.9,177.2 673.7,180.6 674.6,178.1 675.4,178.9 676.2,179.8 677.1,179.8 677.9,178.1 678.8,177.2 679.6,177.2 680.5,178.1 681.3,179.8 682.1,180.6 683.0,177.2 683.8,178.9 684.7,179.8 685.5,177.2 686.3,178.1 687.2,179.8 688.0,178.1 688.9,178.1 689.7,177.2 690.5,178.9 691.4,176.4 692.2,176.4 693.1,176.4 693.9,175.6 694.7,175.6 695.6,177.2 696.4,177.2 697.3,178.1 698.1,177.2 698.9,179.8 699.8,179.8 700.6,176.4 701.5,181.5 702.3,175.6 703.2,175.6 704.0,174.7 704.8,177.2 705.7,176.4 706.5,177.2 707.4,173.9 708.2,177.2 709.0,177.2 709.9,174.7 710.7,173.9 711.6,173.0 712.4,173.0 713.2,173.0 714.1,173.9 714.9,178.9 715.8,178.9 716.6,178.9 717.4,176.4 718.3,174.7 719.1,173.0 720.0,174.7 720.8,175.6 721.7,175.6 722.5,174.7 723.3,173.0 724.2,174.7 725.0,173.9 725.9,170.5 726.7,176.4 727.5,172.2 728.4,171.3 729.2,173.0 730.1,173.0 730.9,172.2 731.7,173.0 732.6,172.2 733.4,173.0 734.3,173.0 735.1,176.4 735.9,175.6 736.8,171.3 737.6,173.9 738.5,173.9 739.3,173.0 740.2,173.0 741.0,173.9 741.8,174.7 742.7,173.9 743.5,173.9 744.4,173.0 745.2,175.6 746.0,172.2 746.9,175.6 747.7,171.3 748.6,170.5 749.4,173.0 750.2,174.7 751.1,170.5 751.9,170.5 752.8,174.7 753.6,170.5 754.4,170.5 755.3,171.3 756.1,171.3 757.0,169.6 757.8,171.3 758.6,166.3 759.5,168.8 760.3,168.8 761.2,168.0 762.0,169.6 762.9,166.3 763.7,165.4 764.5,167.1 765.4,167.1 766.2,167.1 767.1,172.2 767.9,168.8 768.7,168.0 769.6,167.1 770.4,168.0 771.3,169.6 772.1,165.4 772.9,166.3 773.8,168.0 774.6,165.4 775.5,167.1 776.3,168.8 777.1,169.6 778.0,168.0 778.8,168.0 779.7,167.1 780.5,168.0 781.4,168.0 782.2,168.8 783.0,171.3 783.9,168.8 784.7,168.8 785.6,168.0 786.4,166.3 787.2,168.0 788.1,170.5 788.9,169.6 789.8,169.6 790.6,168.8 791.4,166.3 792.3,168.0 793.1,168.0 794.0,167.1 794.8,168.8 795.6,168.0 796.5,168.0 797.3,168.8 798.2,168.0 799.0,166.3 799.8,166.3 800.7,165.4 801.5,168.0 802.4,166.3 803.2,165.4 804.1,166.3 804.9,166.3 805.7,166.3 806.6,168.8 807.4,167.1 808.3,167.1 809.1,169.6 809.9,172.2 810.8,166.3 811.6,166.3 812.5,167.1 813.3,166.3 814.1,164.6 815.0,166.3 815.8,164.6 816.7,166.3 817.5,165.4 818.3,167.1 819.2,166.3 820.0,166.3 820.9,167.1 821.7,163.7 822.6,162.0 823.4,166.3 824.2,163.7 825.1,162.9 825.9,165.4 826.8,165.4 827.6,162.9 828.4,163.7 829.3,163.7 830.1,162.9 831.0,166.3 831.8,162.0 832.6,165.4 833.5,163.7 834.3,164.6 835.2,164.6 836.0,166.3 836.8,167.1 837.7,165.4 838.5,165.4 839.4,164.6 840.2,162.9 841.1,162.9 841.9,162.0 842.7,164.6 843.6,166.3 844.4,166.3 845.3,164.6 846.1,167.1 846.9,164.6 847.8,167.1 848.6,163.7 849.5,165.4 850.3,162.9 851.1,164.6 852.0,165.4 852.8,164.6 853.7,165.4 854.5,165.4 855.3,164.6 856.2,162.9 857.0,163.7 857.9,168.0 858.7,163.7 859.5,167.1 860.4,168.8 861.2,163.7 862.1,164.6 862.9,162.0 863.8,165.4 864.6,168.8 865.4,162.0 866.3,164.6 867.1,166.3 868.0,163.7 868.8,165.4 869.6,163.7 870.5,162.9 871.3,166.3 872.2,162.9 873.0,164.6 873.8,163.7 874.7,162.9 875.5,165.4 876.4,163.7 877.2,162.9 878.0,162.9 878.9,164.6 879.7,164.6 880.6,162.9 881.4,165.4 882.3,162.9 883.1,162.9 883.9,165.4 884.8,166.3 885.6,163.7 886.5,165.4 887.3,167.1 888.1,164.6 889.0,165.4 889.8,165.4 890.7,161.2 891.5,163.7 892.3,165.4 893.2,160.4 894.0,161.2 894.9,163.7 895.7,159.5 896.5,162.0 897.4,162.9 898.2,160.4 899.1,162.0 899.9,162.0 900.8,164.6 901.6,162.9 902.4,161.2 903.3,166.3 904.1,162.9 905.0,160.4 905.8,165.4 906.6,162.9 907.5,161.2 908.3,161.2 909.2,162.0 910.0,164.6"/>
<line x1="730" y1="98" x2="754" y2="98" stroke="#dc2626" stroke-width="3"/>
<text x="762" y="103" font-family="Arial" font-size="13" fill="#111827">Epsilon 0.01</text>
<polyline fill="none" stroke="#9333ea" stroke-width="2.2" points="70.0,400.2 70.8,362.2 71.7,342.8 72.5,319.1 73.4,317.4 74.2,289.6 75.0,288.7 75.9,286.2 76.7,275.2 77.6,268.4 78.4,257.5 79.2,257.5 80.1,256.6 80.9,254.9 81.8,247.3 82.6,253.2 83.5,241.4 84.3,233.8 85.1,237.2 86.0,229.6 86.8,235.5 87.7,229.6 88.5,230.4 89.3,232.1 90.2,231.3 91.0,227.9 91.9,228.8 92.7,217.8 93.5,228.8 94.4,231.3 95.2,218.6 96.1,227.9 96.9,216.1 97.7,216.9 98.6,220.3 99.4,209.3 100.3,219.5 101.1,218.6 102.0,222.0 102.8,210.2 103.6,211.0 104.5,216.1 105.3,208.5 106.2,209.3 107.0,219.5 107.8,215.2 108.7,213.6 109.5,222.0 110.4,216.1 111.2,210.2 112.0,205.1 112.9,207.6 113.7,218.6 114.6,209.3 115.4,206.0 116.2,201.7 117.1,206.8 117.9,199.2 118.8,197.5 119.6,201.7 120.5,194.1 121.3,194.1 122.1,201.7 123.0,195.0 123.8,206.0 124.7,192.4 125.5,200.9 126.3,203.4 127.2,195.0 128.0,198.4 128.9,192.4 129.7,205.1 130.5,204.3 131.4,195.8 132.2,196.7 133.1,196.7 133.9,195.0 134.7,189.1 135.6,195.8 136.4,199.2 137.3,200.0 138.1,188.2 138.9,195.8 139.8,195.0 140.6,201.7 141.5,190.8 142.3,190.8 143.2,188.2 144.0,188.2 144.8,196.7 145.7,193.3 146.5,193.3 147.4,189.9 148.2,191.6 149.0,187.4 149.9,191.6 150.7,193.3 151.6,195.0 152.4,195.0 153.2,180.6 154.1,191.6 154.9,191.6 155.8,179.8 156.6,189.9 157.4,180.6 158.3,189.9 159.1,194.1 160.0,185.7 160.8,184.8 161.7,184.0 162.5,176.4 163.3,178.1 164.2,191.6 165.0,178.9 165.9,180.6 166.7,184.0 167.5,188.2 168.4,173.0 169.2,184.8 170.1,173.9 170.9,178.9 171.7,173.9 172.6,176.4 173.4,180.6 174.3,181.5 175.1,178.9 175.9,171.3 176.8,175.6 177.6,175.6 178.5,173.0 179.3,172.2 180.2,176.4 181.0,175.6 181.8,177.2 182.7,180.6 183.5,183.2 184.4,166.3 185.2,174.7 186.0,175.6 186.9,164.6 187.7,173.0 188.6,173.0 189.4,168.8 190.2,172.2 191.1,172.2 191.9,168.8 192.8,168.0 193.6,168.8 194.4,162.9 195.3,169.6 196.1,162.9 197.0,169.6 197.8,166.3 198.6,165.4 199.5,168.0 200.3,166.3 201.2,162.9 202.0,168.8 202.9,166.3 203.7,167.1 204.5,167.1 205.4,169.6 206.2,165.4 207.1,162.0 207.9,164.6 208.7,161.2 209.6,159.5 210.4,160.4 211.3,159.5 212.1,166.3 212.9,159.5 213.8,163.7 214.6,164.6 215.5,164.6 216.3,162.9 217.1,162.0 218.0,163.7 218.8,167.1 219.7,159.5 220.5,152.8 221.4,163.7 222.2,151.9 223.0,156.1 223.9,167.1 224.7,160.4 225.6,158.7 226.4,152.8 227.2,156.1 228.1,165.4 228.9,155.3 229.8,151.1 230.6,153.6 231.4,152.8 232.3,169.6 233.1,153.6 234.0,156.1 234.8,163.7 235.6,148.5 236.5,146.8 237.3,151.9 238.2,153.6 239.0,150.2 239.8,160.4 240.7,163.7 241.5,146.8 242.4,146.0 243.2,157.0 244.1,160.4 244.9,163.7 245.7,152.8 246.6,157.8 247.4,165.4 248.3,155.3 249.1,163.7 249.9,151.9 250.8,163.7 251.6,160.4 252.5,157.8 253.3,156.1 254.1,151.1 255.0,155.3 255.8,160.4 256.7,154.4 257.5,147.7 258.3,158.7 259.2,157.0 260.0,149.4 260.9,143.5 261.7,150.2 262.6,157.8 263.4,155.3 264.2,154.4 265.1,165.4 265.9,153.6 266.8,152.8 267.6,155.3 268.4,153.6 269.3,150.2 270.1,157.8 271.0,153.6 271.8,163.7 272.6,151.9 273.5,160.4 274.3,149.4 275.2,152.8 276.0,155.3 276.8,152.8 277.7,159.5 278.5,151.9 279.4,145.2 280.2,146.0 281.1,147.7 281.9,151.9 282.7,148.5 283.6,151.9 284.4,153.6 285.3,148.5 286.1,157.0 286.9,157.0 287.8,153.6 288.6,146.8 289.5,147.7 290.3,146.8 291.1,152.8 292.0,156.1 292.8,152.8 293.7,151.1 294.5,146.0 295.3,153.6 296.2,146.0 297.0,145.2 297.9,149.4 298.7,154.4 299.5,141.8 300.4,143.5 301.2,141.8 302.1,152.8 302.9,137.6 303.8,150.2 304.6,151.1 305.4,154.4 306.3,150.2 307.1,145.2 308.0,145.2 308.8,143.5 309.6,145.2 310.5,151.1 311.3,144.3 312.2,147.7 313.0,146.8 313.8,151.1 314.7,158.7 315.5,153.6 316.4,154.4 317.2,150.2 318.0,138.4 318.9,144.3 319.7,148.5 320.6,157.8 321.4,155.3 322.3,143.5 323.1,142.6 323.9,145.2 324.8,145.2 325.6,148.5 326.5,148.5 327.3,144.3 328.1,154.4 329.0,152.8 329.8,147.7 330.7,136.7 331.5,141.8 332.3,149.4 333.2,146.0 334.0,141.8 334.9,155.3 335.7,139.2 336.5,140.9 337.4,141.8 338.2,143.5 339.1,149.4 339.9,146.8 340.8,148.5 341.6,146.0 342.4,136.7 343.3,135.0 344.1,152.8 345.0,135.9 345.8,149.4 346.6,143.5 347.5,145.2 348.3,148.5 349.2,146.8 350.0,141.8 350.8,139.2 351.7,147.7 352.5,142.6 353.4,132.5 354.2,142.6 355.0,145.2 355.9,144.3 356.7,148.5 357.6,145.2 358.4,142.6 359.2,146.8 360.1,141.8 360.9,142.6 361.8,143.5 362.6,146.0 363.5,137.6 364.3,140.9 365.1,136.7 366.0,144.3 366.8,132.5 367.7,145.2 368.5,150.2 369.3,140.1 370.2,145.2 371.0,142.6 371.9,137.6 372.7,134.2 373.5,141.8 374.4,147.7 375.2,135.0 376.1,143.5 376.9,146.8 377.7,140.1 378.6,140.9 379.4,142.6 380.3,136.7 381.1,139.2 382.0,137.6 382.8,149.4 383.6,148.5 384.5,146.0 385.3,144.3 386.2,146.8 387.0,140.9 387.8,141.8 388.7,140.1 389.5,145.2 390.4,146.0 391.2,134.2 392.0,141.8 392.9,136.7 393.7,130.0 394.6,131.6 395.4,137.6 396.2,144.3 397.1,147.7 397.9,146.0 398.8,138.4 399.6,135.0 400.5,146.0 401.3,134.2 402.1,136.7 403.0,135.0 403.8,146.8 404.7,136.7 405.5,133.3 406.3,138.4 407.2,146.8 408.0,140.1 408.9,150.2 409.7,151.9 410.5,137.6 411.4,136.7 412.2,144.3 413.1,135.0 413.9,142.6 414.7,134.2 415.6,136.7 416.4,140.1 417.3,144.3 418.1,150.2 418.9,141.8 419.8,138.4 420.6,134.2 421.5,140.1 422.3,151.1 423.2,140.9 424.0,140.1 424.8,141.8 425.7,140.1 426.5,142.6 427.4,148.5 428.2,150.2 429.0,145.2 429.9,137.6 430.7,128.3 431.6,138.4 432.4,149.4 433.2,132.5 434.1,150.2 434.9,136.7 435.8,138.4 436.6,140.9 437.4,137.6 438.3,146.8 439.1,142.6 440.0,139.2 440.8,149.4 441.7,139.2 442.5,140.9 443.3,133.3 444.2,142.6 445.0,143.5 445.9,140.1 446.7,141.8 447.5,142.6 448.4,139.2 449.2,133.3 450.1,146.0 450.9,142.6 451.7,136.7 452.6,146.8 453.4,134.2 454.3,145.2 455.1,139.2 455.9,151.9 456.8,137.6 457.6,141.8 458.5,153.6 459.3,139.2 460.2,140.1 461.0,133.3 461.8,140.1 462.7,136.7 463.5,130.8 464.4,131.6 465.2,136.7 466.0,139.2 466.9,136.7 467.7,141.8 468.6,141.8 469.4,144.3 470.2,147.7 471.1,135.0 471.9,147.7 472.8,141.8 473.6,135.9 474.4,128.3 475.3,148.5 476.1,140.9 477.0,151.9 477.8,144.3 478.6,140.1 479.5,137.6 480.3,128.3 481.2,138.4 482.0,138.4 482.9,146.0 483.7,136.7 484.5,138.4 485.4,134.2 486.2,139.2 487.1,138.4 487.9,138.4 488.7,140.9 489.6,135.9 490.4,131.6 491.3,133.3 492.1,133.3 492.9,133.3 493.8,134.2 494.6,134.2 495.5,135.0 496.3,130.8 497.1,136.7 498.0,139.2 498.8,132.5 499.7,140.1 500.5,133.3 501.4,136.7 502.2,144.3 503.0,135.9 503.9,132.5 504.7,140.1 505.6,137.6 506.4,135.0 507.2,140.1 508.1,146.8 508.9,136.7 509.8,147.7 510.6,134.2 511.4,130.0 512.3,141.8 513.1,140.9 514.0,130.0 514.8,133.3 515.6,130.0 516.5,151.9 517.3,134.2 518.2,140.1 519.0,133.3 519.8,143.5 520.7,137.6 521.5,139.2 522.4,130.0 523.2,129.1 524.1,132.5 524.9,135.9 525.7,142.6 526.6,133.3 527.4,133.3 528.3,141.8 529.1,134.2 529.9,135.9 530.8,140.9 531.6,135.0 532.5,136.7 533.3,135.9 534.1,134.2 535.0,130.8 535.8,134.2 536.7,132.5 537.5,127.4 538.3,141.8 539.2,135.9 540.0,138.4 540.9,130.8 541.7,129.1 542.6,130.0 543.4,135.0 544.2,123.2 545.1,130.0 545.9,131.6 546.8,127.4 547.6,141.8 548.4,129.1 549.3,134.2 550.1,129.1 551.0,136.7 551.8,127.4 552.6,129.1 553.5,135.9 554.3,134.2 555.2,126.6 556.0,127.4 556.8,135.9 557.7,135.0 558.5,130.8 559.4,135.0 560.2,141.8 561.1,133.3 561.9,132.5 562.7,134.2 563.6,129.1 564.4,136.7 565.3,131.6 566.1,134.2 566.9,131.6 567.8,130.0 568.6,125.7 569.5,128.3 570.3,126.6 571.1,124.0 572.0,127.4 572.8,127.4 573.7,130.0 574.5,127.4 575.3,125.7 576.2,130.8 577.0,132.5 577.9,133.3 578.7,124.0 579.5,135.0 580.4,143.5 581.2,133.3 582.1,142.6 582.9,125.7 583.8,119.8 584.6,138.4 585.4,134.2 586.3,133.3 587.1,122.4 588.0,130.0 588.8,128.3 589.6,130.0 590.5,132.5 591.3,126.6 592.2,125.7 593.0,133.3 593.8,130.8 594.7,128.3 595.5,128.3 596.4,128.3 597.2,124.0 598.0,134.2 598.9,135.9 599.7,128.3 600.6,135.9 601.4,126.6 602.3,135.9 603.1,132.5 603.9,126.6 604.8,137.6 605.6,130.8 606.5,119.8 607.3,125.7 608.1,130.8 609.0,124.9 609.8,135.9 610.7,129.1 611.5,135.9 612.3,131.6 613.2,136.7 614.0,131.6 614.9,118.1 615.7,120.7 616.5,132.5 617.4,131.6 618.2,124.9 619.1,127.4 619.9,129.1 620.8,143.5 621.6,135.9 622.4,126.6 623.3,129.1 624.1,135.9 625.0,132.5 625.8,125.7 626.6,119.8 627.5,122.4 628.3,130.8 629.2,123.2 630.0,123.2 630.8,125.7 631.7,129.1 632.5,124.9 633.4,133.3 634.2,131.6 635.0,133.3 635.9,130.0 636.7,122.4 637.6,132.5 638.4,133.3 639.2,129.1 640.1,129.1 640.9,135.0 641.8,130.0 642.6,122.4 643.5,129.1 644.3,130.0 645.1,131.6 646.0,129.1 646.8,134.2 647.7,125.7 648.5,132.5 649.3,130.8 650.2,128.3 651.0,125.7 651.9,130.8 652.7,121.5 653.5,130.8 654.4,126.6 655.2,139.2 656.1,140.1 656.9,135.9 657.7,135.0 658.6,131.6 659.4,125.7 660.3,135.0 661.1,128.3 662.0,135.9 662.8,136.7 663.6,134.2 664.5,130.8 665.3,129.1 666.2,129.1 667.0,124.9 667.8,130.8 668.7,137.6 669.5,122.4 670.4,124.0 671.2,124.9 672.0,128.3 672.9,134.2 673.7,128.3 674.6,124.0 675.4,130.8 676.2,130.8 677.1,119.0 677.9,131.6 678.8,134.2 679.6,131.6 680.5,132.5 681.3,130.0 682.1,134.2 683.0,127.4 683.8,129.1 684.7,130.0 685.5,128.3 686.3,133.3 687.2,141.8 688.0,124.9 688.9,138.4 689.7,130.0 690.5,137.6 691.4,135.0 692.2,135.0 693.1,128.3 693.9,130.0 694.7,129.1 695.6,133.3 696.4,120.7 697.3,131.6 698.1,128.3 698.9,131.6 699.8,121.5 700.6,123.2 701.5,125.7 702.3,135.0 703.2,129.1 704.0,128.3 704.8,136.7 705.7,127.4 706.5,129.1 707.4,124.0 708.2,135.0 709.0,125.7 709.9,135.0 710.7,136.7 711.6,121.5 712.4,137.6 713.2,119.8 714.1,125.7 714.9,124.9 715.8,130.8 716.6,131.6 717.4,129.1 718.3,124.9 719.1,132.5 720.0,131.6 720.8,135.9 721.7,127.4 722.5,122.4 723.3,127.4 724.2,128.3 725.0,134.2 725.9,120.7 726.7,135.9 727.5,127.4 728.4,128.3 729.2,135.0 730.1,119.8 730.9,125.7 731.7,128.3 732.6,130.0 733.4,130.8 734.3,130.8 735.1,131.6 735.9,130.0 736.8,135.0 737.6,130.0 738.5,129.1 739.3,120.7 740.2,129.1 741.0,124.0 741.8,134.2 742.7,135.0 743.5,134.2 744.4,129.1 745.2,124.0 746.0,127.4 746.9,122.4 747.7,139.2 748.6,127.4 749.4,124.0 750.2,128.3 751.1,126.6 751.9,127.4 752.8,132.5 753.6,127.4 754.4,130.8 755.3,127.4 756.1,128.3 757.0,131.6 757.8,118.1 758.6,125.7 759.5,136.7 760.3,120.7 761.2,126.6 762.0,125.7 762.9,135.0 763.7,131.6 764.5,140.1 765.4,128.3 766.2,127.4 767.1,130.8 767.9,123.2 768.7,128.3 769.6,126.6 770.4,128.3 771.3,128.3 772.1,131.6 772.9,125.7 773.8,120.7 774.6,128.3 775.5,121.5 776.3,132.5 777.1,128.3 778.0,135.0 778.8,124.0 779.7,124.9 780.5,129.1 781.4,124.9 782.2,119.8 783.0,130.0 783.9,137.6 784.7,125.7 785.6,137.6 786.4,125.7 787.2,127.4 788.1,127.4 788.9,129.1 789.8,129.1 790.6,128.3 791.4,134.2 792.3,135.9 793.1,131.6 794.0,130.8 794.8,128.3 795.6,127.4 796.5,122.4 797.3,122.4 798.2,130.0 799.0,135.0 799.8,141.8 800.7,125.7 801.5,128.3 802.4,128.3 803.2,129.1 804.1,129.1 804.9,130.8 805.7,122.4 806.6,124.9 807.4,124.9 808.3,127.4 809.1,126.6 809.9,121.5 810.8,130.8 811.6,131.6 812.5,124.9 813.3,132.5 814.1,131.6 815.0,123.2 815.8,125.7 816.7,124.0 817.5,124.0 818.3,125.7 819.2,126.6 820.0,125.7 820.9,121.5 821.7,127.4 822.6,129.1 823.4,131.6 824.2,121.5 825.1,128.3 825.9,136.7 826.8,123.2 827.6,124.9 828.4,129.1 829.3,127.4 830.1,130.8 831.0,120.7 831.8,130.0 832.6,132.5 833.5,132.5 834.3,138.4 835.2,129.1 836.0,124.0 836.8,131.6 837.7,133.3 838.5,135.0 839.4,118.1 840.2,128.3 841.1,115.6 841.9,129.1 842.7,120.7 843.6,124.9 844.4,117.3 845.3,122.4 846.1,136.7 846.9,122.4 847.8,132.5 848.6,127.4 849.5,125.7 850.3,135.9 851.1,124.9 852.0,124.0 852.8,122.4 853.7,122.4 854.5,130.8 855.3,127.4 856.2,122.4 857.0,134.2 857.9,131.6 858.7,124.0 859.5,124.0 860.4,126.6 861.2,128.3 862.1,128.3 862.9,127.4 863.8,122.4 864.6,131.6 865.4,131.6 866.3,135.9 867.1,122.4 868.0,121.5 868.8,130.0 869.6,130.0 870.5,124.0 871.3,127.4 872.2,120.7 873.0,121.5 873.8,128.3 874.7,119.8 875.5,119.0 876.4,121.5 877.2,124.9 878.0,135.9 878.9,121.5 879.7,124.0 880.6,128.3 881.4,132.5 882.3,128.3 883.1,124.9 883.9,126.6 884.8,130.8 885.6,125.7 886.5,129.1 887.3,132.5 888.1,129.1 889.0,131.6 889.8,115.6 890.7,124.9 891.5,123.2 892.3,127.4 893.2,126.6 894.0,122.4 894.9,131.6 895.7,124.9 896.5,128.3 897.4,121.5 898.2,125.7 899.1,128.3 899.9,126.6 900.8,126.6 901.6,126.6 902.4,128.3 903.3,127.4 904.1,131.6 905.0,125.7 905.8,131.6 906.6,124.0 907.5,131.6 908.3,127.4 909.2,118.1 910.0,126.6"/>
<line x1="730" y1="120" x2="754" y2="120" stroke="#9333ea" stroke-width="3"/>
<text x="762" y="125" font-family="Arial" font-size="13" fill="#111827">Epsilon 0.10</text>
<polyline fill="none" stroke="#ea580c" stroke-width="2.2" points="70.0,416.2 70.8,395.1 71.7,412.8 72.5,398.5 73.4,416.2 74.2,265.9 75.0,282.8 75.9,309.8 76.7,287.0 77.6,274.4 78.4,292.1 79.2,288.7 80.1,277.7 80.9,270.1 81.8,255.8 82.6,278.6 83.5,275.2 84.3,279.4 85.1,260.0 86.0,254.1 86.8,247.3 87.7,235.5 88.5,256.6 89.3,246.5 90.2,233.0 91.0,240.6 91.9,233.0 92.7,231.3 93.5,244.0 94.4,237.2 95.2,225.4 96.1,234.7 96.9,244.0 97.7,233.8 98.6,232.1 99.4,222.8 100.3,219.5 101.1,230.4 102.0,226.2 102.8,223.7 103.6,233.0 104.5,221.2 105.3,209.3 106.2,217.8 107.0,211.9 107.8,227.1 108.7,223.7 109.5,216.1 110.4,213.6 111.2,212.7 112.0,216.1 112.9,211.9 113.7,212.7 114.6,212.7 115.4,206.0 116.2,216.1 117.1,206.8 117.9,213.6 118.8,208.5 119.6,196.7 120.5,201.7 121.3,189.1 122.1,199.2 123.0,189.1 123.8,200.0 124.7,184.8 125.5,186.5 126.3,185.7 127.2,192.4 128.0,201.7 128.9,199.2 129.7,195.0 130.5,186.5 131.4,187.4 132.2,192.4 133.1,178.1 133.9,176.4 134.7,178.1 135.6,177.2 136.4,177.2 137.3,182.3 138.1,190.8 138.9,184.8 139.8,175.6 140.6,183.2 141.5,194.1 142.3,191.6 143.2,196.7 144.0,193.3 144.8,185.7 145.7,184.8 146.5,180.6 147.4,184.0 148.2,173.0 149.0,184.0 149.9,189.9 150.7,184.8 151.6,184.0 152.4,176.4 153.2,173.9 154.1,173.9 154.9,173.0 155.8,165.4 156.6,177.2 157.4,180.6 158.3,177.2 159.1,185.7 160.0,173.0 160.8,178.9 161.7,181.5 162.5,183.2 163.3,174.7 164.2,178.9 165.0,174.7 165.9,161.2 166.7,167.1 167.5,168.0 168.4,167.1 169.2,162.9 170.1,169.6 170.9,173.0 171.7,168.0 172.6,162.0 173.4,164.6 174.3,174.7 175.1,168.8 175.9,177.2 176.8,178.1 177.6,176.4 178.5,179.8 179.3,175.6 180.2,175.6 181.0,167.1 181.8,178.9 182.7,177.2 183.5,170.5 184.4,177.2 185.2,191.6 186.0,174.7 186.9,167.1 187.7,174.7 188.6,170.5 189.4,175.6 190.2,171.3 191.1,175.6 191.9,170.5 192.8,173.9 193.6,178.1 194.4,172.2 195.3,177.2 196.1,173.0 197.0,172.2 197.8,172.2 198.6,184.0 199.5,173.9 200.3,178.9 201.2,172.2 202.0,161.2 202.9,161.2 203.7,170.5 204.5,164.6 205.4,160.4 206.2,168.8 207.1,172.2 207.9,172.2 208.7,181.5 209.6,167.1 210.4,164.6 211.3,170.5 212.1,170.5 212.9,173.0 213.8,168.0 214.6,162.0 215.5,162.0 216.3,163.7 217.1,158.7 218.0,160.4 218.8,159.5 219.7,161.2 220.5,165.4 221.4,162.0 222.2,172.2 223.0,176.4 223.9,174.7 224.7,168.8 225.6,158.7 226.4,165.4 227.2,176.4 228.1,173.9 228.9,164.6 229.8,160.4 230.6,160.4 231.4,157.0 232.3,155.3 233.1,160.4 234.0,170.5 234.8,156.1 235.6,156.1 236.5,167.1 237.3,162.0 238.2,156.1 239.0,157.8 239.8,162.0 240.7,148.5 241.5,153.6 242.4,157.0 243.2,158.7 244.1,145.2 244.9,144.3 245.7,147.7 246.6,152.8 247.4,160.4 248.3,145.2 249.1,151.1 249.9,148.5 250.8,158.7 251.6,143.5 252.5,148.5 253.3,155.3 254.1,157.8 255.0,160.4 255.8,156.1 256.7,149.4 257.5,147.7 258.3,156.1 259.2,156.1 260.0,156.1 260.9,151.1 261.7,151.9 262.6,157.0 263.4,155.3 264.2,157.0 265.1,148.5 265.9,154.4 266.8,159.5 267.6,151.1 268.4,156.1 269.3,156.1 270.1,148.5 271.0,141.8 271.8,150.2 272.6,147.7 273.5,151.1 274.3,140.9 275.2,131.6 276.0,141.8 276.8,147.7 277.7,147.7 278.5,153.6 279.4,144.3 280.2,144.3 281.1,151.9 281.9,151.9 282.7,169.6 283.6,159.5 284.4,151.1 285.3,155.3 286.1,151.1 286.9,151.9 287.8,149.4 288.6,151.1 289.5,147.7 290.3,156.1 291.1,146.8 292.0,143.5 292.8,148.5 293.7,151.9 294.5,146.8 295.3,155.3 296.2,152.8 297.0,146.8 297.9,151.9 298.7,161.2 299.5,148.5 300.4,156.1 301.2,156.1 302.1,157.8 302.9,150.2 303.8,147.7 304.6,153.6 305.4,157.0 306.3,157.0 307.1,152.8 308.0,148.5 308.8,149.4 309.6,152.8 310.5,157.8 311.3,159.5 312.2,146.8 313.0,147.7 313.8,149.4 314.7,139.2 315.5,148.5 316.4,157.0 317.2,147.7 318.0,153.6 318.9,144.3 319.7,150.2 320.6,146.0 321.4,145.2 322.3,150.2 323.1,159.5 323.9,149.4 324.8,151.1 325.6,157.8 326.5,160.4 327.3,151.9 328.1,144.3 329.0,150.2 329.8,157.8 330.7,158.7 331.5,156.1 332.3,153.6 333.2,144.3 334.0,143.5 334.9,143.5 335.7,143.5 336.5,149.4 337.4,147.7 338.2,152.8 339.1,152.8 339.9,151.9 340.8,150.2 341.6,142.6 342.4,147.7 343.3,151.1 344.1,148.5 345.0,140.1 345.8,137.6 346.6,141.8 347.5,142.6 348.3,138.4 349.2,136.7 350.0,137.6 350.8,145.2 351.7,152.8 352.5,147.7 353.4,144.3 354.2,147.7 355.0,145.2 355.9,141.8 356.7,142.6 357.6,143.5 358.4,146.0 359.2,140.1 360.1,138.4 360.9,137.6 361.8,133.3 362.6,134.2 363.5,136.7 364.3,137.6 365.1,137.6 366.0,138.4 366.8,137.6 367.7,139.2 368.5,147.7 369.3,139.2 370.2,140.1 371.0,138.4 371.9,137.6 372.7,143.5 373.5,141.8 374.4,137.6 375.2,143.5 376.1,140.1 376.9,143.5 377.7,145.2 378.6,139.2 379.4,138.4 380.3,150.2 381.1,150.2 382.0,140.1 382.8,145.2 383.6,140.1 384.5,137.6 385.3,135.9 386.2,135.0 387.0,130.8 387.8,140.1 388.7,137.6 389.5,140.9 390.4,135.9 391.2,132.5 392.0,136.7 392.9,127.4 393.7,124.0 394.6,125.7 395.4,135.9 396.2,124.9 397.1,131.6 397.9,125.7 398.8,131.6 399.6,130.8 400.5,124.0 401.3,126.6 402.1,126.6 403.0,135.0 403.8,131.6 404.7,134.2 405.5,135.0 406.3,135.0 407.2,137.6 408.0,136.7 408.9,129.1 409.7,131.6 410.5,137.6 411.4,135.9 412.2,132.5 413.1,134.2 413.9,138.4 414.7,131.6 415.6,137.6 416.4,140.1 417.3,138.4 418.1,133.3 418.9,129.1 419.8,133.3 420.6,143.5 421.5,140.1 422.3,135.0 423.2,135.0 424.0,130.8 424.8,133.3 425.7,135.0 426.5,130.8 427.4,140.9 428.2,138.4 429.0,136.7 429.9,140.9 430.7,140.9 431.6,138.4 432.4,135.9 433.2,130.0 434.1,134.2 434.9,127.4 435.8,135.9 436.6,125.7 437.4,128.3 438.3,131.6 439.1,124.9 440.0,131.6 440.8,135.9 441.7,135.0 442.5,130.8 443.3,134.2 444.2,129.1 445.0,124.9 445.9,129.1 446.7,129.1 447.5,123.2 448.4,129.1 449.2,129.1 450.1,126.6 450.9,129.1 451.7,131.6 452.6,130.0 453.4,130.8 454.3,130.8 455.1,131.6 455.9,129.1 456.8,116.4 457.6,128.3 458.5,132.5 459.3,130.8 460.2,126.6 461.0,134.2 461.8,139.2 462.7,138.4 463.5,133.3 464.4,128.3 465.2,135.0 466.0,140.9 466.9,135.9 467.7,136.7 468.6,129.1 469.4,133.3 470.2,138.4 471.1,137.6 471.9,139.2 472.8,135.0 473.6,133.3 474.4,130.8 475.3,128.3 476.1,125.7 477.0,129.1 477.8,133.3 478.6,131.6 479.5,136.7 480.3,136.7 481.2,137.6 482.0,142.6 482.9,140.1 483.7,138.4 484.5,135.0 485.4,134.2 486.2,125.7 487.1,133.3 487.9,131.6 488.7,138.4 489.6,133.3 490.4,134.2 491.3,138.4 492.1,131.6 492.9,135.0 493.8,133.3 494.6,129.1 495.5,136.7 496.3,126.6 497.1,135.9 498.0,137.6 498.8,139.2 499.7,130.8 500.5,130.0 501.4,126.6 502.2,128.3 503.0,132.5 503.9,132.5 504.7,135.0 505.6,134.2 506.4,138.4 507.2,137.6 508.1,146.8 508.9,139.2 509.8,138.4 510.6,134.2 511.4,135.0 512.3,135.9 513.1,132.5 514.0,138.4 514.8,131.6 515.6,133.3 516.5,140.9 517.3,135.0 518.2,131.6 519.0,132.5 519.8,132.5 520.7,134.2 521.5,134.2 522.4,128.3 523.2,130.0 524.1,128.3 524.9,123.2 525.7,121.5 526.6,119.0 527.4,118.1 528.3,115.6 529.1,124.0 529.9,113.1 530.8,119.8 531.6,118.1 532.5,126.6 533.3,131.6 534.1,129.1 535.0,125.7 535.8,124.0 536.7,128.3 537.5,132.5 538.3,130.8 539.2,121.5 540.0,124.9 540.9,127.4 541.7,127.4 542.6,124.0 543.4,126.6 544.2,122.4 545.1,127.4 545.9,130.0 546.8,126.6 547.6,126.6 548.4,131.6 549.3,124.0 550.1,120.7 551.0,124.0 551.8,124.0 552.6,119.0 553.5,127.4 554.3,122.4 555.2,118.1 556.0,124.0 556.8,126.6 557.7,126.6 558.5,130.0 559.4,125.7 560.2,125.7 561.1,123.2 561.9,119.0 562.7,118.1 563.6,128.3 564.4,133.3 565.3,130.0 566.1,128.3 566.9,132.5 567.8,134.2 568.6,130.8 569.5,130.0 570.3,128.3 571.1,128.3 572.0,124.0 572.8,126.6 573.7,126.6 574.5,125.7 575.3,131.6 576.2,127.4 577.0,125.7 577.9,125.7 578.7,127.4 579.5,130.0 580.4,121.5 581.2,132.5 582.1,123.2 582.9,124.0 583.8,120.7 584.6,124.0 585.4,123.2 586.3,119.0 587.1,121.5 588.0,128.3 588.8,123.2 589.6,119.8 590.5,116.4 591.3,118.1 592.2,121.5 593.0,115.6 593.8,127.4 594.7,124.9 595.5,121.5 596.4,119.0 597.2,122.4 598.0,124.9 598.9,126.6 599.7,119.0 600.6,123.2 601.4,119.8 602.3,123.2 603.1,126.6 603.9,124.9 604.8,126.6 605.6,124.0 606.5,121.5 607.3,123.2 608.1,122.4 609.0,119.0 609.8,129.1 610.7,120.7 611.5,121.5 612.3,122.4 613.2,130.8 614.0,122.4 614.9,124.9 615.7,124.0 616.5,126.6 617.4,124.0 618.2,127.4 619.1,130.0 619.9,133.3 620.8,124.0 621.6,130.0 622.4,131.6 623.3,124.9 624.1,129.1 625.0,126.6 625.8,122.4 626.6,119.8 627.5,119.8 628.3,112.2 629.2,106.3 630.0,115.6 630.8,108.0 631.7,111.4 632.5,118.1 633.4,122.4 634.2,121.5 635.0,119.8 635.9,111.4 636.7,122.4 637.6,120.7 638.4,119.0 639.2,113.9 640.1,118.1 640.9,116.4 641.8,121.5 642.6,115.6 643.5,119.0 644.3,123.2 645.1,125.7 646.0,126.6 646.8,121.5 647.7,118.1 648.5,113.9 649.3,115.6 650.2,116.4 651.0,114.8 651.9,115.6 652.7,113.9 653.5,110.5 654.4,109.7 655.2,116.4 656.1,115.6 656.9,113.1 657.7,117.3 658.6,112.2 659.4,116.4 660.3,114.8 661.1,118.1 662.0,111.4 662.8,111.4 663.6,109.7 664.5,115.6 665.3,107.2 666.2,113.9 667.0,111.4 667.8,114.8 668.7,113.1 669.5,119.0 670.4,124.0 671.2,122.4 672.0,113.1 672.9,119.0 673.7,117.3 674.6,124.9 675.4,116.4 676.2,113.9 677.1,117.3 677.9,113.9 678.8,113.1 679.6,117.3 680.5,120.7 681.3,119.0 682.1,129.1 683.0,120.7 683.8,118.1 684.7,120.7 685.5,119.0 686.3,119.0 687.2,118.1 688.0,117.3 688.9,121.5 689.7,119.8 690.5,116.4 691.4,117.3 692.2,125.7 693.1,117.3 693.9,124.0 694.7,122.4 695.6,126.6 696.4,120.7 697.3,116.4 698.1,119.0 698.9,120.7 699.8,117.3 700.6,118.1 701.5,124.9 702.3,119.0 703.2,119.8 704.0,117.3 704.8,114.8 705.7,121.5 706.5,115.6 707.4,119.0 708.2,118.1 709.0,113.9 709.9,124.0 710.7,120.7 711.6,121.5 712.4,120.7 713.2,125.7 714.1,127.4 714.9,129.1 715.8,125.7 716.6,119.8 717.4,123.2 718.3,122.4 719.1,123.2 720.0,126.6 720.8,129.1 721.7,130.0 722.5,120.7 723.3,120.7 724.2,121.5 725.0,125.7 725.9,128.3 726.7,124.0 727.5,123.2 728.4,120.7 729.2,124.0 730.1,119.8 730.9,119.0 731.7,122.4 732.6,124.9 733.4,123.2 734.3,128.3 735.1,128.3 735.9,125.7 736.8,126.6 737.6,123.2 738.5,124.0 739.3,123.2 740.2,124.0 741.0,124.9 741.8,120.7 742.7,123.2 743.5,121.5 744.4,123.2 745.2,124.0 746.0,127.4 746.9,124.9 747.7,123.2 748.6,124.0 749.4,122.4 750.2,125.7 751.1,126.6 751.9,118.1 752.8,121.5 753.6,119.8 754.4,119.0 755.3,120.7 756.1,119.0 757.0,117.3 757.8,116.4 758.6,114.8 759.5,121.5 760.3,115.6 761.2,113.1 762.0,116.4 762.9,116.4 763.7,116.4 764.5,115.6 765.4,118.1 766.2,122.4 767.1,120.7 767.9,122.4 768.7,123.2 769.6,130.0 770.4,124.0 771.3,123.2 772.1,120.7 772.9,129.1 773.8,124.0 774.6,130.0 775.5,129.1 776.3,123.2 777.1,128.3 778.0,124.9 778.8,119.0 779.7,118.1 780.5,121.5 781.4,118.1 782.2,119.8 783.0,113.9 783.9,110.5 784.7,117.3 785.6,115.6 786.4,115.6 787.2,115.6 788.1,114.8 788.9,112.2 789.8,119.8 790.6,120.7 791.4,124.0 792.3,118.1 793.1,119.0 794.0,121.5 794.8,125.7 795.6,114.8 796.5,119.8 797.3,121.5 798.2,120.7 799.0,120.7 799.8,116.4 800.7,116.4 801.5,119.0 802.4,124.9 803.2,123.2 804.1,115.6 804.9,119.8 805.7,120.7 806.6,119.0 807.4,120.7 808.3,115.6 809.1,113.1 809.9,111.4 810.8,119.0 811.6,118.1 812.5,122.4 813.3,116.4 814.1,114.8 815.0,119.0 815.8,117.3 816.7,116.4 817.5,115.6 818.3,118.1 819.2,115.6 820.0,123.2 820.9,118.1 821.7,120.7 822.6,118.1 823.4,114.8 824.2,115.6 825.1,115.6 825.9,122.4 826.8,118.1 827.6,112.2 828.4,110.5 829.3,116.4 830.1,114.8 831.0,112.2 831.8,108.0 832.6,107.2 833.5,115.6 834.3,119.0 835.2,116.4 836.0,117.3 836.8,112.2 837.7,109.7 838.5,109.7 839.4,109.7 840.2,114.8 841.1,106.3 841.9,113.1 842.7,114.8 843.6,106.3 844.4,112.2 845.3,112.2 846.1,119.8 846.9,123.2 847.8,121.5 848.6,123.2 849.5,115.6 850.3,116.4 851.1,124.9 852.0,121.5 852.8,121.5 853.7,125.7 854.5,125.7 855.3,123.2 856.2,118.1 857.0,115.6 857.9,118.1 858.7,112.2 859.5,113.1 860.4,113.1 861.2,116.4 862.1,118.1 862.9,120.7 863.8,123.2 864.6,125.7 865.4,124.0 866.3,120.7 867.1,120.7 868.0,118.1 868.8,117.3 869.6,119.0 870.5,119.8 871.3,123.2 872.2,123.2 873.0,114.8 873.8,120.7 874.7,120.7 875.5,117.3 876.4,121.5 877.2,117.3 878.0,124.0 878.9,119.8 879.7,121.5 880.6,119.0 881.4,115.6 882.3,115.6 883.1,116.4 883.9,117.3 884.8,120.7 885.6,126.6 886.5,127.4 887.3,125.7 888.1,123.2 889.0,122.4 889.8,118.1 890.7,110.5 891.5,119.8 892.3,122.4 893.2,124.0 894.0,117.3 894.9,118.1 895.7,118.1 896.5,116.4 897.4,118.1 898.2,113.1 899.1,116.4 899.9,119.0 900.8,116.4 901.6,111.4 902.4,116.4 903.3,113.9 904.1,108.8 905.0,108.8 905.8,105.5 906.6,111.4 907.5,108.8 908.3,108.0 909.2,108.8 910.0,109.7"/>
<line x1="730" y1="142" x2="754" y2="142" stroke="#ea580c" stroke-width="3"/>
<text x="762" y="147" font-family="Arial" font-size="13" fill="#111827">UCB c=2</text>
</svg>